<?xml version="1.0" standalone="no"?>
<!DOCTYPE svg PUBLIC "-//W3C//DTD SVG 20010904//EN"
 "http://www.w3.org/TR/2001/REC-SVG-20010904/DTD/svg10.dtd">
<svg version="1.0" xmlns="http://www.w3.org/2000/svg"
 width="1100.000000pt" height="1100.000000pt" viewBox="0 0 1100.000000 1100.000000"
 preserveAspectRatio="xMidYMid meet">
<metadata>
Created by potrace 1.14, written by Peter Selinger 2001-2017
</metadata>
<g transform="translate(0.000000,1100.000000) scale(0.100000,-0.100000)"
fill="#000000" stroke="none">
<path d="M5290 10186 c-271 -184 -1012 -680 -1024 -685 -5 -2 -16 -10 -25 -17
-9 -7 -122 -84 -251 -170 -1048 -700 -1617 -1080 -1625 -1087 -29 -23 -820
-547 -826 -547 -4 0 -9 -3 -11 -8 -3 -7 -176 -124 -1013 -682 -275 -183 -504
-336 -508 -340 -10 -9 2 -49 74 -250 28 -80 66 -188 84 -240 21 -59 39 -96 49
-98 9 -2 16 1 16 7 0 6 -22 73 -49 148 -88 247 -130 368 -135 393 -6 23 14 39
295 225 165 110 311 207 325 215 35 22 918 614 924 620 3 3 13 10 22 15 10 6
219 145 465 310 247 165 453 302 458 304 6 2 12 7 15 10 6 8 241 165 255 170
5 2 12 7 15 11 3 3 235 160 515 347 1020 680 1702 1137 1756 1176 22 15 39 24
39 20 -1 -5 -30 -28 -66 -53 -63 -44 -160 -114 -659 -473 -137 -100 -266 -192
-286 -206 -163 -115 -205 -146 -209 -151 -3 -3 -43 -33 -90 -66 -47 -33 -168
-120 -270 -194 -102 -73 -223 -161 -270 -194 -47 -33 -86 -64 -88 -68 -2 -4
-10 -8 -18 -8 -8 0 -14 -3 -14 -7 0 -5 -25 -24 -55 -43 -30 -19 -55 -38 -55
-42 0 -5 -6 -8 -14 -8 -8 0 -16 -3 -18 -8 -3 -7 -144 -111 -315 -232 -43 -30
-85 -60 -93 -67 -8 -7 -46 -35 -85 -62 -38 -28 -75 -55 -82 -61 -7 -5 -16 -10
-22 -10 -5 0 -11 -4 -13 -8 -1 -4 -25 -23 -53 -42 -27 -19 -52 -38 -55 -41 -3
-3 -108 -79 -235 -170 -126 -90 -234 -168 -240 -172 -5 -4 -64 -47 -130 -94
-168 -121 -346 -249 -374 -270 -13 -10 -101 -73 -195 -140 -94 -67 -175 -126
-181 -130 -5 -5 -50 -38 -100 -73 -49 -35 -94 -68 -100 -73 -5 -4 -113 -82
-240 -173 -126 -90 -240 -172 -252 -182 -13 -9 -45 -33 -73 -52 -27 -19 -50
-39 -50 -44 0 -4 23 -67 52 -140 29 -72 53 -133 53 -136 4 -22 18 -50 26 -50
23 0 16 34 -36 165 -54 138 -62 165 -47 165 4 0 18 9 32 21 14 11 81 60 150
109 69 49 130 93 135 97 11 10 459 332 520 374 52 37 467 336 480 347 6 4 107
77 225 162 118 85 220 158 225 163 11 9 32 23 365 262 129 93 237 171 240 174
3 4 34 26 70 51 36 24 70 48 75 53 6 4 73 53 150 108 77 55 150 107 162 117
12 9 30 23 40 30 29 20 218 155 244 175 13 9 56 40 94 67 39 27 75 53 80 57
10 8 246 179 329 238 155 110 252 180 256 185 3 3 28 20 55 39 28 19 79 56
115 83 36 26 153 110 260 187 107 77 200 143 205 148 6 5 57 42 115 82 58 41
125 90 150 110 25 19 39 28 31 18 -7 -9 -37 -34 -65 -54 -28 -21 -53 -40 -56
-43 -6 -8 -165 -130 -194 -150 -20 -13 -79 -61 -141 -112 -11 -9 -52 -41 -91
-70 -87 -65 -377 -290 -384 -297 -3 -4 -32 -26 -65 -51 -33 -24 -66 -50 -75
-57 -8 -7 -91 -71 -185 -143 -180 -138 -183 -141 -231 -180 -17 -14 -46 -36
-64 -50 -19 -14 -68 -52 -110 -85 -43 -33 -92 -71 -110 -85 -28 -21 -242 -187
-355 -275 -16 -13 -97 -76 -180 -140 -82 -64 -163 -126 -180 -139 -110 -86
-390 -303 -620 -481 -148 -115 -342 -265 -430 -333 -88 -68 -175 -136 -194
-151 -52 -40 -155 -120 -166 -128 -5 -5 -59 -47 -120 -93 -60 -47 -117 -90
-125 -97 -8 -7 -130 -101 -270 -210 -140 -108 -261 -203 -268 -210 -7 -7 -17
-13 -22 -13 -23 0 -14 -61 17 -109 1 -2 9 -1 17 2 14 5 14 10 0 43 -8 20 -14
37 -12 38 2 1 53 40 113 87 61 47 182 141 270 209 88 68 162 126 165 129 3 3
41 33 85 66 44 33 87 65 95 72 8 7 53 42 100 78 47 36 99 77 115 89 17 13 147
115 290 225 143 111 270 209 282 219 12 9 94 73 183 142 89 69 228 177 309
240 82 63 163 126 181 140 59 45 414 321 435 338 11 9 31 24 45 33 14 9 35 25
46 35 25 22 122 97 274 214 58 44 116 89 130 100 43 34 205 160 215 168 6 4
39 30 75 57 36 28 67 53 70 56 3 3 41 32 85 65 66 50 381 294 435 337 8 7 65
50 125 97 131 101 120 92 171 132 22 18 56 44 74 58 18 14 38 30 44 35 6 6 28
23 49 38 76 57 33 16 -105 -99 -187 -156 -189 -157 -202 -169 -6 -6 -36 -30
-66 -55 -30 -25 -57 -47 -60 -50 -3 -3 -26 -22 -52 -43 -26 -21 -53 -43 -60
-50 -7 -7 -35 -30 -63 -52 -27 -22 -52 -42 -55 -46 -3 -3 -63 -54 -135 -113
-71 -59 -139 -115 -150 -124 -11 -10 -45 -37 -75 -62 -30 -25 -60 -50 -68 -57
-7 -7 -34 -29 -60 -50 -26 -21 -49 -40 -52 -43 -3 -3 -32 -28 -65 -55 -33 -28
-62 -52 -65 -55 -3 -3 -41 -34 -85 -69 -44 -36 -88 -73 -97 -82 -10 -10 -34
-30 -55 -46 -21 -15 -40 -31 -43 -34 -3 -3 -34 -30 -70 -60 -36 -29 -67 -56
-70 -59 -3 -3 -41 -35 -85 -70 -44 -35 -82 -67 -85 -70 -3 -3 -30 -25 -60 -50
-30 -25 -60 -49 -66 -55 -6 -5 -25 -21 -43 -35 -18 -14 -43 -34 -54 -46 -12
-11 -47 -40 -77 -65 -87 -70 -90 -73 -114 -94 -12 -11 -42 -36 -66 -55 -24
-19 -55 -46 -69 -59 -14 -13 -53 -44 -86 -70 -33 -25 -67 -53 -76 -61 -8 -8
-37 -33 -63 -55 -26 -22 -56 -47 -66 -55 -10 -8 -37 -31 -60 -50 -24 -19 -75
-62 -114 -95 -40 -33 -92 -76 -116 -97 -40 -32 -147 -121 -205 -170 -11 -9
-67 -56 -125 -104 -58 -47 -116 -96 -130 -108 -14 -11 -77 -64 -140 -116 -63
-52 -120 -100 -126 -105 -6 -6 -31 -27 -54 -46 -23 -18 -47 -38 -54 -44 -6 -5
-38 -32 -71 -59 -33 -27 -64 -54 -70 -58 -6 -5 4 -7 23 -3 22 4 65 32 120 77
48 40 89 75 92 78 3 3 28 23 55 45 28 21 61 49 75 61 37 33 110 94 159 134 24
19 57 47 75 62 49 42 239 200 284 236 22 18 53 44 69 58 15 14 41 35 56 47 16
12 34 27 41 34 7 6 84 71 172 143 87 73 179 149 204 170 25 21 61 51 80 66 19
16 46 39 60 50 88 75 120 102 154 129 21 17 51 41 66 55 15 14 43 37 61 52 19
14 50 40 69 56 19 16 177 147 350 292 173 144 333 276 355 295 22 18 72 59
110 91 39 32 75 63 81 69 7 5 31 26 54 44 23 19 48 40 54 46 6 5 31 26 56 45
24 19 60 49 80 67 19 17 163 137 320 268 157 130 294 244 305 253 72 60 143
118 193 159 50 41 52 41 17 7 -23 -21 -77 -70 -120 -109 -44 -38 -98 -87 -120
-107 -22 -20 -49 -45 -61 -55 -11 -10 -49 -43 -84 -73 -34 -30 -77 -68 -94
-85 -18 -16 -70 -64 -116 -105 -73 -64 -128 -113 -174 -155 -6 -5 -51 -46
-101 -90 -49 -44 -92 -82 -95 -85 -3 -3 -41 -37 -85 -75 -43 -39 -88 -79 -100
-90 -11 -11 -56 -52 -100 -90 -44 -39 -89 -79 -101 -90 -18 -18 -65 -59 -224
-200 -24 -22 -50 -44 -56 -50 -6 -5 -46 -41 -89 -80 -43 -38 -88 -79 -101 -90
-21 -19 -149 -134 -184 -165 -9 -8 -50 -44 -90 -80 -40 -36 -85 -76 -99 -89
-14 -12 -57 -51 -96 -85 -38 -33 -83 -74 -100 -90 -26 -25 -111 -100 -171
-153 -12 -10 -52 -46 -90 -80 -38 -34 -80 -71 -94 -83 -14 -12 -41 -36 -60
-54 -19 -17 -78 -70 -130 -116 -52 -47 -104 -94 -116 -105 -20 -19 -135 -122
-178 -158 -21 -18 -33 -29 -172 -153 -148 -134 -148 -134 -118 -134 17 0 39
17 152 118 40 36 85 76 100 90 15 13 45 40 67 60 22 21 69 62 104 92 34 30 82
73 106 95 44 41 55 52 190 170 44 38 82 72 85 76 3 3 70 63 150 134 80 71 150
134 156 139 6 6 44 40 84 76 41 36 78 70 84 76 6 5 36 32 66 59 30 26 91 80
134 119 43 39 87 78 96 86 46 41 166 147 180 160 9 8 36 33 60 54 25 21 68 60
95 85 28 25 88 80 135 121 47 41 90 79 96 85 6 5 41 37 79 70 37 33 73 65 79
70 24 23 135 123 201 180 37 33 80 71 95 85 40 37 169 152 214 191 21 19 51
45 66 59 33 30 176 159 200 180 53 47 154 136 164 145 6 6 56 51 111 99 l100
89 -106 -104 c-58 -57 -183 -178 -278 -269 -213 -203 -294 -281 -442 -424 -63
-61 -167 -160 -230 -221 -146 -139 -509 -487 -564 -540 -23 -22 -125 -120
-226 -217 -101 -97 -209 -200 -239 -229 -61 -57 -275 -263 -726 -695 -109
-106 -246 -237 -304 -292 -57 -56 -101 -104 -97 -109 16 -16 23 -9 492 442 35
33 138 132 230 220 92 88 197 189 235 225 86 83 420 403 485 465 28 26 135
129 239 229 104 99 214 206 246 236 32 30 138 132 236 226 99 95 204 196 235
225 200 191 415 397 494 474 51 50 115 110 141 135 l49 45 -51 -55 c-28 -30
-89 -94 -135 -141 -46 -47 -201 -207 -344 -354 -143 -148 -296 -305 -340 -350
-126 -129 -625 -641 -710 -730 -71 -73 -530 -545 -750 -770 -334 -343 -550
-568 -553 -575 -2 -4 2 -11 8 -15 11 -7 47 29 500 496 241 248 423 434 700
719 116 119 608 624 705 725 48 50 211 217 362 371 151 155 313 322 360 370
109 113 97 89 -21 -41 -50 -55 -95 -105 -101 -111 -16 -18 -157 -173 -194
-213 -18 -20 -63 -69 -100 -110 -36 -41 -79 -89 -96 -106 -16 -18 -61 -67
-100 -110 -38 -44 -81 -91 -95 -105 -21 -22 -96 -105 -195 -215 -11 -13 -56
-62 -100 -110 -44 -48 -87 -96 -95 -105 -8 -10 -50 -55 -92 -101 -42 -46 -85
-93 -95 -105 -23 -27 -169 -188 -208 -230 -35 -38 -163 -178 -187 -206 -9 -11
-53 -59 -98 -108 -45 -49 -90 -98 -100 -110 -10 -12 -52 -58 -93 -103 -42 -45
-84 -91 -94 -103 -18 -22 -154 -172 -208 -230 -60 -65 -171 -187 -192 -212
-16 -19 -19 -28 -10 -34 12 -8 45 23 193 188 40 43 84 93 99 109 15 17 48 53
74 81 25 28 87 95 136 149 50 54 104 114 120 133 17 19 41 47 55 61 14 14 70
76 125 136 54 61 104 115 110 121 5 6 39 44 75 84 36 40 79 87 95 105 17 17
59 65 95 105 36 40 79 88 95 105 17 17 59 65 95 105 36 40 79 87 95 104 32 34
186 204 220 241 48 55 162 181 185 205 25 27 172 188 200 220 23 26 169 187
226 249 28 31 73 82 100 113 27 31 53 57 57 57 5 1 -13 -25 -40 -56 -137 -161
-272 -321 -289 -341 -10 -13 -28 -34 -39 -46 -11 -13 -36 -42 -55 -65 -19 -24
-44 -53 -55 -66 -22 -25 -36 -42 -110 -130 -27 -33 -52 -62 -55 -65 -3 -3 -64
-75 -135 -160 -71 -85 -134 -160 -140 -166 -5 -6 -28 -32 -50 -59 -22 -26 -45
-53 -50 -59 -11 -11 -154 -181 -190 -224 -11 -14 -24 -30 -30 -36 -5 -6 -32
-38 -60 -71 -27 -33 -52 -62 -55 -65 -6 -5 -152 -179 -180 -214 -8 -10 -20
-24 -27 -30 -6 -7 -35 -42 -64 -77 -29 -35 -55 -66 -58 -69 -4 -3 -28 -32 -56
-65 -27 -33 -52 -62 -55 -65 -3 -3 -28 -32 -55 -65 -28 -33 -55 -66 -62 -73
-7 -7 -29 -34 -50 -60 -21 -26 -43 -51 -49 -57 -6 -5 -33 -37 -60 -70 -27 -33
-52 -61 -56 -63 -5 -2 -8 -10 -8 -18 0 -32 31 -10 98 69 89 104 245 289 297
351 22 27 48 58 58 70 10 11 37 43 60 71 23 27 56 65 73 85 17 19 39 46 50 59
10 13 24 28 29 35 6 6 46 54 90 106 44 52 82 97 85 100 3 3 28 32 55 65 28 33
52 62 55 65 3 3 27 32 54 65 28 33 57 67 65 76 9 9 30 34 48 55 17 22 41 50
53 64 19 22 55 64 119 140 62 72 93 109 126 150 21 25 59 70 85 100 26 30 78
91 114 135 137 163 197 234 255 301 14 17 44 53 66 79 22 27 60 69 84 95 l43
45 -39 -50 c-22 -27 -134 -169 -248 -315 -115 -146 -241 -305 -280 -355 -39
-49 -95 -121 -125 -160 -30 -38 -57 -72 -60 -75 -3 -3 -28 -34 -55 -70 -28
-36 -95 -122 -150 -191 -55 -70 -154 -195 -220 -279 -108 -137 -206 -262 -283
-359 -15 -19 -48 -62 -74 -95 -27 -34 -51 -65 -56 -71 -4 -5 -41 -53 -82 -105
-41 -52 -80 -102 -87 -110 -74 -91 -113 -143 -113 -151 0 -39 62 27 241 261
18 25 42 54 51 65 9 11 65 81 123 155 58 74 111 142 118 150 7 8 37 47 67 85
30 39 97 124 149 190 124 156 153 193 441 560 134 171 287 365 339 431 53 67
110 138 126 159 17 21 35 43 40 49 6 6 32 40 58 75 26 36 47 62 47 58 0 -6
-122 -179 -144 -204 -6 -7 -53 -70 -104 -140 -196 -271 -281 -388 -290 -398
-5 -6 -51 -69 -103 -140 -51 -72 -97 -134 -102 -140 -10 -14 -78 -108 -97
-135 -13 -19 -25 -35 -58 -75 -4 -5 -23 -32 -42 -60 -18 -27 -36 -52 -40 -55
-3 -3 -22 -27 -41 -55 -18 -27 -36 -52 -39 -55 -3 -3 -23 -30 -45 -60 -22 -30
-76 -104 -121 -165 -44 -60 -151 -207 -237 -325 -86 -118 -162 -221 -168 -228
-9 -11 -7 -13 12 -10 18 2 67 62 196 238 95 129 176 240 180 245 5 6 20 26 33
45 14 19 30 42 37 50 6 8 87 119 180 245 92 127 171 235 176 240 4 6 80 109
168 230 88 121 168 231 179 245 10 14 91 124 179 245 192 263 149 204 381 520
130 177 197 259 208 258 35 -4 79 -13 137 -28 33 -8 69 -17 80 -19 40 -10 65
-16 344 -85 155 -39 293 -73 305 -75 11 -3 179 -43 371 -91 751 -185 1265
-311 1305 -320 8 -2 72 -18 142 -35 70 -17 135 -33 145 -35 10 -2 119 -29 243
-61 124 -31 234 -58 245 -60 11 -2 47 -10 80 -19 33 -8 69 -17 80 -19 11 -2
121 -30 245 -61 239 -60 251 -63 290 -71 14 -3 43 -10 65 -16 22 -5 47 -11 56
-13 45 -9 452 -116 499 -132 l55 -18 2 -140 c2 -134 9 -774 18 -1695 2 -239 7
-709 10 -1045 4 -335 8 -770 10 -965 4 -380 6 -675 5 -728 0 -38 26 -25 -265
-131 -121 -44 -296 -107 -390 -141 -93 -35 -224 -82 -290 -105 -66 -24 -331
-121 -590 -215 -258 -95 -517 -189 -575 -210 -58 -21 -148 -54 -200 -73 -52
-19 -135 -49 -185 -67 -49 -17 -99 -36 -110 -40 -11 -5 -78 -30 -150 -55 -264
-95 -343 -124 -495 -180 -85 -31 -168 -61 -185 -67 -16 -5 -39 -14 -50 -18
-11 -5 -78 -30 -150 -55 -153 -55 -303 -110 -435 -158 -52 -19 -147 -53 -210
-76 -63 -23 -122 -45 -130 -48 -8 -3 -19 -7 -25 -9 -5 -1 -61 -21 -124 -44
l-115 -43 -19 24 c-10 13 -26 33 -35 44 -9 11 -35 43 -57 70 -21 28 -42 52
-45 55 -3 3 -22 26 -43 52 -21 26 -44 53 -50 60 -7 7 -31 36 -53 63 -21 28
-47 59 -56 70 -28 33 -172 209 -181 220 -4 6 -16 20 -26 33 -11 13 -34 41 -51
62 -17 21 -40 48 -50 60 -10 12 -33 39 -52 62 -68 84 -241 294 -261 318 -12
14 -38 45 -57 70 -19 25 -37 47 -40 50 -3 3 -25 30 -50 60 -25 30 -51 61 -58
68 -7 8 -25 30 -40 50 -15 20 -34 43 -42 52 -8 9 -31 36 -50 60 -29 36 -116
142 -218 265 -10 11 -57 70 -107 130 -49 61 -92 112 -95 115 -3 3 -34 41 -70
85 -91 112 -103 125 -111 125 -19 0 4 -45 58 -112 32 -40 60 -75 63 -78 5 -4
96 -116 150 -183 8 -10 24 -29 35 -41 11 -13 34 -40 52 -62 33 -42 127 -156
154 -189 72 -86 279 -338 299 -364 14 -17 38 -46 53 -64 16 -18 72 -86 125
-152 53 -66 99 -122 102 -125 4 -3 37 -43 75 -90 38 -47 71 -87 75 -90 3 -3
24 -27 46 -55 22 -27 146 -178 275 -335 128 -157 241 -294 249 -304 8 -10 22
-26 30 -35 8 -9 25 -30 37 -47 l23 -32 -48 -13 c-53 -14 -50 -13 -77 -23 -11
-5 -25 -9 -31 -11 -6 -2 -33 27 -60 63 -27 37 -55 73 -62 81 -8 8 -61 76 -117
150 -181 238 -782 1025 -830 1086 -13 17 -80 104 -149 195 -69 91 -142 185
-161 210 -215 278 -312 405 -322 422 -6 11 -15 23 -20 27 -5 3 -16 17 -25 29
-16 23 -16 23 -22 4 -5 -16 14 -48 80 -134 49 -62 122 -158 163 -213 42 -55
81 -105 86 -111 6 -6 21 -26 35 -44 14 -19 63 -84 110 -145 47 -61 105 -137
130 -170 25 -33 51 -66 57 -75 7 -8 49 -62 93 -120 44 -58 102 -134 130 -170
196 -256 324 -423 445 -582 76 -100 142 -185 145 -188 3 -3 39 -50 80 -104 41
-55 99 -131 128 -169 29 -38 50 -73 45 -77 -4 -4 -43 -17 -86 -28 l-77 -21
-147 207 c-81 114 -151 212 -155 217 -5 6 -32 44 -61 85 -30 41 -154 217 -277
390 -123 173 -318 448 -434 610 -115 162 -254 358 -309 435 -55 77 -125 175
-155 217 -49 69 -72 87 -72 57 0 -6 21 -40 47 -77 57 -81 336 -474 445 -627
43 -60 85 -119 93 -130 98 -139 336 -472 342 -480 5 -5 22 -30 39 -55 17 -25
56 -81 88 -125 64 -89 68 -95 128 -180 23 -33 46 -64 50 -70 7 -9 86 -119 311
-437 27 -38 43 -69 37 -73 -5 -3 -10 -4 -10 0 0 3 -8 1 -18 -4 -11 -6 -30 -12
-43 -15 -13 -3 -41 -10 -62 -15 l-39 -9 -186 281 c-103 155 -189 287 -192 292
-3 6 -71 109 -151 230 -143 216 -241 364 -672 1018 -120 180 -217 330 -217
333 0 3 -6 12 -14 19 -12 12 -15 11 -19 -6 -4 -14 17 -53 65 -127 39 -59 132
-199 206 -312 267 -406 367 -555 374 -558 5 -2 8 -7 8 -12 0 -6 451 -696 510
-780 43 -62 262 -400 261 -404 -1 -3 -4 -7 -8 -8 -5 -1 -24 -5 -43 -10 -42
-10 -88 -18 -115 -21 -15 -2 -44 39 -137 188 -65 105 -127 208 -139 230 -12
22 -24 42 -28 45 -3 3 -12 16 -20 30 -26 44 -141 234 -491 805 -189 308 -377
617 -419 687 -42 70 -80 128 -84 128 -27 1 -5 -49 98 -216 64 -104 120 -196
125 -204 5 -8 50 -81 100 -163 49 -81 90 -150 90 -153 0 -2 5 -10 11 -17 10
-12 227 -362 252 -407 13 -24 314 -518 386 -633 20 -32 43 -70 52 -85 9 -15
49 -80 88 -145 40 -66 70 -122 66 -125 -10 -10 -157 -38 -178 -34 -9 2 -25 20
-36 40 -10 20 -55 102 -101 182 -46 80 -94 165 -108 190 -14 25 -42 74 -62
110 -20 36 -48 85 -62 110 -40 73 -203 361 -310 549 -54 95 -98 175 -98 177 0
2 -18 33 -40 69 -22 36 -40 67 -40 70 0 2 -13 26 -29 53 -38 64 -81 140 -101
177 -82 155 -185 325 -196 325 -28 0 -43 28 321 -615 60 -104 118 -208 129
-230 12 -22 24 -41 29 -43 4 -2 7 -7 7 -11 0 -4 65 -122 143 -262 79 -140 155
-274 169 -299 14 -25 50 -89 81 -142 31 -53 71 -125 90 -160 38 -69 50 -90
126 -223 28 -49 51 -94 51 -100 0 -6 -10 -11 -22 -11 -13 -1 -50 -4 -83 -8
-33 -4 -68 -8 -78 -9 -20 -2 -19 -4 -209 363 -61 118 -130 251 -153 295 -40
75 -101 192 -270 520 -40 77 -100 194 -135 260 -34 66 -94 181 -132 255 -39
74 -91 174 -116 222 -25 49 -49 88 -53 88 -30 0 -15 -34 191 -425 26 -49 87
-166 135 -260 96 -187 190 -366 270 -520 72 -137 179 -344 293 -565 52 -102
105 -204 119 -228 16 -29 20 -42 11 -43 -7 0 -21 -2 -31 -4 -10 -2 -48 -6 -85
-10 -36 -3 -68 -8 -71 -11 -6 -6 -41 27 -41 39 0 6 -18 47 -39 91 -22 45 -62
128 -89 186 -27 58 -86 181 -131 274 -44 93 -81 170 -81 171 0 2 -33 72 -74
156 -40 85 -89 188 -109 229 -19 41 -62 131 -95 200 -33 69 -73 154 -90 190
-60 128 -203 425 -208 429 -2 3 -9 0 -15 -6 -7 -7 4 -40 38 -109 26 -54 48
-101 48 -104 1 -5 9 -23 145 -305 50 -104 101 -210 112 -235 11 -25 56 -119
99 -209 44 -90 79 -165 79 -166 0 -2 39 -83 86 -181 47 -99 99 -206 114 -239
16 -33 69 -145 118 -250 50 -104 89 -191 88 -192 -1 -1 -51 -5 -112 -8 l-111
-7 -38 89 c-21 48 -45 104 -53 123 -9 19 -16 37 -17 40 0 3 -9 20 -18 37 -10
18 -17 35 -17 38 0 6 -11 33 -95 225 -114 263 -308 711 -340 785 -7 17 -24 56
-39 88 -14 32 -26 60 -26 62 0 3 -16 39 -35 81 -19 41 -35 78 -35 81 0 3 -10
26 -23 52 -13 25 -25 51 -27 56 -14 49 -69 165 -78 165 -28 0 -26 -5 168 -450
56 -129 145 -334 197 -455 52 -121 103 -238 113 -260 19 -43 115 -264 210
-485 32 -74 71 -164 88 -201 51 -114 58 -104 -73 -107 l-116 -3 -16 38 c-9 21
-18 43 -19 48 -1 6 -39 100 -84 210 -44 110 -83 207 -85 215 -3 13 -103 269
-260 665 -24 61 -73 187 -110 280 -102 262 -168 430 -171 434 -2 2 -10 1 -18
-2 -13 -5 -13 -12 3 -49 10 -24 62 -155 116 -293 54 -137 129 -329 167 -425
39 -96 71 -179 72 -185 2 -5 8 -21 13 -35 6 -14 30 -74 53 -135 23 -60 48
-123 55 -140 7 -16 39 -95 70 -175 31 -80 85 -219 121 -308 35 -90 64 -167 64
-171 0 -3 -52 -6 -116 -6 -134 0 -120 -11 -170 134 -18 53 -56 161 -84 241
-28 80 -80 226 -115 325 -35 99 -102 290 -150 425 -48 135 -100 283 -117 330
-17 47 -31 90 -32 95 -1 6 -11 35 -23 65 -12 30 -38 103 -58 162 -27 78 -41
105 -51 101 -8 -3 -14 -8 -14 -11 0 -6 132 -382 195 -557 20 -55 38 -107 40
-115 2 -8 23 -67 45 -130 23 -63 55 -155 72 -205 17 -49 34 -99 39 -110 10
-23 136 -379 216 -610 31 -88 59 -162 64 -165 4 -3 1536 -5 3405 -5 l3396 0
23 65 c12 36 37 106 54 155 18 50 38 108 46 130 7 22 34 99 60 170 26 72 48
135 49 140 2 6 6 17 9 25 3 8 31 87 62 175 31 88 69 196 85 240 15 44 45 127
65 185 20 58 47 134 60 170 13 36 54 151 90 255 37 105 94 267 127 360 33 94
64 181 68 195 10 30 84 235 98 270 5 14 10 27 10 30 0 3 3 12 6 20 3 8 17 49
31 90 15 41 37 104 50 140 13 36 69 193 124 350 54 157 136 389 181 515 46
127 83 235 85 240 1 6 5 17 8 25 4 8 25 67 47 130 60 175 119 343 127 360 3 8
7 20 9 25 1 6 27 80 57 165 30 85 76 216 102 290 25 74 50 144 55 155 12 29
72 198 74 210 1 6 4 15 8 20 3 6 10 26 16 45 6 19 26 80 46 135 20 55 54 150
75 210 21 61 49 137 61 170 30 82 31 88 23 101 -5 6 -52 39 -105 74 -54 35
-98 70 -98 77 0 7 -5 13 -11 13 -12 0 -165 95 -199 125 -14 12 -59 41 -100 65
-64 37 -604 396 -2016 1342 -159 106 -295 194 -301 196 -7 2 -13 7 -13 11 0 4
-22 20 -50 36 -27 16 -50 33 -50 37 0 4 -4 8 -9 8 -5 0 -70 42 -145 93 -75 50
-144 97 -154 102 -9 6 -127 84 -262 175 -135 91 -253 169 -262 175 -10 5 -144
96 -300 200 -155 105 -286 192 -292 194 -6 2 -13 7 -16 11 -3 3 -147 101 -320
216 -173 115 -319 213 -325 217 -40 32 -461 307 -469 306 -6 0 -99 -60 -206
-133z m577 -148 c192 -127 443 -295 558 -372 116 -76 212 -143 213 -148 2 -4
8 -8 13 -8 9 0 189 -118 199 -131 3 -3 10 -8 15 -10 6 -2 144 -94 308 -204
164 -110 308 -207 322 -215 13 -8 167 -111 342 -229 175 -117 595 -398 933
-624 338 -226 618 -416 622 -421 5 -7 8 -7 8 -1 0 6 3 6 8 0 4 -6 30 -25 59
-43 28 -18 57 -41 65 -50 12 -16 11 -16 -7 -1 -11 9 -69 46 -130 83 -136 82
-140 85 -190 117 -22 14 -69 44 -105 66 -36 22 -135 83 -220 135 -422 259
-796 493 -802 502 -4 6 -8 8 -8 4 0 -5 -119 66 -220 132 -8 5 -96 60 -195 121
-99 61 -274 170 -390 242 -115 72 -221 137 -235 144 -14 8 -51 31 -83 51 -69
45 -579 361 -616 382 -14 8 -28 18 -31 21 -3 3 -30 20 -60 37 -92 54 -244 149
-257 161 -7 6 -15 11 -17 11 -3 0 -68 39 -143 86 -76 48 -150 94 -165 103 -14
9 -59 36 -100 61 -40 25 -77 47 -83 49 -5 2 -14 8 -20 13 -5 5 -34 24 -64 42
l-54 34 79 51 c43 28 84 49 91 47 7 -3 169 -110 360 -238z m-224 -89 c161
-100 398 -247 527 -328 129 -80 247 -153 261 -161 14 -8 104 -64 200 -123 96
-60 183 -114 194 -120 11 -7 44 -28 75 -48 51 -32 325 -202 388 -240 15 -9
101 -62 190 -118 90 -55 166 -101 168 -101 3 0 10 -5 17 -11 15 -13 427 -269
434 -269 2 0 36 -22 76 -48 40 -27 77 -51 82 -53 6 -2 75 -44 153 -94 78 -49
150 -94 160 -100 9 -5 75 -46 145 -90 71 -44 136 -84 145 -90 52 -31 104 -63
164 -102 37 -23 71 -43 76 -43 4 0 18 -9 30 -20 12 -12 22 -18 22 -15 0 3 32
-16 70 -41 39 -26 70 -49 70 -51 0 -2 -3 -2 -7 0 -90 53 -325 187 -328 187 -2
0 -39 21 -82 46 -81 48 -116 69 -193 112 -25 14 -193 111 -375 215 -181 104
-350 201 -375 215 -25 14 -387 221 -805 460 -418 240 -892 511 -1054 604 -162
92 -298 168 -303 168 -4 0 -8 5 -8 10 0 6 -4 10 -9 10 -5 0 -80 41 -166 90
-86 50 -161 90 -166 90 -5 0 -9 5 -9 10 0 6 -5 10 -10 10 -6 0 -56 27 -112 59
l-101 59 69 51 c38 28 75 51 82 51 7 0 144 -82 305 -181z m-132 -145 c178
-102 342 -196 364 -208 22 -13 119 -68 215 -123 96 -55 193 -111 215 -123 22
-12 69 -39 105 -60 64 -37 102 -59 190 -108 25 -14 62 -36 82 -49 21 -12 42
-23 48 -23 5 0 10 -3 10 -8 0 -4 14 -13 31 -21 18 -8 59 -30 93 -51 33 -20 86
-50 116 -67 30 -16 79 -44 108 -62 29 -17 57 -31 62 -31 6 0 10 -4 10 -8 0 -4
12 -13 28 -20 15 -6 45 -23 67 -37 22 -14 47 -28 55 -32 8 -4 69 -38 135 -76
66 -38 140 -81 165 -95 25 -14 104 -59 175 -100 72 -41 146 -84 165 -95 42
-23 335 -191 515 -295 72 -41 150 -86 175 -100 25 -14 63 -36 85 -50 22 -14
40 -24 40 -22 0 2 11 -3 25 -11 76 -46 154 -91 230 -132 47 -25 94 -53 105
-62 11 -9 -11 1 -50 21 -38 20 -120 63 -181 94 -62 32 -156 82 -210 111 -55
30 -101 54 -104 54 -3 0 -34 17 -70 36 -60 34 -113 62 -375 199 -55 29 -131
69 -170 90 -38 21 -133 70 -210 110 -77 40 -162 85 -190 100 -27 15 -113 60
-190 100 -77 40 -167 87 -200 105 -33 18 -103 55 -155 82 -52 28 -140 74 -195
103 -55 29 -136 72 -180 95 -83 44 -189 100 -405 212 -69 36 -147 78 -175 93
-53 29 -162 87 -360 191 -66 34 -165 86 -220 115 -55 30 -134 70 -175 91 -41
21 -77 40 -80 43 -3 3 -44 25 -92 50 -49 25 -87 48 -85 52 1 4 127 106 133
108 0 0 146 -84 325 -186z m-445 27 c5 -4 74 -42 154 -83 140 -73 214 -112
385 -203 44 -23 134 -71 200 -105 66 -35 152 -80 190 -100 39 -21 120 -63 180
-95 61 -32 187 -98 280 -147 94 -50 222 -117 285 -150 63 -34 138 -73 165 -88
28 -15 113 -60 190 -100 77 -40 154 -80 170 -90 17 -9 102 -54 190 -100 88
-45 174 -90 190 -100 17 -10 140 -75 275 -145 135 -70 274 -143 310 -163 36
-19 130 -69 210 -110 80 -42 190 -100 245 -129 55 -30 124 -65 153 -80 29 -14
51 -27 49 -30 -2 -2 -69 29 -148 68 -79 39 -175 86 -214 104 -71 33 -318 152
-525 253 -63 31 -117 57 -120 57 -3 1 -72 34 -155 74 -82 41 -219 107 -302
147 -84 41 -224 108 -310 150 -87 42 -221 107 -298 144 -280 135 -453 219
-620 300 -93 45 -222 107 -285 137 -63 30 -178 86 -255 123 -380 185 -497 240
-506 240 -5 0 -9 5 -9 10 0 6 -3 9 -7 8 -5 -2 -57 21 -116 50 l-108 53 67 54
c70 58 74 60 90 46z m80 -252 c126 -61 279 -135 339 -164 191 -92 394 -189
590 -285 105 -51 246 -119 315 -152 69 -33 199 -96 290 -140 91 -44 215 -104
275 -133 61 -29 196 -94 300 -145 105 -51 235 -114 290 -140 55 -26 174 -84
265 -128 462 -223 600 -290 798 -384 23 -11 41 -22 39 -24 -3 -4 -308 128
-455 197 -34 16 -64 29 -66 29 -3 0 -112 48 -243 106 -257 115 -285 127 -293
128 -3 1 -21 9 -40 18 -19 9 -127 57 -240 106 -113 50 -240 106 -283 126 -42
20 -79 36 -82 36 -4 0 -305 132 -423 186 -29 13 -54 24 -57 24 -2 0 -36 15
-77 34 -40 18 -140 63 -223 99 -132 58 -301 132 -390 171 -16 8 -52 24 -80 36
-27 12 -68 30 -90 40 -22 10 -155 68 -295 130 -140 61 -268 118 -285 125 -16
8 -52 23 -80 35 -27 12 -74 33 -104 47 l-54 24 24 22 c47 43 100 87 103 87 2
0 106 -50 232 -111z m-110 -145 c132 -58 253 -112 269 -119 17 -8 149 -66 295
-129 146 -64 279 -123 295 -130 17 -8 50 -24 75 -34 25 -11 65 -29 90 -40 25
-11 79 -34 120 -52 41 -18 98 -42 125 -55 87 -39 149 -67 170 -75 11 -4 47
-20 80 -35 33 -15 152 -68 265 -117 113 -49 238 -105 278 -124 41 -19 76 -34
78 -34 3 0 417 -181 479 -210 104 -48 188 -85 230 -102 27 -11 56 -24 62 -30
7 -6 13 -8 13 -5 0 3 26 -7 58 -22 31 -15 128 -59 215 -96 86 -38 157 -73 157
-77 0 -5 -10 -3 -22 4 -13 6 -27 13 -33 15 -10 2 -530 212 -530 214 0 0 -7 2
-15 4 -14 3 -235 92 -287 115 -13 6 -33 14 -45 19 -144 57 -320 127 -348 138
-55 23 -63 27 -270 108 -107 42 -204 80 -215 85 -11 5 -45 19 -75 31 -30 11
-68 27 -85 34 -16 7 -140 57 -275 110 -135 53 -258 103 -275 110 -16 7 -196
79 -400 160 -203 81 -383 153 -400 160 -16 7 -124 50 -238 95 l-208 82 58 54
c32 30 61 54 64 54 4 0 114 -48 245 -106z m29 -195 c209 -83 394 -157 410
-164 49 -21 685 -275 750 -300 33 -12 134 -53 225 -90 91 -37 170 -68 175 -69
6 -1 28 -10 50 -20 22 -9 182 -74 355 -143 173 -69 329 -132 347 -140 17 -8
37 -16 45 -17 7 -1 22 -7 33 -13 11 -6 22 -11 25 -11 3 0 16 -5 30 -11 63 -26
276 -112 285 -115 6 -2 19 -7 30 -11 11 -4 88 -35 170 -67 83 -33 164 -65 180
-73 17 -7 40 -16 53 -20 13 -4 21 -9 19 -12 -3 -2 -34 7 -69 21 -36 14 -68 26
-73 26 -5 0 -52 16 -105 36 -52 20 -111 41 -130 49 -19 7 -60 22 -90 33 -30
11 -93 34 -140 50 -133 48 -487 174 -800 287 -36 13 -148 53 -250 90 -192 69
-214 77 -470 170 -85 31 -162 58 -170 60 -8 2 -134 47 -279 100 -145 53 -271
98 -280 100 -9 2 -32 10 -51 18 -41 18 -710 258 -725 261 -5 1 -18 7 -29 12
-17 10 -15 15 30 63 26 28 52 51 58 51 6 0 182 -68 391 -151z m-300 -64 c39
-14 77 -28 85 -30 8 -2 65 -22 125 -45 61 -22 117 -43 125 -45 15 -4 59 -20
390 -140 102 -37 248 -89 325 -116 77 -27 147 -52 155 -56 8 -3 20 -7 25 -9 6
-1 80 -28 165 -59 85 -31 274 -99 420 -151 289 -104 457 -165 535 -194 28 -10
88 -32 135 -48 47 -17 135 -48 195 -70 61 -23 126 -46 145 -53 19 -7 58 -20
85 -30 28 -10 115 -41 195 -70 80 -28 152 -55 160 -60 24 -14 2 -10 -36 6 -19
8 -38 14 -42 15 -8 0 -325 101 -412 130 -54 18 -486 157 -625 201 -38 12 -164
52 -280 89 -115 38 -318 103 -450 145 -132 42 -269 86 -305 98 -36 11 -69 22
-75 23 -5 1 -59 19 -120 39 -113 38 -292 95 -310 99 -5 1 -104 33 -220 70
-414 134 -541 175 -612 197 -80 25 -79 22 -19 92 l40 45 65 -23 c36 -13 98
-35 136 -50z m-45 -154 c124 -40 281 -91 350 -113 69 -22 193 -62 275 -88 83
-27 209 -67 280 -90 72 -23 150 -49 175 -57 25 -8 50 -16 55 -17 6 -1 55 -17
110 -35 170 -55 390 -126 625 -201 124 -39 261 -84 305 -98 44 -14 85 -27 90
-28 11 -3 70 -22 275 -89 80 -26 150 -48 155 -49 38 -8 365 -119 361 -123 -2
-3 -19 0 -38 6 -32 11 -268 79 -298 86 -8 2 -71 20 -140 40 -69 20 -132 37
-140 39 -8 2 -78 22 -155 44 -142 41 -428 121 -455 127 -8 2 -60 17 -115 34
-55 16 -134 39 -175 50 -41 11 -100 27 -130 36 -30 9 -63 18 -72 20 -10 3 -26
7 -35 10 -10 2 -74 20 -143 40 -69 20 -132 38 -140 40 -8 2 -40 11 -70 20 -30
9 -89 25 -130 36 -41 11 -111 31 -155 44 -95 29 -612 175 -638 180 -10 2 -32
9 -50 15 -42 14 -278 81 -297 84 -8 2 -14 6 -12 9 1 4 2 10 2 15 0 15 78 90
91 88 8 -1 115 -35 239 -75z m-427 -25 c-10 -13 -20 -22 -22 -20 -4 4 29 44
36 44 2 0 -4 -11 -14 -24z m335 -112 c125 -36 237 -67 249 -70 12 -2 34 -9 48
-14 14 -5 25 -7 25 -4 0 2 8 0 18 -5 11 -6 30 -12 43 -15 13 -2 134 -37 269
-76 135 -39 252 -72 260 -74 73 -18 435 -121 517 -147 18 -5 40 -12 50 -13 10
-2 99 -27 198 -55 99 -29 187 -53 195 -55 29 -7 135 -38 177 -52 23 -7 52 -16
65 -18 13 -3 48 -12 78 -21 30 -8 65 -18 78 -20 13 -3 42 -12 65 -20 23 -7 62
-19 87 -26 25 -7 50 -14 55 -15 6 -2 23 -6 39 -9 16 -3 34 -9 40 -13 6 -3 18
-8 27 -9 34 -5 372 -103 378 -109 7 -7 -47 2 -94 17 -45 13 -327 82 -350 85
-11 1 -20 3 -20 4 0 1 -7 3 -15 5 -8 1 -44 11 -80 20 -36 9 -72 18 -80 20 -18
4 -357 86 -495 121 -55 13 -109 26 -120 29 -18 3 -474 116 -535 132 -14 3 -32
7 -40 9 -8 2 -134 33 -280 69 -146 36 -276 68 -290 71 -14 3 -61 14 -105 26
-44 11 -89 22 -100 24 -11 2 -91 22 -178 44 -87 22 -172 42 -189 45 -17 3 -34
8 -38 10 -3 2 -17 6 -31 8 -13 3 -44 10 -69 17 -25 7 -52 14 -61 15 -9 2 -33
8 -53 13 -20 6 -36 8 -36 6 0 -3 -10 0 -21 7 -12 6 -18 14 -13 18 5 3 24 25
43 49 18 23 39 42 47 42 8 0 117 -30 242 -66z m-418 -37 c0 -2 -12 -14 -27
-28 l-28 -24 24 28 c23 25 31 32 31 24z m-100 -181 c0 -2 -8 -10 -17 -17 -16
-13 -17 -12 -4 4 13 16 21 21 21 13z m-60 -140 c0 -2 -8 -10 -17 -17 -16 -13
-17 -12 -4 4 13 16 21 21 21 13z m3584 -495 c4 -5 -3 -7 -14 -4 -23 6 -26 13
-6 13 8 0 17 -4 20 -9z m36 -11 c0 -5 -2 -10 -4 -10 -3 0 -8 5 -11 10 -3 6 -1
10 4 10 6 0 11 -4 11 -10z m160 1 c0 -5 -9 -7 -20 -4 -11 3 -20 7 -20 9 0 2 9
4 20 4 11 0 20 -4 20 -9z m47 -17 c-3 -3 -12 -4 -19 -1 -8 3 -5 6 6 6 11 1 17
-2 13 -5z m563 -69 c14 -8 21 -14 15 -14 -5 0 -21 6 -35 14 -14 8 -20 14 -15
14 6 0 21 -6 35 -14z m75 -35 c3 -6 -1 -7 -9 -4 -18 7 -21 14 -7 14 6 0 13 -4
16 -10z m170 -30 c3 -6 -1 -7 -9 -4 -18 7 -21 14 -7 14 6 0 13 -4 16 -10z
m646 -207 c13 -17 13 -17 -6 -3 -11 8 -22 16 -24 17 -2 2 0 3 6 3 6 0 17 -8
24 -17z m-156 -281 c-3 -114 -7 -292 -10 -397 -3 -104 -8 -289 -10 -410 -8
-320 -13 -529 -20 -805 -4 -135 -8 -306 -9 -380 -1 -74 -5 -140 -9 -147 -4 -6
-3 -14 3 -18 6 -4 8 -10 5 -15 -3 -5 -8 -119 -10 -252 -3 -134 -7 -313 -10
-398 -2 -85 -7 -258 -9 -385 -8 -368 -17 -660 -22 -664 -2 -2 -4 70 -5 160 0
90 -2 277 -4 414 -3 221 -7 645 -20 1985 -2 206 -7 644 -10 972 l-6 597 76
-25 75 -26 -5 -206z m124 162 l70 -26 -4 -50 c-2 -27 -7 -102 -11 -166 -3 -64
-7 -135 -9 -157 -1 -22 -5 -96 -9 -165 -4 -69 -9 -145 -11 -170 -2 -25 -7
-103 -10 -175 -4 -71 -9 -148 -10 -170 -2 -22 -6 -92 -10 -155 -4 -63 -8 -140
-10 -170 -2 -30 -6 -107 -10 -170 -3 -63 -8 -137 -10 -165 -2 -27 -6 -104 -10
-170 -4 -66 -8 -142 -10 -170 -2 -27 -6 -108 -10 -180 -3 -71 -8 -146 -10
-165 -2 -19 -6 -87 -10 -150 -3 -63 -8 -140 -10 -170 -2 -30 -7 -102 -10 -160
-3 -58 -8 -134 -10 -170 -2 -36 -7 -109 -11 -163 -3 -54 -7 -132 -9 -175 -2
-42 -7 -115 -10 -162 -14 -202 -21 -339 -24 -412 0 -27 -5 -48 -10 -48 -6 0
-8 47 -6 118 3 64 7 223 10 352 3 129 7 323 10 430 3 107 7 278 10 380 2 102
7 293 10 425 3 132 8 317 10 410 2 94 7 262 10 375 5 220 12 498 20 835 3 116
7 269 9 340 2 72 4 190 5 263 1 75 5 132 10 132 6 0 41 -12 80 -26z m186 -73
c79 -32 75 -22 61 -161 -3 -36 -8 -85 -11 -110 -2 -25 -9 -99 -15 -165 -7 -66
-13 -136 -15 -155 -2 -19 -6 -64 -10 -100 -4 -36 -8 -85 -10 -110 -6 -70 -15
-162 -20 -200 -2 -19 -7 -72 -10 -118 -4 -45 -8 -97 -11 -115 -2 -17 -6 -59
-9 -92 -3 -33 -7 -80 -10 -105 -6 -57 -12 -125 -20 -220 -4 -41 -8 -86 -10
-100 -2 -14 -7 -61 -10 -105 -4 -44 -8 -87 -10 -95 -2 -8 -6 -53 -10 -100 -4
-47 -8 -101 -10 -120 -2 -19 -6 -64 -10 -100 -3 -36 -8 -81 -10 -100 -2 -19
-7 -66 -10 -105 -3 -38 -7 -90 -10 -115 -3 -25 -7 -67 -10 -95 -2 -27 -7 -79
-10 -115 -3 -36 -8 -87 -11 -115 -8 -76 -12 -123 -19 -200 -7 -91 -15 -171
-20 -215 -2 -19 -7 -64 -10 -100 -3 -36 -8 -81 -10 -100 -2 -19 -6 -64 -10
-100 -13 -155 -15 -177 -19 -220 -18 -169 -27 -254 -32 -315 -3 -38 -8 -83 -9
-100 -2 -16 -4 -45 -4 -62 -1 -18 -6 -33 -12 -33 -5 0 -8 3 -6 8 3 4 8 57 11
117 6 100 10 170 22 355 2 36 6 106 8 156 3 50 7 131 11 180 3 49 8 123 10
164 2 41 6 113 9 160 3 47 8 128 11 180 7 121 14 227 20 315 2 39 7 115 10
170 3 55 8 127 10 160 3 33 7 110 10 170 4 61 8 135 10 165 2 30 7 105 10 165
4 61 8 133 10 160 3 53 12 208 20 365 3 52 7 124 10 160 2 36 7 106 9 155 3
50 8 130 11 179 6 88 7 114 20 346 3 63 8 133 10 155 2 22 7 96 11 165 4 69 8
141 9 160 2 19 3 45 4 58 1 27 1 28 86 -7z m235 -106 c27 -15 29 -29 17 -125
-10 -80 -37 -291 -42 -320 -5 -33 -33 -241 -40 -305 -4 -27 -8 -61 -10 -75 -2
-14 -7 -52 -11 -85 -3 -33 -8 -69 -11 -80 -2 -11 -6 -45 -9 -75 -6 -57 -11
-95 -14 -95 0 0 -3 -20 -5 -45 -2 -25 -6 -62 -9 -82 -11 -69 -16 -107 -21
-160 -3 -29 -7 -64 -10 -77 -4 -22 -19 -134 -30 -221 -14 -117 -32 -250 -41
-305 -3 -16 -7 -52 -10 -80 -2 -27 -6 -60 -9 -73 -2 -13 -7 -50 -10 -83 -4
-33 -9 -70 -11 -82 -3 -12 -7 -42 -9 -67 -3 -25 -12 -97 -20 -160 -9 -63 -18
-131 -20 -150 -2 -19 -11 -84 -19 -145 -8 -60 -18 -135 -22 -165 -3 -30 -8
-62 -9 -71 -3 -15 -8 -51 -20 -157 -3 -24 -7 -53 -10 -65 -2 -12 -7 -47 -10
-78 -3 -31 -7 -65 -9 -76 -3 -11 -7 -46 -10 -78 -4 -32 -9 -74 -12 -94 -3 -20
-7 -49 -9 -66 -12 -92 -17 -133 -21 -155 -3 -14 -7 -43 -9 -65 -2 -22 -6 -59
-9 -83 -3 -23 -8 -59 -11 -80 -2 -20 -6 -53 -9 -72 -3 -19 -8 -55 -11 -80 -3
-25 -7 -56 -10 -70 -3 -13 -7 -53 -11 -87 -3 -35 -10 -75 -15 -90 -6 -21 -7
-15 -3 22 7 62 16 159 19 205 2 19 4 35 5 35 1 0 3 18 4 40 8 106 17 213 21
245 8 63 14 124 20 195 3 39 8 90 11 115 3 25 7 70 10 100 2 30 6 75 9 100 3
25 7 68 10 95 2 28 7 79 11 115 3 36 7 81 9 100 3 44 15 172 21 225 2 22 6 67
9 100 3 33 7 80 10 105 8 81 16 164 20 220 3 30 7 75 10 100 2 25 7 72 10 105
3 33 10 101 15 150 5 50 12 122 15 160 3 39 7 86 10 105 2 19 6 60 9 90 3 30
8 78 11 105 3 28 7 77 10 110 3 33 7 80 10 105 2 25 7 79 11 120 3 41 8 89 9
105 2 17 6 62 10 100 3 39 8 88 11 110 3 22 7 67 9 100 4 61 9 115 20 215 4
30 8 78 11 105 10 120 15 173 19 220 10 94 16 160 20 195 2 19 7 69 11 110 4
41 8 82 10 90 1 8 3 27 3 42 l1 26 53 -24 c28 -14 63 -31 77 -39z m155 -73
c39 -21 69 -42 68 -48 -1 -5 -4 -32 -8 -59 -7 -55 -10 -74 -19 -122 -15 -82
-18 -100 -21 -124 -2 -14 -15 -95 -30 -180 -15 -85 -28 -165 -31 -179 -2 -14
-6 -36 -9 -49 -2 -12 -7 -44 -10 -70 -8 -58 -11 -77 -20 -121 -4 -19 -9 -48
-11 -65 -1 -16 -6 -43 -9 -60 -14 -70 -16 -82 -20 -115 -2 -19 -20 -129 -40
-245 -20 -115 -38 -219 -39 -230 -3 -22 -16 -100 -22 -130 -2 -10 -6 -35 -9
-55 -3 -20 -8 -47 -10 -60 -3 -14 -7 -41 -10 -60 -3 -19 -7 -46 -10 -60 -2
-13 -7 -42 -10 -65 -3 -22 -24 -146 -46 -275 -43 -257 -42 -252 -59 -360 -7
-41 -14 -84 -16 -95 -3 -11 -7 -36 -10 -55 -2 -19 -9 -57 -14 -85 -5 -27 -11
-66 -14 -85 -12 -80 -23 -145 -26 -145 -1 0 -3 -16 -5 -35 -2 -19 -22 -145
-45 -280 -23 -135 -43 -258 -46 -275 -2 -16 -9 -55 -14 -85 -5 -30 -12 -71
-15 -90 -3 -19 -8 -48 -11 -65 -8 -50 -13 -78 -19 -120 -3 -23 -8 -52 -10 -65
-8 -39 -12 -61 -50 -290 -20 -118 -38 -216 -41 -219 -6 -6 -5 4 7 84 5 39 12
86 14 105 2 19 7 51 10 70 2 19 7 53 10 75 2 22 16 128 30 235 14 107 28 213
31 235 2 22 7 56 10 75 6 44 12 91 19 155 3 28 8 57 10 65 2 8 7 45 10 82 3
37 7 75 9 85 7 36 16 99 22 143 25 213 51 417 58 455 2 11 7 45 10 75 4 30 10
73 13 95 2 22 6 58 8 80 2 22 6 54 9 70 13 73 24 154 31 225 1 14 6 50 10 80
4 30 9 66 10 80 2 14 5 43 8 65 4 22 9 60 12 85 3 25 8 56 10 70 2 14 7 50 10
80 4 30 8 66 10 80 2 14 6 48 10 75 3 28 7 59 9 70 2 11 7 45 10 76 4 31 8 65
10 75 2 11 7 46 10 79 4 33 9 71 11 85 2 14 7 45 10 70 3 25 7 61 10 80 2 19
7 58 11 85 4 28 8 61 10 75 2 14 5 45 8 70 3 25 8 61 11 80 3 19 14 107 25
195 12 88 23 171 25 185 2 14 7 52 10 85 4 33 8 62 10 65 2 3 6 39 10 80 4 41
8 77 10 80 3 5 11 65 21 160 1 14 3 28 3 33 2 14 27 6 96 -31z m265 -154 c0
-9 -34 -187 -76 -395 -42 -208 -78 -389 -80 -403 -3 -14 -11 -53 -19 -88 -8
-34 -17 -77 -20 -95 -3 -17 -8 -39 -10 -47 -2 -8 -7 -35 -10 -60 -4 -24 -8
-47 -10 -50 -2 -3 -6 -22 -9 -42 -3 -21 -11 -59 -17 -85 -13 -59 -15 -69 -34
-163 -8 -41 -16 -84 -19 -95 -18 -81 -40 -187 -60 -295 -9 -47 -18 -96 -21
-110 -10 -47 -26 -125 -31 -150 -3 -14 -12 -59 -20 -100 -9 -41 -17 -84 -20
-94 -2 -11 -13 -65 -25 -120 -11 -56 -22 -112 -24 -126 -2 -14 -6 -34 -9 -45
-5 -21 -44 -212 -52 -255 -4 -21 -65 -321 -78 -385 -10 -43 -46 -227 -51 -253
-2 -15 -34 -171 -70 -347 -37 -176 -68 -331 -70 -345 -2 -14 -7 -36 -10 -50
-3 -14 -8 -36 -10 -50 -6 -34 -13 -65 -15 -65 -1 0 -3 -12 -5 -28 -2 -15 -9
-53 -16 -85 -17 -77 -15 -70 -28 -132 -5 -30 -12 -64 -15 -75 -2 -11 -12 -59
-21 -108 -10 -48 -20 -86 -22 -83 -2 2 3 46 12 97 9 52 18 105 20 119 2 14 7
41 10 60 3 19 10 58 15 85 5 28 12 68 15 90 3 22 15 92 26 155 11 63 22 131
25 150 3 19 9 60 14 90 5 30 12 71 15 90 3 19 8 46 10 60 9 45 13 64 20 120
11 75 13 91 19 120 3 14 21 122 41 240 20 118 38 227 40 241 3 14 7 43 10 63
2 21 7 46 9 55 3 9 7 34 11 56 3 22 16 105 30 185 13 80 26 163 30 184 3 21 7
48 10 60 2 12 7 37 10 56 2 19 7 46 9 60 8 38 57 339 61 369 2 14 4 26 5 26 2
0 7 30 14 94 4 29 8 56 10 60 2 3 7 26 10 51 3 25 8 56 11 70 3 14 14 81 26
150 11 69 22 136 25 150 3 20 28 172 49 300 3 14 7 36 9 50 5 23 13 72 21 130
2 14 7 41 10 60 4 19 8 44 10 55 1 11 5 34 8 50 3 17 9 55 12 85 4 30 10 59
13 64 3 5 6 25 7 45 1 20 5 45 8 56 3 11 9 38 12 60 3 23 8 52 10 65 3 14 7
43 10 65 3 22 7 47 10 55 2 8 7 35 11 60 3 25 8 54 10 65 5 34 15 97 20 119 3
11 7 44 10 71 3 28 8 53 10 57 8 13 164 -76 164 -94z m129 -58 c79 -47 79 -46
57 -135 -25 -104 -78 -323 -81 -335 -17 -75 -32 -140 -70 -296 -24 -99 -46
-191 -49 -205 -2 -13 -7 -31 -10 -39 -3 -8 -7 -26 -10 -40 -4 -25 -34 -150
-116 -490 -45 -188 -48 -202 -56 -240 -3 -14 -30 -126 -60 -249 -30 -124 -66
-272 -80 -330 -13 -58 -27 -117 -31 -131 -3 -14 -8 -34 -10 -44 -2 -11 -11
-47 -19 -80 -9 -34 -17 -68 -19 -76 -11 -48 -123 -519 -186 -780 -22 -91 -43
-176 -45 -190 -3 -14 -14 -59 -25 -100 -11 -41 -22 -86 -24 -100 -6 -37 -10
-55 -39 -165 -14 -55 -28 -115 -31 -134 -3 -19 -8 -37 -10 -41 -2 -4 -14 -49
-25 -101 -12 -52 -23 -101 -25 -109 -5 -22 -51 -213 -91 -380 -20 -80 -37
-153 -39 -164 -7 -32 -16 -32 -11 -1 5 28 92 457 102 500 2 11 7 34 10 50 3
17 10 50 15 75 6 25 12 56 14 70 4 22 17 89 29 145 8 40 118 581 122 605 3 14
7 32 10 41 2 9 7 33 9 54 3 20 7 40 9 44 3 3 7 27 11 51 3 25 11 65 16 90 12
55 89 425 96 460 2 14 13 70 24 125 11 55 22 111 25 125 2 14 9 45 14 70 13
63 78 380 84 410 2 14 11 57 19 95 9 39 18 90 22 115 4 24 9 49 12 53 3 5 7
21 8 36 2 14 24 128 49 253 26 125 49 239 52 255 3 15 10 48 15 73 6 25 13 56
15 70 16 80 79 393 114 565 23 110 43 211 45 225 1 14 8 43 13 65 6 22 13 54
16 70 22 138 43 218 54 212 4 -2 40 -24 81 -47z m198 -122 c57 -36 81 -57 78
-68 -7 -25 -136 -494 -140 -510 -2 -8 -24 -89 -50 -180 -25 -91 -80 -289 -121
-440 -41 -151 -82 -296 -90 -321 -8 -25 -16 -54 -18 -65 -5 -27 -26 -103 -37
-139 -5 -16 -25 -86 -44 -155 -47 -174 -188 -686 -237 -860 -22 -80 -41 -152
-43 -160 -2 -8 -13 -49 -25 -90 -12 -41 -57 -205 -101 -365 -43 -159 -88 -319
-98 -355 -11 -36 -49 -173 -85 -305 -36 -132 -80 -294 -99 -360 -19 -66 -40
-142 -47 -170 -6 -27 -14 -57 -17 -65 -4 -8 -7 -19 -9 -25 -8 -34 -57 -212
-75 -275 -12 -41 -26 -94 -32 -117 -6 -24 -14 -43 -19 -43 -8 0 -2 35 13 77 5
13 6 23 3 23 -3 0 -2 6 3 13 4 6 9 21 10 32 4 23 68 290 84 349 10 38 14 55
23 104 3 12 7 30 10 40 3 9 7 28 10 42 3 14 10 43 16 65 6 22 13 51 16 65 3
14 7 33 10 42 3 9 6 25 8 35 4 19 38 160 87 362 17 69 33 134 35 145 10 49 14
68 49 211 20 83 38 157 40 165 1 8 8 35 15 60 7 25 14 54 16 65 2 11 6 29 8
40 3 11 18 76 35 145 16 69 32 136 35 150 3 14 23 98 45 187 22 89 42 172 45
185 2 13 10 43 17 68 7 25 12 48 11 51 -1 4 3 22 9 40 6 19 12 45 15 58 3 13
25 107 50 210 25 102 48 197 50 211 3 14 12 52 21 85 8 33 17 69 19 80 4 21
10 47 18 80 2 11 18 79 36 150 17 72 33 137 35 145 1 8 8 35 15 60 7 25 14 53
16 64 5 27 38 168 105 444 32 133 61 252 63 265 2 12 9 42 16 67 7 25 14 56
17 69 2 14 6 28 8 31 2 4 7 21 10 38 3 17 14 70 26 119 12 48 23 97 26 108 2
11 6 27 8 35 2 8 4 21 4 28 1 19 9 16 98 -40z m209 -137 l80 -53 -22 -67 c-19
-57 -71 -220 -146 -461 -12 -36 -23 -69 -26 -75 -4 -5 -7 -16 -8 -25 0 -8 -27
-96 -59 -195 -31 -99 -58 -184 -60 -190 -1 -5 -5 -17 -8 -25 -3 -8 -18 -55
-32 -105 -15 -49 -36 -117 -47 -150 -29 -86 -79 -247 -83 -268 -2 -9 -7 -22
-10 -27 -3 -5 -8 -18 -10 -27 -2 -10 -43 -142 -90 -293 -48 -151 -88 -279 -89
-285 -1 -5 -28 -89 -58 -185 -65 -203 -131 -411 -134 -425 -5 -16 -231 -735
-254 -805 -12 -36 -23 -72 -25 -80 -2 -8 -8 -27 -14 -42 -6 -16 -9 -28 -6 -28
2 0 -3 -17 -12 -37 -9 -21 -21 -58 -28 -83 -7 -25 -29 -97 -50 -160 -20 -63
-38 -122 -40 -130 -2 -8 -31 -100 -64 -205 -34 -104 -63 -197 -65 -205 -2 -8
-8 -28 -14 -43 -7 -16 -12 -32 -12 -37 0 -5 -19 -68 -43 -142 -23 -73 -61
-190 -82 -260 -22 -70 -43 -128 -47 -128 -4 0 -1 18 7 40 8 22 12 40 8 40 -3
0 0 7 7 15 7 8 10 15 7 15 -3 0 1 21 9 48 8 26 36 121 61 212 25 91 58 212 75
270 16 58 30 110 32 115 1 6 8 36 16 68 7 31 16 57 19 57 4 0 7 8 7 18 1 9 24
103 53 207 29 105 55 201 58 214 2 14 6 28 9 33 4 6 24 75 39 138 2 8 18 65
35 125 17 61 40 144 51 185 11 41 22 82 26 90 3 8 7 22 8 30 2 15 41 158 70
255 9 28 17 59 19 70 2 11 18 69 36 129 17 59 32 117 33 127 1 10 4 19 7 19 3
0 7 8 7 18 1 9 18 76 38 147 20 72 38 137 40 145 2 8 18 65 35 125 17 61 33
117 35 125 2 8 15 56 28 105 14 50 50 181 81 293 30 111 57 206 60 211 3 4 8
21 11 38 2 17 20 84 39 149 19 66 46 164 61 219 14 55 29 107 32 115 3 8 7 22
8 30 4 20 4 20 85 310 39 140 72 261 74 270 2 8 6 22 9 30 5 13 21 72 33 120
7 30 84 305 89 318 6 17 4 18 101 -47z m200 -133 c40 -25 75 -51 78 -56 3 -6
-12 -61 -34 -124 -23 -62 -42 -120 -45 -128 -2 -8 -22 -67 -45 -130 -23 -63
-68 -189 -100 -280 -32 -91 -101 -289 -155 -440 -53 -151 -125 -356 -160 -455
-35 -99 -89 -252 -120 -340 -31 -88 -65 -186 -76 -218 -11 -32 -31 -88 -45
-125 -14 -37 -27 -74 -29 -82 -4 -15 -67 -195 -152 -430 -25 -69 -46 -129 -48
-135 -1 -5 -5 -17 -8 -25 -3 -8 -19 -53 -35 -100 -41 -118 -147 -419 -183
-516 -16 -44 -29 -84 -29 -88 0 -4 -6 -22 -14 -39 -7 -18 -24 -61 -36 -97 -12
-36 -25 -72 -28 -80 -3 -8 -6 -19 -8 -25 -1 -5 -21 -62 -44 -125 -23 -63 -51
-142 -62 -175 -11 -33 -23 -69 -28 -80 -5 -11 -27 -72 -49 -135 -21 -63 -62
-180 -91 -260 -28 -80 -58 -163 -65 -185 -7 -22 -29 -85 -49 -140 -20 -55 -56
-156 -80 -225 -25 -69 -52 -147 -61 -173 -30 -85 -25 -44 6 53 17 52 32 100
33 105 3 14 56 187 63 205 4 8 7 17 7 20 3 12 68 217 76 240 5 14 27 86 50
160 23 74 53 169 67 210 13 41 26 82 28 90 4 18 94 309 102 330 3 8 7 20 8 25
2 6 29 92 61 190 32 99 59 185 60 191 1 6 25 85 54 175 56 176 79 251 160 509
28 91 59 188 68 215 15 48 18 59 25 88 1 6 5 17 8 22 5 8 13 35 25 80 1 6 22
73 47 150 46 141 110 344 113 358 1 4 2 8 4 10 1 1 3 9 5 17 2 8 10 35 18 60
28 83 85 264 112 355 15 50 30 94 33 100 3 5 7 16 8 25 0 8 19 71 42 140 22
69 59 186 82 260 39 126 97 310 123 390 6 19 11 37 12 40 0 3 3 10 7 16 4 6
10 25 13 43 3 17 12 48 19 69 13 35 106 325 111 347 1 6 5 17 8 25 5 14 30 90
32 100 12 46 19 59 29 52 6 -4 43 -28 82 -54z m-1751 -3235 c-2 -27 -4 -69 -4
-95 -1 -27 -4 -48 -8 -48 -5 0 -7 43 -5 95 2 52 7 95 12 95 4 0 7 -21 5 -47z
m-48 -15 c-3 -7 -5 -2 -5 12 0 14 2 19 5 13 2 -7 2 -19 0 -25z m0 -40 c-3 -8
-6 -5 -6 6 -1 11 2 17 5 13 3 -3 4 -12 1 -19z m40 -117 c0 -11 -5 -18 -9 -15
-4 3 -5 11 -1 19 7 21 12 19 10 -4z m29 -207 c1 -9 0 -13 -4 -10 -3 4 -7 14
-8 22 -1 9 0 13 4 10 3 -4 7 -14 8 -22z m-81 -145 c-1 -44 -6 -84 -11 -88 -11
-10 -323 -114 -341 -114 -7 0 -13 -3 -13 -7 0 -4 -6 -7 -12 -7 -7 0 -105 -30
-218 -68 -113 -37 -212 -69 -220 -70 -8 -2 -15 -4 -15 -5 0 -1 -7 -3 -15 -5
-8 -2 -35 -11 -60 -20 -25 -9 -52 -18 -60 -20 -8 -2 -103 -33 -210 -68 -107
-35 -301 -98 -430 -140 -275 -88 -283 -91 -290 -92 -3 0 -9 -3 -15 -6 -5 -4
-26 -11 -45 -17 -40 -12 -792 -256 -860 -279 -25 -8 -49 -16 -55 -17 -5 -1
-145 -46 -310 -100 -452 -148 -749 -244 -855 -278 -52 -17 -104 -34 -115 -38
-39 -16 -88 -30 -92 -26 -3 3 169 69 187 71 3 1 22 9 44 18 21 9 41 17 45 17
3 0 56 19 116 41 162 60 299 110 310 113 6 2 17 6 25 9 36 15 346 128 360 132
8 2 96 34 195 70 99 37 194 71 210 77 17 5 37 12 45 15 8 3 20 7 25 9 22 6
352 127 380 139 43 18 79 29 88 27 4 -1 7 2 7 6 0 5 6 9 13 9 11 0 321 112
372 133 32 14 409 151 425 155 8 2 29 9 45 16 17 6 35 13 40 15 6 1 91 33 190
69 99 37 185 68 190 69 6 1 37 12 70 25 85 32 237 88 320 117 39 13 77 27 85
31 8 3 20 7 25 9 6 1 46 16 90 32 148 56 326 120 336 121 3 1 5 -35 4 -80z
m16 -194 c-2 -62 -7 -105 -13 -110 -4 -2 -258 -75 -282 -80 -10 -3 -33 -9 -51
-15 -18 -6 -41 -13 -51 -15 -10 -2 -41 -11 -69 -19 -27 -8 -223 -64 -435 -125
-212 -61 -394 -114 -405 -116 -11 -3 -51 -14 -90 -26 -38 -11 -83 -24 -100
-29 -16 -4 -111 -31 -210 -60 -99 -29 -187 -54 -195 -54 -9 -1 -20 -5 -25 -8
-8 -5 -64 -20 -85 -23 -3 0 -10 -3 -16 -7 -6 -4 -26 -10 -44 -13 -18 -3 -37
-8 -42 -11 -4 -3 -16 -7 -25 -9 -10 -1 -114 -31 -232 -65 -118 -34 -222 -63
-230 -65 -9 -2 -126 -36 -261 -75 -519 -151 -1326 -382 -1340 -385 -8 -1 -22
-5 -30 -8 -34 -13 -265 -75 -268 -72 -2 2 63 24 145 50 81 26 213 68 293 95
203 67 590 192 604 195 6 1 22 7 36 12 14 6 28 9 33 6 4 -2 7 1 7 8 0 7 3 10
6 6 3 -3 18 -1 33 5 14 5 33 11 41 14 8 2 103 33 210 69 107 36 202 67 210 69
8 2 22 6 30 9 18 7 93 31 100 32 3 0 57 18 120 40 63 21 120 40 125 41 6 1 46
14 90 29 44 15 87 28 95 30 8 2 15 4 15 5 0 1 7 3 15 5 8 2 105 33 215 70 110
36 207 68 215 70 8 2 62 19 120 38 58 19 170 56 250 81 80 26 152 50 160 53 8
3 20 7 25 8 6 2 102 33 215 70 113 37 210 68 215 69 6 2 17 6 25 9 8 3 157 52
330 108 173 56 360 116 415 134 55 18 102 31 104 29 2 -2 3 -33 2 -69z m79 51
c0 -3 -4 -8 -10 -11 -5 -3 -10 -1 -10 4 0 6 5 11 10 11 6 0 10 -2 10 -4z m-66
-233 c-5 -46 -11 -105 -13 -129 -1 -11 -26 -21 -71 -30 -8 -2 -150 -37 -315
-79 -165 -41 -311 -78 -325 -81 -14 -3 -43 -10 -65 -16 -22 -5 -47 -11 -55
-13 -8 -2 -116 -29 -240 -60 -124 -31 -232 -58 -240 -60 -8 -2 -53 -13 -100
-25 -47 -12 -93 -24 -103 -26 -10 -2 -27 -6 -37 -9 -10 -3 -27 -7 -37 -10 -10
-2 -101 -24 -203 -50 -102 -26 -192 -48 -200 -50 -8 -2 -98 -24 -200 -50 -102
-25 -193 -48 -203 -50 -9 -2 -45 -11 -80 -20 -34 -9 -69 -18 -77 -20 -8 -2
-53 -13 -100 -25 -46 -12 -93 -22 -102 -23 -10 -1 -18 -4 -18 -7 0 -3 -8 -6
-17 -6 -10 0 -130 -29 -268 -63 -137 -35 -257 -65 -265 -66 -8 -2 -15 -4 -15
-5 0 -2 -12 -4 -55 -13 -14 -3 -115 -28 -225 -57 -110 -28 -209 -53 -220 -55
-29 -5 -264 -63 -305 -75 -67 -20 -275 -72 -295 -74 -11 -2 -44 -10 -74 -19
-46 -14 -75 -16 -60 -4 4 4 221 67 249 72 8 2 16 4 18 4 1 1 4 1 7 1 3 1 22 7
44 15 22 7 42 11 45 8 3 -4 6 0 6 7 0 7 2 11 5 8 3 -3 34 3 68 13 34 10 127
36 207 59 80 23 152 44 160 47 8 3 22 7 31 9 9 2 86 24 171 48 85 25 226 66
314 91 87 26 167 48 177 51 9 2 25 6 35 8 9 3 87 25 172 51 85 25 162 47 171
49 9 3 49 14 89 26 40 12 81 23 92 25 10 2 33 9 51 14 37 12 177 53 192 57 6
1 60 16 120 34 61 18 117 33 125 35 8 2 26 8 40 13 14 5 30 10 35 11 17 3 83
21 275 77 102 30 212 61 245 70 33 9 66 18 73 20 7 2 13 3 15 3 1 0 14 4 30
10 15 6 38 13 50 15 12 3 132 37 267 77 135 39 252 73 260 74 8 2 110 32 225
65 215 63 280 82 420 120 44 12 82 23 84 26 15 14 20 -2 15 -43z m3 -215 c-20
-162 -14 -149 -82 -162 -61 -13 -71 -15 -120 -26 -27 -6 -59 -13 -70 -16 -11
-2 -51 -10 -90 -19 -38 -8 -81 -17 -95 -19 -14 -3 -25 -5 -25 -6 0 -2 -24 -7
-69 -15 -39 -7 -59 -11 -98 -20 -13 -3 -34 -8 -48 -10 -14 -2 -34 -6 -45 -9
-101 -23 -496 -108 -515 -111 -21 -3 -72 -14 -195 -41 -11 -2 -33 -7 -50 -10
-16 -2 -46 -9 -65 -14 -19 -5 -48 -12 -65 -14 -16 -3 -39 -8 -50 -10 -11 -3
-54 -12 -95 -21 -41 -9 -86 -19 -100 -21 -14 -3 -53 -11 -88 -19 -34 -8 -77
-17 -95 -20 -17 -4 -50 -10 -72 -16 -22 -5 -51 -11 -65 -14 -21 -3 -58 -11
-195 -41 -11 -2 -29 -6 -40 -8 -21 -4 -205 -44 -240 -52 -11 -3 -31 -7 -45
-10 -14 -2 -36 -7 -50 -10 -14 -3 -35 -8 -47 -10 -13 -2 -33 -6 -45 -8 -13 -3
-203 -43 -423 -90 -375 -81 -430 -93 -480 -102 -11 -2 -83 -17 -160 -34 -77
-17 -149 -32 -160 -34 -11 -3 -73 -16 -138 -30 -65 -14 -132 -28 -149 -31 -17
-3 -35 -8 -38 -10 -4 -3 -25 -7 -45 -11 -21 -3 -45 -7 -54 -9 -154 -35 -358
-74 -365 -72 -9 3 60 21 232 61 64 15 352 88 377 96 17 5 41 12 55 14 14 3 70
17 125 31 55 14 109 27 120 30 27 5 49 10 125 30 36 9 72 18 80 20 8 2 125 31
260 65 246 62 263 66 300 74 11 3 102 26 203 51 100 26 189 48 197 50 8 2 161
40 340 85 179 45 333 83 342 85 10 2 183 45 385 95 203 51 376 94 385 96 39 9
60 14 253 63 110 29 211 54 225 57 14 3 43 10 65 16 22 5 47 11 55 13 8 2 44
11 80 20 36 9 73 19 83 21 42 10 59 14 177 44 69 18 132 33 140 35 8 2 67 17
130 33 152 39 143 40 137 -10z m-4 -185 c4 -8 -21 -184 -27 -190 -3 -3 -119
-26 -186 -37 -19 -3 -46 -8 -60 -11 -13 -2 -40 -7 -60 -10 -35 -5 -61 -10
-110 -20 -14 -2 -38 -7 -55 -9 -43 -7 -206 -35 -235 -41 -23 -5 -96 -18 -165
-30 -16 -2 -41 -7 -55 -10 -14 -3 -41 -7 -60 -10 -19 -2 -35 -4 -35 -5 0 -1
-9 -3 -20 -4 -35 -5 -325 -56 -460 -81 -71 -14 -143 -27 -160 -29 -53 -9 -319
-56 -345 -61 -32 -6 -255 -45 -295 -51 -16 -3 -57 -10 -90 -16 -33 -6 -69 -12
-80 -14 -27 -4 -184 -33 -215 -39 -28 -6 -37 -7 -165 -29 -49 -9 -100 -18
-111 -20 -23 -5 -86 -15 -119 -21 -20 -3 -250 -42 -295 -50 -48 -9 -315 -56
-339 -60 -14 -2 -48 -9 -78 -15 -29 -6 -57 -9 -63 -5 -5 3 -10 1 -10 -4 0 -6
-3 -10 -7 -9 -5 1 -26 -1 -48 -5 -22 -4 -57 -10 -79 -13 -21 -3 -48 -8 -60
-10 -11 -2 -34 -7 -51 -10 -16 -4 -39 -7 -50 -9 -11 -1 -36 -5 -55 -8 -19 -4
-48 -9 -65 -12 -16 -3 -55 -9 -85 -15 -30 -6 -68 -13 -85 -15 -56 -10 -250
-45 -271 -49 -12 -3 -37 -7 -55 -10 -19 -3 -59 -10 -89 -16 -30 -6 -73 -14
-95 -16 -21 -3 -43 -8 -47 -10 -4 -3 -8 -1 -8 4 0 5 21 13 48 17 56 10 56 10
107 23 22 6 54 14 70 16 17 3 39 8 50 10 11 2 97 21 190 41 94 20 177 38 185
40 61 12 203 42 360 76 102 22 239 51 305 65 66 14 127 27 135 29 8 2 49 10
90 19 170 35 359 76 420 90 65 15 122 27 150 31 8 1 29 5 45 8 33 8 67 15 105
23 14 3 88 19 165 35 77 17 151 33 165 35 14 3 54 12 90 20 36 8 76 17 90 19
14 2 64 13 113 23 48 11 87 18 87 15 0 -3 6 0 13 6 8 6 17 8 20 5 3 -3 11 -2
18 2 7 4 22 9 34 10 11 1 64 12 119 24 54 12 106 23 115 25 9 2 48 10 86 19
39 8 82 17 95 20 14 2 45 9 70 15 25 5 60 13 79 16 19 3 37 8 40 10 4 2 26 6
51 10 25 4 47 8 50 10 3 2 21 6 40 9 19 3 50 10 68 15 18 5 33 10 35 9 7 0 90
16 137 28 30 7 69 15 85 18 17 3 41 8 55 11 49 11 75 17 95 19 11 2 38 8 60
14 22 6 54 14 70 17 75 13 105 19 221 45 55 12 110 24 124 26 33 6 151 32 220
49 70 17 68 16 73 8z m64 -108 c0 -8 -4 -12 -9 -9 -5 3 -6 10 -3 15 9 13 12
11 12 -6z m-67 -122 c0 -5 -9 -45 -19 -90 -10 -46 -17 -83 -14 -83 3 0 0 -6
-6 -14 -10 -12 -51 -21 -141 -32 -8 -1 -49 -6 -90 -13 -41 -6 -95 -13 -120
-16 -25 -3 -70 -10 -100 -15 -30 -5 -75 -12 -100 -15 -68 -8 -233 -31 -280
-40 -14 -2 -52 -7 -85 -11 -33 -3 -69 -8 -80 -10 -11 -3 -37 -6 -57 -9 -94
-12 -115 -15 -138 -19 -14 -3 -47 -7 -75 -11 -49 -6 -516 -72 -565 -79 -14 -3
-43 -7 -65 -10 -22 -3 -58 -8 -80 -11 -22 -3 -58 -8 -80 -11 -22 -2 -47 -6
-55 -9 -8 -2 -40 -6 -70 -10 -30 -3 -66 -7 -80 -10 -14 -3 -44 -7 -66 -10 -72
-7 -138 -16 -154 -20 -8 -2 -40 -7 -70 -10 -30 -3 -67 -8 -82 -11 -26 -5 -47
-8 -133 -19 -22 -3 -51 -8 -65 -10 -34 -5 -109 -16 -145 -21 -16 -2 -63 -9
-103 -15 -41 -6 -76 -8 -79 -5 -4 3 -12 1 -19 -4 -6 -6 -16 -10 -20 -8 -5 1
-34 -2 -64 -7 -66 -10 -70 -11 -140 -19 -30 -4 -66 -9 -80 -11 -14 -2 -45 -7
-70 -10 -25 -3 -56 -7 -70 -10 -14 -3 -41 -7 -60 -9 -19 -3 -51 -7 -70 -10
-19 -3 -73 -11 -120 -17 -111 -15 -120 -16 -155 -23 -16 -3 -56 -8 -88 -11
-32 -2 -62 -7 -65 -9 -7 -4 -102 -17 -157 -21 -16 -1 -39 -4 -50 -8 -11 -3
-47 -9 -80 -13 -62 -7 -73 -8 -140 -18 -107 -15 -264 -37 -295 -41 -37 -4 -56
-7 -240 -35 -63 -9 -117 -15 -119 -14 -9 8 6 12 59 19 30 4 58 9 61 11 7 4 49
11 108 19 23 3 46 7 50 9 3 2 29 7 56 10 28 3 67 10 88 15 20 5 37 7 37 4 0
-2 5 -1 12 3 7 4 21 8 32 9 37 4 104 14 148 24 24 5 63 12 88 16 25 3 77 13
115 20 39 8 126 24 195 36 153 26 157 27 197 33 18 2 40 7 50 10 10 3 38 8 63
11 25 3 52 8 60 10 8 2 35 7 60 10 25 4 63 10 85 15 22 5 69 14 105 19 36 6
74 13 85 15 11 2 36 6 55 10 19 3 46 8 60 11 14 3 77 14 140 25 63 11 126 22
140 24 27 5 93 16 125 21 25 4 412 73 445 80 13 3 40 7 60 10 20 3 47 8 60 11
51 11 66 13 100 18 39 6 142 23 180 31 14 3 54 10 90 15 36 6 99 17 140 25 41
8 91 17 110 20 19 3 123 21 230 41 107 19 206 37 220 39 14 2 41 7 60 10 19 3
44 7 55 9 11 1 29 6 40 9 11 3 40 9 65 12 50 6 90 12 135 22 17 3 37 7 45 8
15 2 87 14 125 21 39 8 351 63 375 67 14 3 45 8 70 12 25 5 54 9 65 11 11 1
20 3 20 4 0 2 30 8 80 15 22 3 85 14 140 24 123 23 115 23 115 14z m60 -88
c-16 -47 -23 -40 -9 9 6 21 13 36 16 33 3 -3 0 -22 -7 -42z m-10 -54 c0 -6 -4
-12 -8 -15 -5 -3 -9 1 -9 9 0 8 4 15 9 15 4 0 8 -4 8 -9z m-74 -108 c-3 -10
-14 -55 -25 -101 -10 -46 -21 -85 -23 -87 -6 -7 -121 -21 -241 -30 -29 -2 -72
-6 -97 -9 -93 -11 -156 -18 -199 -21 -24 -3 -60 -7 -80 -9 -20 -3 -58 -8 -86
-10 -27 -3 -77 -8 -110 -11 -33 -4 -80 -8 -104 -11 -24 -2 -60 -6 -80 -8 -20
-3 -65 -8 -101 -11 -36 -3 -101 -10 -145 -15 -92 -11 -129 -15 -275 -30 -58
-6 -121 -13 -140 -15 -19 -2 -62 -7 -95 -10 -86 -8 -153 -15 -210 -21 -27 -3
-66 -7 -85 -9 -38 -4 -124 -13 -180 -20 -19 -2 -66 -7 -105 -10 -38 -3 -86 -8
-105 -10 -86 -10 -129 -15 -185 -20 -33 -3 -76 -8 -95 -10 -19 -2 -82 -9 -140
-15 -58 -6 -116 -13 -130 -15 -14 -2 -59 -6 -100 -10 -41 -4 -87 -8 -101 -11
-15 -2 -55 -6 -90 -9 -35 -2 -80 -7 -99 -9 -19 -3 -64 -8 -100 -11 -36 -4 -76
-8 -90 -10 -14 -2 -56 -6 -95 -10 -85 -9 -139 -14 -185 -19 -19 -2 -71 -7
-115 -11 -44 -4 -87 -9 -95 -10 -8 -2 -44 -6 -80 -10 -36 -3 -83 -8 -105 -11
-22 -3 -65 -7 -95 -9 -55 -5 -141 -15 -170 -20 -8 -2 -58 -6 -110 -10 -52 -4
-97 -8 -100 -10 -3 -1 -36 -6 -75 -9 -69 -7 -101 -10 -200 -21 -27 -3 -77 -8
-110 -11 -33 -2 -76 -7 -95 -10 -19 -3 -57 -7 -85 -9 -27 -3 -70 -7 -95 -10
-25 -2 -72 -7 -104 -10 -33 -4 -64 -9 -70 -12 -7 -4 -8 -2 -1 5 6 6 34 13 64
17 30 4 63 9 75 11 11 2 45 6 76 9 31 3 67 8 80 10 14 3 45 8 70 11 25 2 88
11 140 19 101 15 137 20 240 35 129 18 165 23 185 25 11 1 40 5 65 9 25 4 60
9 78 11 17 3 47 7 65 10 17 3 52 7 77 10 25 3 56 7 70 9 25 5 155 24 220 32
19 3 46 7 60 9 14 2 45 7 70 10 25 3 74 10 110 15 36 5 83 12 105 15 22 3 67
10 100 15 33 5 80 11 105 14 25 3 54 8 65 10 26 5 98 15 155 21 25 3 56 8 70
10 25 4 64 9 150 20 25 3 56 8 70 10 14 2 49 7 79 10 30 4 63 9 75 11 12 2 35
6 51 8 25 4 281 40 350 50 11 2 47 7 80 11 33 4 69 9 80 11 11 3 38 7 60 10
22 2 58 7 80 10 22 4 54 7 70 9 17 2 44 6 60 8 17 3 55 9 85 12 30 3 62 8 70
10 8 2 35 6 60 9 25 3 55 8 67 10 12 3 46 7 75 10 29 4 62 8 73 10 11 2 43 7
70 10 46 6 101 14 210 31 22 3 58 8 80 10 22 3 49 6 60 9 11 2 43 7 70 10 28
4 68 9 90 12 22 3 51 7 65 9 14 2 25 4 25 5 0 0 18 3 40 5 78 8 126 14 183 24
31 5 80 13 107 16 28 3 61 8 75 10 54 9 237 35 280 40 25 3 81 11 125 18 131
21 147 21 141 0z m45 -134 c-5 -13 -10 -19 -10 -12 -1 15 10 45 15 40 3 -2 0
-15 -5 -28z m-19 -61 c-8 -8 -9 -4 -5 13 4 13 8 18 11 10 2 -7 -1 -18 -6 -23z
m-52 -43 c0 -6 -9 -38 -20 -71 -11 -32 -21 -60 -21 -61 1 -15 -13 -64 -19 -68
-6 -4 -64 -9 -235 -20 -103 -7 -222 -15 -285 -20 -30 -2 -95 -7 -145 -10 -130
-9 -202 -14 -270 -20 -33 -3 -95 -7 -137 -10 -81 -5 -178 -12 -288 -20 -36 -3
-101 -8 -145 -10 -44 -3 -109 -7 -145 -9 -36 -3 -105 -8 -155 -11 -49 -4 -112
-8 -140 -11 -27 -2 -90 -6 -140 -8 -49 -3 -115 -8 -145 -10 -30 -3 -98 -8
-150 -11 -149 -10 -198 -13 -289 -20 -48 -4 -111 -8 -141 -10 -98 -7 -224 -16
-270 -20 -25 -3 -90 -7 -145 -10 -55 -3 -120 -8 -145 -10 -25 -2 -88 -6 -140
-9 -52 -4 -120 -9 -150 -11 -30 -3 -91 -7 -135 -10 -44 -3 -109 -7 -145 -10
-36 -2 -99 -7 -140 -10 -41 -2 -106 -7 -145 -10 -38 -3 -108 -7 -155 -10 -112
-8 -188 -13 -285 -20 -153 -11 -210 -15 -305 -20 -52 -3 -111 -8 -130 -10 -19
-2 -80 -7 -135 -10 -110 -7 -154 -10 -265 -19 -41 -3 -111 -8 -155 -11 -44 -3
-105 -8 -135 -11 -30 -4 -53 -4 -50 -1 3 3 28 8 55 11 28 3 69 8 92 11 23 3
71 7 105 10 35 3 74 7 88 9 14 3 52 8 85 11 33 3 76 8 95 10 19 2 65 7 101 10
37 2 82 7 100 10 31 4 68 8 199 20 78 8 144 15 175 19 17 2 64 7 105 11 41 3
86 8 100 10 14 2 58 7 98 10 41 4 82 8 91 10 10 2 54 6 97 10 43 4 87 9 97 11
10 2 46 6 80 9 34 3 78 8 97 10 19 2 64 7 100 10 36 3 83 8 105 11 22 3 60 7
85 9 25 2 65 7 90 10 25 3 70 8 100 10 30 3 71 7 90 9 19 2 65 7 102 11 37 3
77 8 90 10 13 2 55 6 93 10 39 3 86 8 105 10 19 2 82 9 140 15 58 6 121 13
140 15 19 2 67 7 105 11 39 3 78 8 87 9 9 2 49 7 90 10 40 4 92 10 115 15 28
5 40 4 36 -3 -3 -6 -1 -7 5 -3 6 4 24 8 39 10 104 14 135 17 188 22 74 6 128
11 180 18 22 2 72 7 110 11 39 3 81 8 95 10 14 2 56 7 93 10 37 4 76 8 85 10
9 1 57 6 107 10 49 4 92 8 95 10 3 2 43 6 90 10 47 4 94 9 105 11 11 2 50 6
86 9 36 2 81 7 100 9 64 9 124 16 179 21 30 3 75 7 100 10 25 3 65 7 90 10 53
5 141 14 190 20 19 2 69 6 110 10 41 3 86 8 100 10 14 3 54 7 90 10 35 4 65 7
66 8 9 9 64 2 64 -8z m-4544 -164 c-3 -5 -18 -11 -33 -14 -26 -5 -26 -4 -8 9
21 15 49 19 41 5z m-86 -21 c0 -5 -8 -10 -17 -10 -15 0 -16 2 -3 10 19 12 20
12 20 0z m4637 -52 c-3 -8 -6 -5 -6 6 -1 11 2 17 5 13 3 -3 4 -12 1 -19z m-47
-8 c0 -9 -61 -204 -66 -209 -4 -5 -454 -25 -501 -22 -28 2 -41 2 -123 -3 -47
-3 -170 -8 -275 -11 -104 -4 -246 -8 -315 -11 -69 -2 -190 -6 -270 -9 -80 -3
-208 -7 -285 -9 -77 -3 -214 -8 -305 -11 -91 -3 -212 -8 -270 -10 -98 -4 -296
-11 -590 -20 -69 -2 -188 -6 -265 -9 -77 -3 -207 -8 -290 -11 -82 -3 -204 -8
-270 -10 -328 -12 -432 -16 -575 -20 -85 -3 -213 -8 -285 -10 -71 -3 -200 -8
-285 -10 -85 -3 -213 -7 -285 -10 -71 -2 -202 -7 -290 -10 -88 -3 -227 -7
-310 -10 -82 -4 -147 -4 -145 -2 5 5 99 14 230 22 47 3 110 7 140 10 30 2 93
7 140 10 89 5 186 13 280 20 30 2 96 7 145 10 50 3 115 7 145 10 30 2 91 7
135 10 44 3 114 8 155 11 41 3 102 7 135 9 137 8 243 16 295 20 58 5 180 14
290 20 72 4 195 13 280 20 30 2 93 7 140 10 47 3 108 8 135 10 28 2 100 6 160
10 61 3 121 8 135 10 14 2 72 7 130 10 104 6 157 9 300 20 98 7 164 12 280 20
96 7 114 8 295 19 55 4 120 9 145 11 47 5 189 15 275 20 174 10 269 16 302 19
21 2 81 7 133 10 112 8 204 14 280 21 30 2 96 7 145 10 50 3 110 8 135 10 25
2 90 7 145 10 55 4 120 8 145 10 25 2 90 6 145 10 55 4 101 8 102 8 6 6 103 3
103 -3z m31 -37 c-12 -20 -14 -14 -5 12 4 9 9 14 11 11 3 -2 0 -13 -6 -23z
m-4836 -3 c-11 -5 -31 -8 -45 -8 -23 0 -22 1 5 8 42 11 65 11 40 0z m-156 -74
c-2 -2 -24 -6 -49 -10 l-45 -5 45 13 c41 12 60 12 49 2z m-284 -96 c-16 -4
-39 -8 -50 -8 -16 0 -15 2 5 8 14 4 36 8 50 8 22 0 22 -1 -5 -8z m5195 -49
c-4 -9 -8 -20 -9 -26 -2 -28 -65 -185 -75 -186 -33 -4 -6234 -3 -6230 0 5 5
32 7 324 16 113 4 248 8 300 10 52 2 169 7 260 9 463 15 778 26 895 31 55 2
183 7 285 10 102 3 230 8 285 10 55 2 179 7 275 10 200 7 361 12 575 20 83 3
206 7 275 10 69 2 193 7 275 10 83 3 222 8 310 11 88 3 210 7 270 9 217 8 433
15 580 20 83 3 218 8 300 11 83 3 210 7 283 9 73 2 136 5 139 8 3 3 16 2 29
-3 13 -5 24 -6 24 -2 0 4 33 7 73 8 133 1 510 14 513 17 2 2 14 3 28 3 19 0
23 -3 16 -15z m-5980 -159 c0 -5 -7 -9 -15 -9 -8 0 -12 4 -9 9 3 4 9 8 15 8 5
0 9 -4 9 -8z m-43 -8 c-3 -3 -12 -4 -19 -1 -8 3 -5 6 6 6 11 1 17 -2 13 -5z"/>
<path d="M1915 6119 c-41 -49 -73 -95 -69 -101 3 -5 20 7 37 28 17 20 42 49
57 63 23 23 65 101 55 101 -3 0 -38 -41 -80 -91z"/>
</g>
</svg>
