<svg width="177" height="41" viewBox="0 0 177 41" fill="none" xmlns="http://www.w3.org/2000/svg">
<path d="M38.3977 20.603C40.6137 20.464 42.9127 20.3785 44.2306 20.3785C45.9975 20.3785 46.4734 20.7714 46.5028 22.1722V22.7897H41.5681C38.9323 22.7897 37.3337 24.0782 37.3337 26.2942V27.695C37.3337 30.2746 39.2691 31.6754 41.8487 31.6754C44.2894 31.6754 45.9708 30.3869 46.9519 29.2347L47.3715 31.3385H50.6515V22.1989C50.6515 21.667 50.6168 21.1858 50.5473 20.7527L47.2807 18.5955L44.3241 16.644L38.3923 20.5629L38.3977 20.603ZM41.4264 26.6043C41.4264 25.8184 41.7632 25.3159 42.771 25.2864H46.5001V27.2218C45.3212 28.12 44.0033 28.5664 43.0517 28.5664C41.9289 28.5664 41.4264 28.1174 41.4264 27.1363V26.6043Z" fill="#416226"/>
<path d="M47.0668 16.2726V15.9304C47.0668 15.6738 47.2753 15.4626 47.5346 15.4626C47.4758 15.1071 47.4117 14.8291 47.4117 14.8264C47.4117 14.8264 47.1711 13.5887 45.9788 13.431C45.9788 13.431 47.0668 13.6101 47.115 14.7408C47.115 14.7408 44.9871 14.4628 45.6046 12.7467C45.6046 12.7467 45.7302 12.9846 46.6552 13.1797C47.5614 13.3722 47.6255 14.0431 47.5213 14.5484C47.5881 14.7676 47.6362 14.9681 47.671 15.1525C47.7057 14.944 47.7592 14.7114 47.8367 14.4575C47.7325 13.9523 47.7966 13.2813 48.7028 13.0888C49.6251 12.8937 49.7534 12.6558 49.7534 12.6558C50.3682 14.3693 48.2404 14.65 48.2404 14.65C48.2885 13.5192 49.3765 13.3401 49.3765 13.3401C48.1842 13.4978 47.9436 14.7355 47.9436 14.7355C47.9436 14.7382 47.8688 15.0643 47.8073 15.4626H47.8207C48.0773 15.4626 48.2885 15.6711 48.2885 15.9304V17.4755L47.0722 16.2726H47.0668Z" fill="#FFCC00"/>
<path fill-rule="evenodd" clip-rule="evenodd" d="M44.3242 16.2326L37.6653 20.6299V18.3364L44.3242 13.939L50.9831 18.3364V20.6299L44.3242 16.2326Z" fill="#FFCC00"/>
<path fill-rule="evenodd" clip-rule="evenodd" d="M36.3901 28.0052H30.3701C29.4451 28.0052 29.0522 27.5855 29.0522 26.5483V22.8192H36.7643V19.7343H29.0522V16.7912C29.0522 15.7807 29.4451 15.361 30.3701 15.361H37.8015L37.9967 12.1933C35.3609 11.9126 32.0248 11.9126 29.0228 11.9126C26.4432 11.9126 24.7885 13.4256 24.7617 15.8101V27.5293C24.7885 29.9138 26.4432 31.4268 29.0228 31.4268C32.0221 31.4268 35.1631 31.5311 37.7988 31.2504L37.7935 31.1836C36.6948 30.5848 36.4783 29.4407 36.3874 28.0052H36.3901Z" fill="#416226"/>
<path d="M58.7539 26.2116C60.1279 26.6046 60.716 26.6607 60.716 27.5001C60.716 28.3983 60.0717 28.5373 57.2382 28.5373C55.3883 28.5373 53.4529 28.5373 52.4425 28.4812L52.1912 31.1731C54.8537 31.6222 57.3504 31.6489 58.3876 31.6489C62.8465 31.6489 64.7258 30.8363 64.7258 27.4146C64.7258 25.0034 63.6592 24.049 61.3041 23.3781L57.7701 22.4237C56.4523 22.0602 55.947 22.0308 55.947 21.1887C55.947 20.2638 56.4523 20.2638 58.6095 20.2638C60.3471 20.2638 62.1702 20.2905 63.9372 20.3199L64.2179 17.6575C62.507 17.35 59.8151 17.1522 57.8236 17.1255C53.5064 17.1255 51.9346 18.1921 51.9346 21.0791C51.9346 23.2658 52.6643 24.5275 55.3001 25.284L58.7485 26.209L58.7539 26.2116Z" fill="#416226"/>
<path d="M80.0646 17.5181H75.6351L73.0822 26.4625C72.9138 27.0506 72.7187 27.8366 72.5208 28.5369H72.1573C72.045 27.8366 71.906 27.1362 71.7376 26.4625L69.158 17.5181H64.7285L69.2435 30.3333C69.4387 30.9508 69.9439 31.3438 70.5881 31.3438H71.374L71.3179 31.4561C70.6175 33.0252 69.4681 33.9528 67.1959 34.5409L67.5327 36.9815C72.0744 37.5135 74.2344 34.2335 75.1593 31.5416L80.0673 17.5207L80.0646 17.5181Z" fill="#416226"/>
<path d="M94.0962 19.2664L94.2913 17.6063H89.9447C89.0465 17.3497 87.9265 17.208 86.4963 17.208C81.8129 17.208 80.2705 18.443 80.2705 21.6669C80.2705 23.49 80.8024 24.6956 82.2059 25.3692C80.912 26.2113 80.5752 28.4808 81.837 29.6036C80.356 30.3895 79.6824 31.146 79.6824 32.6323C79.6824 35.7733 81.3077 36.8372 86.6353 36.8372C91.963 36.8372 93.5615 35.8267 93.5615 32.4345C93.5615 30.05 92.4949 28.7882 89.7763 28.4247L84.7534 27.7243C83.6601 27.5853 83.5745 26.5454 83.9408 25.8745C84.6705 26.0135 85.5099 26.0696 86.4642 26.0696C91.1503 26.0696 92.666 24.7517 92.666 21.6428C92.666 20.7794 92.5538 20.0763 92.3025 19.4615L94.0962 19.2664ZM86.4642 23.6878C84.1412 23.6878 83.3847 23.1558 83.3847 21.6401C83.3847 20.1245 84.1412 19.6219 86.4696 19.6219C88.7979 19.6219 89.525 20.0977 89.525 21.6401C89.525 23.1826 88.7953 23.6878 86.4642 23.6878ZM87.9559 30.8092C89.8057 31.0337 90.2842 31.1166 90.2842 32.2955C90.2842 33.8379 89.5838 34.1186 86.6113 34.1186C83.6387 34.1186 82.965 33.894 82.965 32.2687C82.965 31.4561 83.358 30.9509 84.0316 30.3333L87.9559 30.8092Z" fill="#7DBA2B"/>
<path d="M95.2456 20.2931C97.4055 20.1247 99.7312 20.0124 100.993 20.0124C102.955 20.0124 103.49 20.4054 103.516 21.9745V22.8166H98.3572C95.7775 22.8166 94.2913 24.0783 94.2913 26.265V27.6657C94.2913 30.2454 96.1144 31.6461 98.6379 31.6461C101.161 31.6461 102.899 30.3282 103.88 29.2349L104.244 31.3387H106.935V22.0013C106.935 18.3283 105.168 17.2056 101.776 17.2056C99.9531 17.2056 96.8682 17.513 94.9061 17.8792L95.2429 20.2904L95.2456 20.2931ZM97.6862 26.6874C97.6862 25.7624 98.023 25.2011 99.1431 25.1449H103.516V27.2755C102.116 28.4249 100.544 28.9007 99.4799 28.9007C98.2449 28.9007 97.6862 28.3955 97.6862 27.2193V26.6874Z" fill="#7DBA2B"/>
<path d="M117.377 17.2109H116.703C114.91 17.2109 112.918 18.0797 111.039 19.6222L110.731 17.6039H108.069V31.3441H111.491V21.6431C113.453 20.8572 114.714 20.4081 116.032 20.4081H117.013L117.377 17.2109Z" fill="#7DBA2B"/>
<path d="M1.28052 20.9105C1.54516 23.5062 4.213 25.7356 6.5761 23.998C6.37828 22.346 4.29052 20.0444 1.28052 20.9105Z" fill="#FFCC00"/>
<path d="M13.8525 25.2919C13.8525 25.2919 17.6832 27.0242 19.1134 21.0362C15.3014 20.5898 14.2001 23.533 13.8525 25.2919Z" fill="#FFCC00"/>
<path d="M11.131 24.0538C11.131 24.0538 -1.25918 14.7217 11.131 2.48926C10.6151 7.73137 19.5008 13.2702 11.131 24.0538Z" fill="#92C024"/>
<path d="M19.4741 16.3395C18.3701 17.2938 16.9961 16.8554 17.2688 18.7213C18.3701 18.9191 19.672 18.6625 19.4741 16.3395ZM11.4893 0.949939C3.27198 8.48832 3.15168 17.5584 10.2998 24.1345C10.3426 26.142 10.2811 28.473 9.85603 30.1572C9.82663 30.1572 9.79455 30.1572 9.76514 30.1572C9.67425 28.5345 9.21179 25.1957 7.00374 23.6346C7.8351 24.8856 8.26281 26.2703 8.48201 27.484C8.13985 26.9734 7.71214 26.5323 7.18285 26.257C8.03025 27.2407 8.27885 28.5051 8.3243 29.4701C7.96342 28.7083 7.15879 27.8261 5.35439 27.6925C7.01444 28.4918 7.46888 29.5744 7.57313 30.2988C5.68586 30.4993 4.28511 30.8629 3.50989 31.1623V31.2826C8.28153 31.3628 12.7324 31.3601 17.5094 31.2826V31.1623C16.7555 30.8762 15.4617 30.5367 13.6921 30.3309C13.684 29.5102 13.8471 28.1683 14.8121 27.0964C13.5477 27.8529 13.0318 28.9034 12.8259 29.6947C12.7564 28.6388 12.7564 26.6446 13.4782 24.7894C12.6709 25.7999 12.1844 27.1284 11.8957 28.3073C12.2325 21.8997 10.2009 21.0309 13.7509 17.1655C12.719 17.4381 11.8796 18.1973 11.2862 18.9084C11.2461 18.6331 11.0723 15.3477 13.7509 12.9579C12.3795 13.4631 11.4011 14.4468 10.7676 15.2969C10.7596 15.2328 10.241 12.311 12.3448 9.93719C11.3931 10.4291 10.789 11.1508 10.4067 11.8539C10.2864 10.1136 10.2677 8.28783 10.4361 6.30433C8.80547 10.5894 9.94959 17.0104 10.2811 22.7925C9.44436 21.8275 8.67448 20.7235 8.05163 19.5099C8.53281 19.6088 9.07279 19.6034 9.65822 19.4216C7.68006 18.5742 7.03048 16.9971 6.95028 16.7137C7.51699 16.9489 8.25479 17.0639 9.18774 16.8661C6.48782 15.9037 6.47713 13.2279 6.48247 13.0167C6.99572 13.5834 7.58382 14.0058 8.60231 14.1849C6.54663 12.5168 6.9877 9.35978 6.9877 9.35978C6.9877 9.35978 7.76025 10.9877 9.27862 11.0572C6.42099 7.77725 9.46842 4.93298 10.9761 3.40125C11.9438 7.01539 18.5599 13.4497 14.3523 19.7264C20.8642 14.0459 12.3474 6.08513 11.4947 0.947266L11.4893 0.949939ZM3.8975 17.9086C3.3896 16.9677 2.55556 16.3421 2.55556 16.3421C2.55556 16.3421 3.68632 16.6068 4.03651 17.398C4.37066 15.5776 2.48873 15.599 1.88727 14.7783C0.775224 17.537 2.68922 17.9086 3.90018 17.9113L3.8975 17.9086ZM13.8017 23.3619C13.8017 23.3619 15.3334 20.4455 18.6161 21.0095C17.9852 23.0117 17.6671 25.2652 15.0634 24.8108C15.0554 24.8108 15.0447 24.8081 15.0367 24.8054C15.3227 23.2283 17.6751 21.9211 17.6751 21.9211C17.6751 21.9211 13.6707 22.1242 13.7161 26.7408C14.0663 26.11 14.4833 25.6528 14.887 25.7223C15.7958 25.8827 17.0416 25.8801 17.9825 24.8322C18.9422 23.7629 19.0758 22.3809 19.835 20.3492C14.4459 18.8068 13.799 23.3619 13.799 23.3619H13.8017ZM5.7019 24.6397C6.06813 24.4953 6.55198 24.8482 7.00107 25.3748C6.15902 21.0149 2.34171 21.5896 2.34171 21.5896C2.34171 21.5896 4.81173 22.3702 5.38379 23.803C5.37577 23.8057 5.36775 23.8083 5.35974 23.8137C2.99129 24.7413 2.25884 22.6776 1.27778 20.9106C4.26373 19.7504 6.27129 22.2044 6.27129 22.2044C6.27129 22.2044 4.78767 18.0316 0 20.5203C1.1067 22.29 1.49698 23.5678 2.60903 24.3911C3.69969 25.1984 4.87322 24.9632 5.69923 24.637L5.7019 24.6397Z" fill="#416226"/>
<path d="M137.672 2.00864C135.108 4.98122 136.287 8.67289 131.264 7.94311C130.727 4.97588 131.422 1.47935 137.672 2.00864Z" fill="#416226"/>
<path fill-rule="evenodd" clip-rule="evenodd" d="M111.501 1.43905C111.627 1.68498 112.073 1.88547 112.429 2.16348C113.431 2.95207 114.059 3.52146 114.899 4.61212C116.821 7.11155 118.256 10.5092 120.459 12.0863C121.975 13.1717 123.472 13.4096 125.736 13.3508C125.8 10.5947 125.506 8.11934 124.421 6.06633C123.865 5.0131 123.309 4.42767 122.515 3.68185C121.796 3.00554 120.868 2.59119 119.817 2.09398C120.05 1.98705 121.673 2.53505 122.026 2.68475C124.161 3.58829 125.49 5.10399 126.148 7.42164C126.65 9.18861 126.741 11.1882 126.88 13.2171C127 14.9841 127.204 16.7698 127.204 18.494C127.204 18.5795 127.204 18.6891 127.204 18.8147H130.238V9.74998C130.181 1.94695 121.149 -1.53888 113.741 0.637094L111.504 1.44172L111.501 1.43905Z" fill="#7DBA2B"/>
<path d="M130.251 11.7148H126.829V15.6685C126.829 16.6228 126.856 17.5183 126.968 18.4165C125.624 17.5745 124.025 17.2109 122.397 17.2109C118.919 17.2109 117.126 18.9217 117.126 24.3884C117.126 29.0424 118.47 31.6782 121.948 31.6782C124.191 31.6782 126.041 30.6116 127.276 29.4621L127.556 31.3414H130.248V11.7148H130.251ZM126.829 27.361C125.316 28.3715 124.587 28.7911 123.213 28.7911C121.389 28.7911 120.633 27.9785 120.633 24.3617C120.633 20.7449 121.389 19.9883 123.408 19.9883C124.643 19.9883 125.594 20.2396 126.829 20.5497V27.3637V27.361Z" fill="#7DBA2B"/>
<path d="M140.449 25.9015C143.002 25.9015 144.122 24.4446 144.122 21.9772C144.122 18.8656 142.328 17.2109 137.869 17.2109C133.411 17.2109 131.224 19.0046 131.224 24.4446C131.224 29.8845 133.103 31.6782 138.094 31.6782C139.832 31.6782 142.299 31.4537 143.758 30.7533L143.451 28.5666C141.796 28.7618 139.834 28.9034 138.516 28.9034C136.161 28.9034 135.124 28.3982 134.843 25.9041H140.452L140.449 25.9015ZM134.785 23.517C134.867 20.6299 135.653 19.9002 138.008 19.9002C140.112 19.9002 140.727 20.4615 140.727 21.9184C140.727 22.6482 140.588 23.517 139.492 23.517H134.782H134.785Z" fill="#7DBA2B"/>
<path fill-rule="evenodd" clip-rule="evenodd" d="M148.11 17.6012H145.25V31.3414H148.672V21.7794C150.551 20.7128 151.813 20.098 153.187 20.098C154.28 20.098 154.644 20.5176 154.644 22.0601V31.3414H154.652C155.087 36.0007 156.9 38.166 161.027 38.6739C162.88 38.9011 163.692 38.7701 165.997 37.5378C168.237 36.1531 168.868 33.7392 168.868 33.7392C168.868 33.7392 167.9 34.8593 166.593 35.7548C165.539 36.3429 164.235 36.8775 163.786 35.9018C163.778 35.8858 163.767 35.8724 163.754 35.8644C164.369 32.7368 167.576 32.8998 170.552 32.5978C170.373 37.7624 165.457 39.1711 165.457 39.1711C165.457 39.1711 172.586 39.6256 171.939 30.9484C168.611 31.4617 166.47 31.2291 164.542 32.3518C163.096 33.1939 162.527 34.4984 162.316 35.704C162.128 35.6799 161.915 35.6505 161.677 35.6104C159.552 35.2683 158.407 34.1669 158.063 31.2906H158.057V21.0202C158.057 18.5529 156.713 17.2056 154.272 17.2056C152.28 17.2056 150.292 18.1305 148.327 19.6168L148.102 17.5985L148.11 17.6012Z" fill="#7DBA2B"/>
<path d="M173.102 32.2848C174.254 31.9132 175.118 31.114 175.118 31.114C175.118 31.114 174.591 32.3169 173.642 32.5441C175.599 33.2899 175.957 31.1915 176.997 30.6889C174.155 28.8872 173.353 30.9402 173.102 32.2848Z" fill="#416226"/>
<path d="M98.7984 36.0357H98.1275V37.8401C97.804 38.0593 97.4619 38.2572 97.0101 38.2572C96.3044 38.2572 96.0638 37.784 96.0638 36.426C96.0638 34.7874 96.4059 34.5548 97.395 34.5548C97.7024 34.5548 98.1703 34.5682 98.6006 34.6109L98.6701 34.0897C98.2585 33.9881 97.8067 33.9453 97.3549 33.9453C95.866 33.9453 95.3394 34.488 95.3394 36.3806C95.3394 38.0807 95.7724 38.856 96.8203 38.856C97.4726 38.856 97.9591 38.5405 98.2264 38.2866L98.2959 38.7677H98.8038V36.0384L98.7984 36.0357ZM99.7849 35.9743C100.306 35.9342 100.876 35.8914 101.204 35.8914C101.718 35.8914 101.862 36.0224 101.87 36.434V36.6933H100.525C99.9212 36.6933 99.579 36.9954 99.579 37.5301V37.8802C99.579 38.4897 99.9907 38.8265 100.6 38.8265C101.21 38.8265 101.683 38.4977 101.937 38.2358L102.012 38.7624H102.533V36.4314C102.533 35.5893 102.121 35.3274 101.346 35.3274C100.881 35.3274 100.194 35.4022 99.7207 35.4851L99.7822 35.9716L99.7849 35.9743ZM100.25 37.6209C100.25 37.367 100.338 37.2093 100.648 37.1959H101.87V37.8C101.485 38.1369 101.041 38.2652 100.739 38.2652C100.402 38.2652 100.253 38.1288 100.253 37.8V37.6209H100.25ZM105.679 35.33H105.522C105.075 35.33 104.589 35.5492 104.115 35.9261L104.046 35.4182H103.533V38.7651H104.198V36.3378C104.706 36.0972 105.04 35.9529 105.399 35.9529H105.604L105.679 35.33ZM108.649 38.7651H109.17V33.9667H108.505V34.9745C108.505 35.2071 108.513 35.4129 108.532 35.6321C108.176 35.4263 107.778 35.33 107.379 35.33C106.529 35.33 106.104 35.7631 106.104 37.0783C106.104 38.2304 106.433 38.8479 107.278 38.8479C107.799 38.8479 108.251 38.594 108.593 38.3053L108.649 38.7651ZM108.505 37.8535C108.072 38.1476 107.861 38.2705 107.505 38.2705C106.997 38.2705 106.791 38.0246 106.791 37.0703C106.791 36.1159 106.997 35.9048 107.545 35.9048C107.882 35.9048 108.141 35.9743 108.505 36.0705V37.8535ZM112.242 37.4151C112.803 37.4151 113.057 37.0596 113.057 36.4554C113.057 35.723 112.632 35.33 111.59 35.33C110.547 35.33 110.039 35.7631 110.039 37.0863C110.039 38.4095 110.486 38.8479 111.651 38.8479C112.049 38.8479 112.646 38.7918 112.974 38.6501L112.913 38.2117C112.549 38.2518 112.084 38.2946 111.739 38.2946C111.095 38.2946 110.806 38.1449 110.74 37.4178H112.242V37.4151ZM110.734 36.9019C110.756 36.1052 110.975 35.8941 111.624 35.8941C112.194 35.8941 112.386 36.0518 112.392 36.4554C112.392 36.6613 112.343 36.9019 112.063 36.9019H110.732H110.734ZM114.458 35.4209H113.897V38.7677H114.562V36.3966C115.075 36.0892 115.42 35.8967 115.797 35.8967C116.113 35.8967 116.222 36.0277 116.222 36.4528V38.7704H116.888V36.2603C116.888 35.6561 116.572 35.3354 115.982 35.3354C115.487 35.3354 114.995 35.5626 114.501 35.9395L114.461 35.4263L114.458 35.4209ZM122.384 38.1983H120.505C120.229 38.1983 120.128 38.0807 120.128 37.7599V36.5543H122.122V35.9983H120.128V35.052C120.128 34.7286 120.229 34.6136 120.505 34.6136H122.384L122.419 34.079C121.796 34.0228 121.069 34.0228 120.39 34.0228C119.807 34.0228 119.443 34.3516 119.438 34.8729V37.931C119.446 38.4523 119.802 38.7811 120.39 38.7811C121.069 38.7811 121.796 38.7811 122.419 38.725L122.384 38.1983ZM126.175 40.1311V35.5786C125.736 35.4129 125.071 35.3327 124.637 35.3327C123.437 35.3327 123.108 35.9716 123.108 37.1023C123.108 38.3293 123.493 38.8586 124.261 38.8586C124.734 38.8586 125.18 38.6608 125.562 38.3454C125.514 38.5646 125.506 38.7784 125.506 39.0377V40.1337H126.172L126.175 40.1311ZM125.517 37.8535C125.14 38.1075 124.865 38.2705 124.488 38.2705C123.926 38.2705 123.795 37.907 123.795 37.1451C123.795 36.1641 124.009 35.9048 124.632 35.8914C124.886 35.8834 125.215 35.9128 125.517 35.993V37.8508V37.8535ZM130.083 35.4182H129.425V37.8375C128.96 38.1262 128.645 38.2839 128.313 38.2839C127.958 38.2839 127.827 38.1476 127.832 37.7359V35.4182H127.166V37.9284C127.166 38.5378 127.482 38.8533 128.078 38.8533C128.559 38.8533 129.016 38.6688 129.503 38.3053L129.551 38.7651H130.077V35.4182H130.083ZM131.31 33.9934C131.179 33.9934 131.117 34.0683 131.117 34.1859V34.5708C131.117 34.7018 131.179 34.7687 131.31 34.7687H131.625C131.756 34.7687 131.818 34.6992 131.818 34.5708V34.1859C131.818 34.0683 131.756 33.9934 131.625 33.9934H131.31ZM131.796 38.7651V35.4182H131.139V38.7651H131.796ZM133.4 35.4182H132.852V40.1284H133.51V39.1901C133.518 38.9575 133.518 38.7437 133.496 38.5111C133.868 38.7437 134.285 38.8479 134.702 38.8479C135.552 38.8479 135.977 38.4095 135.977 37.113C135.977 35.9689 135.648 35.33 134.838 35.33C134.352 35.33 133.796 35.5706 133.446 35.9342L133.397 35.4209L133.4 35.4182ZM133.51 36.3913C133.956 36.0678 134.264 35.9048 134.614 35.9048C135.1 35.9048 135.293 36.2068 135.293 37.105C135.293 38.0567 135.079 38.2705 134.526 38.2705C134.183 38.2705 133.908 38.1957 133.51 38.0914V36.3913ZM137.405 35.4182H136.857V38.7651H137.514V36.3779C138.014 36.0224 138.241 35.8914 138.549 35.8914C138.878 35.8914 139.035 36.0357 139.035 36.4474V38.7651H139.674V36.3859C140.169 36.0304 140.388 35.8914 140.709 35.8914C141.064 35.8914 141.19 36.0571 141.195 36.4474V38.7651H141.847V36.2549C141.847 35.6508 141.532 35.33 140.949 35.33C140.503 35.33 140.078 35.5225 139.634 35.9128C139.532 35.5278 139.236 35.33 138.784 35.33C138.332 35.33 137.894 35.5439 137.439 35.9342L137.405 35.4209V35.4182ZM144.898 37.4124C145.459 37.4124 145.713 37.0569 145.713 36.4528C145.713 35.7203 145.288 35.3274 144.245 35.3274C143.203 35.3274 142.695 35.7604 142.695 37.0836C142.695 38.4069 143.141 38.8453 144.307 38.8453C144.705 38.8453 145.301 38.7891 145.63 38.6474L145.568 38.209C145.205 38.2491 144.74 38.2919 144.395 38.2919C143.751 38.2919 143.462 38.1422 143.395 37.4151H144.898V37.4124ZM143.39 36.8992C143.411 36.1026 143.63 35.8914 144.28 35.8914C144.849 35.8914 145.042 36.0491 145.047 36.4528C145.047 36.6586 144.999 36.8992 144.718 36.8992H143.387H143.39ZM147.114 35.4182H146.552V38.7651H147.218V36.3939C147.731 36.0865 148.076 35.8941 148.453 35.8941C148.768 35.8941 148.878 36.0251 148.878 36.4501V38.7677H149.544V36.2576C149.544 35.6535 149.228 35.3327 148.637 35.3327C148.143 35.3327 147.651 35.5599 147.156 35.9368L147.116 35.4236L147.114 35.4182ZM152.398 38.2224H151.912C151.589 38.2224 151.474 38.1128 151.474 37.7974V35.9315H152.508V35.4182H151.474V34.4372H150.816V35.4236L150.206 35.4503V35.9315H150.816V37.8856C150.816 38.4897 151.118 38.8239 151.687 38.8239C151.867 38.8239 152.257 38.7971 152.476 38.7357L152.401 38.2224H152.398Z" fill="#406326"/>
<path d="M164.19 16.7776C164.19 17.649 163.505 18.3307 162.618 18.3307C161.73 18.3307 161.035 17.6464 161.035 16.7776C161.035 15.9088 161.736 15.2432 162.618 15.2432C163.5 15.2432 164.19 15.9275 164.19 16.7776ZM161.428 16.7776C161.428 17.4619 161.933 18.0046 162.626 18.0046C163.318 18.0046 163.797 17.4619 163.797 16.7883C163.797 16.1146 163.302 15.5533 162.618 15.5533C161.933 15.5533 161.428 16.1039 161.428 16.7802V16.7776ZM162.374 17.5822H162.019V16.0478C162.161 16.0211 162.356 16.0023 162.61 16.0023C162.901 16.0023 163.032 16.0478 163.144 16.1146C163.23 16.1815 163.294 16.3017 163.294 16.4514C163.294 16.6199 163.163 16.7508 162.976 16.807V16.8257C163.126 16.8818 163.211 16.9941 163.257 17.1999C163.302 17.4352 163.331 17.5287 163.369 17.5849H162.984C162.938 17.5287 162.909 17.3897 162.861 17.2106C162.834 17.0422 162.738 16.9674 162.543 16.9674H162.374V17.5849V17.5822ZM162.385 16.7107H162.554C162.751 16.7107 162.909 16.6439 162.909 16.4862C162.909 16.3445 162.807 16.251 162.583 16.251C162.489 16.251 162.423 16.2616 162.385 16.2697V16.7107Z" fill="#416226"/>
</svg>
