<svg width="122" height="40" viewBox="0 0 122 40" fill="none" xmlns="http://www.w3.org/2000/svg">
<path d="M24.9335 21.0204C24.4343 21.0204 23.922 21.0028 23.3993 20.9676C22.8752 20.9324 22.329 20.8663 21.7579 20.7709V22.4122C21.7579 23.2212 22.031 23.8642 22.5786 24.3399C23.1262 24.8156 23.9704 25.0534 25.1126 25.0534C25.7792 25.0534 26.3738 24.9697 26.8979 24.8038C27.422 24.6379 27.9799 24.4236 28.576 24.1608C28.623 24.1138 28.7125 24.0712 28.8432 24.036C28.9738 24.0008 29.1471 23.9832 29.3614 23.9832C29.9795 23.9832 30.4258 24.1623 30.7004 24.519C30.9734 24.8758 31.1115 25.2325 31.1115 25.5893C31.1115 26.1369 30.8795 26.5832 30.4156 26.9283C29.9516 27.2733 29.3923 27.5522 28.7375 27.7666C28.0827 27.9809 27.3927 28.1292 26.6674 28.2129C25.9421 28.2966 25.3167 28.3377 24.794 28.3377C23.6988 28.3377 22.724 28.1835 21.8666 27.8737C21.0106 27.564 20.2898 27.1367 19.7069 26.5891C19.1241 26.0415 18.6778 25.394 18.368 24.6438C18.0582 23.8936 17.9041 23.0905 17.9041 22.2346V15.9172C17.9041 15.0363 18.0582 14.2215 18.368 13.4727C18.6778 12.7225 19.13 12.0751 19.7245 11.5274C20.3191 10.9798 21.0576 10.5453 21.937 10.2252C22.8179 9.90368 23.8295 9.74365 24.9702 9.74365C27.1357 9.74365 28.7536 10.2854 29.8239 11.3674C30.8942 12.4494 31.43 13.8838 31.43 15.6691C31.43 17.3589 30.9191 18.6729 29.8958 19.6125C28.8725 20.5521 27.2194 21.0219 24.935 21.0219L24.9335 21.0204ZM27.6099 15.559C27.6099 14.6076 27.378 13.9293 26.914 13.5241C26.4501 13.1189 25.7777 12.9178 24.8968 12.9178C23.897 12.9178 23.1248 13.1674 22.5771 13.668C22.0295 14.1672 21.7565 14.8454 21.7565 15.7028V17.8082C22.3745 17.8801 22.9882 17.9329 23.5946 17.9682C24.2009 18.0034 24.6355 18.021 24.8968 18.021C25.9201 18.021 26.6278 17.8008 27.0212 17.3604C27.4132 16.9199 27.6099 16.3195 27.6099 15.5575V15.559Z" fill="#00406F"/>
<path d="M7.765 9.47617C8.74132 9.47617 9.6589 9.58775 10.5178 9.81237C11.3752 10.037 12.2135 10.3732 13.0327 10.8225C13.5084 10.0576 14.056 9.48938 14.6755 9.11941C15.2966 8.74944 15.8574 8.56445 16.358 8.56445C16.8587 8.56445 17.3211 8.7421 17.744 9.09886C18.1668 9.45562 18.3782 9.89753 18.3782 10.4261C18.3782 10.6903 18.3253 10.9149 18.2196 11.0999C18.1139 11.2849 18.0082 11.4303 17.9025 11.536L17.3079 12.1306C17.0437 12.3948 16.8264 12.6253 16.6546 12.8235C16.4828 13.0217 16.3448 13.2126 16.2391 13.3976C16.1334 13.5826 16.0615 13.7866 16.0218 14.0113C15.9822 14.2359 15.9631 14.4928 15.9631 14.7835V17.1193C15.9631 18.1485 15.8045 19.0998 15.4874 19.9704C15.1703 20.8411 14.6829 21.5942 14.0222 22.227C13.3616 22.8612 12.5438 23.3619 11.5675 23.7318C10.5912 24.1018 9.44162 24.2868 8.12176 24.2868C7.67251 24.2868 7.21738 24.2604 6.75492 24.2075C6.29246 24.1547 5.86376 24.0622 5.46736 23.93C5.33523 24.2207 5.24273 24.4718 5.18988 24.6817C5.13703 24.8931 5.1106 25.1045 5.1106 25.316C5.1106 25.9238 5.29559 26.326 5.66556 26.5242C6.03553 26.7224 6.39229 26.8208 6.73437 26.8208H8.39777C9.61192 26.8208 10.7336 26.9397 11.7642 27.1776C12.7934 27.4154 13.6919 27.778 14.4568 28.2669C15.2217 28.7558 15.8236 29.3695 16.2582 30.108C16.6942 30.8464 16.9115 31.7317 16.9115 32.7609C16.9115 33.7901 16.6942 34.7077 16.2582 35.5137C15.8222 36.3182 15.2158 37.0112 14.4362 37.5926C13.6581 38.1739 12.7405 38.6158 11.6835 38.9198C10.6279 39.2237 9.46658 39.3749 8.1981 39.3749C6.92963 39.3749 5.8755 39.2295 4.87129 38.9388C3.86855 38.6481 3.00382 38.2385 2.27709 37.7115C1.55183 37.1829 0.989528 36.5296 0.594597 35.7515C0.198199 34.9734 0 34.0954 0 33.1177C0 32.247 0.184986 31.4484 0.554958 30.7216C0.924929 29.9949 1.50485 29.2887 2.29764 28.6031C1.92767 28.0746 1.67075 27.527 1.5254 26.9603C1.38005 26.3921 1.30811 25.8841 1.30811 25.4363C1.30811 24.9886 1.40061 24.4997 1.58559 23.9711C1.77058 23.4426 2.11412 22.9155 2.61476 22.387C1.05706 20.9879 0.278947 19.1395 0.278947 16.8433C0.278947 15.7877 0.437506 14.8099 0.754625 13.9129C1.07174 13.0159 1.54595 12.2363 2.18019 11.5771C2.81443 10.9164 3.59254 10.4026 4.516 10.0326C5.43946 9.66262 6.52295 9.47764 7.76353 9.47764L7.765 9.47617ZM11.6849 15.9301V14.9597C11.6849 14.6293 11.6982 14.3064 11.7246 13.9892C11.1432 13.6985 10.5824 13.468 10.0421 13.2963C9.50034 13.1245 8.9263 13.0393 8.31996 13.0393C7.05295 13.0393 6.10894 13.3697 5.48791 14.0289C4.86689 14.6895 4.55711 15.6526 4.55711 16.9196C4.55711 18.0809 4.84046 19.0059 5.40863 19.6915C5.9768 20.3786 6.90614 20.7207 8.20104 20.7207C9.38877 20.7207 10.2667 20.4109 10.8349 19.7899C11.4031 19.1688 11.6864 18.3056 11.6864 17.1957V15.9287L11.6849 15.9301ZM7.64608 30.4633C7.22326 30.4633 6.82099 30.45 6.4378 30.4236C6.05462 30.3972 5.67877 30.3708 5.3088 30.3443C4.62171 31.0314 4.27963 31.8228 4.27963 32.7198C4.27963 33.6697 4.60996 34.4096 5.26916 34.9367C5.92982 35.4652 6.93256 35.728 8.27885 35.728C9.54586 35.728 10.5882 35.4843 11.4075 34.9954C12.2252 34.5065 12.6348 33.7871 12.6348 32.8372C12.6348 31.2531 11.2489 30.4618 8.47705 30.4618H7.64608V30.4633Z" fill="#00406F"/>
<path d="M33.0227 13.4868C33.3295 12.7615 33.7685 12.1258 34.3382 11.5782C34.9298 11.0101 35.658 10.5593 36.5228 10.229L38.1421 13.3356C37.7677 13.4721 37.4521 13.6645 37.1952 13.917C36.8032 14.3016 36.5477 14.7846 36.4303 15.3675L33.0242 13.4868H33.0227Z" fill="#00A3A6"/>
<path d="M39.7103 28.3373C38.5211 28.3373 37.4787 28.1714 36.5876 27.8381C35.6949 27.5048 34.9462 27.0468 34.3384 26.4639C33.732 25.8811 33.274 25.191 32.9642 24.3938C32.6544 23.5966 32.5002 22.7466 32.5002 21.8422V16.2031C32.5002 15.306 32.6441 14.4765 32.9333 13.7131L36.3894 15.6202C36.3673 15.7949 36.3556 15.977 36.3556 16.1664V21.8422C36.3556 22.8185 36.6345 23.579 37.1939 24.1266C37.7533 24.6743 38.5916 24.9473 39.7103 24.9473C40.829 24.9473 41.6673 24.6743 42.2267 24.1266C42.786 23.579 43.065 22.8185 43.065 21.8422V16.1664C43.065 15.215 42.786 14.4648 42.2267 13.9172C41.6673 13.3696 40.829 13.0965 39.7103 13.0965C39.2082 13.0965 38.7619 13.1523 38.3728 13.2624L36.749 10.147C37.605 9.85336 38.5916 9.70508 39.7103 9.70508C40.829 9.70508 41.911 9.87098 42.8154 10.2042C43.7198 10.5375 44.4759 10.9956 45.0822 11.5784C45.6886 12.1613 46.1466 12.8454 46.4564 13.6309C46.7662 14.4163 46.9203 15.2723 46.9203 16.2016V21.8407C46.9203 22.7451 46.7662 23.5952 46.4564 24.3924C46.1466 25.1896 45.6886 25.8796 45.0822 26.4624C44.4759 27.0453 43.7198 27.5034 42.8154 27.8366C41.911 28.1699 40.876 28.3358 39.7103 28.3358V28.3373Z" fill="#00406F"/>
<path d="M51.1264 22.6984C51.1264 23.6733 51.4596 24.4294 52.1262 24.9653C52.7927 25.5011 53.7088 25.7683 54.8745 25.7683C56.1592 25.7683 57.1046 25.4351 57.7125 24.7685C58.3188 24.102 58.6227 23.1741 58.6227 21.9849V15.2741C58.6227 14.2742 58.3555 13.5005 57.8196 12.9544C57.2838 12.4068 56.4102 12.1337 55.1961 12.1337C54.2917 12.1337 53.5121 12.2937 52.8588 12.6152C52.204 12.9368 51.627 13.3713 51.1278 13.9175V22.6984H51.1264ZM48.3428 3.53186C48.3428 3.1751 48.4617 2.85945 48.6995 2.58637C48.9374 2.3133 49.2824 2.17529 49.7346 2.17529C50.1868 2.17529 50.5318 2.31183 50.7696 2.58637C51.0075 2.85945 51.1264 3.1751 51.1264 3.53186V11.1706C51.7929 10.6949 52.5064 10.3323 53.2684 10.0827C54.0304 9.83312 54.898 9.70833 55.8743 9.70833C56.8507 9.70833 57.7594 9.85074 58.4627 10.137C59.1644 10.4218 59.7355 10.8153 60.176 11.3145C60.6164 11.8136 60.9321 12.4038 61.1215 13.0806C61.3123 13.7589 61.4078 14.4901 61.4078 15.2755V21.9864C61.4078 22.8908 61.2712 23.7291 60.9967 24.5028C60.7236 25.2765 60.3125 25.9489 59.7649 26.52C59.2173 27.0911 58.539 27.5374 57.7301 27.859C56.9211 28.1805 55.9698 28.3405 54.8745 28.3405C53.7793 28.3405 52.8999 28.1922 52.0909 27.8942C51.282 27.5962 50.6037 27.1983 50.0561 26.6991C49.5085 26.2 49.0871 25.6039 48.7891 24.9139C48.4911 24.2238 48.3428 23.4868 48.3428 22.7014V3.53039V3.53186Z" fill="#00A3A6"/>
<path d="M69.4049 25.8737C70.1668 25.8737 70.8202 25.7783 71.3678 25.5874C71.9154 25.3966 72.4983 25.1587 73.1163 24.8739C73.1633 24.8504 73.2294 24.8269 73.3131 24.802C73.3968 24.7785 73.4981 24.7667 73.617 24.7667C73.9737 24.7667 74.2718 24.8915 74.5096 25.1411C74.7474 25.3907 74.8664 25.6829 74.8664 26.0161C74.8664 26.4448 74.6579 26.8075 74.2424 27.1055C73.8255 27.4035 73.3145 27.6414 72.7082 27.819C72.1019 27.9981 71.4647 28.1288 70.7981 28.211C70.1316 28.2947 69.5605 28.3358 69.0848 28.3358C68.085 28.3358 67.1865 28.1875 66.3893 27.8895C65.5921 27.5915 64.9256 27.176 64.3912 26.6401C63.8553 26.1042 63.4457 25.4744 63.1594 24.7477C62.8731 24.0224 62.7307 23.2428 62.7307 22.4104V15.7362C62.7307 14.8803 62.8731 14.0831 63.1594 13.3446C63.4442 12.6076 63.8612 11.9704 64.4088 11.4346C64.9564 10.8987 65.6347 10.4773 66.4436 10.1675C67.2526 9.85777 68.1922 9.70361 69.2639 9.70361C71.2621 9.70361 72.7493 10.2277 73.7256 11.2745C74.7019 12.3213 75.1894 13.7381 75.1894 15.5219C75.1894 17.1632 74.7196 18.4552 73.7799 19.3948C72.8403 20.3344 71.2988 20.8042 69.1582 20.8042C68.6106 20.8042 68.0219 20.7807 67.3921 20.7323C66.7608 20.6853 66.1368 20.6016 65.5187 20.4827V22.588C65.5187 23.5878 65.8461 24.385 66.5009 24.9796C67.1557 25.5742 68.1247 25.8723 69.4093 25.8723L69.4049 25.8737ZM72.4381 15.5233C72.4381 14.3576 72.1591 13.5178 71.5998 13.0069C71.0404 12.496 70.2373 12.2391 69.1905 12.2391C68.0248 12.2391 67.1205 12.5313 66.4774 13.1141C65.8344 13.697 65.5143 14.4883 65.5143 15.4881V18.2012C66.1808 18.2966 66.8826 18.3612 67.6196 18.3979C68.3566 18.4332 68.9042 18.4508 69.261 18.4508C69.9275 18.4508 70.4693 18.3671 70.8848 18.2012C71.3017 18.0353 71.6291 17.8151 71.867 17.5406C72.1048 17.2675 72.259 16.9518 72.3309 16.5951C72.4028 16.2383 72.4381 15.8816 72.4381 15.5248V15.5233Z" fill="#00A3A6"/>
<path d="M79.5865 26.9456C79.5865 27.3508 79.4558 27.6826 79.1945 27.9454C78.9331 28.2068 78.5999 28.3374 78.1947 28.3374C77.7895 28.3374 77.4577 28.2068 77.1949 27.9454C76.9335 27.6841 76.8029 27.3508 76.8029 26.9456V14.8819C76.8029 14.2873 76.7618 13.8058 76.6781 13.4358C76.5944 13.0673 76.4461 12.7164 76.2318 12.3831C76.1598 12.2642 76.1011 12.157 76.0527 12.0616C76.0057 11.9662 75.9807 11.8355 75.9807 11.6696C75.9807 11.2894 76.1114 10.9855 76.3727 10.7594C76.634 10.5333 76.9321 10.4202 77.2653 10.4202C77.5502 10.4202 77.813 10.5098 78.0508 10.6874C78.2886 10.8665 78.503 11.0985 78.6938 11.3833C79.4558 10.9077 80.2882 10.5333 81.1926 10.2587C82.097 9.98566 82.8942 9.84766 83.5842 9.84766C84.2742 9.84766 84.7866 9.97832 85.048 10.2396C85.3093 10.501 85.4399 10.8225 85.4399 11.2028C85.4399 11.6549 85.3034 12.0117 85.0289 12.273C84.7558 12.5344 84.4284 12.6533 84.0467 12.6298C83.3097 12.6063 82.5888 12.6474 81.887 12.7546C81.1853 12.8618 80.3939 13.2479 79.5131 13.9144C79.5366 14.1053 79.5542 14.277 79.5659 14.4327C79.5777 14.5868 79.5835 14.7366 79.5835 14.879V26.9427L79.5865 26.9456Z" fill="#00A3A6"/>
<path d="M95.3176 15.9873C95.3176 13.4415 94.0447 12.1686 91.499 12.1686C90.8809 12.1686 90.3744 12.2406 89.9824 12.383C89.5904 12.5254 89.1911 12.7045 88.7873 12.9188C88.7403 12.9423 88.6214 12.9966 88.4306 13.0789C88.2397 13.1625 88.0503 13.2037 87.8595 13.2037C87.5262 13.2037 87.2825 13.073 87.1283 12.8117C86.9742 12.5503 86.8846 12.2875 86.8611 12.0262C86.8141 11.621 86.9331 11.2701 87.2179 10.9735C87.5027 10.6755 87.8903 10.4318 88.3777 10.2424C88.8651 10.0516 89.4128 9.91502 90.0191 9.83133C90.6254 9.74765 91.2391 9.70654 91.8572 9.70654C94.0947 9.70654 95.6949 10.3129 96.658 11.527C97.6211 12.7412 98.1042 14.5367 98.1042 16.9166V24.7697C98.1042 25.4832 98.3185 25.84 98.7472 25.84C98.7942 25.84 98.8368 25.8341 98.872 25.8223C98.9072 25.8106 98.9615 25.8047 99.032 25.8047C99.3653 25.8047 99.6207 25.9295 99.7999 26.1791C99.979 26.4287 100.067 26.7091 100.067 27.0174C100.067 27.4696 99.9012 27.7852 99.5679 27.9629C99.2346 28.142 98.8661 28.2301 98.4609 28.2301C97.8663 28.2301 97.3363 28.0701 96.8724 27.7485C96.4084 27.427 96.0458 26.9924 95.783 26.4463C94.403 27.7074 92.7733 28.3387 90.8926 28.3387C89.012 28.3387 87.6627 27.8454 86.7701 26.8574C85.8775 25.8693 85.4312 24.5671 85.4312 22.9492V22.8068C85.4312 19.2847 87.5247 17.5244 91.7133 17.5244C92.9745 17.5244 94.1754 17.6903 95.3176 18.0236V15.9887V15.9873ZM91.6766 19.8778C90.9396 19.8778 90.3436 19.9556 89.8914 20.1098C89.4392 20.2639 89.0883 20.4783 88.8387 20.7528C88.5891 21.0259 88.4159 21.3416 88.3205 21.6983C88.225 22.0551 88.178 22.4353 88.178 22.8405V22.9829C88.178 23.8154 88.4041 24.4995 88.8563 25.0354C89.3085 25.5713 90.1292 25.8385 91.3199 25.8385C92.0818 25.8385 92.7836 25.7137 93.4252 25.4641C94.0682 25.2145 94.6981 24.8152 95.3176 24.269V20.4137C94.723 20.2228 94.1035 20.0863 93.4619 20.0026C92.8188 19.9189 92.2242 19.8778 91.6766 19.8778Z" fill="#00A3A6"/>
<path fill-rule="evenodd" clip-rule="evenodd" d="M120.899 23.6629V23.6571C120.931 23.5235 120.969 23.3693 121.012 23.1961C121.106 22.7703 121.197 22.3445 121.264 21.9951L121.267 21.9922C121.167 22.5574 121.044 23.1153 120.899 23.6644V23.6629Z" fill="#3C3C3B"/>
<path fill-rule="evenodd" clip-rule="evenodd" d="M121.552 17.8715C121.534 17.6939 121.505 17.4281 121.467 17.1815C121.45 17.0831 121.431 16.9862 121.412 16.9084C121.361 16.7146 121.301 16.5825 121.21 16.5531C121.202 16.534 121.198 16.534 121.192 16.5355C120.881 16.4518 120.597 17.2989 120.622 18.4309C120.606 19.5848 120.895 20.4481 121.207 20.3806C121.213 20.3806 121.217 20.3806 121.224 20.3629C121.314 20.3512 121.376 20.1985 121.425 20.0062C121.445 19.9284 121.462 19.8506 121.477 19.7522C121.515 19.4982 121.543 19.2222 121.559 19.0445C121.563 18.8816 121.565 18.7201 121.565 18.5557C121.565 18.3266 121.559 18.0991 121.552 17.8715Z" fill="#00406F"/>
<path fill-rule="evenodd" clip-rule="evenodd" d="M121.264 15.0975L121.261 15.0945C121.192 14.7451 121.101 14.3193 121.007 13.8936C120.97 13.7394 120.932 13.5853 120.897 13.4517V13.4458C121.044 13.9875 121.166 14.5381 121.264 15.0975Z" fill="#3C3C3B"/>
<path fill-rule="evenodd" clip-rule="evenodd" d="M117.481 30.5926C117.31 30.7864 117.142 30.9802 116.961 31.1901C116.882 31.2782 116.791 31.3824 116.713 31.472C116.314 31.9095 115.879 32.3675 115.233 32.8344C114.477 33.2793 114.315 33.153 114.098 33.0458C114.063 33.0047 114 32.9886 113.935 32.971C113.791 32.9166 113.574 32.9181 113.201 33.0458C113.182 33.0517 113.163 33.0576 113.144 33.0634C112.175 33.3527 111.141 34.1939 110.864 34.8942C110.585 35.4903 111.081 35.6444 111.938 35.2936C111.956 35.2862 111.974 35.2774 111.993 35.2686C112.316 35.1188 112.568 34.9662 112.828 34.79C112.941 34.7122 113.038 34.6432 113.148 34.561C113.633 34.1924 114.13 33.7784 114.853 33.3204C115.201 33.059 115.359 32.9401 115.437 32.877C116.215 32.1341 116.933 31.3281 117.582 30.4678C117.559 30.4986 117.534 30.5294 117.507 30.5603C117.495 30.5764 117.482 30.5911 117.482 30.5911L117.481 30.5926Z" fill="#00A3A6"/>
<path fill-rule="evenodd" clip-rule="evenodd" d="M116.214 31.0903C115.484 31.428 115.07 30.989 115.349 30.0568C115.609 29.0481 116.513 27.9999 117.313 27.7606C118.03 27.4948 118.299 28.0557 117.976 28.9586C117.623 29.7954 116.86 30.7262 116.214 31.0903Z" fill="#00406F"/>
<path fill-rule="evenodd" clip-rule="evenodd" d="M118.252 20.9377C117.393 20.9891 116.665 19.9819 116.682 18.6665C116.669 17.3349 117.4 16.3087 118.262 16.3703C119.03 16.4261 119.621 17.4523 119.638 18.6533C119.616 19.8513 119.019 20.8716 118.252 20.9377Z" fill="#00A3A6"/>
<path fill-rule="evenodd" clip-rule="evenodd" d="M120.246 21.9671C120.039 22.0053 119.871 22.18 119.709 22.409C119.636 22.5059 119.567 22.6028 119.501 22.7188C119.164 23.2326 118.794 23.8346 117.968 23.9887C117.022 24.1517 116.67 23.6364 116.29 23.1842C116.209 23.0785 116.117 22.9874 116.015 22.9096C115.785 22.7012 115.5 22.572 115.064 22.6043C115.039 22.6116 115.018 22.6043 114.993 22.6116C113.86 22.6777 112.822 23.8492 112.73 25.1808C112.617 26.4757 113.446 27.3728 114.54 27.2113C114.562 27.2084 114.584 27.2039 114.606 27.1995C115.021 27.1364 115.328 26.9367 115.6 26.6901C115.716 26.5903 115.823 26.4846 115.927 26.3583C116.41 25.8224 116.893 25.1955 117.824 25.0179C118.651 24.8065 118.853 25.2352 119.04 25.567C119.072 25.6404 119.113 25.6976 119.161 25.7373C119.253 25.8577 119.363 25.9237 119.561 25.8195C119.574 25.8048 119.581 25.8063 119.595 25.7916C119.998 25.5347 120.461 24.5554 120.684 23.5791C120.866 22.5778 120.712 21.8379 120.279 21.9539C120.268 21.9524 120.257 21.9686 120.246 21.9671Z" fill="#00A3A6"/>
<path fill-rule="evenodd" clip-rule="evenodd" d="M119.554 11.2698C119.363 11.1832 119.246 11.2316 119.156 11.352C119.109 11.3916 119.068 11.4489 119.036 11.5238C118.851 11.857 118.648 12.2843 117.821 12.0743C116.891 11.8967 116.408 11.2698 115.925 10.7339C115.82 10.6077 115.713 10.5019 115.597 10.4021C115.326 10.1555 115.017 9.9558 114.603 9.89267C114.581 9.88826 114.559 9.88533 114.537 9.88092C113.436 9.70915 112.608 10.6062 112.73 11.9128C112.822 13.2459 113.855 14.4057 114.992 14.4835C115.017 14.4909 115.038 14.4835 115.063 14.4909C115.499 14.5217 115.779 14.3793 116.014 14.184C116.115 14.1062 116.208 14.0137 116.289 13.908C116.669 13.4558 117.02 12.9405 117.965 13.102C118.792 13.2562 119.162 13.8581 119.498 14.372C119.566 14.488 119.633 14.5848 119.707 14.6817C119.868 14.9108 120.037 15.0855 120.244 15.1237C120.257 15.1398 120.266 15.1383 120.276 15.1369C120.709 15.2529 120.865 14.532 120.678 13.5116C120.452 12.5353 119.991 11.5575 119.588 11.2991C119.574 11.2845 119.567 11.2859 119.554 11.2713V11.2698Z" fill="#00A3A6"/>
<path fill-rule="evenodd" clip-rule="evenodd" d="M117.307 9.32937C116.507 9.09154 115.603 8.04181 115.341 7.0332C115.061 6.10093 115.474 5.66343 116.203 6.0011C116.849 6.36373 117.624 7.31215 117.966 8.13137C118.289 9.03428 118.024 9.59511 117.307 9.32937Z" fill="#00406F"/>
<path fill-rule="evenodd" clip-rule="evenodd" d="M115.423 4.21735C115.346 4.15422 115.186 4.0353 114.853 3.78572C114.117 3.31591 113.618 2.9019 113.134 2.53339C113.04 2.46145 112.928 2.38217 112.83 2.31611C112.57 2.13993 112.3 1.97697 111.978 1.82722C111.961 1.81841 111.943 1.81107 111.924 1.80226C111.067 1.45137 110.588 1.61434 110.868 2.20893C111.147 2.90924 112.181 3.75048 113.15 4.03971C113.169 4.04558 113.188 4.05145 113.207 4.05732C113.565 4.17331 113.781 4.17624 113.925 4.12192C114.004 4.11752 114.053 4.08816 114.103 4.05879C114.305 3.93987 114.465 3.81361 115.221 4.25846C115.881 4.74001 116.315 5.19807 116.701 5.6209C116.792 5.72513 116.87 5.81469 116.949 5.90278C117.13 6.11272 117.312 6.32267 117.469 6.50031C117.481 6.51499 117.482 6.51499 117.494 6.53114C117.519 6.56197 117.556 6.60895 117.581 6.63979C116.927 5.77505 116.207 4.96317 115.423 4.21735Z" fill="#00A3A6"/>
<path fill-rule="evenodd" clip-rule="evenodd" d="M106.722 36.7443C105.618 36.8969 104.798 36.5402 104.886 35.8942C104.975 35.1484 106.065 34.3938 107.273 34.2734C108.472 34.1133 109.231 34.6184 109.018 35.3334C108.795 35.9515 107.772 36.5593 106.721 36.7428L106.722 36.7443Z" fill="#00A3A6"/>
<path fill-rule="evenodd" clip-rule="evenodd" d="M107.939 27.8738C106.572 27.9443 105.48 26.9166 105.518 25.5541C105.548 24.1535 106.737 22.9732 108.152 22.9379C109.528 22.9012 110.569 23.9818 110.491 25.3471C110.398 26.6699 109.266 27.7887 107.941 27.8723L107.939 27.8738Z" fill="#00A3A6"/>
<path fill-rule="evenodd" clip-rule="evenodd" d="M108.152 14.1509C106.737 14.1171 105.546 12.9338 105.52 11.5346C105.48 10.1722 106.571 9.14451 107.939 9.21645C109.266 9.3016 110.398 10.4203 110.492 11.7446C110.566 13.1026 109.528 14.1861 108.152 14.1509Z" fill="#00A3A6"/>
<path fill-rule="evenodd" clip-rule="evenodd" d="M107.279 2.82417C106.053 2.69791 104.978 1.94916 104.889 1.20481C104.8 0.560298 105.621 0.205008 106.708 0.35329C107.776 0.544149 108.8 1.15049 109.024 1.76711C109.237 2.48063 108.463 2.97686 107.279 2.8227V2.82417Z" fill="#00A3A6"/>
<path fill-rule="evenodd" clip-rule="evenodd" d="M111.862 28.8822C111.382 28.938 111.021 29.1274 110.704 29.3608C110.564 29.4563 110.423 29.5708 110.3 29.6868C109.698 30.1977 109.078 30.7791 107.66 30.9127C106.202 31.014 105.636 30.5119 105.065 30.07C104.949 29.9643 104.812 29.8718 104.659 29.794C104.338 29.5913 103.952 29.4504 103.381 29.4621C103.347 29.4621 103.315 29.4621 103.291 29.4621C101.864 29.4754 100.728 30.4634 100.744 31.6277C100.773 32.7185 101.855 33.5495 103.178 33.5333C103.207 33.5333 103.238 33.5304 103.269 33.5289C103.799 33.5142 104.173 33.3792 104.507 33.1956C104.643 33.1208 104.777 33.0341 104.907 32.9358C105.508 32.5027 106.139 31.9741 107.568 31.8655C108.961 31.7231 109.432 32.1327 109.889 32.4483C109.984 32.5159 110.078 32.579 110.199 32.6216C110.442 32.7376 110.733 32.7934 111.181 32.7082C111.2 32.7067 111.219 32.7053 111.253 32.6935C112.316 32.4616 113.354 31.5043 113.599 30.5177C113.815 29.4666 113.092 28.709 111.947 28.869C111.916 28.8778 111.894 28.8778 111.864 28.8881L111.862 28.8822Z" fill="#00406F"/>
<path fill-rule="evenodd" clip-rule="evenodd" d="M112.444 15.8553C111.927 15.8333 111.573 16.0021 111.263 16.2341C111.124 16.3281 110.998 16.4455 110.88 16.5674C110.299 17.1194 109.704 17.7845 108.166 17.7786C106.583 17.7742 105.934 17.0856 105.287 16.5072C105.151 16.3706 105.006 16.2517 104.848 16.1489C104.489 15.8935 104.074 15.7114 103.47 15.7085C103.437 15.707 103.407 15.7056 103.374 15.7056C101.877 15.7041 100.663 16.9153 100.662 18.4172C100.662 19.9177 101.879 21.1318 103.376 21.1289C103.409 21.1289 103.438 21.1289 103.47 21.1289C104.075 21.1259 104.491 20.9424 104.848 20.6899C105.006 20.5857 105.154 20.4623 105.287 20.3287C105.935 19.7474 106.583 19.0647 108.166 19.0559C109.704 19.0559 110.3 19.7224 110.885 20.27C111.002 20.3977 111.13 20.5108 111.269 20.6092C111.579 20.8514 111.936 21.01 112.45 20.9982C112.477 20.9938 112.502 20.9982 112.53 20.9938C113.753 20.9571 114.724 19.812 114.734 18.4187C114.718 17.0386 113.744 15.895 112.523 15.8583C112.495 15.8539 112.467 15.8494 112.442 15.8553H112.444Z" fill="#00406F"/>
<path fill-rule="evenodd" clip-rule="evenodd" d="M111.171 4.38929C110.723 4.30414 110.432 4.35993 110.188 4.47591C110.083 4.52583 109.974 4.58015 109.893 4.65649C109.425 4.96333 108.952 5.37294 107.559 5.23053C106.13 5.12189 105.511 4.5963 104.91 4.16466C104.781 4.0663 104.646 3.97968 104.495 3.90187C104.178 3.71982 103.801 3.58622 103.272 3.57007C103.241 3.5686 103.212 3.56713 103.181 3.56566C101.858 3.54951 100.773 4.38048 100.744 5.46837C100.726 6.63261 101.866 7.6192 103.284 7.63095C103.318 7.63095 103.35 7.63095 103.373 7.63095C103.944 7.64269 104.332 7.50175 104.665 7.30061C104.808 7.21987 104.943 7.12737 105.059 7.02167C105.642 6.58416 106.208 6.08206 107.668 6.18483C109.074 6.31109 109.695 6.89394 110.299 7.40485C110.422 7.52083 110.563 7.63535 110.702 7.73078C111.019 7.96421 111.382 8.1536 111.862 8.20939C111.893 8.21967 111.913 8.2182 111.946 8.22848C113.091 8.38851 113.812 7.63095 113.595 6.57976C113.348 5.59316 112.323 4.64621 111.245 4.40397C111.226 4.4025 111.207 4.40103 111.174 4.38929H111.171Z" fill="#00406F"/>
<path fill-rule="evenodd" clip-rule="evenodd" d="M100.292 34.5465C99.7602 34.5274 99.4211 34.6199 99.1201 34.7491C98.9953 34.8005 98.8676 34.8592 98.7707 34.9297C98.2539 35.2042 97.7621 35.5081 96.4583 35.3599C95.206 35.1749 94.6144 34.7462 94.0389 34.3513C93.9258 34.2632 93.7922 34.1751 93.6571 34.0958C93.3606 33.9079 93.0288 33.7464 92.5927 33.6539C92.559 33.6421 92.5399 33.6392 92.5208 33.6363C91.4755 33.3764 90.9308 33.7669 91.2464 34.4393C91.5665 35.0075 92.5634 35.6873 93.4898 36C93.5089 36.0058 93.5279 36.0117 93.5456 36.0161C93.9376 36.1321 94.1813 36.1483 94.3795 36.1248C94.4661 36.1145 94.538 36.091 94.61 36.066C94.9814 35.9471 95.369 35.7607 96.5934 35.9559C97.878 36.1145 98.4359 36.4536 98.9836 36.7267C99.1054 36.7869 99.2096 36.8383 99.3521 36.8882C99.6369 36.9983 99.9643 37.0805 100.43 37.1025C100.466 37.104 100.485 37.1055 100.505 37.1055C101.657 37.129 102.62 36.6621 102.658 36.0044C102.686 35.2453 101.656 34.5685 100.372 34.5495C100.34 34.5495 100.308 34.548 100.292 34.5495V34.5465Z" fill="#00A3A6"/>
<path fill-rule="evenodd" clip-rule="evenodd" d="M100.428 0.000850654C99.9631 0.0228728 99.6357 0.105089 99.3508 0.215199C99.2261 0.26218 99.1042 0.315033 98.9823 0.375227C98.4347 0.648301 97.8754 0.987442 96.6084 1.1416C95.3663 1.34273 94.9963 1.15041 94.6264 1.03295C94.5544 1.00653 94.4663 0.991846 94.3797 0.981569C94.183 0.958079 93.9393 0.975697 93.5473 1.09168C93.5282 1.09755 93.5091 1.10196 93.4915 1.10783C92.5636 1.42054 91.5829 2.09002 91.2467 2.66846C90.9296 3.34087 91.4875 3.71965 92.5196 3.4686C92.5533 3.45686 92.5724 3.45392 92.5915 3.44952C93.0276 3.35702 93.3579 3.19553 93.6706 2.9988C93.8071 2.91805 93.9231 2.83877 94.0523 2.74334C94.6131 2.35722 95.2048 1.92852 96.4733 1.73766C97.777 1.59085 98.2527 1.89769 98.7695 2.17076C98.8825 2.23683 98.9941 2.29849 99.1189 2.34988C99.4198 2.48054 99.759 2.57157 100.29 2.55248C100.307 2.55248 100.339 2.55248 100.371 2.55248C101.654 2.53339 102.686 1.85658 102.659 1.10049C102.619 0.442761 101.656 -0.0226396 100.503 0.000850654C100.484 0.000850654 100.467 0.000850654 100.428 0.00378694V0.000850654Z" fill="#00A3A6"/>
<path fill-rule="evenodd" clip-rule="evenodd" d="M19.6541 4.87354C20.814 4.87354 21.7536 5.78672 21.7536 6.91278C21.7536 8.03885 20.814 8.95203 19.6541 8.95203C18.4943 8.95203 17.5547 8.03885 17.5547 6.91278C17.5547 5.78672 18.4943 4.87354 19.6541 4.87354Z" fill="#00A3A6"/>
<path d="M20.347 35.3201C20.347 35.4787 20.3616 35.6196 20.3895 35.7459C20.4174 35.8721 20.4644 35.9793 20.5305 36.0703C20.5965 36.1614 20.6832 36.2289 20.7933 36.2759C20.9019 36.3228 21.0355 36.3463 21.1941 36.3463C21.3291 36.3463 21.4481 36.3273 21.5494 36.2906C21.6507 36.2524 21.7446 36.2025 21.8312 36.1379V34.9252H21.2851C21.2293 34.9252 21.1794 34.9046 21.1353 34.8635C21.0928 34.8224 21.0707 34.771 21.0707 34.7108C21.0707 34.6506 21.0928 34.5993 21.1353 34.5581C21.1779 34.517 21.2278 34.4965 21.2851 34.4965H21.956C22.0456 34.4965 22.1219 34.517 22.1851 34.5581C22.2467 34.5993 22.2776 34.6653 22.2776 34.7549V36.1026C22.2776 36.2157 22.2423 36.3126 22.1733 36.3963C22.1043 36.4785 22.0148 36.5475 21.9091 36.6018C21.8019 36.6561 21.683 36.6958 21.5508 36.7207C21.4187 36.7457 21.291 36.7574 21.1676 36.7574C20.9504 36.7574 20.761 36.7237 20.6009 36.6561C20.4409 36.5886 20.3102 36.4917 20.206 36.3654C20.1032 36.2392 20.0254 36.0879 19.9755 35.9118C19.9241 35.7356 19.8992 35.5374 19.8992 35.3201V34.1133C19.8992 33.896 19.9241 33.6978 19.9755 33.5216C20.0269 33.3455 20.1032 33.1942 20.206 33.068C20.3088 32.9417 20.4409 32.8448 20.6009 32.7773C20.761 32.7098 20.9489 32.676 21.1676 32.676C21.2954 32.676 21.4202 32.6892 21.5391 32.7156C21.6595 32.7421 21.7652 32.7773 21.8577 32.8199C21.9502 32.8624 22.0236 32.9138 22.0808 32.9726C22.1366 33.0313 22.166 33.0944 22.166 33.1619C22.166 33.2148 22.1469 33.2603 22.1102 33.2999C22.072 33.3396 22.0236 33.3587 21.9634 33.3587C21.9223 33.3587 21.8885 33.3499 21.865 33.3337C21.8401 33.3161 21.8063 33.2926 21.7608 33.2632C21.5949 33.1473 21.407 33.0885 21.197 33.0885C21.0399 33.0885 20.9063 33.112 20.7962 33.159C20.6876 33.206 20.5995 33.275 20.5334 33.3645C20.4673 33.4541 20.4204 33.5627 20.3925 33.689C20.3646 33.8153 20.3499 33.9562 20.3499 34.1148V35.3216L20.347 35.3201ZM24.3638 36.3625C24.4842 36.3625 24.5869 36.3478 24.6736 36.317C24.7602 36.2876 24.8527 36.2494 24.9496 36.2039C24.9569 36.1995 24.9672 36.1966 24.9804 36.1922C24.9936 36.1878 25.0098 36.1863 25.0289 36.1863C25.0846 36.1863 25.1316 36.2054 25.1698 36.245C25.208 36.2847 25.2256 36.3302 25.2256 36.383C25.2256 36.4506 25.1933 36.5078 25.1272 36.5548C25.0612 36.6018 24.9804 36.64 24.885 36.6679C24.7895 36.6958 24.6882 36.7163 24.584 36.7295C24.4783 36.7427 24.3887 36.7486 24.3139 36.7486C24.1553 36.7486 24.0144 36.7251 23.8881 36.6781C23.7619 36.6312 23.6576 36.5651 23.5725 36.4814C23.4873 36.3963 23.4227 36.2979 23.3787 36.1834C23.3332 36.0689 23.3111 35.9455 23.3111 35.8134V34.7593C23.3111 34.6242 23.3332 34.498 23.3787 34.382C23.4242 34.266 23.4902 34.1647 23.5754 34.081C23.662 33.9958 23.7692 33.9298 23.8969 33.8813C24.0246 33.8329 24.1729 33.8079 24.3418 33.8079C24.6574 33.8079 24.8923 33.8901 25.0465 34.056C25.2006 34.2219 25.277 34.4451 25.277 34.727C25.277 34.9868 25.2021 35.1894 25.0538 35.3392C24.9055 35.4875 24.6618 35.5624 24.3241 35.5624C24.2375 35.5624 24.145 35.5579 24.0452 35.5506C23.9454 35.5433 23.847 35.5301 23.7486 35.511V35.8442C23.7486 36.0028 23.8 36.1276 23.9043 36.2215C24.007 36.3155 24.1612 36.3625 24.3638 36.3625ZM24.8424 34.727C24.8424 34.5435 24.7984 34.4099 24.7103 34.3291C24.6222 34.2484 24.4945 34.2073 24.33 34.2073C24.1465 34.2073 24.0026 34.2528 23.9013 34.3453C23.8 34.4378 23.7486 34.5625 23.7486 34.7196V35.1483C23.8543 35.163 23.9645 35.1733 24.0819 35.1792C24.1979 35.185 24.2845 35.188 24.3418 35.188C24.4475 35.188 24.5326 35.1748 24.5987 35.1483C24.6648 35.1219 24.7161 35.0867 24.7543 35.0441C24.7925 35.0015 24.816 34.9516 24.8277 34.8943C24.8395 34.8386 24.8453 34.7813 24.8453 34.7255L24.8424 34.727ZM27.3148 36.7501C27.1415 36.7501 26.9903 36.7251 26.8582 36.6737C26.726 36.6224 26.6174 36.5519 26.5278 36.4623C26.4397 36.3728 26.3722 36.2656 26.3282 36.1437C26.2826 36.0219 26.2606 35.8897 26.2606 35.7459V34.8048C26.2606 34.6653 26.2826 34.5347 26.3282 34.4128C26.3737 34.2909 26.4397 34.1838 26.5278 34.0942C26.6159 34.0047 26.726 33.9327 26.8582 33.8799C26.9903 33.827 27.1415 33.8006 27.3148 33.8006C27.488 33.8006 27.6392 33.827 27.7713 33.8799C27.9035 33.9327 28.0121 34.0032 28.1017 34.0942C28.1898 34.1838 28.2573 34.2909 28.3013 34.4128C28.3469 34.5347 28.3689 34.6653 28.3689 34.8048V35.7459C28.3689 35.8883 28.3469 36.0219 28.3013 36.1437C28.2558 36.2656 28.1898 36.3728 28.1017 36.4623C28.0136 36.5519 27.9035 36.6224 27.7713 36.6737C27.6392 36.7251 27.488 36.7501 27.3148 36.7501ZM27.3148 36.3449C27.5174 36.3449 27.6715 36.292 27.7743 36.1863C27.8771 36.0806 27.9299 35.9338 27.9299 35.7459V34.7989C27.9299 34.6154 27.8785 34.4701 27.7743 34.3643C27.6715 34.2586 27.5174 34.2058 27.3148 34.2058C27.1121 34.2058 26.958 34.2586 26.8552 34.3643C26.7525 34.4701 26.6996 34.6139 26.6996 34.7989V35.7459C26.6996 35.9338 26.751 36.0806 26.8552 36.1863C26.958 36.292 27.1121 36.3449 27.3148 36.3449ZM29.4201 34.6198C29.4201 34.3761 29.4964 34.1794 29.6506 34.0311C29.8047 33.8828 30.0323 33.8079 30.3333 33.8079C30.4052 33.8079 30.4845 33.8138 30.5726 33.8255C30.6606 33.8373 30.7429 33.8549 30.8177 33.8784C30.8926 33.9034 30.9557 33.9342 31.0071 33.9738C31.0585 34.0135 31.0835 34.0634 31.0835 34.1236C31.0835 34.1764 31.0644 34.2234 31.0277 34.2645C30.9895 34.3056 30.9411 34.3262 30.8809 34.3262C30.8515 34.3262 30.8163 34.3174 30.7796 34.2983C30.7194 34.2689 30.6577 34.244 30.596 34.2249C30.5344 34.2058 30.4522 34.197 30.3509 34.197C30.0161 34.197 29.8488 34.3291 29.8488 34.5919C29.8488 34.6785 29.8679 34.7475 29.9075 34.8004C29.9471 34.8532 30.0161 34.9032 30.113 34.9531C30.2114 35.0015 30.32 35.0456 30.4404 35.0823C30.5608 35.1204 30.6739 35.1718 30.781 35.2379C30.8882 35.304 30.9778 35.3891 31.0512 35.4948C31.1246 35.6005 31.1613 35.7444 31.1613 35.9294C31.1613 36.1848 31.082 36.386 30.9249 36.5328C30.7664 36.6796 30.53 36.753 30.2143 36.753C30.1424 36.753 30.0587 36.7486 29.9633 36.7383C29.8679 36.7295 29.7768 36.7119 29.6931 36.6869C29.608 36.662 29.5361 36.6282 29.4759 36.5856C29.4157 36.5431 29.3863 36.4888 29.3863 36.4256C29.3863 36.3772 29.4039 36.3302 29.4392 36.2876C29.4744 36.245 29.5272 36.223 29.5948 36.223C29.6139 36.223 29.6256 36.223 29.6315 36.226C29.6374 36.2274 29.6432 36.2304 29.6506 36.2348C29.7298 36.2641 29.815 36.2935 29.9075 36.3228C30 36.3507 30.1013 36.3654 30.2143 36.3654C30.3729 36.3654 30.4977 36.3331 30.5916 36.2671C30.6856 36.201 30.7326 36.0953 30.7326 35.9485C30.7326 35.8472 30.712 35.7708 30.6709 35.7194C30.6298 35.6681 30.5814 35.6284 30.5241 35.5976C30.4346 35.5491 30.3259 35.5051 30.1996 35.4684C30.0734 35.4302 29.953 35.3803 29.8385 35.3157C29.724 35.2511 29.6256 35.1674 29.5419 35.0617C29.4597 34.956 29.4186 34.8092 29.4186 34.6213L29.4201 34.6198ZM33.5044 36.3507C33.4369 36.5724 33.3694 36.7736 33.3048 36.9541C33.2387 37.1347 33.1609 37.2904 33.0713 37.4225C32.9818 37.5546 32.8746 37.6574 32.7498 37.7323C32.6265 37.8071 32.4723 37.8468 32.2873 37.8512C32.2227 37.8512 32.1699 37.8321 32.1273 37.7925C32.0847 37.7528 32.0627 37.7014 32.0627 37.6368C32.0627 37.584 32.0818 37.537 32.1185 37.4959C32.1567 37.4548 32.2066 37.4313 32.2712 37.4284C32.3608 37.424 32.44 37.4093 32.5046 37.3799C32.5707 37.352 32.6294 37.308 32.6823 37.2507C32.7351 37.192 32.7821 37.1186 32.8262 37.0276C32.8687 36.938 32.9113 36.8264 32.9524 36.6943L32.0554 34.1074C32.048 34.1001 32.0436 34.0883 32.0436 34.0707V34.0281C32.0436 33.968 32.0642 33.9195 32.1053 33.8813C32.1464 33.8432 32.1993 33.8255 32.2639 33.8255C32.305 33.8255 32.3431 33.8373 32.3798 33.8622C32.4151 33.8872 32.443 33.9239 32.4621 33.9724L33.1668 36.1085L33.7819 33.9724C33.801 33.9239 33.8289 33.8872 33.8671 33.8622C33.9052 33.8373 33.9434 33.8255 33.986 33.8255C34.0418 33.8255 34.0932 33.8461 34.1387 33.8872C34.1842 33.9283 34.2062 33.9812 34.2062 34.0458C34.2062 34.0604 34.2018 34.0839 34.1945 34.1133L33.5074 36.3507H33.5044ZM35.6494 36.5313C35.6494 36.5915 35.6318 36.6429 35.5965 36.684C35.5613 36.7251 35.5055 36.7457 35.4306 36.7457C35.3558 36.7457 35.3 36.7251 35.2647 36.684C35.2295 36.6429 35.2119 36.5915 35.2119 36.5313V34.6139C35.2119 34.5347 35.2089 34.4745 35.2031 34.4334C35.1972 34.3922 35.1899 34.3585 35.1811 34.332C35.1722 34.3056 35.1605 34.2865 35.1473 34.2733C35.1341 34.2601 35.1223 34.2425 35.1106 34.2205C35.1032 34.2087 35.0944 34.1955 35.0856 34.1779C35.0768 34.1603 35.0709 34.1368 35.0709 34.1074C35.0709 34.0516 35.09 34.0047 35.1297 33.9665C35.1693 33.9283 35.2192 33.9107 35.2794 33.9107C35.3323 33.9107 35.3778 33.9254 35.4145 33.9562C35.4527 33.9856 35.4864 34.0252 35.5158 34.0751C35.6391 33.9885 35.7712 33.9254 35.9107 33.8828C36.0502 33.8417 36.1867 33.8211 36.3218 33.8211C36.6228 33.8211 36.8474 33.9195 36.9957 34.1148C37.144 34.31 37.2188 34.567 37.2188 34.887V36.5328C37.2188 36.593 37.1997 36.6444 37.163 36.6855C37.1249 36.7266 37.0706 36.7471 37.0001 36.7471C36.9296 36.7471 36.8738 36.7266 36.8371 36.6855C36.7989 36.6444 36.7813 36.593 36.7813 36.5328V34.887C36.7813 34.6727 36.7373 34.5068 36.6492 34.3908C36.5611 34.2748 36.4319 34.2161 36.2631 34.2161C36.1544 34.2161 36.0473 34.2366 35.9416 34.2777C35.8358 34.3188 35.7345 34.3776 35.6376 34.4524C35.6494 34.517 35.6553 34.5714 35.6553 34.6154V36.5328L35.6494 36.5313ZM38.5607 33.2045C38.5607 33.1443 38.5798 33.0929 38.6165 33.0518C38.6547 33.0107 38.709 32.9902 38.7795 32.9902C38.8499 32.9902 38.9057 33.0107 38.9424 33.0518C38.9806 33.0929 38.9982 33.1443 38.9982 33.2045V33.9826H39.584C39.6398 33.9826 39.6882 34.0017 39.7279 34.0414C39.7675 34.081 39.7866 34.1309 39.7866 34.1911C39.7866 34.2513 39.7675 34.3012 39.7279 34.3409C39.6882 34.3805 39.6398 34.3996 39.584 34.3996H38.9982V35.5212C38.9982 35.6681 39.0026 35.7914 39.0129 35.8912C39.0217 35.9911 39.0437 36.0733 39.0775 36.1364C39.1113 36.201 39.1582 36.2465 39.2184 36.2744C39.2786 36.3023 39.3594 36.317 39.4607 36.317C39.4798 36.317 39.4974 36.317 39.5135 36.314C39.5312 36.3126 39.5488 36.3111 39.5664 36.3111C39.6002 36.3111 39.6339 36.3126 39.6677 36.317C39.7015 36.3214 39.7323 36.3302 39.7602 36.3449C39.7881 36.3596 39.8116 36.3801 39.8307 36.4065C39.8497 36.433 39.8586 36.4682 39.8586 36.5137C39.8586 36.5622 39.8497 36.6018 39.8307 36.6297C39.8116 36.6576 39.7881 36.6796 39.7573 36.6943C39.7279 36.709 39.6927 36.7192 39.653 36.7222C39.6134 36.7266 39.5752 36.7281 39.537 36.7281C39.3374 36.7281 39.1759 36.7031 39.0496 36.6546C38.9233 36.6062 38.8235 36.5328 38.7501 36.4344C38.6767 36.3361 38.6268 36.2157 38.5974 36.0703C38.5695 35.925 38.5548 35.7561 38.5548 35.5609V33.2045H38.5607ZM41.3032 36.5313C41.3032 36.5959 41.2841 36.6473 41.2445 36.6899C41.2048 36.731 41.1535 36.7515 41.0889 36.7515C41.0243 36.7515 40.9729 36.731 40.9303 36.6899C40.8892 36.6488 40.8686 36.5959 40.8686 36.5313V32.8052C40.8686 32.7494 40.8877 32.698 40.9274 32.6525C40.967 32.607 41.0184 32.585 41.083 32.585C41.1476 32.585 41.199 32.6055 41.2401 32.6466C41.2812 32.6877 41.3017 32.7406 41.3017 32.8052V34.0458C41.4001 33.9709 41.5073 33.9122 41.6262 33.8711C41.7451 33.8299 41.8714 33.8094 42.0064 33.8094C42.3074 33.8094 42.5291 33.8975 42.6715 34.0722C42.8139 34.2469 42.8859 34.4715 42.8859 34.7461V36.5328C42.8859 36.5974 42.8638 36.6488 42.8213 36.6914C42.7787 36.7325 42.7258 36.753 42.6656 36.753C42.601 36.753 42.5497 36.7325 42.5071 36.6914C42.466 36.6502 42.4454 36.5974 42.4454 36.5328V34.7519C42.4454 34.5787 42.4072 34.448 42.3324 34.357C42.2575 34.2675 42.1312 34.2219 41.9551 34.2219C41.8391 34.2219 41.7216 34.2484 41.6027 34.3012C41.4838 34.3541 41.384 34.4348 41.3017 34.5435V36.5328L41.3032 36.5313ZM45.1174 36.3625C45.2378 36.3625 45.3406 36.3478 45.4272 36.317C45.5138 36.2876 45.6063 36.2494 45.7032 36.2039C45.7106 36.1995 45.7208 36.1966 45.7341 36.1922C45.7473 36.1878 45.7634 36.1863 45.7825 36.1863C45.8383 36.1863 45.8853 36.2054 45.9234 36.245C45.9616 36.2847 45.9792 36.3302 45.9792 36.383C45.9792 36.4506 45.9469 36.5078 45.8809 36.5548C45.8148 36.6018 45.7341 36.64 45.6386 36.6679C45.5432 36.6958 45.4419 36.7163 45.3377 36.7295C45.232 36.7427 45.1424 36.7486 45.0675 36.7486C44.909 36.7486 44.768 36.7251 44.6418 36.6781C44.5155 36.6312 44.4113 36.5651 44.3261 36.4814C44.241 36.3963 44.1764 36.2979 44.1323 36.1834C44.0868 36.0689 44.0648 35.9455 44.0648 35.8134V34.7593C44.0648 34.6242 44.0868 34.498 44.1323 34.382C44.1778 34.266 44.2439 34.1647 44.329 34.081C44.4157 33.9958 44.5228 33.9298 44.6506 33.8813C44.7783 33.8329 44.9266 33.8079 45.0954 33.8079C45.4111 33.8079 45.646 33.8901 45.8001 34.056C45.9543 34.2219 46.0306 34.4451 46.0306 34.727C46.0306 34.9868 45.9557 35.1894 45.8075 35.3392C45.6592 35.4875 45.4155 35.5624 45.0778 35.5624C44.9912 35.5624 44.8987 35.5579 44.7988 35.5506C44.699 35.5433 44.6007 35.5301 44.5023 35.511V35.8442C44.5023 36.0028 44.5537 36.1276 44.6579 36.2215C44.7607 36.3155 44.9148 36.3625 45.1174 36.3625ZM45.596 34.727C45.596 34.5435 45.552 34.4099 45.4639 34.3291C45.3758 34.2484 45.2481 34.2073 45.0837 34.2073C44.9002 34.2073 44.7563 34.2528 44.655 34.3453C44.5537 34.4378 44.5023 34.5625 44.5023 34.7196V35.1483C44.608 35.163 44.7181 35.1733 44.8356 35.1792C44.9515 35.185 45.0382 35.188 45.0954 35.188C45.2011 35.188 45.2863 35.1748 45.3523 35.1483C45.4184 35.1219 45.4698 35.0867 45.508 35.0441C45.5461 35.0015 45.5696 34.9516 45.5814 34.8943C45.5931 34.8386 45.599 34.7813 45.599 34.7255L45.596 34.727ZM47.098 33.2045C47.098 33.1443 47.117 33.0929 47.1537 33.0518C47.1905 33.0107 47.2462 32.9902 47.3167 32.9902C47.3872 32.9902 47.443 33.0107 47.4797 33.0518C47.5178 33.0929 47.5355 33.1443 47.5355 33.2045V33.9826H48.1213C48.177 33.9826 48.2255 34.0017 48.2651 34.0414C48.3048 34.081 48.3239 34.1309 48.3239 34.1911C48.3239 34.2513 48.3048 34.3012 48.2651 34.3409C48.2255 34.3805 48.177 34.3996 48.1213 34.3996H47.5355V35.5212C47.5355 35.6681 47.5399 35.7914 47.5501 35.8912C47.559 35.9911 47.581 36.0733 47.6147 36.1364C47.6485 36.201 47.6955 36.2465 47.7557 36.2744C47.8159 36.3023 47.8966 36.317 47.9979 36.317C48.017 36.317 48.0346 36.317 48.0508 36.314C48.0684 36.3126 48.086 36.3111 48.1036 36.3111C48.1374 36.3111 48.1712 36.3126 48.2049 36.317C48.2387 36.3214 48.2695 36.3302 48.2974 36.3449C48.3253 36.3596 48.3488 36.3801 48.3679 36.4065C48.387 36.433 48.3958 36.4682 48.3958 36.5137C48.3958 36.5622 48.387 36.6018 48.3679 36.6297C48.3488 36.6576 48.3253 36.6796 48.2945 36.6943C48.2651 36.709 48.2299 36.7192 48.1903 36.7222C48.1506 36.7266 48.1124 36.7281 48.0743 36.7281C47.8746 36.7281 47.7131 36.7031 47.5868 36.6546C47.4606 36.6062 47.3608 36.5328 47.2874 36.4344C47.2139 36.3361 47.164 36.2157 47.1347 36.0703C47.1068 35.925 47.0921 35.7561 47.0921 35.5609V33.2045H47.098ZM49.9197 32.9403C49.9197 33.0151 49.8933 33.0797 49.8404 33.1326C49.7876 33.1854 49.7245 33.2119 49.6481 33.2119C49.5718 33.2119 49.5086 33.1854 49.4558 33.1326C49.4029 33.0797 49.3765 33.0166 49.3765 32.9403C49.3765 32.8639 49.4029 32.8008 49.4558 32.7479C49.5086 32.6951 49.5718 32.6686 49.6481 32.6686C49.7245 32.6686 49.7876 32.6951 49.8404 32.7479C49.8933 32.8008 49.9197 32.8639 49.9197 32.9403ZM49.8683 36.5313C49.8683 36.5959 49.8478 36.6473 49.8067 36.6899C49.7656 36.731 49.7127 36.7515 49.6481 36.7515C49.5835 36.7515 49.5321 36.731 49.4896 36.6899C49.4485 36.6488 49.4279 36.5959 49.4279 36.5313V34.0458C49.4279 33.9856 49.4485 33.9342 49.4896 33.8901C49.5307 33.8476 49.5835 33.8255 49.6481 33.8255C49.7127 33.8255 49.7641 33.8476 49.8067 33.8901C49.8478 33.9327 49.8683 33.9856 49.8683 34.0458V36.5313ZM51.0942 34.862C51.0942 34.7152 51.1133 34.5787 51.153 34.4539C51.1926 34.3276 51.2528 34.219 51.3335 34.1265C51.4143 34.034 51.5185 33.9606 51.6463 33.9063C51.774 33.852 51.9267 33.8241 52.1029 33.8241C52.1704 33.8241 52.2482 33.8299 52.3363 33.8417C52.4244 33.8534 52.5095 33.8711 52.5932 33.8975C52.6754 33.9239 52.7459 33.9591 52.8017 34.0017C52.8575 34.0443 52.8868 34.1001 52.8868 34.1676C52.8868 34.2205 52.8678 34.266 52.831 34.3027C52.7929 34.3409 52.7488 34.3585 52.696 34.3585C52.6696 34.3585 52.6402 34.3526 52.6064 34.3409C52.5389 34.3071 52.4699 34.2763 52.4009 34.2513C52.3319 34.2249 52.2482 34.2117 52.1498 34.2117C51.9281 34.2117 51.7696 34.2675 51.6756 34.3805C51.5817 34.4935 51.5347 34.6536 51.5347 34.8591V35.7106C51.5347 35.9176 51.5817 36.0777 51.6756 36.1892C51.7696 36.3023 51.9281 36.3581 52.1498 36.3581C52.2482 36.3581 52.3319 36.3449 52.4009 36.3184C52.4699 36.292 52.5389 36.2627 52.6064 36.2289C52.6402 36.2171 52.671 36.2113 52.696 36.2113C52.7488 36.2113 52.7943 36.2304 52.831 36.2671C52.8692 36.3052 52.8868 36.3493 52.8868 36.4021C52.8868 36.4697 52.8589 36.5255 52.8017 36.568C52.7459 36.6106 52.6754 36.6458 52.5932 36.6723C52.511 36.6987 52.4244 36.7178 52.3363 36.7281C52.2482 36.7398 52.1704 36.7457 52.1029 36.7457C51.9267 36.7457 51.774 36.7178 51.6463 36.6635C51.5185 36.6091 51.4143 36.5357 51.3335 36.4432C51.2528 36.3507 51.1926 36.2421 51.153 36.1158C51.1133 35.9896 51.0942 35.853 51.0942 35.7077V34.8562V34.862ZM57.2751 35.0426C57.2751 35.0984 57.256 35.1469 57.2164 35.1865C57.1768 35.2261 57.1283 35.2452 57.0725 35.2452H55.669C55.6088 35.2452 55.5589 35.2261 55.5192 35.1865C55.4796 35.1469 55.4605 35.0984 55.4605 35.0426C55.4605 34.9868 55.4796 34.9369 55.5192 34.8958C55.5589 34.8547 55.6088 34.8342 55.669 34.8342H57.0725C57.1283 34.8342 57.1768 34.8547 57.2164 34.8958C57.256 34.9369 57.2751 34.9854 57.2751 35.0426Z" fill="#00406F"/>
<path d="M60.3009 35.6341C60.3009 35.797 60.3155 35.9438 60.3449 36.0745C60.3743 36.2052 60.4227 36.3167 60.4902 36.4092C60.5578 36.5017 60.6488 36.5737 60.7619 36.6221C60.8749 36.6706 61.0129 36.6955 61.1759 36.6955C61.3153 36.6955 61.4387 36.6764 61.5429 36.6368C61.6471 36.5986 61.7455 36.5458 61.8336 36.4797V35.2274H61.2684C61.2096 35.2274 61.1582 35.2054 61.1142 35.1628C61.0702 35.1202 61.0467 35.0674 61.0467 35.0057C61.0467 34.944 61.0687 34.8912 61.1142 34.8486C61.1582 34.806 61.2096 34.784 61.2684 34.784H61.9613C62.0553 34.784 62.1331 34.806 62.1977 34.8486C62.2623 34.8912 62.2946 34.9587 62.2946 35.0527V36.4459C62.2946 36.5619 62.2579 36.6632 62.1874 36.7484C62.1155 36.8335 62.0245 36.9055 61.9129 36.9613C61.8028 37.017 61.6794 37.0582 61.5429 37.0831C61.4064 37.1081 61.2742 37.1213 61.1465 37.1213C60.9219 37.1213 60.7266 37.086 60.5607 37.017C60.3963 36.9466 60.2597 36.8467 60.1526 36.7175C60.0454 36.5869 59.9661 36.4313 59.9133 36.2492C59.8604 36.0672 59.834 35.8631 59.834 35.637V34.3905C59.834 34.1659 59.8604 33.9618 59.9133 33.7783C59.9661 33.5963 60.0454 33.4392 60.1526 33.31C60.2597 33.1793 60.3948 33.0795 60.5607 33.0105C60.7251 32.94 60.9204 32.9062 61.1465 32.9062C61.2786 32.9062 61.4064 32.9195 61.5312 32.9474C61.6559 32.9753 61.7646 33.0105 61.86 33.0545C61.9554 33.0986 62.0318 33.1514 62.0905 33.2116C62.1492 33.2718 62.1786 33.3364 62.1786 33.4069C62.1786 33.4612 62.1595 33.5082 62.1199 33.5493C62.0802 33.5904 62.0303 33.611 61.9687 33.611C61.9261 33.611 61.8923 33.6021 61.8674 33.5845C61.8424 33.5669 61.8057 33.5434 61.7602 33.5111C61.5899 33.3907 61.3946 33.3305 61.1773 33.3305C61.0144 33.3305 60.8764 33.3555 60.7633 33.4039C60.6503 33.4524 60.5607 33.5229 60.4917 33.6168C60.4227 33.7108 60.3757 33.8224 60.3464 33.9516C60.317 34.0822 60.3023 34.2276 60.3023 34.392V35.6385L60.3009 35.6341Z" fill="#00406F"/>
<path d="M64.6643 36.712C64.7891 36.712 64.8948 36.6958 64.9844 36.665C65.0739 36.6342 65.1694 36.5945 65.2692 36.549C65.2765 36.5446 65.2868 36.5417 65.3015 36.5373C65.3147 36.5329 65.3308 36.5314 65.3514 36.5314C65.4101 36.5314 65.4586 36.552 65.4968 36.5931C65.5349 36.6342 65.5555 36.6812 65.5555 36.7355C65.5555 36.8059 65.5217 36.8647 65.4542 36.9131C65.3866 36.9616 65.303 37.0012 65.2031 37.0291C65.1033 37.057 65.0005 37.079 64.8919 37.0937C64.7832 37.1069 64.6893 37.1143 64.6115 37.1143C64.4485 37.1143 64.3017 37.0893 64.171 37.0408C64.0404 36.9924 63.9317 36.9249 63.8451 36.8368C63.7585 36.7487 63.6909 36.6459 63.644 36.5285C63.597 36.4095 63.5735 36.2833 63.5735 36.1467V35.0574C63.5735 34.9179 63.597 34.7872 63.644 34.6669C63.6909 34.5465 63.7585 34.4422 63.848 34.3556C63.9376 34.269 64.0477 34.2 64.1798 34.1486C64.312 34.0972 64.4646 34.0723 64.6394 34.0723C64.9653 34.0723 65.209 34.1574 65.3676 34.3292C65.5261 34.501 65.6069 34.7315 65.6069 35.0222C65.6069 35.2908 65.5305 35.5008 65.3764 35.6549C65.2222 35.8091 64.9712 35.8854 64.6217 35.8854C64.5322 35.8854 64.4368 35.881 64.334 35.8737C64.2312 35.8663 64.1284 35.8531 64.0286 35.8326V36.1761C64.0286 36.3391 64.0815 36.4697 64.1886 36.5666C64.2958 36.6635 64.4544 36.712 64.6628 36.712H64.6643ZM65.1591 35.0222C65.1591 34.8313 65.1136 34.6948 65.0225 34.6111C64.9315 34.5274 64.8009 34.4863 64.6291 34.4863C64.4382 34.4863 64.2914 34.5333 64.1857 34.6287C64.0815 34.7241 64.0286 34.8533 64.0286 35.0163V35.4597C64.1373 35.4758 64.2518 35.4861 64.3722 35.492C64.4925 35.4978 64.5821 35.5008 64.6408 35.5008C64.7495 35.5008 64.8376 35.4876 64.9066 35.4597C64.9741 35.4332 65.0284 35.3965 65.0666 35.3525C65.1048 35.3084 65.1312 35.2571 65.1429 35.1983C65.1547 35.1396 65.1605 35.0823 65.1605 35.0236L65.1591 35.0222Z" fill="#00406F"/>
<path d="M67.928 37.1143C67.7489 37.1143 67.5918 37.0878 67.4567 37.035C67.3202 36.9821 67.2071 36.9102 67.1161 36.8162C67.0251 36.7223 66.9561 36.6136 66.9091 36.4874C66.8621 36.3611 66.8386 36.2246 66.8386 36.0763V35.1029C66.8386 34.959 66.8621 34.824 66.9091 34.6977C66.9561 34.5714 67.0251 34.4613 67.1161 34.3688C67.2071 34.2764 67.3216 34.2015 67.4567 34.1472C67.5918 34.0928 67.7503 34.0649 67.928 34.0649C68.1056 34.0649 68.2642 34.0928 68.3993 34.1472C68.5358 34.2015 68.6488 34.2749 68.7399 34.3688C68.8309 34.4613 68.8999 34.5714 68.9469 34.6977C68.9939 34.824 69.0173 34.959 69.0173 35.1029V36.0763C69.0173 36.2246 68.9939 36.3611 68.9469 36.4874C68.8999 36.6136 68.8309 36.7237 68.7399 36.8162C68.6488 36.9087 68.5343 36.9821 68.3993 37.035C68.2627 37.0878 68.1056 37.1143 67.928 37.1143ZM67.928 36.6944C68.1379 36.6944 68.2965 36.6401 68.4022 36.5314C68.5094 36.4228 68.5622 36.2716 68.5622 36.0778V35.0985C68.5622 34.9077 68.5094 34.7579 68.4022 34.6493C68.295 34.5406 68.1365 34.4863 67.928 34.4863C67.7195 34.4863 67.5595 34.5406 67.4538 34.6493C67.3466 34.7579 67.2937 34.9077 67.2937 35.0985V36.0778C67.2937 36.2716 67.3466 36.4228 67.4538 36.5314C67.5609 36.6401 67.7195 36.6944 67.928 36.6944Z" fill="#00406F"/>
<path d="M70.4387 33.4497C70.4387 33.3881 70.4578 33.3352 70.4974 33.2926C70.5356 33.25 70.5929 33.228 70.6663 33.228C70.7397 33.228 70.7969 33.25 70.8351 33.2926C70.8733 33.3352 70.8938 33.3881 70.8938 33.4497V34.2543H71.5002C71.5589 34.2543 71.6074 34.2748 71.6485 34.3159C71.6896 34.357 71.7101 34.4084 71.7101 34.4701C71.7101 34.5317 71.6896 34.5831 71.6485 34.6242C71.6074 34.6653 71.5589 34.6859 71.5002 34.6859H70.8938V35.8457C70.8938 35.9969 70.8982 36.1247 70.9085 36.2274C70.9188 36.3302 70.9408 36.4154 70.9761 36.4814C71.0113 36.5475 71.0597 36.5945 71.1214 36.6238C71.1831 36.6532 71.2668 36.6679 71.3725 36.6679C71.3915 36.6679 71.4106 36.6679 71.4282 36.6649C71.4459 36.662 71.4635 36.662 71.484 36.662C71.5193 36.662 71.5545 36.6635 71.5883 36.6679C71.622 36.6723 71.6558 36.6811 71.6837 36.6972C71.7131 36.7134 71.7366 36.7339 71.7571 36.7618C71.7762 36.7897 71.7865 36.8264 71.7865 36.872C71.7865 36.9219 71.7762 36.963 71.7571 36.9909C71.738 37.0202 71.7131 37.0423 71.6808 37.0584C71.6499 37.0746 71.6132 37.0834 71.5736 37.0878C71.5325 37.0922 71.4928 37.0936 71.4547 37.0936C71.2491 37.0936 71.0803 37.0687 70.9511 37.0173C70.8204 36.9674 70.7177 36.891 70.6428 36.7897C70.5664 36.6884 70.5151 36.5636 70.4857 36.4139C70.4563 36.2641 70.4417 36.0894 70.4417 35.8868V33.4512L70.4387 33.4497Z" fill="#00406F"/>
<path d="M73.9519 36.712C74.0767 36.712 74.1824 36.6958 74.272 36.665C74.3615 36.6342 74.457 36.5945 74.5568 36.549C74.5641 36.5446 74.5744 36.5417 74.5891 36.5373C74.6023 36.5329 74.6184 36.5314 74.639 36.5314C74.6977 36.5314 74.7462 36.552 74.7843 36.5931C74.8225 36.6342 74.8431 36.6812 74.8431 36.7355C74.8431 36.8059 74.8093 36.8647 74.7418 36.9131C74.6742 36.9616 74.5906 37.0012 74.4907 37.0291C74.3909 37.057 74.2881 37.079 74.1795 37.0937C74.0708 37.1069 73.9769 37.1143 73.8991 37.1143C73.7361 37.1143 73.5893 37.0893 73.4586 37.0408C73.3279 36.9924 73.2193 36.9249 73.1327 36.8368C73.0461 36.7487 72.9785 36.6459 72.9316 36.5285C72.8846 36.4095 72.8611 36.2833 72.8611 36.1467V35.0574C72.8611 34.9179 72.8846 34.7872 72.9316 34.6669C72.9785 34.5465 73.0461 34.4422 73.1356 34.3556C73.2252 34.269 73.3353 34.2 73.4674 34.1486C73.5996 34.0972 73.7522 34.0723 73.927 34.0723C74.2529 34.0723 74.4966 34.1574 74.6552 34.3292C74.8137 34.501 74.8945 34.7315 74.8945 35.0222C74.8945 35.2908 74.8181 35.5008 74.664 35.6549C74.5098 35.8091 74.2588 35.8854 73.9093 35.8854C73.8198 35.8854 73.7244 35.881 73.6216 35.8737C73.5188 35.8663 73.416 35.8531 73.3162 35.8326V36.1761C73.3162 36.3391 73.3691 36.4697 73.4762 36.5666C73.5834 36.6635 73.742 36.712 73.9504 36.712H73.9519ZM74.4467 35.0222C74.4467 34.8313 74.4012 34.6948 74.3101 34.6111C74.2191 34.5274 74.0885 34.4863 73.9167 34.4863C73.7258 34.4863 73.579 34.5333 73.4733 34.6287C73.3691 34.7241 73.3162 34.8533 73.3162 35.0163V35.4597C73.4248 35.4758 73.5394 35.4861 73.6598 35.492C73.7801 35.4978 73.8697 35.5008 73.9284 35.5008C74.0371 35.5008 74.1252 35.4876 74.1942 35.4597C74.2617 35.4332 74.316 35.3965 74.3542 35.3525C74.3924 35.3084 74.4188 35.2571 74.4305 35.1983C74.4423 35.1396 74.4481 35.0823 74.4481 35.0236L74.4467 35.0222Z" fill="#00406F"/>
<path d="M78.2344 36.7765C78.2535 36.8074 78.2638 36.8411 78.2638 36.8749C78.2638 36.941 78.2418 36.9968 78.1992 37.0437C78.1566 37.0907 78.1008 37.1142 78.0303 37.1142C77.976 37.1142 77.9349 37.101 77.9055 37.076C77.8762 37.0511 77.8439 37.0114 77.8087 36.9571L77.1509 35.9426L76.4638 36.9968C76.4139 37.0746 76.3508 37.1127 76.2774 37.1127C76.2113 37.1127 76.1555 37.0907 76.1115 37.0481C76.0674 37.0056 76.0439 36.9513 76.0439 36.8852C76.0439 36.8499 76.0542 36.8176 76.0733 36.7868L76.8896 35.5756L76.1262 34.4216C76.1027 34.3937 76.0909 34.3614 76.0909 34.3233C76.0909 34.2616 76.1129 34.2073 76.1555 34.1603C76.1981 34.1133 76.2524 34.0898 76.3185 34.0898C76.3846 34.0898 76.4359 34.1119 76.4726 34.1574C76.5093 34.2014 76.5431 34.2455 76.5739 34.288L77.1627 35.1909L77.7749 34.2411C77.8057 34.1941 77.8365 34.1574 77.8659 34.131C77.8953 34.1045 77.9364 34.0898 77.9907 34.0898C78.045 34.0898 78.0949 34.1104 78.1419 34.1515C78.1889 34.1926 78.2124 34.244 78.2124 34.3057C78.2124 34.3247 78.2109 34.3438 78.2065 34.3615C78.2021 34.3791 78.1948 34.3982 78.183 34.4172L77.4196 35.5653L78.2359 36.7765H78.2344Z" fill="#00406F"/>
<path d="M79.5686 33.4497C79.5686 33.3881 79.5877 33.3352 79.6273 33.2926C79.6655 33.25 79.7228 33.228 79.7962 33.228C79.8696 33.228 79.9268 33.25 79.965 33.2926C80.0032 33.3352 80.0237 33.3881 80.0237 33.4497V34.2543H80.6301C80.6888 34.2543 80.7372 34.2748 80.7784 34.3159C80.8195 34.357 80.84 34.4084 80.84 34.4701C80.84 34.5317 80.8195 34.5831 80.7784 34.6242C80.7372 34.6653 80.6888 34.6859 80.6301 34.6859H80.0237V35.8457C80.0237 35.9969 80.0281 36.1247 80.0384 36.2274C80.0487 36.3302 80.0707 36.4154 80.1059 36.4814C80.1412 36.5475 80.1896 36.5945 80.2513 36.6238C80.3129 36.6532 80.3966 36.6679 80.5023 36.6679C80.5214 36.6679 80.5405 36.6679 80.5581 36.6649C80.5757 36.662 80.5934 36.662 80.6139 36.662C80.6492 36.662 80.6844 36.6635 80.7182 36.6679C80.7519 36.6723 80.7857 36.6811 80.8136 36.6972C80.8429 36.7134 80.8664 36.7339 80.887 36.7618C80.9061 36.7897 80.9164 36.8264 80.9164 36.872C80.9164 36.9219 80.9061 36.963 80.887 36.9909C80.8679 37.0202 80.8429 37.0423 80.8106 37.0584C80.7798 37.0746 80.7431 37.0834 80.7035 37.0878C80.6624 37.0922 80.6227 37.0936 80.5846 37.0936C80.379 37.0936 80.2102 37.0687 80.081 37.0173C79.9503 36.9674 79.8476 36.891 79.7727 36.7897C79.6963 36.6884 79.6449 36.5636 79.6156 36.4139C79.5862 36.2641 79.5715 36.0894 79.5715 35.8868V33.4512L79.5686 33.4497Z" fill="#00406F"/>
<path d="M82.6975 33.1749C82.6975 33.2528 82.6711 33.3188 82.6153 33.3731C82.561 33.4275 82.4949 33.4554 82.4171 33.4554C82.3393 33.4554 82.2733 33.4289 82.2189 33.3731C82.1646 33.3188 82.1367 33.2528 82.1367 33.1749C82.1367 33.0971 82.1631 33.0311 82.2189 32.9767C82.2747 32.9224 82.3393 32.896 82.4171 32.896C82.4949 32.896 82.561 32.9224 82.6153 32.9767C82.6697 33.0311 82.6975 33.0971 82.6975 33.1749ZM82.6447 36.8864C82.6447 36.9525 82.6227 37.0068 82.5801 37.0494C82.5375 37.0919 82.4832 37.114 82.4171 37.114C82.3511 37.114 82.2967 37.0919 82.2542 37.0494C82.2116 37.0068 82.1896 36.9525 82.1896 36.8864V34.3172C82.1896 34.2555 82.2101 34.2012 82.2542 34.1571C82.2967 34.1131 82.3511 34.0896 82.4171 34.0896C82.4832 34.0896 82.5375 34.1116 82.5801 34.1571C82.6227 34.2012 82.6447 34.2555 82.6447 34.3172V36.8864Z" fill="#00406F"/>
<path d="M84.2932 33.0708C84.2932 33.0092 84.3152 32.9548 84.3578 32.9108C84.4004 32.8668 84.4547 32.8433 84.5208 32.8433C84.5868 32.8433 84.6412 32.8653 84.6837 32.9079C84.7263 32.9504 84.7483 33.0048 84.7483 33.0708V36.5195C84.7483 36.5856 84.7527 36.6384 84.763 36.6795C84.7733 36.7206 84.7953 36.7588 84.8305 36.7926C84.8379 36.8043 84.8467 36.8205 84.857 36.8395C84.8673 36.8586 84.8717 36.8807 84.8717 36.9041C84.8717 36.9629 84.8511 37.0113 84.81 37.0524C84.7689 37.0935 84.719 37.1141 84.6617 37.1141C84.6265 37.1141 84.5883 37.1067 84.5457 37.0935C84.5032 37.0803 84.4635 37.0524 84.4268 37.0113C84.3901 36.9702 84.3593 36.9115 84.3329 36.8337C84.3064 36.7559 84.2947 36.6516 84.2947 36.5195V33.0708H84.2932Z" fill="#00406F"/>
<path d="M87.271 36.712C87.3958 36.712 87.5015 36.6958 87.5911 36.665C87.6806 36.6342 87.7761 36.5945 87.8759 36.549C87.8832 36.5446 87.8935 36.5417 87.9082 36.5373C87.9214 36.5329 87.9375 36.5314 87.9581 36.5314C88.0168 36.5314 88.0653 36.552 88.1034 36.5931C88.1416 36.6342 88.1622 36.6812 88.1622 36.7355C88.1622 36.8059 88.1284 36.8647 88.0609 36.9131C87.9933 36.9616 87.9097 37.0012 87.8098 37.0291C87.71 37.057 87.6072 37.079 87.4986 37.0937C87.3899 37.1069 87.296 37.1143 87.2182 37.1143C87.0552 37.1143 86.9084 37.0893 86.7777 37.0408C86.647 36.9924 86.5384 36.9249 86.4518 36.8368C86.3652 36.7487 86.2976 36.6459 86.2507 36.5285C86.2037 36.4095 86.1802 36.2833 86.1802 36.1467V35.0574C86.1802 34.9179 86.2037 34.7872 86.2507 34.6669C86.2976 34.5465 86.3652 34.4422 86.4547 34.3556C86.5443 34.269 86.6544 34.2 86.7865 34.1486C86.9187 34.0972 87.0713 34.0723 87.246 34.0723C87.572 34.0723 87.8157 34.1574 87.9742 34.3292C88.1328 34.501 88.2136 34.7315 88.2136 35.0222C88.2136 35.2908 88.1372 35.5008 87.9831 35.6549C87.8289 35.8091 87.5778 35.8854 87.2284 35.8854C87.1389 35.8854 87.0434 35.881 86.9407 35.8737C86.8379 35.8663 86.7351 35.8531 86.6353 35.8326V36.1761C86.6353 36.3391 86.6882 36.4697 86.7953 36.5666C86.9025 36.6635 87.0611 36.712 87.2695 36.712H87.271ZM87.7658 35.0222C87.7658 34.8313 87.7203 34.6948 87.6292 34.6111C87.5382 34.5274 87.4075 34.4863 87.2358 34.4863C87.0449 34.4863 86.8981 34.5333 86.7924 34.6287C86.6882 34.7241 86.6353 34.8533 86.6353 35.0163V35.4597C86.7439 35.4758 86.8585 35.4861 86.9788 35.492C87.0992 35.4978 87.1888 35.5008 87.2475 35.5008C87.3562 35.5008 87.4442 35.4876 87.5133 35.4597C87.5808 35.4332 87.6351 35.3965 87.6733 35.3525C87.7115 35.3084 87.7379 35.2571 87.7496 35.1983C87.7614 35.1396 87.7672 35.0823 87.7672 35.0236L87.7658 35.0222Z" fill="#00406F"/>
</svg>
