<svg width="128" height="36" viewBox="0 0 128 36" fill="none" xmlns="http://www.w3.org/2000/svg">
<path d="M4.81692 28.999H5.79332V33.9367H4.76783L4.65464 33.4953C4.21553 33.8892 3.69597 34.0848 3.09322 34.0848C2.61729 34.0848 2.185 33.9716 1.79908 33.7454C1.41179 33.5205 1.11042 33.2062 0.892226 32.8053C0.674036 32.4058 0.564941 31.9589 0.564941 31.4686C0.564941 30.9783 0.674036 30.5369 0.892226 30.1402C1.10905 29.7435 1.41179 29.4334 1.79908 29.2072C2.18637 28.9837 2.61729 28.8705 3.09322 28.8705C3.70688 28.8705 4.23462 29.0717 4.67646 29.4725L4.81692 29.0004V28.999ZM2.25864 32.4338C2.50683 32.6908 2.82048 32.8207 3.19959 32.8207C3.57869 32.8207 3.88961 32.6922 4.13917 32.4366C4.38736 32.1809 4.51145 31.8569 4.51145 31.4672C4.51145 31.0775 4.38736 30.7534 4.13917 30.4978C3.89098 30.2422 3.57733 30.1137 3.19959 30.1137C2.82184 30.1137 2.5082 30.2436 2.25864 30.5006C2.01045 30.7576 1.88635 31.0803 1.88635 31.4672C1.88635 31.8541 2.01045 32.1754 2.25864 32.4338ZM7.66157 33.9451V27.2251H8.96526V33.9451H7.66157ZM10.8294 33.9451V27.2251H12.1331V33.9451H10.8294ZM18.3297 32.7578H18.9215V33.9451H17.997C17.4692 33.9451 17.0506 33.7887 16.7437 33.4744C16.4369 33.1601 16.2842 32.7285 16.2842 32.1823V30.0788H15.4128V29.7924L17.3178 27.7168H17.566V29.0074H18.8956V30.0788H17.5879V32.0035C17.5879 32.2438 17.6519 32.431 17.7801 32.5609C17.9083 32.6922 18.0911 32.7578 18.3297 32.7578ZM23.7599 29.0074H25.1468L23.0453 33.8781C22.8449 34.3432 22.6499 34.7036 22.4589 34.9606C22.268 35.2176 22.0471 35.4103 21.7935 35.5361C21.5398 35.6632 21.2344 35.726 20.8743 35.726H20.337V34.5248H20.7912C21.0993 34.5248 21.3189 34.4675 21.4512 34.3516C21.5835 34.2342 21.7253 33.9856 21.8767 33.6043L21.893 33.5652L19.8529 29.006H21.2698L22.5571 32.0427L23.7599 29.006V29.0074ZM29.0469 28.8691C29.5228 28.8691 29.9524 28.9823 30.3383 29.2058C30.7243 29.4306 31.0256 29.7421 31.2425 30.1416C31.4606 30.5411 31.5697 30.9853 31.5697 31.477C31.5697 31.9686 31.4606 32.4142 31.2425 32.8137C31.0256 33.2146 30.7229 33.5289 30.3383 33.7537C29.9524 33.9786 29.5228 34.0932 29.0469 34.0932C28.571 34.0932 28.1169 33.9549 27.7214 33.6769V35.7274H26.4177V29.0074H27.2769L27.4991 29.4586C27.9328 29.0647 28.4483 28.8691 29.0483 28.8691H29.0469ZM27.9982 32.4435C28.2464 32.7006 28.5587 32.8305 28.9378 32.8305C29.3169 32.8305 29.6292 32.7019 29.8788 32.4463C30.127 32.1907 30.2511 31.8667 30.2511 31.477C30.2511 31.0872 30.127 30.7632 29.8788 30.5076C29.6306 30.252 29.3169 30.1235 28.9378 30.1235C28.5587 30.1235 28.2478 30.2534 27.9982 30.5104C27.7501 30.7674 27.6246 31.09 27.6246 31.477C27.6246 31.8639 27.7501 32.1851 27.9982 32.4435ZM37.7977 31.4588C37.7977 31.5929 37.7909 31.7242 37.7718 31.8527H34.1226C34.1771 32.1893 34.308 32.4477 34.5167 32.6265C34.724 32.8067 34.9871 32.8961 35.3035 32.8961C35.5272 32.8961 35.7276 32.8458 35.9063 32.7453C36.0863 32.6433 36.2254 32.505 36.3236 32.3248H37.6927C37.5182 32.864 37.2168 33.2928 36.7872 33.6099C36.3577 33.9269 35.8626 34.0848 35.3049 34.0848C34.8358 34.0848 34.4117 33.9702 34.0298 33.744C33.648 33.5149 33.3466 33.2034 33.1298 32.8039C32.9116 32.4044 32.8025 31.963 32.8025 31.4784C32.8025 30.9937 32.9116 30.5467 33.1271 30.1472C33.3439 29.7477 33.6439 29.4348 34.0257 29.21C34.4076 28.9823 34.8344 28.8705 35.3049 28.8705C35.7754 28.8705 36.2199 28.9879 36.6045 29.2211C36.989 29.4544 37.2836 29.7687 37.4881 30.1612C37.6954 30.5523 37.7977 30.9867 37.7977 31.4602V31.4588ZM35.3049 30.0075C35.0158 30.0075 34.7717 30.0899 34.5712 30.2534C34.3721 30.4182 34.233 30.6473 34.158 30.9406H36.4954C36.404 30.6403 36.2567 30.4098 36.0522 30.2492C35.8463 30.0885 35.5981 30.0089 35.3049 30.0089V30.0075ZM41.0528 34.0848C40.4487 34.0848 39.9605 33.9228 39.5896 33.6001C39.2187 33.2774 39.0332 32.85 39.0305 32.322H40.3001C40.3014 32.5329 40.3778 32.695 40.5237 32.8081C40.671 32.9212 40.8646 32.9771 41.106 32.9771C41.2983 32.9771 41.4606 32.9338 41.5929 32.8472C41.7251 32.762 41.7906 32.6405 41.7906 32.4813C41.7906 32.4002 41.7688 32.3304 41.7238 32.2703C41.6788 32.2103 41.6079 32.1628 41.5124 32.1209C41.4156 32.0818 41.3215 32.0496 41.2301 32.0273C41.136 32.0049 41.0146 31.9798 40.8619 31.9533C40.7269 31.9309 40.611 31.9086 40.5183 31.889C40.4242 31.8695 40.3123 31.8401 40.1801 31.8024C40.0478 31.7633 39.936 31.7214 39.8473 31.6739C39.756 31.6278 39.6619 31.5664 39.561 31.4895C39.4614 31.4113 39.3809 31.3261 39.3209 31.2325C39.2609 31.1389 39.2119 31.0258 39.1723 30.8917C39.1341 30.7576 39.1137 30.6109 39.1137 30.4503C39.1137 29.9824 39.2923 29.6025 39.6496 29.3105C40.0069 29.0158 40.476 28.8705 41.0528 28.8705C41.6297 28.8705 42.1001 29.0214 42.4533 29.3231C42.8052 29.6262 42.9811 30.0243 42.9852 30.5174H41.7469C41.7442 30.3232 41.6801 30.1779 41.5533 30.0802C41.4265 29.981 41.2478 29.9321 41.0187 29.9321C40.8183 29.9321 40.6601 29.9768 40.5455 30.062C40.431 30.1486 40.3723 30.2631 40.3723 30.407C40.3723 30.4601 40.3833 30.509 40.401 30.5523C40.4201 30.5956 40.4528 30.6333 40.5019 30.664C40.5496 30.6961 40.5946 30.7213 40.6369 30.745C40.6792 30.7674 40.7419 30.7897 40.8278 30.8121C40.9137 30.8344 40.9846 30.8498 41.0378 30.861C41.091 30.8721 41.1728 30.8875 41.2847 30.9085C41.7524 30.9951 42.0892 31.0831 42.2951 31.1766C42.8161 31.4141 43.0765 31.8303 43.0765 32.4268C43.0765 32.9296 42.8924 33.3319 42.5229 33.6336C42.1533 33.9367 41.6638 34.0876 41.0528 34.0876V34.0848Z" fill="#FF5733"/>
<path d="M48.9027 34.6617C48.4061 34.6617 47.9563 34.5416 47.5535 34.3015C47.1506 34.0628 46.8333 33.7308 46.607 33.3069C46.3794 32.8829 46.2649 32.4131 46.2649 31.8943C46.2649 31.3755 46.3794 30.8967 46.607 30.4742C46.8347 30.0533 47.1506 29.7242 47.5535 29.4841C47.9549 29.2469 48.4061 29.1269 48.9027 29.1269C49.3994 29.1269 49.845 29.2469 50.2479 29.4841C50.6494 29.7227 50.9653 30.0533 51.1943 30.4772C51.4247 30.9011 51.5392 31.3725 51.5392 31.8943C51.5392 32.416 51.4247 32.8829 51.1943 33.3069C50.9653 33.7308 50.6494 34.0628 50.2479 34.3015C49.845 34.5431 49.3953 34.6617 48.9027 34.6617ZM47.9674 32.9289C48.2116 33.1957 48.5233 33.3306 48.9027 33.3306C49.2821 33.3306 49.5939 33.1957 49.8381 32.9289C50.0823 32.6621 50.2037 32.3182 50.2037 31.8943C50.2037 31.4703 50.0823 31.1264 49.8381 30.8596C49.5939 30.5928 49.2821 30.4579 48.9027 30.4579C48.5233 30.4579 48.2116 30.5928 47.9674 30.8596C47.7232 31.1264 47.6018 31.4703 47.6018 31.8943C47.6018 32.3182 47.7232 32.6621 47.9674 32.9289ZM56.0051 29.3447V30.5098H54.78V34.5149H53.461V30.5098H52.614V29.3447H53.4666V28.8704C53.4666 28.3576 53.599 27.9559 53.8625 27.6639C54.1274 27.3718 54.5109 27.2251 55.0145 27.2251H55.9982V28.3398H55.2808C54.9248 28.3398 54.7469 28.528 54.7469 28.903V29.3447H56.0078H56.0051ZM62.1306 29.1506C62.6825 29.1506 63.1226 29.3477 63.4496 29.7435C63.7752 30.1392 63.9393 30.6714 63.9393 31.3384V34.5134H62.6204V31.5667C62.6204 30.7826 62.3362 30.3912 61.7678 30.3912C61.4312 30.3912 61.1635 30.5143 60.969 30.7588C60.7731 31.0049 60.6751 31.3384 60.6751 31.7623V34.5149H59.3562V29.2751H60.2599L60.5151 29.9243C60.7027 29.6857 60.9386 29.4959 61.2201 29.3581C61.5002 29.2202 61.8037 29.1521 62.1306 29.1521V29.1506ZM70.4995 31.875C70.4995 32.0173 70.4926 32.1566 70.4733 32.293H66.7814C66.8366 32.6502 66.969 32.9244 67.1801 33.1142C67.3898 33.3054 67.6561 33.4002 67.9761 33.4002C68.2024 33.4002 68.4052 33.3469 68.5859 33.2402C68.7681 33.132 68.9088 32.9852 69.0081 32.794H70.3933C70.2167 33.3662 69.9118 33.8212 69.4758 34.1577C69.0412 34.4942 68.5404 34.6617 67.9761 34.6617C67.5015 34.6617 67.0725 34.5401 66.6862 34.3C66.2999 34.0569 65.995 33.7263 65.7756 33.3024C65.5549 32.8785 65.4445 32.4101 65.4445 31.8957C65.4445 31.3814 65.5549 30.9071 65.7729 30.4831C65.9922 30.0592 66.2958 29.7272 66.682 29.4885C67.0683 29.2469 67.5002 29.1283 67.9761 29.1283C68.4521 29.1283 68.9019 29.2528 69.2909 29.5004C69.68 29.7479 69.978 30.0814 70.1849 30.498C70.3946 30.913 70.4981 31.374 70.4981 31.8765L70.4995 31.875ZM67.9775 30.3349C67.685 30.3349 67.4381 30.4224 67.2353 30.5958C67.0339 30.7707 66.8931 31.0138 66.8173 31.3251H69.1819C69.0895 31.0064 68.9405 30.7618 68.7336 30.5913C68.5252 30.4209 68.2741 30.3364 67.9775 30.3364V30.3349ZM74.3749 33.255H74.9736V34.5149H74.0382C73.5043 34.5149 73.0808 34.3489 72.7704 34.0154C72.4599 33.6819 72.3054 33.2239 72.3054 32.6443V30.412H71.4238V30.1081L73.3512 27.9055H73.6023V29.2751H74.9474V30.412H73.6244V32.4546C73.6244 32.7095 73.6892 32.9081 73.8189 33.046C73.9486 33.1853 74.1334 33.255 74.3749 33.255ZM78.2268 34.6617C77.6156 34.6617 77.1217 34.4897 76.7465 34.1473C76.3712 33.8049 76.1836 33.3513 76.1808 32.791H77.4652C77.4666 33.0149 77.5439 33.1868 77.6915 33.3069C77.8405 33.4269 78.0364 33.4862 78.2806 33.4862C78.4751 33.4862 78.6393 33.4403 78.7731 33.3484C78.907 33.2579 78.9732 33.129 78.9732 32.96C78.9732 32.874 78.9511 32.7999 78.9056 32.7362C78.8601 32.6725 78.7883 32.6221 78.6917 32.5776C78.5938 32.5361 78.4986 32.502 78.4062 32.4783C78.311 32.4546 78.1882 32.4279 78.0337 32.3997C77.8971 32.376 77.7798 32.3523 77.686 32.3315C77.5908 32.3108 77.4777 32.2797 77.3438 32.2396C77.21 32.1981 77.0969 32.1537 77.0072 32.1033C76.9148 32.0543 76.8196 31.9891 76.7175 31.9076C76.6168 31.8246 76.5354 31.7342 76.4747 31.6349C76.414 31.5355 76.3643 31.4155 76.3243 31.2732C76.2857 31.1309 76.265 30.9753 76.265 30.8048C76.265 30.3082 76.4457 29.905 76.8072 29.5953C77.1686 29.2825 77.6432 29.1283 78.2268 29.1283C78.8104 29.1283 79.2864 29.2884 79.6437 29.6086C79.9996 29.9302 80.1776 30.3527 80.1817 30.8759H78.929C78.9263 30.6699 78.8614 30.5157 78.7331 30.412C78.6048 30.3067 78.4241 30.2549 78.1923 30.2549C77.9895 30.2549 77.8295 30.3023 77.7136 30.3927C77.5977 30.4846 77.5384 30.6062 77.5384 30.7588C77.5384 30.8152 77.5494 30.867 77.5673 30.913C77.5867 30.9589 77.6198 30.999 77.6694 31.0316C77.7177 31.0657 77.7632 31.0924 77.806 31.1175C77.8488 31.1413 77.9122 31.165 77.9992 31.1887C78.0861 31.2124 78.1578 31.2287 78.2116 31.2406C78.2654 31.2524 78.3482 31.2687 78.4613 31.291C78.9346 31.3829 79.2753 31.4763 79.4836 31.5756C80.0107 31.8276 80.2742 32.2693 80.2742 32.9022C80.2742 33.4358 80.0879 33.8627 79.714 34.1829C79.3402 34.5045 78.8449 34.6646 78.2268 34.6646V34.6617Z" fill="#900C3E"/>
<path d="M38.8361 11.2521C39.0486 11.7491 39.2299 12.2475 39.3675 12.7531L26.0736 18.9345C26.8094 20.0904 27.6951 20.8231 28.7389 21.1369C29.7786 21.4536 30.881 21.34 32.0351 20.8032C32.8486 20.4255 33.5 19.8987 33.9919 19.2227C34.4865 18.5397 34.77 17.7899 34.8422 16.9578L39.8308 14.6389C40.0529 16.9336 39.6319 19.0339 38.5676 20.9367C37.5034 22.841 35.9554 24.2652 33.9224 25.2096C32.215 26.0034 30.4885 26.2987 28.7335 26.1042C26.977 25.904 25.3854 25.255 23.9601 24.1431C22.5294 23.0327 21.4324 21.5785 20.6625 19.7822C19.8886 17.9745 19.5806 16.1455 19.7332 14.2995C19.8913 12.4506 20.4854 10.7863 21.521 9.30241C22.5539 7.8128 23.9261 6.67394 25.6443 5.87447C27.4008 5.05795 29.1654 4.75975 30.9341 4.97275C32.7028 5.18717 34.2753 5.85175 35.6475 6.96221C37.0224 8.06415 38.0866 9.4998 38.8361 11.2521ZM27.4512 10.0948C26.3993 10.5833 25.6403 11.3018 25.1674 12.2475C24.7028 13.1961 24.5611 14.2782 24.7505 15.4966L33.2683 11.5361C32.4616 10.5762 31.5596 9.97267 30.5539 9.72274C29.5524 9.47708 28.5182 9.5992 27.4498 10.0948H27.4512Z" fill="#900C3E"/>
<path d="M12.5665 5.96924C14.7447 5.96924 16.4775 6.67369 17.7662 8.08658C18.6625 9.07441 19.2483 10.2993 19.5194 11.7572C19.1611 12.6364 18.9377 13.5647 18.8492 14.5392C18.6911 16.2977 19.0017 18.0059 19.6951 19.6267V25.0995H14.4954V14.5882C14.4954 11.7903 13.3743 10.3933 11.1361 10.3933C9.80659 10.3933 8.7563 10.8316 7.98391 11.7029C7.21288 12.5795 6.826 13.7686 6.826 15.2794V25.0995H1.62769V6.40754H5.18859L6.19801 8.72085C6.94043 7.86677 7.8654 7.19144 8.97562 6.7015C10.079 6.21156 11.2778 5.96924 12.5665 5.96924Z" fill="#900C3E"/>
<path d="M48.0638 20.4404H50.516V25.0994H46.6893C44.5016 25.0994 42.7707 24.4831 41.5008 23.2517C40.2308 22.019 39.5973 20.3265 39.5973 18.1795V17.6442C39.7981 16.6174 39.8377 15.5562 39.7246 14.4704L39.644 13.6989L39.5959 13.7195V9.92531H38.07C37.6769 9.25816 37.2201 8.63494 36.6997 8.06251L43.8751 0.655273H44.9046V5.72064H50.4127V9.92531H44.9965V17.4794C44.9965 18.4239 45.261 19.1542 45.7913 19.6689C46.3216 20.1837 47.0796 20.4404 48.0653 20.4404H48.0638Z" fill="#900C3E"/>
<path d="M61.4486 5.96924H63.2695V9.6686H61.0421C59.3027 9.6686 57.996 10.1147 57.119 11.0136C56.2362 11.9057 55.7992 13.2211 55.7992 14.9474V25.0995H51.5789V6.07436H54.4414L55.1465 8.66998C56.612 6.86679 58.7142 5.96924 61.4486 5.96924Z" fill="#FF5733"/>
<path d="M80.3196 6.42073L83.4626 6.43846V25.6753H80.1731L79.78 23.3401C78.8657 24.2376 77.7908 24.9333 76.5581 25.4257C75.324 25.9195 73.9927 26.1622 72.5684 26.1622C70.6229 26.1622 68.8605 25.723 67.2841 24.8487C65.7006 23.9689 64.4608 22.7563 63.5578 21.2122C62.6618 19.6613 62.2068 17.9372 62.2068 16.048C62.2068 14.1588 62.6604 12.4224 63.5578 10.8838C64.4594 9.3452 65.7006 8.14349 67.2841 7.27052C68.8619 6.403 70.6229 5.96924 72.5684 5.96924C74.0054 5.96924 75.3494 6.21885 76.5947 6.71809C77.8401 7.21732 78.9207 7.92388 79.8293 8.83914L80.321 6.42073H80.3196ZM68.2153 20.5657C69.4494 21.766 71.0019 22.3662 72.8741 22.3662C74.7464 22.3662 76.2933 21.766 77.5203 20.5657C78.7474 19.3653 79.3616 17.8622 79.3616 16.0494C79.3616 14.2366 78.7474 12.7334 77.5203 11.5385C76.2933 10.3437 74.7394 9.74349 72.8741 9.74349C71.0089 9.74349 69.4494 10.3437 68.2153 11.5508C66.9812 12.7512 66.3613 14.2489 66.3613 16.0494C66.3613 17.8499 66.9812 19.3653 68.2153 20.5657Z" fill="#FF5733"/>
<path d="M101.142 6.43823H103.656V24.8104C103.656 27.8785 102.82 30.2873 101.165 32.0355C99.507 33.7864 97.2366 34.6646 94.3499 34.6646C91.9687 34.6646 89.9729 34.0664 88.3625 32.8702C86.7522 31.6739 85.7054 30.0209 85.2342 27.9193H89.0581C89.4093 28.932 90.0706 29.7314 91.042 30.3118C92.0135 30.8923 93.1065 31.1764 94.3195 31.1764C95.9589 31.1764 97.2973 30.653 98.3335 29.6063C99.3723 28.5568 99.8924 27.1431 99.8924 25.3473V22.7658C98.1619 24.2992 96.1081 25.07 93.7269 25.07C92.0188 25.07 90.4665 24.65 89.0568 23.8139C87.6537 22.9725 86.5489 21.8238 85.7384 20.3665C84.9333 18.9093 84.5254 17.2984 84.5254 15.5271C84.5254 13.7558 84.928 12.1572 85.7332 10.6945C86.5331 9.23177 87.6431 8.07629 89.0515 7.23619C90.4599 6.38929 92.0188 5.96924 93.7269 5.96924C95.0613 5.96924 96.3206 6.23024 97.494 6.74545C98.6675 7.26609 99.6799 7.98929 100.537 8.91911L101.14 6.43687L101.142 6.43823ZM90.0547 19.7344C91.1476 20.8532 92.5165 21.4105 94.1664 21.4105C95.8164 21.4105 97.1852 20.8532 98.2609 19.7466C99.342 18.6333 99.8766 17.2291 99.8766 15.5298C99.8766 13.8306 99.342 12.4263 98.2662 11.313C97.197 10.2051 95.8282 9.6491 94.1651 9.6491C92.5019 9.6491 91.1463 10.2065 90.0534 11.3198C88.9671 12.4386 88.4206 13.8428 88.4206 15.5312C88.4206 17.2195 88.9671 18.6224 90.0534 19.7358L90.0547 19.7344Z" fill="#FF5733"/>
<path d="M118.481 24.4803C117.03 25.603 115.107 26.1622 112.724 26.1622C110.341 26.1622 108.419 25.5675 106.974 24.3671C105.529 23.1721 104.773 21.5802 104.719 19.5831H108.649C108.698 20.5694 109.109 21.3306 109.883 21.8707C110.651 22.4109 111.648 22.6797 112.864 22.6797C113.977 22.6797 114.891 22.46 115.61 22.0085C116.329 21.5624 116.692 20.95 116.692 20.1724C116.692 19.8273 116.608 19.5122 116.438 19.2339C116.263 18.9543 116.058 18.7346 115.815 18.5628C115.574 18.3963 115.228 18.2422 114.787 18.1058C114.345 17.9625 113.946 17.8616 113.601 17.7907C113.25 17.7197 112.785 17.6365 112.193 17.5288C111.587 17.4224 111.11 17.3391 110.759 17.2668C110.402 17.1959 109.943 17.0827 109.374 16.9285C108.805 16.7744 108.352 16.608 108.001 16.4293C107.65 16.2574 107.27 16.0255 106.859 15.7336C106.448 15.4417 106.12 15.1211 105.891 14.7705C105.661 14.4145 105.468 13.9807 105.311 13.4691C105.147 12.9576 105.07 12.3997 105.07 11.7817C105.07 10.052 105.771 8.64973 107.168 7.58026C108.571 6.50397 110.403 5.96924 112.671 5.96924C114.939 5.96924 116.759 6.52853 118.138 7.64574C119.511 8.7684 120.219 10.2607 120.255 12.1323H116.445C116.409 11.2224 116.058 10.5336 115.381 10.052C114.709 9.5705 113.778 9.32633 112.581 9.32633C111.475 9.32633 110.592 9.54049 109.944 9.96201C109.29 10.3835 108.971 10.9483 108.971 11.6617C108.971 11.9345 109.02 12.1842 109.11 12.3983C109.207 12.6125 109.369 12.8021 109.6 12.9631C109.83 13.1295 110.047 13.2604 110.254 13.3668C110.459 13.4678 110.767 13.5687 111.172 13.6642C111.583 13.7529 111.916 13.8252 112.176 13.8784C112.435 13.9316 112.817 13.9971 113.325 14.0803C115.242 14.3954 116.615 14.7228 117.456 15.0733C119.463 15.9177 120.527 17.4087 120.642 19.549C120.655 19.6854 120.66 19.8396 120.66 20.0005C120.66 21.8666 119.934 23.3644 118.483 24.4817L118.481 24.4803Z" fill="#FF5733"/>
<path fill-rule="evenodd" clip-rule="evenodd" d="M79.2113 18.1928L65.8813 18.7226C65.6 18.7336 65.4065 18.4783 65.3955 18.2147C65.3845 17.9539 65.5602 17.6711 65.8429 17.6602C65.8553 17.6602 65.869 17.6602 65.8813 17.6602L79.2113 18.19V18.1928Z" fill="#FF5733"/>
<path fill-rule="evenodd" clip-rule="evenodd" d="M69.0326 22.9736L73.8974 23.5032L69.0326 24.0347C68.7614 24.0528 68.5996 23.928 68.5846 23.5475C68.5696 23.1609 68.7104 22.9958 68.9906 22.9736C69.0041 22.9736 69.0176 22.9736 69.0311 22.9736H69.0326Z" fill="#FF5733"/>
<path fill-rule="evenodd" clip-rule="evenodd" d="M79.2115 12.8782L66.9842 13.408C66.68 13.4217 66.4711 13.1609 66.4585 12.9029C66.4473 12.6422 66.6365 12.3594 66.9436 12.3457C66.9576 12.3457 66.9702 12.3457 66.9842 12.3457L79.2115 12.8755V12.8782Z" fill="#FF5733"/>
<path fill-rule="evenodd" clip-rule="evenodd" d="M71.2396 8.09473L70.7098 23.4759C70.6987 23.801 70.9552 24.024 71.2173 24.0361C71.4795 24.0482 71.7583 23.8467 71.7723 23.5203C71.7723 23.5055 71.7723 23.4907 71.7723 23.4759L71.2424 8.09473H71.2396Z" fill="#FF5733"/>
<path fill-rule="evenodd" clip-rule="evenodd" d="M66.4578 17.1229L65.9283 11.2832L65.3967 17.1217C65.3786 17.4468 65.5034 17.6417 65.884 17.6588C66.2706 17.6758 66.4357 17.509 66.4578 17.1704C66.4578 17.1546 66.4578 17.1375 66.4578 17.1217V17.1229Z" fill="#FF5733"/>
<path fill-rule="evenodd" clip-rule="evenodd" d="M76.5546 9.15771L76.0235 22.4042C76.0095 22.7335 76.2695 22.9606 76.5295 22.9734C76.7922 22.9862 77.0718 22.7818 77.0857 22.4482C77.0857 22.434 77.0857 22.4183 77.0857 22.4042L76.5546 9.15771Z" fill="#FF5733"/>
<path d="M124.389 4.23633C125.126 4.23633 125.753 4.49407 126.267 5.00637C126.781 5.52027 127.037 6.14712 127.037 6.89012C127.037 7.63312 126.779 8.25998 126.267 8.77705C125.753 9.29254 125.128 9.55028 124.389 9.55028C123.651 9.55028 123.023 9.29094 122.502 8.77069C121.982 8.25043 121.723 7.62357 121.723 6.89012C121.723 6.15667 121.982 5.52663 122.499 5.00956C123.016 4.49407 123.646 4.23633 124.389 4.23633ZM123 8.27907C123.384 8.65773 123.847 8.84706 124.389 8.84706C124.932 8.84706 125.392 8.65932 125.769 8.28225C126.146 7.90518 126.334 7.44061 126.334 6.89012C126.334 6.33963 126.144 5.88143 125.769 5.50436C125.392 5.12729 124.932 4.93955 124.389 4.93955C123.847 4.93955 123.373 5.12888 122.994 5.50754C122.615 5.8862 122.426 6.34759 122.426 6.89012C122.426 7.43265 122.617 7.90041 123 8.27907ZM125.514 6.51783C125.514 6.86944 125.371 7.12718 125.085 7.28787L125.594 8.16451H124.854L124.42 7.40561H124.133V8.16451H123.406V5.57277H124.574C124.848 5.57277 125.072 5.66187 125.249 5.84006C125.425 6.01825 125.513 6.24417 125.513 6.51783H125.514ZM124.135 6.21872V6.76602H124.507C124.603 6.76602 124.677 6.74057 124.731 6.69125C124.786 6.64192 124.813 6.5751 124.813 6.49237C124.813 6.40964 124.786 6.34282 124.731 6.2935C124.677 6.24417 124.603 6.21872 124.507 6.21872H124.135Z" fill="#900C3E"/>
</svg>
