<svg width="184" height="51" viewBox="0 0 184 51" fill="none" xmlns="http://www.w3.org/2000/svg">
<path d="M6.16512 41.0975H7.58085V48.2569H6.09394L5.92983 47.6169C5.29315 48.188 4.53981 48.4715 3.66586 48.4715C2.97579 48.4715 2.34899 48.3075 1.78943 47.9794C1.22788 47.6533 0.790907 47.1976 0.474544 46.6164C0.158181 46.0372 0 45.3891 0 44.6782C0 43.9673 0.158181 43.3273 0.474544 42.7521C0.78893 42.177 1.22788 41.7274 1.78943 41.3993C2.35097 41.0752 2.97579 40.9112 3.66586 40.9112C4.55563 40.9112 5.32083 41.2028 5.96146 41.7841L6.16512 41.0995V41.0975ZM2.45577 46.0777C2.81563 46.4503 3.2704 46.6387 3.82008 46.6387C4.36976 46.6387 4.82058 46.4523 5.18242 46.0817C5.54228 45.7111 5.72222 45.2412 5.72222 44.6762C5.72222 44.1111 5.54228 43.6412 5.18242 43.2706C4.82256 42.9 4.36779 42.7137 3.82008 42.7137C3.27238 42.7137 2.81761 42.902 2.45577 43.2747C2.0959 43.6473 1.91597 44.1152 1.91597 44.6762C1.91597 45.2372 2.0959 45.703 2.45577 46.0777ZM10.2897 48.269V38.5254H12.18V48.269H10.2897ZM14.8829 48.269V38.5254H16.7732V48.269H14.8829ZM25.7579 46.5475H26.616V48.269H25.2754C24.5102 48.269 23.9032 48.0422 23.4583 47.5865C23.0134 47.1308 22.792 46.505 22.792 45.7131V42.663H21.5285V42.2479L24.2907 39.2383H24.6506V41.1096H26.5784V42.663H24.6822V45.4539C24.6822 45.8022 24.7752 46.0736 24.961 46.262C25.1469 46.4523 25.4119 46.5475 25.7579 46.5475ZM33.6314 41.1096H35.6422L32.5953 48.1718C32.3046 48.8462 32.0219 49.3687 31.745 49.7414C31.4682 50.114 31.1479 50.3935 30.7801 50.5758C30.4124 50.7601 29.9695 50.8512 29.4475 50.8512H28.6684V49.1095H29.3268C29.7737 49.1095 30.092 49.0265 30.2838 48.8584C30.4756 48.6882 30.6813 48.3277 30.9008 47.7748L30.9245 47.7181L27.9665 41.1076H30.0209L31.8874 45.5106L33.6314 41.1076V41.1096ZM41.2972 40.9091C41.9873 40.9091 42.6101 41.0732 43.1697 41.3972C43.7293 41.7233 44.1662 42.1749 44.4806 42.7542C44.797 43.3334 44.9552 43.9774 44.9552 44.6903C44.9552 45.4032 44.797 46.0493 44.4806 46.6285C44.1662 47.2098 43.7273 47.6655 43.1697 47.9915C42.6101 48.3176 41.9873 48.4837 41.2972 48.4837C40.6072 48.4837 39.9487 48.2832 39.3753 47.8802V50.8533H37.4851V41.1096H38.7307L39.053 41.7638C39.6818 41.1927 40.4292 40.9091 41.2992 40.9091H41.2972ZM39.7767 46.0918C40.1366 46.4645 40.5894 46.6528 41.139 46.6528C41.6887 46.6528 42.1415 46.4665 42.5034 46.0959C42.8632 45.7253 43.0432 45.2554 43.0432 44.6903C43.0432 44.1253 42.8632 43.6554 42.5034 43.2848C42.1435 42.9142 41.6887 42.7278 41.139 42.7278C40.5894 42.7278 40.1385 42.9162 39.7767 43.2888C39.4168 43.6615 39.2349 44.1293 39.2349 44.6903C39.2349 45.2513 39.4168 45.7172 39.7767 46.0918ZM53.9854 44.664C53.9854 44.8584 53.9755 45.0488 53.9478 45.2351H48.6566C48.7357 45.7232 48.9255 46.0979 49.2281 46.3571C49.5286 46.6184 49.9102 46.748 50.3689 46.748C50.6932 46.748 50.9839 46.6751 51.2429 46.5293C51.5039 46.3814 51.7056 46.1809 51.8479 45.9197H53.8331C53.58 46.7014 53.143 47.3232 52.5202 47.7829C51.8974 48.2427 51.1796 48.4715 50.3709 48.4715C49.6907 48.4715 49.0758 48.3055 48.5222 47.9774C47.9685 47.6452 47.5316 47.1936 47.2172 46.6144C46.9008 46.0351 46.7426 45.3951 46.7426 44.6924C46.7426 43.9896 46.9008 43.3415 47.2132 42.7623C47.5276 42.183 47.9626 41.7294 48.5162 41.4033C49.0699 41.0732 49.6888 40.9112 50.3709 40.9112C51.0531 40.9112 51.6977 41.0813 52.2553 41.4195C52.8128 41.7577 53.2399 42.2134 53.5365 42.7825C53.8371 43.3496 53.9854 43.9795 53.9854 44.666V44.664ZM50.3709 42.5597C49.9517 42.5597 49.5978 42.6792 49.3071 42.9162C49.0185 43.1552 48.8168 43.4873 48.708 43.9126H52.0971C51.9646 43.4772 51.751 43.143 51.4545 42.9101C51.1559 42.6772 50.796 42.5618 50.3709 42.5618V42.5597ZM58.7051 48.4715C57.8292 48.4715 57.1213 48.2366 56.5835 47.7688C56.0457 47.3009 55.7768 46.6812 55.7728 45.9156H57.6136C57.6156 46.2215 57.7264 46.4564 57.9379 46.6204C58.1515 46.7845 58.4322 46.8655 58.7822 46.8655C59.061 46.8655 59.2963 46.8027 59.4881 46.6771C59.6799 46.5536 59.7748 46.3774 59.7748 46.1465C59.7748 46.029 59.7432 45.9278 59.6779 45.8407C59.6127 45.7536 59.5099 45.6848 59.3714 45.624C59.2311 45.5673 59.0946 45.5207 58.9621 45.4883C58.8257 45.4559 58.6497 45.4194 58.4283 45.381C58.2325 45.3486 58.0645 45.3162 57.93 45.2878C57.7936 45.2594 57.6314 45.2169 57.4396 45.1622C57.2479 45.1055 57.0857 45.0448 56.9572 44.9759C56.8247 44.9091 56.6883 44.82 56.542 44.7086C56.3976 44.5952 56.281 44.4716 56.194 44.3359C56.107 44.2002 56.0358 44.0362 55.9785 43.8417C55.9231 43.6473 55.8934 43.4347 55.8934 43.2018C55.8934 42.5233 56.1525 41.9724 56.6705 41.5491C57.1885 41.1218 57.8687 40.9112 58.7051 40.9112C59.5415 40.9112 60.2236 41.1299 60.7358 41.5674C61.2459 42.0068 61.501 42.5841 61.5069 43.299H59.7115C59.7076 43.0175 59.6146 42.8068 59.4308 42.6651C59.2469 42.5213 58.9879 42.4504 58.6557 42.4504C58.365 42.4504 58.1357 42.5152 57.9696 42.6387C57.8035 42.7643 57.7184 42.9304 57.7184 43.139C57.7184 43.2159 57.7343 43.2868 57.76 43.3496C57.7876 43.4124 57.8351 43.4671 57.9063 43.5116C57.9755 43.5582 58.0407 43.5947 58.102 43.6291C58.1633 43.6615 58.2543 43.6939 58.3789 43.7263C58.5034 43.7587 58.6062 43.781 58.6834 43.7972C58.7605 43.8134 58.8791 43.8357 59.0412 43.8661C59.7194 43.9916 60.2078 44.1192 60.5064 44.2549C61.2617 44.5992 61.6394 45.2027 61.6394 46.0675C61.6394 46.7966 61.3724 47.3799 60.8366 47.8174C60.3008 48.2569 59.5909 48.4756 58.7051 48.4756V48.4715Z" fill="white"/>
<path d="M70.0865 49.308C69.3663 49.308 68.7142 49.1339 68.1301 48.7857C67.546 48.4397 67.0859 47.9583 66.7578 47.3436C66.4278 46.7289 66.2617 46.0476 66.2617 45.2954C66.2617 44.5432 66.4278 43.849 66.7578 43.2365C67.0879 42.6261 67.546 42.149 68.1301 41.8008C68.7122 41.4569 69.3663 41.2828 70.0865 41.2828C70.8066 41.2828 71.4527 41.4569 72.0368 41.8008C72.6189 42.1468 73.077 42.6261 73.4091 43.2408C73.7432 43.8554 73.9092 44.5389 73.9092 45.2954C73.9092 46.0519 73.7432 46.7289 73.4091 47.3436C73.077 47.9583 72.6189 48.4397 72.0368 48.7857C71.4527 49.136 70.8006 49.308 70.0865 49.308ZM68.7302 46.7956C69.0843 47.1824 69.5363 47.378 70.0865 47.378C70.6366 47.378 71.0886 47.1824 71.4427 46.7956C71.7968 46.4087 71.9728 45.9101 71.9728 45.2954C71.9728 44.6807 71.7968 44.1821 71.4427 43.7953C71.0886 43.4084 70.6366 43.2128 70.0865 43.2128C69.5363 43.2128 69.0843 43.4084 68.7302 43.7953C68.3761 44.1821 68.2001 44.6807 68.2001 45.2954C68.2001 45.9101 68.3761 46.4087 68.7302 46.7956ZM80.3844 41.5988V43.288H78.6081V49.0952H76.6957V43.288H75.4675V41.5988H76.7037V40.911C76.7037 40.1674 76.8958 39.585 77.2778 39.1616C77.6619 38.7382 78.218 38.5254 78.9482 38.5254H80.3744V40.1416H79.3342C78.8181 40.1416 78.5601 40.4145 78.5601 40.9583V41.5988H80.3884H80.3844ZM89.2661 41.3172C90.0663 41.3172 90.7044 41.6031 91.1785 42.1769C91.6506 42.7507 91.8887 43.5223 91.8887 44.4895V49.0931H89.9763V44.8204C89.9763 43.6835 89.5642 43.1161 88.74 43.1161C88.252 43.1161 87.8639 43.2945 87.5818 43.6491C87.2978 44.0059 87.1557 44.4895 87.1557 45.1041V49.0952H85.2434V41.4977H86.5536L86.9237 42.4391C87.1958 42.0931 87.5378 41.818 87.9459 41.6181C88.352 41.4182 88.7921 41.3194 89.2661 41.3194V41.3172ZM101.4 45.2675C101.4 45.4738 101.39 45.6758 101.362 45.8735H96.0094C96.0895 46.3915 96.2815 46.7891 96.5876 47.0642C96.8916 47.3415 97.2777 47.479 97.7418 47.479C98.0698 47.479 98.3639 47.4016 98.626 47.2469C98.89 47.09 99.094 46.8772 99.2381 46.6H101.246C100.99 47.4296 100.548 48.0894 99.9162 48.5773C99.2861 49.0651 98.5599 49.308 97.7418 49.308C97.0536 49.308 96.4315 49.1317 95.8714 48.7836C95.3113 48.4311 94.8692 47.9518 94.5512 47.3372C94.2311 46.7225 94.0711 46.0433 94.0711 45.2976C94.0711 44.5518 94.2311 43.864 94.5472 43.2494C94.8652 42.6347 95.3053 42.1533 95.8654 41.8072C96.4255 41.4569 97.0516 41.285 97.7418 41.285C98.4319 41.285 99.084 41.4655 99.6481 41.8244C100.212 42.1833 100.644 42.6669 100.944 43.2708C101.248 43.8726 101.398 44.541 101.398 45.2696L101.4 45.2675ZM97.7438 43.0344C97.3197 43.0344 96.9616 43.1612 96.6676 43.4127C96.3755 43.6663 96.1715 44.0188 96.0615 44.4701H99.4901C99.3561 44.008 99.1401 43.6534 98.84 43.4063C98.5379 43.1591 98.1739 43.0366 97.7438 43.0366V43.0344ZM107.02 47.2684H107.888V49.0952H106.531C105.757 49.0952 105.143 48.8545 104.693 48.3709C104.243 47.8874 104.019 47.2232 104.019 46.3829V43.1462H102.741V42.7056L105.535 39.5119H105.899V41.4977H107.85V43.1462H105.931V46.1078C105.931 46.4775 106.025 46.7655 106.213 46.9653C106.401 47.1674 106.67 47.2684 107.02 47.2684ZM112.605 49.308C111.718 49.308 111.002 49.0587 110.458 48.5622C109.914 48.0657 109.642 47.4081 109.638 46.5957H111.5C111.502 46.9202 111.614 47.1695 111.828 47.3436C112.045 47.5177 112.329 47.6037 112.683 47.6037C112.965 47.6037 113.203 47.537 113.397 47.4038C113.591 47.2727 113.687 47.0857 113.687 46.8407C113.687 46.716 113.655 46.6086 113.589 46.5162C113.523 46.4237 113.419 46.3507 113.279 46.2862C113.137 46.226 112.999 46.1766 112.865 46.1422C112.727 46.1078 112.549 46.0691 112.325 46.0283C112.127 45.9939 111.957 45.9595 111.82 45.9294C111.682 45.8993 111.518 45.8542 111.324 45.7962C111.13 45.736 110.966 45.6715 110.836 45.5984C110.702 45.5275 110.564 45.433 110.416 45.3147C110.27 45.1944 110.152 45.0633 110.064 44.9193C109.976 44.7753 109.904 44.6012 109.846 44.3949C109.79 44.1886 109.76 43.9629 109.76 43.7157C109.76 42.9958 110.022 42.4112 110.546 41.962C111.07 41.5085 111.758 41.285 112.605 41.285C113.451 41.285 114.141 41.5171 114.659 41.9813C115.175 42.4477 115.433 43.0602 115.439 43.8189H113.623C113.619 43.5202 113.525 43.2966 113.339 43.1462C113.153 42.9936 112.891 42.9184 112.555 42.9184C112.261 42.9184 112.029 42.9872 111.861 43.1183C111.692 43.2515 111.606 43.4277 111.606 43.6491C111.606 43.7308 111.622 43.806 111.648 43.8726C111.676 43.9393 111.724 43.9973 111.796 44.0446C111.867 44.094 111.933 44.1327 111.995 44.1692C112.057 44.2036 112.149 44.238 112.275 44.2724C112.401 44.3068 112.505 44.3304 112.583 44.3476C112.661 44.3648 112.781 44.3884 112.945 44.4207C113.631 44.5539 114.125 44.6893 114.427 44.8333C115.191 45.1987 115.573 45.8392 115.573 46.7569C115.573 47.5306 115.303 48.1496 114.761 48.6138C114.219 49.0802 113.501 49.3123 112.605 49.3123V49.308Z" fill="white"/>
<path d="M55.4932 15.3652C55.8014 16.0858 56.0642 16.8085 56.2638 17.5415L36.9884 26.5042C38.0553 28.1801 39.3395 29.2426 40.8529 29.6976C42.3604 30.1567 43.9588 29.992 45.6323 29.2137C46.8118 28.6661 47.7562 27.9022 48.4694 26.9221C49.1866 25.9318 49.5976 24.8446 49.7023 23.6381L56.9355 20.2758C57.2576 23.6031 56.6471 26.6483 55.104 29.4073C53.5609 32.1683 51.3165 34.2335 48.3687 35.6027C45.8931 36.7536 43.3898 37.1819 40.845 36.8998C38.2983 36.6095 35.9906 35.6686 33.924 34.0564C31.8494 32.4463 30.259 30.3379 29.1427 27.7334C28.0204 25.1123 27.5739 22.4604 27.7952 19.7837C28.0244 17.103 28.8858 14.6899 30.3874 12.5382C31.885 10.3784 33.8746 8.72711 36.366 7.56792C38.9127 6.38402 41.4713 5.95164 44.0359 6.26048C46.6004 6.57139 48.8804 7.53498 50.87 9.14508C52.8635 10.7428 54.4066 12.8244 55.4932 15.3652ZM38.9858 13.6871C37.4606 14.3954 36.3601 15.4373 35.6745 16.8085C35.0008 18.1839 34.7953 19.7528 35.0699 21.5194L47.4203 15.777C46.2507 14.3851 44.9427 13.5101 43.4846 13.1477C42.0324 12.7915 40.5329 12.9686 38.9839 13.6871H38.9858Z" fill="white"/>
<path d="M17.4017 7.70508C20.56 7.70508 23.0724 8.7265 24.9409 10.7751C26.2406 12.2074 27.0899 13.9834 27.4829 16.0972C26.9635 17.3721 26.6396 18.718 26.5112 20.1311C26.282 22.6808 26.7324 25.1575 27.7377 27.5076V35.4428H20.1985V20.2021C20.1985 16.1452 18.5729 14.1197 15.3277 14.1197C13.4 14.1197 11.8771 14.7552 10.7572 16.0185C9.63923 17.2895 9.07828 19.0137 9.07828 21.2043V35.4428H1.54102V8.34059H6.70412L8.16772 11.6948C9.24419 10.4564 10.5853 9.4772 12.1951 8.76682C13.795 8.05643 15.5331 7.70508 17.4017 7.70508Z" fill="white"/>
<path d="M68.8719 28.6873H72.4273V35.4426H66.8788C63.7068 35.4426 61.1971 34.549 59.3558 32.7636C57.5145 30.9762 56.5959 28.5221 56.5959 25.4091V24.6329C56.887 23.1441 56.9445 21.6055 56.7804 20.0311L56.6635 18.9126L56.5938 18.9424V13.441H54.3814C53.8114 12.4737 53.1491 11.5701 52.3945 10.7401L62.7985 0H64.2912V7.34449H72.2776V13.441H64.4245V24.3941C64.4245 25.7634 64.8079 26.8223 65.5768 27.5687C66.3457 28.3151 67.4448 28.6873 68.8739 28.6873H68.8719Z" fill="white"/>
<path d="M88.2773 7.70508H90.9176V13.0689H87.688C85.166 13.0689 83.2713 13.7157 81.9997 15.0191C80.7197 16.3127 80.086 18.2198 80.086 20.7229V35.4428H73.9668V7.85749H78.1174L79.1397 11.621C81.2646 9.00647 84.3126 7.70508 88.2773 7.70508Z" fill="white"/>
<path d="M115.641 8.35972L120.199 8.38543V36.2777H115.429L114.859 32.8918C113.533 34.1932 111.975 35.2018 110.188 35.9158C108.398 36.6317 106.468 36.9838 104.403 36.9838C101.582 36.9838 99.0264 36.3469 96.7407 35.0792C94.4447 33.8035 92.6472 32.0453 91.3378 29.8065C90.0387 27.5578 89.3789 25.0579 89.3789 22.3187C89.3789 19.5795 90.0366 17.0618 91.3378 14.8309C92.6451 12.6 94.4447 10.8576 96.7407 9.59186C99.0284 8.334 101.582 7.70508 104.403 7.70508C106.486 7.70508 108.435 8.06701 110.241 8.79087C112.046 9.51473 113.613 10.5392 114.931 11.8663L115.643 8.35972H115.641ZM98.0909 28.869C99.8802 30.6095 102.131 31.4797 104.846 31.4797C107.561 31.4797 109.803 30.6095 111.583 28.869C113.362 27.1286 114.252 24.9491 114.252 22.3207C114.252 19.6923 113.362 17.5128 111.583 15.7803C109.803 14.0477 107.55 13.1775 104.846 13.1775C102.141 13.1775 99.8802 14.0477 98.0909 15.7981C96.3015 17.5385 95.4027 19.7101 95.4027 22.3207C95.4027 24.9313 96.3015 27.1286 98.0909 28.869Z" fill="white"/>
<path d="M145.832 8.38509H149.476V35.0236C149.476 39.4722 148.265 42.9649 145.865 45.4997C143.461 48.0384 140.169 49.3117 135.983 49.3117C132.531 49.3117 129.637 48.4444 127.302 46.7099C124.967 44.9754 123.449 42.5786 122.766 39.5314H128.311C128.82 40.9998 129.778 42.1588 131.187 43.0004C132.596 43.842 134.18 44.254 135.939 44.254C138.316 44.254 140.257 43.4951 141.759 41.9774C143.265 40.4558 144.02 38.4059 144.02 35.8022V32.0592C141.51 34.2825 138.532 35.4001 135.08 35.4001C132.603 35.4001 130.353 34.791 128.309 33.5789C126.274 32.3588 124.672 30.6933 123.497 28.5803C122.33 26.4674 121.738 24.1317 121.738 21.5634C121.738 18.9952 122.322 16.6772 123.489 14.5564C124.649 12.4356 126.259 10.7602 128.301 9.54208C130.343 8.31413 132.603 7.70508 135.08 7.70508C137.015 7.70508 138.841 8.08352 140.542 8.83054C142.243 9.58545 143.711 10.634 144.954 11.9822L145.828 8.38311L145.832 8.38509ZM129.755 27.6638C131.34 29.2859 133.325 30.0941 135.717 30.0941C138.11 30.0941 140.094 29.2859 141.654 27.6815C143.221 26.0672 143.997 24.0312 143.997 21.5674C143.997 19.1036 143.221 17.0675 141.662 15.4532C140.111 13.8468 138.127 13.0407 135.715 13.0407C133.304 13.0407 131.338 13.8488 129.754 15.4631C128.178 17.0852 127.386 19.1213 127.386 21.5693C127.386 24.0174 128.178 26.0515 129.754 27.6657L129.755 27.6638Z" fill="white"/>
<path d="M170.973 34.545C168.868 36.1728 166.081 36.9838 162.625 36.9838C159.17 36.9838 156.383 36.1214 154.288 34.3809C152.193 32.6482 151.096 30.34 151.018 27.4444H156.717C156.787 28.8744 157.383 29.9781 158.506 30.7613C159.619 31.5446 161.066 31.9342 162.829 31.9342C164.442 31.9342 165.767 31.6158 166.809 30.9611C167.852 30.3143 168.379 29.4263 168.379 28.2989C168.379 27.7985 168.256 27.3416 168.011 26.9381C167.757 26.5326 167.459 26.2142 167.107 25.965C166.757 25.7237 166.256 25.5002 165.616 25.3024C164.976 25.0947 164.396 24.9483 163.897 24.8455C163.388 24.7426 162.714 24.622 161.855 24.4657C160.977 24.3114 160.285 24.1908 159.776 24.086C159.258 23.9831 158.592 23.8189 157.767 23.5954C156.942 23.3719 156.286 23.1306 155.777 22.8715C155.268 22.6223 154.716 22.2861 154.121 21.8628C153.525 21.4395 153.05 20.9747 152.718 20.4664C152.384 19.9502 152.104 19.3212 151.877 18.5795C151.639 17.8378 151.527 17.0288 151.527 16.1329C151.527 13.6249 152.543 11.5916 154.57 10.041C156.604 8.48041 159.26 7.70508 162.549 7.70508C165.837 7.70508 168.475 8.51601 170.476 10.1359C172.466 11.7637 173.492 13.9275 173.545 16.6412H168.021C167.968 15.3219 167.459 14.3231 166.477 13.6249C165.503 12.9267 164.153 12.5727 162.418 12.5727C160.814 12.5727 159.534 12.8832 158.594 13.4944C157.647 14.1055 157.184 14.9244 157.184 15.9588C157.184 16.3544 157.254 16.7163 157.385 17.0269C157.526 17.3374 157.761 17.6123 158.095 17.8457C158.429 18.087 158.743 18.2769 159.043 18.4312C159.341 18.5775 159.788 18.7239 160.375 18.8624C160.971 18.9909 161.454 19.0957 161.83 19.1729C162.207 19.25 162.76 19.345 163.497 19.4656C166.276 19.9225 168.266 20.3972 169.486 20.9055C172.396 22.1298 173.939 24.2917 174.106 27.395C174.124 27.5928 174.132 27.8163 174.132 28.0497C174.132 30.7554 173.08 32.9271 170.975 34.547L170.973 34.545Z" fill="white"/>
<path fill-rule="evenodd" clip-rule="evenodd" d="M114.033 25.4285L94.7051 26.1967C94.2972 26.2127 94.0166 25.8425 94.0007 25.4603C93.9848 25.0822 94.2395 24.6722 94.6494 24.6562C94.6673 24.6562 94.6872 24.6562 94.7051 24.6562L114.033 25.4245V25.4285Z" fill="white"/>
<path fill-rule="evenodd" clip-rule="evenodd" d="M99.2722 32.3613L106.326 33.1291L99.2722 33.8999C98.879 33.9261 98.6444 33.7451 98.6227 33.1934C98.6009 32.6328 98.8051 32.3934 99.2114 32.3613C99.2309 32.3613 99.2505 32.3613 99.27 32.3613H99.2722Z" fill="white"/>
<path fill-rule="evenodd" clip-rule="evenodd" d="M114.033 17.7223L96.304 18.4904C95.8629 18.5103 95.56 18.1322 95.5417 17.7581C95.5254 17.38 95.7999 16.9701 96.2451 16.9502C96.2654 16.9502 96.2837 16.9502 96.304 16.9502L114.033 17.7183V17.7223Z" fill="white"/>
<path fill-rule="evenodd" clip-rule="evenodd" d="M102.474 10.7871L101.706 33.089C101.689 33.5603 102.061 33.8836 102.441 33.9011C102.822 33.9187 103.226 33.6265 103.246 33.1533C103.246 33.1318 103.246 33.1104 103.246 33.089L102.478 10.7871H102.474Z" fill="white"/>
<path fill-rule="evenodd" clip-rule="evenodd" d="M95.541 23.8774L94.7732 15.4102L94.0025 23.8756C93.9762 24.3471 94.1572 24.6296 94.709 24.6543C95.2695 24.6791 95.5089 24.4371 95.541 23.9462C95.541 23.9233 95.541 23.8986 95.541 23.8756V23.8774Z" fill="white"/>
<path fill-rule="evenodd" clip-rule="evenodd" d="M110.183 12.3281L109.413 31.5347C109.393 32.0122 109.77 32.3416 110.147 32.3601C110.528 32.3786 110.933 32.0822 110.953 31.5985C110.953 31.5779 110.953 31.5553 110.953 31.5347L110.183 12.3281Z" fill="white"/>
<path d="M179.538 5.19336C180.606 5.19336 181.515 5.56707 182.26 6.30988C183.005 7.055 183.377 7.9639 183.377 9.04121C183.377 10.1185 183.003 11.0274 182.26 11.7771C181.515 12.5246 180.609 12.8983 179.538 12.8983C178.468 12.8983 177.557 12.5223 176.802 11.7679C176.048 11.0136 175.672 10.1047 175.672 9.04121C175.672 7.97774 176.048 7.06422 176.798 6.31449C177.547 5.56707 178.461 5.19336 179.538 5.19336ZM177.524 11.0551C178.08 11.6041 178.752 11.8786 179.538 11.8786C180.325 11.8786 180.991 11.6064 181.538 11.0597C182.085 10.513 182.357 9.83938 182.357 9.04121C182.357 8.24303 182.083 7.57866 181.538 7.03193C180.991 6.4852 180.325 6.21299 179.538 6.21299C178.752 6.21299 178.064 6.48751 177.515 7.03654C176.966 7.58558 176.692 8.25457 176.692 9.04121C176.692 9.82785 176.968 10.5061 177.524 11.0551ZM181.169 8.5014C181.169 9.01122 180.962 9.38493 180.546 9.61792L181.284 10.889H180.212L179.582 9.78863H179.167V10.889H178.113V7.13112H179.806C180.203 7.13112 180.528 7.26031 180.784 7.51868C181.04 7.77705 181.167 8.10462 181.167 8.5014H181.169ZM179.169 8.06771V8.86127H179.709C179.847 8.86127 179.956 8.82436 180.034 8.75285C180.113 8.68134 180.152 8.58445 180.152 8.46449C180.152 8.34453 180.113 8.24765 180.034 8.17613C179.956 8.10462 179.847 8.06771 179.709 8.06771H179.169Z" fill="white"/>
</svg>
