<svg width="156" height="31" viewBox="0 0 156 31" fill="none" xmlns="http://www.w3.org/2000/svg">
<path d="M69.5288 13.9593C69.5288 19.0306 72.1026 21.5672 77.2909 21.5672C78.8656 21.5672 80.6723 21.259 82.6704 20.6071V22.7965C82.6704 26.178 81.0567 27.8679 77.7904 27.8679C75.6382 27.8679 74.0635 27.0229 73.0644 25.2941C72.68 24.7184 72.1805 24.6033 71.5659 24.9487L70.4517 25.5634C69.7981 25.9088 69.6829 26.3693 70.1063 27.0229C71.5287 29.6357 74.1414 30.9412 77.8683 30.9412C83.363 30.9412 86.1299 28.1743 86.1299 22.6424V4.5853C86.1299 3.31702 85.8996 3.04777 84.6703 2.47208C82.9414 1.66612 80.7131 1.28174 77.9852 1.28174C72.3364 1.28174 69.5324 3.93344 69.5324 9.23508V13.961L69.5288 13.9593ZM82.1319 5.00688C82.6315 5.19819 82.6704 5.31332 82.6704 5.77564V17.571C80.7485 18.1467 79.0976 18.416 77.7532 18.416C74.5648 18.416 72.9511 16.9174 72.9511 13.8831V9.34845C72.9511 6.08209 74.7189 4.43119 78.2155 4.43119C79.6379 4.43119 80.9434 4.6225 82.1355 5.00688H82.1319Z" fill="#8CC63C"/>
<path d="M96.1644 1.28009C93.3975 1.31906 91.054 1.74064 89.1339 2.47044C87.9436 2.96996 87.6743 3.39331 87.6743 4.62262V20.7596C87.6743 21.4132 87.9046 21.6825 88.5582 21.6825H90.1719C90.9017 21.6825 91.0948 21.4912 91.0948 20.7596V5.85371C91.0948 5.46933 91.2861 5.20008 91.6333 5.08494C93.0557 4.66159 94.5153 4.43132 96.051 4.43132H97.3955C98.1253 4.43132 98.3183 4.16207 98.3183 3.50845V2.20119C98.3183 1.54756 98.127 1.27832 97.3955 1.27832H96.1662L96.1644 1.28009Z" fill="#8CC63C"/>
<path d="M19.7468 14.1117C19.7468 19.1459 22.5898 22.3343 28.5841 22.3343C32.6192 22.3343 35.3843 21.105 36.8828 18.6464C37.4585 17.7625 37.3062 17.1478 36.4223 16.7245L35.0778 15.9947C34.155 15.4951 33.7334 15.5713 33.1187 16.4552C32.2348 17.7997 30.7363 18.4923 28.5841 18.4923C25.78 18.4923 24.2035 17.1478 24.2035 14.6502V13.2278H35.8076C36.9608 13.2278 37.5365 12.6893 37.5365 11.5752V9.23167C37.5365 4.58188 34.5004 1.27832 28.6602 1.27832C22.8201 1.27832 19.7468 4.19927 19.7468 9.57708V14.11V14.1117ZM33.0798 9.80913H24.2035V8.96419C24.2035 6.46659 25.7783 5.04597 28.6602 5.04597C31.5422 5.04597 33.078 6.46837 33.078 8.96419V9.80913H33.0798Z" fill="#086224"/>
<path d="M47.7304 1.27832C44.8484 1.35449 42.466 1.73887 40.583 2.43147C39.3537 2.93099 39.0845 3.39154 39.0845 4.62085V20.5665C39.0845 21.4504 39.3927 21.7569 40.2748 21.7569H42.388C43.2719 21.7569 43.5412 21.4486 43.5412 20.5665V6.27352C43.5412 6.00427 43.6563 5.85017 43.9256 5.81297C44.9246 5.50475 46.1539 5.35242 47.5763 5.35242H48.9597C49.8436 5.35242 50.1501 5.0442 50.1501 4.16207V2.47221C50.1501 1.54934 49.8419 1.28186 48.9597 1.28186H47.7304V1.27832Z" fill="#086224"/>
<path d="M51.8277 5.27466C51.4044 6.04342 51.6364 6.61911 52.4814 7.00349L54.0189 7.65712C54.9028 7.96534 55.0941 7.8874 55.6715 7.08143C56.4775 5.85212 57.8237 5.23746 59.7067 5.23746C62.4735 5.23746 63.5487 6.54294 63.5487 9.04054V10.1157C61.3593 10.0006 60.13 9.92444 59.8608 9.92444C53.5973 9.92444 51.1387 11.5381 51.1387 16.11C51.1387 18.2232 51.7533 19.7979 52.9826 20.797C54.212 21.835 56.4403 22.3345 59.7067 22.3345C62.78 22.3345 65.0863 21.9891 66.622 21.3355C67.6972 20.8749 68.0054 20.4905 68.0054 19.1461V9.19465C68.0054 3.93021 65.2776 1.28027 59.7828 1.28027C55.8646 1.28027 53.2129 2.62473 51.8295 5.27643L51.8277 5.27466ZM63.547 17.7999C63.547 18.0691 63.3928 18.2232 63.1236 18.3383C62.2007 18.5314 60.9342 18.6466 59.2816 18.6466C56.4775 18.6466 55.6698 17.8016 55.6698 16.0728C55.6698 14.344 56.5926 13.5752 59.3577 13.5752C59.4729 13.5752 60.8563 13.6514 63.5452 13.7665V17.8016L63.547 17.7999Z" fill="#086224"/>
<path d="M99.9854 5.31509C99.6772 5.92975 99.8313 6.3531 100.485 6.62235L101.675 7.16084C102.405 7.43008 102.481 7.31494 102.944 6.70029C103.904 5.12556 105.48 4.3568 107.708 4.3568C111.09 4.3568 112.28 5.97049 112.28 8.92864V10.3882C110.743 10.1969 109.283 10.119 107.9 10.119C101.714 10.119 99.3318 11.6937 99.3318 16.1504C99.3318 18.2636 99.9464 19.8012 101.137 20.7612C102.327 21.7603 104.557 22.2598 107.746 22.2598C110.628 22.2598 112.817 21.9144 114.355 21.2608C115.43 20.8002 115.738 20.4158 115.738 19.0714V9.04378C115.738 4.24166 113.586 1.28174 107.785 1.28174C103.982 1.28174 101.369 2.62619 99.9854 5.31687V5.31509ZM112.28 18.0706C112.28 18.4939 112.089 18.7614 111.705 18.9155C110.821 19.2237 109.4 19.376 107.439 19.376C103.866 19.376 102.789 18.338 102.789 16.1487C102.789 13.9593 103.98 12.9213 107.515 12.9213C108.63 12.9213 110.243 13.0364 112.28 13.2295V18.0706Z" fill="#8CC63C"/>
<path d="M117.226 7.23701C117.226 9.11995 117.956 10.5795 118.84 11.3483C119.263 11.7717 119.878 12.0781 120.646 12.3473C122.184 12.8858 123.144 13.0382 125.027 13.2312C128.678 13.5767 130.137 14.1151 130.137 16.2673C130.137 18.2264 128.524 19.1883 125.335 19.1883C122.607 19.1883 120.879 18.2654 120.149 16.4214C119.879 15.8458 119.495 15.6527 118.919 15.8458L117.612 16.3063C116.959 16.4994 116.767 16.921 117.036 17.5356C118.227 20.6868 121.033 22.2616 125.45 22.2616C130.676 22.2616 133.48 19.9181 133.48 16.1132C133.48 14.039 132.865 12.5776 131.597 11.7717C130.329 10.9657 128.409 10.4662 125.872 10.1969C122.145 9.88871 120.646 9.42816 120.646 7.16084C120.646 5.31687 122.106 4.39399 125.027 4.39399C127.794 4.39399 129.138 5.23893 129.944 6.89159C130.368 7.50625 130.483 7.62139 131.213 7.31495L132.52 6.77646C133.134 6.50721 133.289 6.04666 132.98 5.432C131.712 2.66516 129.023 1.28174 124.951 1.28174C119.917 1.28174 117.228 3.54906 117.228 7.23701H117.226Z" fill="#8CC63C"/>
<path d="M90.2057 25.817C90.1756 25.732 90.1083 25.6895 90.0055 25.6895H89.7611C89.6584 25.6895 89.5911 25.732 89.5609 25.8241L87.9774 29.8681C87.9402 29.9708 87.9774 30.0257 88.0872 30.0257H88.2997C88.4946 30.0257 88.5495 30.0009 88.592 29.8858L88.9693 28.8938H90.7725L91.1498 29.8858C91.1924 30.0009 91.2473 30.0257 91.4421 30.0257H91.6795C91.7893 30.0257 91.8265 29.9708 91.7893 29.8681L90.2057 25.8188V25.817ZM90.6078 28.412H89.134L89.7487 26.8036C89.8036 26.6389 89.8408 26.4263 89.8461 26.3218L89.8514 26.2368H89.8886C89.8886 26.4015 89.9258 26.5964 89.9985 26.8089L90.6078 28.4102V28.412Z" fill="#086224"/>
<path d="M93.6174 25.7015C93.5022 25.7015 93.4597 25.744 93.4597 25.8591V29.8659C93.4597 29.9811 93.5022 30.0236 93.6174 30.0236H93.8848C94.0071 30.0236 94.0496 29.9811 94.0496 29.8659V28.2876H94.7014C95.146 28.2876 95.3285 28.4028 95.5056 28.7695L96.0601 29.8836C96.115 29.9988 96.1752 30.0236 96.3771 30.0236H96.6446C96.7597 30.0236 96.7845 29.9687 96.7296 29.8588L96.053 28.5498C95.9609 28.3851 95.8581 28.2699 95.7483 28.2079C96.3151 28.0804 96.6428 27.6482 96.6428 26.9963C96.6428 26.1744 96.1504 25.6997 95.3267 25.6997H93.6156L93.6174 25.7015ZM96.0299 26.9981C96.0299 27.4675 95.7554 27.7421 95.2753 27.7421H94.0514V26.2506H95.2753C95.7572 26.2506 96.0299 26.5181 96.0299 26.9999V26.9981Z" fill="#086224"/>
<path d="M98.3276 25.7021C98.2053 25.7021 98.1699 25.7447 98.1699 25.8598V26.0918C98.1699 26.207 98.2071 26.2495 98.3276 26.2495H99.4789V29.8666C99.4789 29.9817 99.5161 30.0242 99.6366 30.0242H99.9041C100.026 30.0242 100.062 29.9817 100.062 29.8666V26.2495H101.213C101.328 26.2495 101.371 26.207 101.371 26.0918V25.8598C101.371 25.7447 101.328 25.7021 101.213 25.7021H98.3258H98.3276Z" fill="#086224"/>
<path d="M103.11 29.8666C103.11 29.9817 103.152 30.0242 103.268 30.0242H103.535C103.657 30.0242 103.7 29.9817 103.7 29.8666V25.8598C103.7 25.7447 103.657 25.7021 103.535 25.7021H103.268C103.152 25.7021 103.11 25.7447 103.11 25.8598V29.8666Z" fill="#086224"/>
<path d="M105.962 25.7021C105.846 25.7021 105.804 25.7447 105.804 25.8598V29.8666C105.804 29.9817 105.846 30.0242 105.962 30.0242H106.229C106.351 30.0242 106.394 29.9817 106.394 29.8666V28.1679H108.112C108.234 28.1679 108.27 28.1307 108.27 28.0102V27.7782C108.27 27.663 108.232 27.6205 108.112 27.6205H106.394V26.2495H108.41C108.532 26.2495 108.567 26.207 108.567 26.0918V25.8598C108.567 25.7447 108.53 25.7021 108.41 25.7021H105.962Z" fill="#086224"/>
<path d="M110.41 29.8666C110.41 29.9817 110.452 30.0242 110.567 30.0242H110.835C110.957 30.0242 111 29.9817 111 29.8666V25.8598C111 25.7447 110.957 25.7021 110.835 25.7021H110.567C110.452 25.7021 110.41 25.7447 110.41 25.8598V29.8666Z" fill="#086224"/>
<path d="M112.976 28.5569C112.976 29.5311 113.591 30.1157 114.682 30.1157C115.554 30.1157 116.101 29.7685 116.326 29.0688C116.363 28.9661 116.326 28.8917 116.223 28.8616L115.973 28.7695C115.858 28.7269 115.809 28.7517 115.766 28.8722C115.614 29.3416 115.291 29.5666 114.682 29.5666C113.97 29.5666 113.568 29.1946 113.568 28.5622V27.1611C113.568 26.5216 113.958 26.1567 114.682 26.1567C115.284 26.1567 115.609 26.3764 115.761 26.8387C115.803 26.9538 115.853 26.9786 115.968 26.9361L116.218 26.8511C116.321 26.8139 116.353 26.7484 116.321 26.6438C116.096 25.9548 115.547 25.6094 114.682 25.6094C113.593 25.6094 112.976 26.1939 112.976 27.1682V28.5569Z" fill="#086224"/>
<path d="M118.191 29.8666C118.191 29.9817 118.234 30.0242 118.349 30.0242H118.616C118.739 30.0242 118.781 29.9817 118.781 29.8666V25.8598C118.781 25.7447 118.739 25.7021 118.616 25.7021H118.349C118.234 25.7021 118.191 25.7447 118.191 25.8598V29.8666Z" fill="#086224"/>
<path d="M122.786 25.817C122.756 25.732 122.689 25.6895 122.586 25.6895H122.341C122.239 25.6895 122.171 25.732 122.141 25.8241L120.558 29.8681C120.52 29.9708 120.558 30.0257 120.668 30.0257H120.88C121.075 30.0257 121.13 30.0009 121.172 29.8858L121.55 28.8938H123.353L123.73 29.8858C123.773 30.0009 123.828 30.0257 124.022 30.0257H124.26C124.37 30.0257 124.407 29.9708 124.37 29.8681L122.786 25.8188V25.817ZM123.188 28.412H121.714L122.329 26.8036C122.384 26.6389 122.421 26.4263 122.426 26.3218L122.432 26.2368H122.469C122.469 26.4015 122.506 26.5964 122.579 26.8089L123.188 28.4102V28.412Z" fill="#086224"/>
<path d="M126.198 25.7021C126.083 25.7021 126.04 25.7447 126.04 25.8598V29.8666C126.04 29.9817 126.083 30.0242 126.198 30.0242H128.543C128.665 30.0242 128.708 29.9817 128.708 29.8666V29.6345C128.708 29.5194 128.665 29.4769 128.543 29.4769H126.63V25.8598C126.63 25.7447 126.587 25.7021 126.465 25.7021H126.198Z" fill="#086224"/>
<path d="M131.334 25.7021C131.212 25.7021 131.177 25.7447 131.177 25.8598V26.0918C131.177 26.207 131.214 26.2495 131.334 26.2495H132.486V29.8666C132.486 29.9817 132.523 30.0242 132.643 30.0242H132.911C133.033 30.0242 133.069 29.9817 133.069 29.8666V26.2495H134.22C134.335 26.2495 134.378 26.207 134.378 26.0918V25.8598C134.378 25.7447 134.335 25.7021 134.22 25.7021H131.333H131.334Z" fill="#086224"/>
<path d="M136.672 25.8598C136.672 25.7447 136.634 25.7021 136.514 25.7021H136.247C136.124 25.7021 136.089 25.7447 136.089 25.8598V28.5452C136.089 29.5194 136.673 30.1163 137.752 30.1163C138.831 30.1163 139.421 29.5194 139.421 28.5452V25.8598C139.421 25.7447 139.378 25.7021 139.263 25.7021H138.996C138.873 25.7021 138.831 25.7447 138.831 25.8598V28.5522C138.831 29.1917 138.459 29.569 137.752 29.569C137.045 29.569 136.673 29.1917 136.673 28.5522V25.8598H136.672Z" fill="#086224"/>
<path d="M141.649 25.7015C141.534 25.7015 141.491 25.744 141.491 25.8591V29.8659C141.491 29.9811 141.534 30.0236 141.649 30.0236H141.917C142.039 30.0236 142.081 29.9811 142.081 29.8659V28.2876H142.733C143.178 28.2876 143.36 28.4028 143.537 28.7695L144.092 29.8836C144.147 29.9988 144.207 30.0236 144.409 30.0236H144.676C144.791 30.0236 144.816 29.9687 144.761 29.8588L144.085 28.5498C143.993 28.3851 143.89 28.2699 143.78 28.2079C144.347 28.0804 144.675 27.6482 144.675 26.9963C144.675 26.1744 144.18 25.6997 143.358 25.6997H141.647L141.649 25.7015ZM144.062 26.9981C144.062 27.4675 143.787 27.7421 143.307 27.7421H142.083V26.2506H143.307C143.789 26.2506 144.062 26.5181 144.062 26.9999V26.9981Z" fill="#086224"/>
<path d="M146.791 25.7021C146.676 25.7021 146.634 25.7447 146.634 25.8598V29.8666C146.634 29.9817 146.676 30.0242 146.791 30.0242H147.059C147.181 30.0242 147.224 29.9817 147.224 29.8666V28.1679H148.942C149.064 28.1679 149.1 28.1307 149.1 28.0102V27.7782C149.1 27.663 149.062 27.6205 148.942 27.6205H147.224V26.2495H149.239C149.362 26.2495 149.397 26.207 149.397 26.0918V25.8598C149.397 25.7447 149.36 25.7021 149.239 25.7021H146.791Z" fill="#086224"/>
<path d="M135.026 7.23701C135.026 9.11995 135.756 10.5795 136.64 11.3483C137.063 11.7717 137.678 12.0781 138.445 12.3473C139.982 12.8858 140.942 13.0382 142.825 13.2312C146.476 13.5767 147.936 14.1151 147.936 16.2673C147.936 18.2264 146.322 19.1883 143.133 19.1883C140.406 19.1883 138.677 18.2654 137.947 16.4214C137.678 15.8458 137.293 15.6527 136.718 15.8458L135.412 16.3063C134.759 16.4994 134.567 16.921 134.837 17.5356C136.027 20.6868 138.833 22.2616 143.25 22.2616C148.476 22.2616 151.28 19.9181 151.28 16.1132C151.28 14.039 150.665 12.5776 149.397 11.7717C148.129 10.9657 146.209 10.4662 143.672 10.1969C139.945 9.88871 138.447 9.42816 138.447 7.16084C138.447 5.31687 139.906 4.39399 142.827 4.39399C145.594 4.39399 146.938 5.23893 147.744 6.89159C148.168 7.50625 148.283 7.62139 149.013 7.31495L150.32 6.77646C150.935 6.50721 151.089 6.04666 150.78 5.432C149.512 2.66516 146.823 1.28174 142.751 1.28174C137.717 1.28174 135.028 3.54906 135.028 7.23701H135.026Z" fill="#8CC63C"/>
<path fill-rule="evenodd" clip-rule="evenodd" d="M81.3118 18.9935H83.1062C83.1292 18.8625 83.115 18.5773 83.115 18.4303C83.1097 16.8484 82.9343 15.3623 82.5677 13.8212C82.557 13.7787 82.5535 13.7521 82.5411 13.7132C82.5323 13.6813 82.5322 13.6813 82.5216 13.6582C82.4419 13.5006 82.5004 13.5272 82.4508 13.3713C81.9619 11.8426 81.7015 11.1323 80.8849 9.78254C80.7574 9.56997 80.5714 9.29896 80.4261 9.10411C80.2632 8.88446 80.0807 8.64533 79.9142 8.46111C79.8132 8.34952 79.544 8.03599 79.4395 7.94388L79.2978 7.80571C79.2694 7.7756 79.2588 7.76143 79.2251 7.72955L78.3094 6.94484C78.2509 6.89878 78.196 6.85804 78.1411 6.81553L77.801 6.57817C77.7213 6.52326 77.5282 6.38509 77.4485 6.35498L78.304 7.55418C79.0604 8.68784 79.753 10.05 80.21 11.3325L80.2826 11.5114C80.3039 11.5911 80.3163 11.6336 80.3446 11.7168C81.0957 13.9771 81.3862 16.0956 81.3224 18.4728C81.3189 18.6056 81.2941 18.8766 81.3136 18.9918L81.3118 18.9935Z" fill="#8CC63C"/>
<path fill-rule="evenodd" clip-rule="evenodd" d="M79.8078 18.981C79.8981 18.9987 81.3541 18.9969 81.51 18.9845C81.4728 18.3982 81.5153 18.3274 81.4161 17.6543C81.2071 16.2319 80.5659 14.813 79.6289 13.7396C79.5739 13.6758 79.5173 13.6121 79.4624 13.5483C79.271 13.3286 78.8636 12.9425 78.644 12.7636C78.2277 12.4235 77.9603 12.241 77.482 11.9505C77.4377 11.924 77.3048 11.8372 77.2517 11.8301C77.2801 11.8726 77.319 11.9257 77.3474 11.9647C77.6999 12.4306 78.0842 13.07 78.3553 13.5819C79.1843 15.2488 79.8184 17.0981 79.8042 18.981H79.8078Z" fill="#8CC63C"/>
<path d="M0.564941 30.2116V7.91391C0.564941 6.79796 0.78636 5.80247 1.22743 4.93096C1.67026 4.05946 2.2796 3.32081 3.059 2.71501C3.83839 2.11098 4.78075 1.65043 5.88607 1.3369C6.99139 1.02337 8.20653 0.865723 9.5315 0.865723C10.8565 0.865723 12.0025 1.02337 13.1078 1.3369C14.2132 1.65043 15.1662 2.10389 15.9686 2.6973C16.771 3.2907 17.3998 4.03466 17.8533 4.93096C18.3067 5.82727 18.5335 6.84402 18.5335 7.98299V15.1003C18.5335 16.3331 18.2944 17.3924 17.8179 18.2745C17.3414 19.1584 16.6948 19.8847 15.8818 20.455C15.067 21.0254 14.114 21.4435 13.0211 21.7109C11.9281 21.9784 10.7644 22.1113 9.5315 22.1113H9.47481L8.56611 22.09C8.46338 22.0847 8.36418 22.0794 8.26676 22.0741C8.26499 20.1769 8.53246 18.4481 9.1418 16.6112C9.1666 16.5386 9.17723 16.4996 9.19671 16.4305L9.26225 16.2711C9.66789 15.1339 10.2808 13.9276 10.9503 12.9215L11.7085 11.8587C11.6394 11.8853 11.4676 12.0075 11.3967 12.0553L11.0956 12.2661C11.046 12.3033 10.9982 12.3405 10.9468 12.3795L10.1355 13.0756C10.1054 13.104 10.0966 13.1146 10.0718 13.1429L9.94599 13.2652C9.85388 13.3466 9.61475 13.6247 9.52441 13.7239C9.37739 13.8887 9.21443 14.0995 9.06918 14.2943C8.93987 14.4661 8.77513 14.7088 8.66177 14.8966C7.36514 17.0381 6.79477 19.4029 6.69911 21.8757C6.60878 21.8562 6.52198 21.8367 6.43696 21.8154C6.43164 21.0148 6.42278 20.2071 6.42101 20.122C6.3413 17.0682 6.71329 14.3492 7.6769 11.446C7.71233 11.3397 7.72827 11.2848 7.75661 11.1838L7.85049 10.9535C8.43681 9.30619 9.32602 7.55787 10.2967 6.10005L11.395 4.55898C11.294 4.59795 11.0442 4.77331 10.9415 4.84417L10.5057 5.14884C10.4349 5.20198 10.364 5.25512 10.2896 5.31357L9.11346 6.32147C9.07095 6.36221 9.05678 6.37815 9.01958 6.4189L8.83713 6.59603C8.70428 6.71471 8.35709 7.11681 8.22779 7.26028C8.01345 7.49765 7.77964 7.80409 7.56885 8.08573C7.38285 8.33549 7.14372 8.68622 6.97899 8.95724C6.62118 9.54887 6.30056 10.1511 6.01715 10.7658L5.46803 12.0801C4.52213 14.6078 4.12535 17.295 4.11472 20.0636C4.11472 20.2531 4.09524 20.618 4.12535 20.7863V30.2081H0.564941V30.2116Z" fill="#086224"/>
<path d="M155.565 2.66493C155.565 3.32387 155.048 3.84111 154.375 3.84111C153.702 3.84111 153.177 3.32387 153.177 2.66493C153.177 2.00599 153.709 1.50293 154.375 1.50293C155.041 1.50293 155.565 2.02016 155.565 2.66493ZM153.475 2.66493C153.475 3.18217 153.857 3.59312 154.382 3.59312C154.906 3.59312 155.267 3.18217 155.267 2.67202C155.267 2.16187 154.892 1.73675 154.375 1.73675C153.857 1.73675 153.475 2.15479 153.475 2.66493ZM154.19 3.27428H153.921V2.11227C154.027 2.09102 154.176 2.07685 154.368 2.07685C154.587 2.07685 154.686 2.11227 154.771 2.16187C154.835 2.21147 154.885 2.30358 154.885 2.41694C154.885 2.54448 154.786 2.64368 154.644 2.68619V2.70036C154.757 2.74287 154.821 2.8279 154.856 2.98378C154.892 3.16091 154.913 3.23176 154.942 3.27428H154.651C154.616 3.23176 154.594 3.12548 154.559 2.99086C154.538 2.86332 154.467 2.80664 154.318 2.80664H154.19V3.27428ZM154.198 2.61534H154.325C154.474 2.61534 154.594 2.56574 154.594 2.44529C154.594 2.33901 154.516 2.26815 154.346 2.26815C154.275 2.26815 154.226 2.27524 154.198 2.28232V2.61534Z" fill="#086224"/>
</svg>
