<svg width="248" height="100" viewBox="0 0 248 100" fill="none" xmlns="http://www.w3.org/2000/svg">
<mask id="mask0_2506_4821" style="mask-type:luminance" maskUnits="userSpaceOnUse" x="159" y="15" width="70" height="78">
<path d="M160.516 68.5109L180.136 92.3675L228.001 74.9458L227.534 27.6665L179.391 15.8528L160.127 42.1573H159.742L179.199 15.5868C179.235 15.5377 179.301 15.5131 179.358 15.5295L227.718 27.3923C227.788 27.4086 227.837 27.47 227.837 27.5396L228.303 75.0481C228.303 75.1136 228.263 75.1709 228.201 75.1955L180.132 92.6908C180.132 92.6908 180.095 92.699 180.079 92.699C180.034 92.699 179.989 92.6786 179.96 92.6417L160.455 68.9243C160.475 68.7851 160.496 68.646 160.512 68.5068" fill="white"/>
</mask>
<g mask="url(#mask0_2506_4821)">
<path d="M228.312 15.5127H159.747V92.7027H228.312V15.5127Z" fill="url(#paint0_linear_2506_4821)"/>
</g>
<mask id="mask1_2506_4821" style="mask-type:luminance" maskUnits="userSpaceOnUse" x="157" y="14" width="73" height="80">
<path d="M160.303 69.7992L178.249 93.2424L228.197 77.0119L229.417 28.2795L180.234 14.374L158.363 42.1521H157.97L180.058 14.0998C180.095 14.0507 180.161 14.0302 180.222 14.0466L229.622 28.0093C229.691 28.0298 229.736 28.0912 229.736 28.1608L228.508 77.1224C228.508 77.1879 228.463 77.2452 228.402 77.2657L178.245 93.5617C178.245 93.5617 178.212 93.5699 178.196 93.5699C178.147 93.5699 178.102 93.5494 178.073 93.5085L160.218 70.184C160.25 70.053 160.279 69.922 160.308 69.7911" fill="white"/>
</mask>
<g mask="url(#mask1_2506_4821)">
<path d="M229.732 14.0352H157.97V93.5789H229.732V14.0352Z" fill="url(#paint1_linear_2506_4821)"/>
</g>
<mask id="mask2_2506_4821" style="mask-type:luminance" maskUnits="userSpaceOnUse" x="154" y="12" width="78" height="83">
<path d="M155.371 43.3907L154.392 44.545V44.5368V44.5287V44.5205V44.5123V44.5041L154.335 44.455V44.4468V44.4386V44.4304V44.4222H154.331V44.414V44.4058V44.3977V44.3895V44.3813L154.323 44.3731V44.3649H154.315V44.3567V44.3485L154.302 44.3404V44.3322V44.324V44.3199V44.3117L155.944 42.3673L155.514 43.3538L155.371 43.3907ZM159.955 71.1483L176.276 94.0839L228.328 79.1592L231.341 28.9859L181.163 12.8904L156.414 42.1586H156.009L180.991 12.608C181.032 12.5589 181.098 12.5425 181.155 12.5589L231.55 28.7239C231.615 28.7443 231.66 28.8098 231.656 28.8794L228.631 79.282C228.631 79.3475 228.582 79.4048 228.52 79.4212L176.259 94.4072C176.259 94.4072 176.231 94.4113 176.219 94.4113C176.169 94.4113 176.12 94.3868 176.092 94.3458L159.841 71.5044V71.4922V71.4799V71.4635V71.4512V71.4389V71.4267L159.869 71.3366V71.3243V71.312V71.2998V71.2916V71.2793V71.267L159.902 71.1565V71.1442V71.1319V71.1278L159.955 71.1483Z" fill="white"/>
</mask>
<g mask="url(#mask2_2506_4821)">
<path d="M231.656 12.543H154.155V94.4159H231.656V12.543Z" fill="url(#paint2_linear_2506_4821)"/>
</g>
<mask id="mask3_2506_4821" style="mask-type:luminance" maskUnits="userSpaceOnUse" x="152" y="11" width="82" height="85">
<path d="M159.44 72.5075L174.205 94.8741L228.377 81.3657L233.285 29.772L182.158 11.3801L153.021 43.4973C152.935 43.44 152.845 43.3827 152.759 43.3253L181.998 11.0936C182.039 11.0486 182.105 11.0322 182.166 11.0527L233.502 29.5182C233.568 29.5427 233.609 29.6082 233.605 29.6778L228.676 81.5008C228.668 81.5663 228.623 81.6195 228.557 81.6359L174.172 95.1974C174.172 95.1974 174.147 95.2015 174.135 95.2015C174.086 95.2015 174.037 95.177 174.008 95.1319L159.288 72.835C159.341 72.7244 159.39 72.6139 159.44 72.5034" fill="white"/>
</mask>
<g mask="url(#mask3_2506_4821)">
<path d="M233.613 11.0391H152.759V95.2084H233.613V11.0391Z" fill="url(#paint3_linear_2506_4821)"/>
</g>
<mask id="mask4_2506_4821" style="mask-type:luminance" maskUnits="userSpaceOnUse" x="151" y="9" width="85" height="87">
<path d="M158.748 73.8525L172.051 95.6214L228.357 83.6522L235.271 30.6667L183.251 9.87613L151.412 42.5991C151.314 42.5541 151.212 42.509 151.114 42.464L183.104 9.5855C183.149 9.54047 183.214 9.52819 183.272 9.54866L235.5 30.4211C235.565 30.4457 235.606 30.5153 235.594 30.5849L228.652 83.7996C228.643 83.8651 228.594 83.9183 228.529 83.9306L172.006 95.9448C172.006 95.9448 171.986 95.9448 171.974 95.9448C171.92 95.9448 171.871 95.9162 171.843 95.8711L158.559 74.1432C158.621 74.0449 158.682 73.9467 158.744 73.8484" fill="white"/>
</mask>
<g mask="url(#mask4_2506_4821)">
<path d="M235.602 9.52441H151.109V95.9492H235.602V9.52441Z" fill="url(#paint4_linear_2506_4821)"/>
</g>
<mask id="mask5_2506_4821" style="mask-type:luminance" maskUnits="userSpaceOnUse" x="149" y="8" width="89" height="89">
<path d="M157.851 75.1289L169.8 96.3043L228.25 85.997L237.281 31.6484L184.426 8.35261L149.452 41.8738C149.333 41.8411 149.218 41.8124 149.1 41.7838L184.287 8.05789C184.332 8.01286 184.401 8.00467 184.455 8.02923L237.514 31.4151C237.579 31.4437 237.616 31.5133 237.604 31.5829L228.537 86.1608C228.525 86.2262 228.476 86.2754 228.41 86.2877L169.743 96.6318C169.743 96.6318 169.726 96.6318 169.714 96.6318C169.661 96.6318 169.608 96.6031 169.579 96.554L157.634 75.3868C157.708 75.3008 157.778 75.219 157.847 75.133" fill="white"/>
</mask>
<g mask="url(#mask5_2506_4821)">
<path d="M237.621 8.00391H149.1V96.631H237.621V8.00391Z" fill="url(#paint5_linear_2506_4821)"/>
</g>
<mask id="mask6_2506_4821" style="mask-type:luminance" maskUnits="userSpaceOnUse" x="146" y="6" width="94" height="92">
<path d="M156.754 76.3134L167.459 96.9321L228.058 88.4137L239.319 32.7347L185.695 6.83137L146.963 41.4455C146.819 41.4332 146.676 41.425 146.529 41.4169L185.564 6.52846C185.609 6.48752 185.678 6.47524 185.736 6.5039L239.565 32.5054C239.626 32.5382 239.663 32.6078 239.651 32.6774L228.344 88.5815C228.332 88.647 228.279 88.6961 228.213 88.7043L167.397 97.2514C167.397 97.2514 167.381 97.2514 167.377 97.2514C167.319 97.2514 167.266 97.2187 167.238 97.1695L156.521 76.5304C156.599 76.4608 156.681 76.3871 156.758 76.3134" fill="white"/>
</mask>
<g mask="url(#mask6_2506_4821)">
<path d="M239.659 6.48242H146.529V97.2586H239.659V6.48242Z" fill="url(#paint6_linear_2506_4821)"/>
</g>
<mask id="mask7_2506_4821" style="mask-type:luminance" maskUnits="userSpaceOnUse" x="142" y="4" width="100" height="94">
<path d="M155.457 77.3805L165.023 97.4957L227.771 90.9011L241.378 33.9327L187.054 5.31136L143.516 41.567C143.307 41.5997 143.103 41.6366 142.898 41.6775L186.935 5.00435C186.984 4.96342 187.05 4.95523 187.107 4.98798L241.628 33.7157C241.689 33.7485 241.722 33.8181 241.705 33.8877L228.046 91.0771C228.029 91.1426 227.976 91.1877 227.911 91.1958L164.945 97.8149C164.945 97.8149 164.933 97.8149 164.929 97.8149C164.872 97.8149 164.814 97.7822 164.79 97.7249L155.195 77.5524C155.281 77.4951 155.367 77.4337 155.453 77.3764" fill="white"/>
</mask>
<g mask="url(#mask7_2506_4821)">
<path d="M241.726 4.96094H142.898V97.8207H241.726V4.96094Z" fill="url(#paint7_linear_2506_4821)"/>
</g>
<mask id="mask8_2506_4821" style="mask-type:luminance" maskUnits="userSpaceOnUse" x="138" y="3" width="106" height="96">
<path d="M138.477 42.5826L138.784 43.2907C138.694 43.3439 138.604 43.3972 138.518 43.4545L138.146 42.5948C138.117 42.5294 138.137 42.4557 138.191 42.4106L188.405 3.48201C188.454 3.44517 188.524 3.43699 188.577 3.46973L243.72 35.0302C243.781 35.067 243.81 35.1366 243.793 35.2062L227.661 93.6401C227.645 93.7015 227.587 93.7465 227.522 93.7547L162.411 98.3066C162.411 98.3066 162.403 98.3066 162.399 98.3066C162.338 98.3066 162.28 98.2697 162.256 98.2124L153.676 78.4165C153.77 78.3715 153.864 78.3265 153.954 78.2815L162.497 97.9914L227.391 93.4518L243.462 35.2389L188.511 3.78902L138.477 42.5785V42.5826Z" fill="white"/>
</mask>
<g mask="url(#mask8_2506_4821)">
<path d="M243.81 3.44238H138.117V98.3079H243.81V3.44238Z" fill="url(#paint8_linear_2506_4821)"/>
</g>
<mask id="mask9_2506_4821" style="mask-type:luminance" maskUnits="userSpaceOnUse" x="136" y="1" width="110" height="98">
<path d="M137.114 40.4458L138.338 43.565C138.248 43.6223 138.162 43.6796 138.076 43.741L136.783 40.4499C136.758 40.3844 136.783 40.3107 136.836 40.2698L189.969 1.96336C190.018 1.92652 190.087 1.92242 190.141 1.95926L245.815 36.4588C245.877 36.4956 245.901 36.5693 245.881 36.6348L227.158 96.2558C227.137 96.3172 227.08 96.3622 227.014 96.3622L159.767 98.7118H159.763C159.698 98.7118 159.644 98.675 159.62 98.6136L151.949 79.0715C152.047 79.0429 152.145 79.0101 152.243 78.9774L159.865 98.3967L226.896 96.0552L245.549 36.6512L190.067 2.27855L137.114 40.4458Z" fill="white"/>
</mask>
<g mask="url(#mask9_2506_4821)">
<path d="M245.905 1.9248H136.758V98.7142H245.905V1.9248Z" fill="url(#paint9_linear_2506_4821)"/>
</g>
<mask id="mask10_2506_4821" style="mask-type:luminance" maskUnits="userSpaceOnUse" x="135" y="0" width="113" height="100">
<path d="M157.147 98.7358H226.298L247.657 38.1979L191.724 0.771537L135.788 38.1938L137.81 43.9205C137.724 43.9819 137.634 44.0474 137.548 44.1129L135.456 38.1815C135.431 38.116 135.456 38.0423 135.517 38.0014L191.638 0.456342C191.692 0.419501 191.757 0.419501 191.81 0.456342L247.931 38.0055C247.989 38.0464 248.013 38.1201 247.993 38.1856L226.555 98.9404C226.535 99.0018 226.474 99.0428 226.408 99.0428H157.037C156.971 99.0428 156.914 99.0018 156.889 98.9404L150.041 79.5253C150.143 79.5089 150.246 79.4884 150.348 79.4679L157.147 98.7317V98.7358Z" fill="white"/>
</mask>
<g mask="url(#mask10_2506_4821)">
<path d="M248.014 0.422852H135.432V99.0462H248.014V0.422852Z" fill="url(#paint10_linear_2506_4821)"/>
</g>
<path d="M14.7732 41.3947C17.4503 41.3947 19.8737 42.0128 22.035 43.245C24.2004 44.4771 25.8951 46.1881 27.1191 48.3781C28.343 50.5681 28.957 53.0078 28.957 55.7013C28.957 58.3948 28.343 60.8427 27.1191 63.0367C25.8951 65.2349 24.2004 66.9542 22.035 68.1945C19.8696 69.4348 17.4503 70.057 14.7732 70.057C12.0961 70.057 9.54591 69.2997 7.32726 67.777V79.0216H0V42.152H4.82617L6.07467 44.6244C8.50617 42.4672 11.4084 41.3906 14.7732 41.3906V41.3947ZM8.88277 61.0064C10.2786 62.4186 12.0388 63.1268 14.1633 63.1268C16.2878 63.1268 18.048 62.4268 19.4438 61.0187C20.8397 59.6105 21.5397 57.8422 21.5397 55.7013C21.5397 53.5604 20.8397 51.7921 19.4438 50.3839C18.048 48.9799 16.2878 48.2758 14.1633 48.2758C12.0388 48.2758 10.2786 48.984 8.88277 50.3962C7.48691 51.8084 6.78693 53.5768 6.78693 55.7013C6.78693 57.8258 7.48691 59.5942 8.88277 61.0064Z" fill="#083355"/>
<path d="M58.0902 55.6029C58.0902 56.3397 58.041 57.056 57.9428 57.7601H37.4387C37.7498 59.6063 38.4867 61.0226 39.6574 62.0091C40.824 62.9997 42.2977 63.4909 44.0783 63.4909C45.335 63.4909 46.4648 63.2126 47.4718 62.6559C48.4747 62.0992 49.2565 61.3337 49.8132 60.3554H57.5048C56.5265 63.3108 54.8277 65.6605 52.4085 67.4002C49.9892 69.1399 47.2139 70.0077 44.0783 70.0077C41.4503 70.0077 39.0597 69.3814 36.9148 68.1329C34.7657 66.8844 33.0792 65.1651 31.8553 62.9751C30.6313 60.7852 30.0173 58.3618 30.0173 55.7011C30.0173 53.0404 30.6273 50.5884 31.843 48.4025C33.0588 46.2125 34.7412 44.4974 36.8902 43.257C39.0393 42.0167 41.4339 41.3945 44.0783 41.3945C46.7227 41.3945 49.2238 42.0372 51.3769 43.3184C53.5342 44.5997 55.192 46.3189 56.3504 48.4762C57.5089 50.6334 58.0902 53.0076 58.0902 55.6029ZM44.0783 47.6411C42.4614 47.6411 41.0901 48.0914 39.9644 48.9879C38.8387 49.8843 38.0609 51.1451 37.6352 52.762H50.767C50.2594 51.1124 49.4325 49.8475 48.2823 48.9633C47.132 48.0832 45.7321 47.6411 44.0824 47.6411H44.0783Z" fill="#083355"/>
<path d="M74.8525 41.5166C77.9226 41.5166 80.3664 42.54 82.1757 44.5908C83.9891 46.6416 84.8937 49.3883 84.8937 52.835V69.2497H77.5706V54.0139C77.5706 49.9655 75.9946 47.9392 72.8427 47.9392C70.9638 47.9392 69.4819 48.5737 68.3972 49.8386C67.3124 51.1034 66.768 52.8309 66.768 55.0209V69.2538H59.4448V42.1593H64.4675L65.8879 45.5159C66.9317 44.2756 68.2334 43.2972 69.793 42.5891C71.3526 41.8768 73.0391 41.5248 74.8525 41.5248V41.5166Z" fill="#083355"/>
<path d="M101.48 62.7336H104.813V69.2504H99.618C96.6461 69.2504 94.2965 68.3907 92.5731 66.6674C90.8498 64.9441 89.9902 62.5821 89.9902 59.5735V48.0341H85.0903V46.4663L95.7947 35.0742H97.1905V42.1518H104.661V48.03H97.3133V58.5869C97.3133 59.9091 97.6736 60.9325 98.3899 61.6488C99.1063 62.3693 100.138 62.7254 101.476 62.7254L101.48 62.7336Z" fill="#083355"/>
<path fill-rule="evenodd" clip-rule="evenodd" d="M114.592 60.9546C115.988 62.3668 117.752 63.0791 119.876 63.0791C122.001 63.0791 123.757 62.375 125.153 60.9709C126.549 59.5669 127.245 57.7944 127.245 55.6536C127.245 53.5127 126.549 51.7402 125.153 50.3362C123.757 48.9321 121.993 48.2281 119.876 48.2281C117.76 48.2281 115.988 48.9403 114.592 50.3526C113.196 51.7648 112.5 53.5291 112.5 55.6536C112.5 57.7781 113.196 59.5423 114.592 60.9546ZM128.964 42.1084H134.449V45.4977C133.921 46.1404 133.446 46.8322 133.025 47.5731C131.723 49.8654 131.101 52.3583 131.101 54.9945C131.101 57.6307 131.719 60.1441 133.025 62.4405C133.446 63.1814 133.921 63.8732 134.449 64.5118V69.1988H128.69L128.055 66.7754C125.587 68.9327 122.672 70.0134 119.283 70.0134C116.606 70.0134 114.182 69.3952 112.009 68.1467C109.835 66.9105 108.136 65.1872 106.917 62.989C105.689 60.799 105.079 58.3471 105.079 55.6577C105.079 52.9683 105.689 50.549 106.917 48.3672C108.136 46.1936 109.835 44.4867 112.009 43.2504C114.182 42.0224 116.61 41.4043 119.283 41.4043C122.73 41.4043 125.697 42.5095 128.178 44.7077L128.964 42.1166V42.1084Z" fill="#083355"/>
<path d="M146.599 62.0271C148.588 62.0271 150.238 61.3598 151.548 60.0295C152.853 58.6991 153.504 57.0208 153.504 54.9945C153.504 52.9683 152.853 51.3227 151.556 50.0128C150.258 48.6906 148.604 48.0398 146.599 48.0398C144.593 48.0398 142.951 48.6906 141.65 50.0128C140.344 51.3268 139.693 52.9887 139.693 54.9945C139.693 57.0003 140.336 58.6991 141.641 60.0295C142.939 61.3598 144.593 62.0271 146.599 62.0271ZM155.907 42.1616H160.664V44.0732C159.456 45.1211 158.433 46.3574 157.606 47.786C156.194 50.2216 155.551 52.8987 155.551 55.7109C155.551 58.5231 156.206 61.1633 157.606 63.5907C158.425 65.0112 159.436 66.2433 160.631 67.2912C160.418 70.9712 159.194 73.9185 156.959 76.129C154.491 78.5686 151.114 79.7926 146.816 79.7926C143.144 79.7926 140.086 78.9043 137.634 77.14C135.182 75.3758 133.647 72.9443 133.025 69.8414H140.299C140.692 71.004 141.494 71.9086 142.714 72.5513C143.926 73.194 145.256 73.5214 146.693 73.5214C148.6 73.5214 150.205 72.9443 151.519 71.7899C152.825 70.6356 153.476 69.0964 153.476 67.1725V66.1451C151.175 67.7579 148.592 68.5684 145.731 68.5684C143.246 68.5684 140.974 67.9748 138.907 66.7795C136.84 65.5843 135.219 63.9551 134.032 61.8715C132.853 59.7879 132.259 57.4997 132.259 54.9986C132.259 52.4975 132.853 50.2339 134.032 48.1503C135.219 46.0667 136.84 44.4212 138.907 43.2177C140.974 42.006 143.246 41.4043 145.731 41.4043C149.243 41.4043 152.243 42.5586 154.728 44.8592L155.899 42.1657L155.907 42.1616Z" fill="#B6A36B"/>
<path d="M171.36 70.0077C168.601 70.0077 166.1 69.3855 163.865 68.1452C161.626 66.9049 159.874 65.1897 158.609 62.9997C157.344 60.8097 156.709 58.3782 156.709 55.7011C156.709 53.024 157.344 50.5434 158.609 48.3657C159.874 46.188 161.626 44.481 163.865 43.2448C166.104 42.0126 168.601 41.3945 171.36 41.3945C174.119 41.3945 176.595 42.0126 178.83 43.2448C181.065 44.4769 182.822 46.1879 184.099 48.3779C185.372 50.5679 186.01 53.0076 186.01 55.7011C186.01 58.3946 185.372 60.8138 184.099 62.9997C182.826 65.1897 181.07 66.9049 178.83 68.1452C176.591 69.3855 174.103 70.0077 171.36 70.0077ZM166.165 61.0553C167.52 62.4348 169.252 63.1266 171.36 63.1266C173.468 63.1266 175.2 62.4348 176.554 61.0553C177.909 59.6758 178.589 57.8911 178.589 55.7011C178.589 53.5111 177.909 51.7305 176.554 50.3469C175.2 48.9674 173.468 48.2756 171.36 48.2756C169.252 48.2756 167.52 48.9674 166.165 50.3469C164.81 51.7264 164.131 53.5111 164.131 55.7011C164.131 57.8911 164.81 59.6758 166.165 61.0553Z" fill="#083355"/>
<path d="M202.793 41.5166C205.863 41.5166 208.303 42.54 210.116 44.5908C211.93 46.6416 212.834 49.3883 212.834 52.835V69.2497H205.511V54.0139C205.511 49.9655 203.935 47.9392 200.783 47.9392C198.904 47.9392 197.423 48.5737 196.338 49.8386C195.253 51.1034 194.709 52.8309 194.709 55.0209V69.2538H187.385V42.1593H192.408L193.829 45.5159C194.872 44.2756 196.178 43.2972 197.738 42.5891C199.297 41.8768 200.984 41.5248 202.797 41.5248L202.793 41.5166Z" fill="#083355"/>
<path d="M218.95 36.5449C220.374 36.5449 221.582 37.0402 222.573 38.0308C223.563 39.0215 224.059 40.2331 224.059 41.6658C224.059 43.0985 223.563 44.3102 222.573 45.3049C221.582 46.2996 220.374 46.799 218.95 46.799C217.525 46.799 216.314 46.2955 215.311 45.2926C214.308 44.2897 213.804 43.0781 213.804 41.6658C213.804 40.2536 214.304 39.0337 215.303 38.039C216.301 37.0443 217.517 36.5449 218.95 36.5449ZM216.269 44.347C217.01 45.0797 217.902 45.4441 218.95 45.4441C219.998 45.4441 220.886 45.0797 221.611 44.3511C222.339 43.6225 222.704 42.7301 222.704 41.6658C222.704 40.6015 222.339 39.7173 221.611 38.9928C220.882 38.2642 219.994 37.8999 218.95 37.8999C217.906 37.8999 216.989 38.2642 216.256 38.9969C215.524 39.7296 215.159 40.6179 215.159 41.6658C215.159 42.7137 215.528 43.6143 216.269 44.347ZM221.119 40.9454C221.119 41.6249 220.845 42.1202 220.293 42.4313L221.275 44.1219H219.846L219.007 42.6605H218.455V44.1219H217.051V39.1197H219.306C219.834 39.1197 220.268 39.2916 220.608 39.6355C220.947 39.9793 221.119 40.4132 221.119 40.9413V40.9454ZM218.459 40.3682V41.4243H219.179C219.363 41.4243 219.507 41.3752 219.609 41.281C219.711 41.1869 219.764 41.0559 219.764 40.8962C219.764 40.7366 219.711 40.6097 219.609 40.5115C219.507 40.4132 219.359 40.3682 219.179 40.3682H218.459Z" fill="#083355"/>
<defs>
<linearGradient id="paint0_linear_2506_4821" x1="159.747" y1="54.1098" x2="228.312" y2="54.1098" gradientUnits="userSpaceOnUse">
<stop stop-color="#B6A36B"/>
<stop offset="1" stop-color="#083355"/>
</linearGradient>
<linearGradient id="paint1_linear_2506_4821" x1="157.97" y1="53.807" x2="229.732" y2="53.807" gradientUnits="userSpaceOnUse">
<stop stop-color="#B6A36B"/>
<stop offset="1" stop-color="#083355"/>
</linearGradient>
<linearGradient id="paint2_linear_2506_4821" x1="154.155" y1="53.4815" x2="231.656" y2="53.4815" gradientUnits="userSpaceOnUse">
<stop stop-color="#B6A36B"/>
<stop offset="1" stop-color="#083355"/>
</linearGradient>
<linearGradient id="paint3_linear_2506_4821" x1="152.759" y1="53.1237" x2="233.617" y2="53.1237" gradientUnits="userSpaceOnUse">
<stop stop-color="#B6A36B"/>
<stop offset="1" stop-color="#083355"/>
</linearGradient>
<linearGradient id="paint4_linear_2506_4821" x1="151.109" y1="52.7389" x2="235.602" y2="52.7389" gradientUnits="userSpaceOnUse">
<stop stop-color="#B6A36B"/>
<stop offset="1" stop-color="#083355"/>
</linearGradient>
<linearGradient id="paint5_linear_2506_4821" x1="148.711" y1="52.3195" x2="237.608" y2="52.3195" gradientUnits="userSpaceOnUse">
<stop stop-color="#B6A36B"/>
<stop offset="1" stop-color="#083355"/>
</linearGradient>
<linearGradient id="paint6_linear_2506_4821" x1="145.125" y1="51.8705" x2="239.65" y2="51.8705" gradientUnits="userSpaceOnUse">
<stop stop-color="#B6A36B"/>
<stop offset="1" stop-color="#083355"/>
</linearGradient>
<linearGradient id="paint7_linear_2506_4821" x1="140.487" y1="51.3887" x2="241.713" y2="51.3887" gradientUnits="userSpaceOnUse">
<stop stop-color="#B6A36B"/>
<stop offset="1" stop-color="#083355"/>
</linearGradient>
<linearGradient id="paint8_linear_2506_4821" x1="138.117" y1="50.8731" x2="243.805" y2="50.8731" gradientUnits="userSpaceOnUse">
<stop stop-color="#B6A36B"/>
<stop offset="1" stop-color="#083355"/>
</linearGradient>
<linearGradient id="paint9_linear_2506_4821" x1="136.758" y1="50.3216" x2="245.905" y2="50.3216" gradientUnits="userSpaceOnUse">
<stop stop-color="#B6A36B"/>
<stop offset="1" stop-color="#083355"/>
</linearGradient>
<linearGradient id="paint10_linear_2506_4821" x1="135.432" y1="49.7325" x2="248.014" y2="49.7325" gradientUnits="userSpaceOnUse">
<stop stop-color="#B6A36B"/>
<stop offset="1" stop-color="#083355"/>
</linearGradient>
</defs>
</svg>
