<svg width="285" height="113" viewBox="0 0 285 113" fill="none" xmlns="http://www.w3.org/2000/svg">
<mask id="mask0_2506_2718" style="mask-type:luminance" maskUnits="userSpaceOnUse" x="183" y="17" width="79" height="89">
<path d="M183.932 78.014L206.414 105.351L261.261 85.3877L260.727 31.2113L205.561 17.6742L183.487 47.816H183.046L205.34 17.3693C205.382 17.313 205.457 17.2849 205.523 17.3036L260.938 30.897C261.017 30.9158 261.074 30.9861 261.074 31.0659L261.608 85.5049C261.608 85.58 261.562 85.6456 261.491 85.6738L206.41 105.721C206.41 105.721 206.367 105.731 206.349 105.731C206.297 105.731 206.245 105.707 206.213 105.665L183.862 78.4878C183.885 78.3283 183.909 78.1688 183.927 78.0093" fill="white"/>
</mask>
<g mask="url(#mask0_2506_2718)">
<path d="M261.618 17.2842H183.05V105.735H261.618V17.2842Z" fill="white"/>
</g>
<mask id="mask1_2506_2718" style="mask-type:luminance" maskUnits="userSpaceOnUse" x="181" y="15" width="83" height="92">
<path d="M183.689 79.4924L204.252 106.355L261.487 87.7572L262.885 31.9157L206.527 15.9817L181.465 47.8121H181.015L206.325 15.6674C206.368 15.6111 206.443 15.5877 206.513 15.6065L263.119 31.6061C263.199 31.6295 263.25 31.6999 263.25 31.7796L261.843 87.8839C261.843 87.9589 261.792 88.0246 261.721 88.048L204.247 106.721C204.247 106.721 204.21 106.731 204.191 106.731C204.135 106.731 204.083 106.707 204.05 106.66L183.59 79.9333C183.628 79.7832 183.66 79.6331 183.693 79.483" fill="white"/>
</mask>
<g mask="url(#mask1_2506_2718)">
<path d="M263.246 15.592H181.015V106.74H263.246V15.592Z" fill="white"/>
</g>
<mask id="mask2_2506_2718" style="mask-type:luminance" maskUnits="userSpaceOnUse" x="176" y="13" width="90" height="95">
<path d="M178.036 49.2294L176.915 50.5522V50.5428V50.5334V50.524V50.5147V50.5053L176.85 50.449V50.4396V50.4302V50.4208V50.4115H176.845V50.4021V50.3927V50.3833V50.3739V50.3646L176.835 50.3552V50.3458H176.826V50.3364V50.327L176.812 50.3177V50.3083V50.2989V50.2942V50.2848L178.693 48.0568L178.2 49.1872L178.036 49.2294ZM183.29 81.0364L201.991 107.318L261.637 90.2159L265.089 32.7232L207.592 14.2798L179.232 47.8176H178.768L207.395 13.9561C207.442 13.8999 207.517 13.8811 207.582 13.8999L265.328 32.423C265.403 32.4465 265.455 32.5215 265.45 32.6013L261.984 90.3566C261.984 90.4316 261.928 90.4973 261.857 90.5161L201.972 107.688C201.972 107.688 201.94 107.693 201.925 107.693C201.869 107.693 201.813 107.665 201.78 107.618L183.158 81.4445V81.4304V81.4163V81.3976V81.3835V81.3694V81.3553L183.191 81.2522V81.2381V81.224V81.2099V81.2006V81.1865V81.1724L183.229 81.0458V81.0317V81.0176V81.0129L183.29 81.0364Z" fill="white"/>
</mask>
<g mask="url(#mask2_2506_2718)">
<path d="M265.45 13.8804H176.643V107.697H265.45V13.8804Z" fill="white"/>
</g>
<mask id="mask3_2506_2718" style="mask-type:luminance" maskUnits="userSpaceOnUse" x="175" y="12" width="93" height="97">
<path d="M182.699 82.5957L199.618 108.225L261.693 92.7461L267.317 33.6259L208.732 12.551L175.344 49.3534C175.245 49.2878 175.142 49.2221 175.044 49.1564L208.549 12.2227C208.596 12.1711 208.671 12.1523 208.741 12.1758L267.566 33.335C267.641 33.3632 267.688 33.4382 267.683 33.518L262.036 92.9009C262.026 92.976 261.975 93.037 261.899 93.0557L199.58 108.596C199.58 108.596 199.552 108.6 199.538 108.6C199.482 108.6 199.425 108.572 199.393 108.521L182.525 82.9709C182.586 82.8443 182.642 82.7177 182.699 82.591" fill="white"/>
</mask>
<g mask="url(#mask3_2506_2718)">
<path d="M267.692 12.157H175.044V108.605H267.692V12.157Z" fill="white"/>
</g>
<mask id="mask4_2506_2718" style="mask-type:luminance" maskUnits="userSpaceOnUse" x="173" y="10" width="97" height="100">
<path d="M181.906 84.1345L197.151 109.079L261.67 95.3638L269.592 34.6487L209.984 10.8252L173.501 48.3218C173.388 48.2702 173.271 48.2186 173.158 48.167L209.815 10.4922C209.867 10.4406 209.942 10.4265 210.008 10.45L269.855 34.3673C269.93 34.3955 269.977 34.4752 269.963 34.5549L262.007 95.5327C261.998 95.6077 261.942 95.6687 261.867 95.6828L197.099 109.45C197.099 109.45 197.076 109.45 197.061 109.45C197.001 109.45 196.944 109.417 196.911 109.365L181.69 84.4676C181.761 84.355 181.831 84.2424 181.901 84.1299" fill="white"/>
</mask>
<g mask="url(#mask4_2506_2718)">
<path d="M269.972 10.4229H173.154V109.455H269.972V10.4229Z" fill="white"/>
</g>
<mask id="mask5_2506_2718" style="mask-type:luminance" maskUnits="userSpaceOnUse" x="170" y="8" width="103" height="103">
<path d="M180.879 85.598L194.571 109.862L261.548 98.0515L271.895 35.7744L211.33 9.08024L171.254 47.4915C171.118 47.454 170.986 47.4212 170.85 47.3883L211.171 8.74252C211.222 8.69092 211.302 8.68154 211.363 8.70968L272.163 35.5071C272.238 35.5399 272.28 35.6196 272.266 35.6994L261.876 98.2391C261.862 98.3142 261.806 98.3705 261.731 98.3845L194.505 110.238C194.505 110.238 194.486 110.238 194.472 110.238C194.411 110.238 194.35 110.205 194.317 110.149L180.63 85.8935C180.715 85.795 180.794 85.7011 180.874 85.6026" fill="white"/>
</mask>
<g mask="url(#mask5_2506_2718)">
<path d="M272.285 8.68115H170.85V110.237H272.285V8.68115Z" fill="white"/>
</g>
<mask id="mask6_2506_2718" style="mask-type:luminance" maskUnits="userSpaceOnUse" x="167" y="6" width="108" height="105">
<path d="M179.622 86.9576L191.888 110.584L261.327 100.823L274.231 37.0215L212.784 7.33943L168.402 47.0031C168.238 46.989 168.073 46.9797 167.905 46.9703L212.634 6.99233C212.686 6.94542 212.765 6.93135 212.831 6.96418L274.512 36.7589C274.583 36.7964 274.625 36.8761 274.611 36.9559L261.656 101.015C261.641 101.09 261.58 101.147 261.505 101.156L191.817 110.95C191.817 110.95 191.798 110.95 191.794 110.95C191.728 110.95 191.667 110.913 191.634 110.856L179.354 87.2062C179.443 87.1265 179.537 87.0421 179.626 86.9576" fill="white"/>
</mask>
<g mask="url(#mask6_2506_2718)">
<path d="M274.62 6.93701H167.904V110.956H274.62V6.93701Z" fill="white"/>
</g>
<mask id="mask7_2506_2718" style="mask-type:luminance" maskUnits="userSpaceOnUse" x="163" y="5" width="114" height="107">
<path d="M178.135 88.178L189.097 111.228L260.999 103.671L276.591 38.392L214.342 5.59537L164.452 47.14C164.213 47.1775 163.979 47.2197 163.744 47.2666L214.206 5.24358C214.262 5.19667 214.337 5.18729 214.403 5.22481L276.877 38.1434C276.947 38.181 276.985 38.2607 276.966 38.3404L261.313 103.873C261.294 103.948 261.234 103.999 261.158 104.009L189.008 111.593C189.008 111.593 188.994 111.593 188.989 111.593C188.923 111.593 188.858 111.556 188.829 111.49L177.835 88.375C177.933 88.3094 178.032 88.239 178.13 88.1733" fill="white"/>
</mask>
<g mask="url(#mask7_2506_2718)">
<path d="M276.989 5.19287H163.744V111.599H276.989V5.19287Z" fill="white"/>
</g>
<mask id="mask8_2506_2718" style="mask-type:luminance" maskUnits="userSpaceOnUse" x="158" y="3" width="122" height="110">
<path d="M158.678 48.3036L159.03 49.1151C158.927 49.176 158.824 49.237 158.725 49.3027L158.298 48.3177C158.265 48.2426 158.289 48.1582 158.35 48.1066L215.889 3.49901C215.946 3.45679 216.025 3.44741 216.086 3.48493L279.274 39.6494C279.344 39.6917 279.377 39.7714 279.358 39.8511L260.872 106.809C260.854 106.88 260.788 106.931 260.713 106.941L186.104 112.157C186.104 112.157 186.095 112.157 186.09 112.157C186.02 112.157 185.954 112.114 185.926 112.049L176.094 89.3651C176.202 89.3135 176.31 89.2619 176.413 89.2103L186.203 111.796L260.563 106.594L278.978 39.8887L216.011 3.8508L158.678 48.2989V48.3036Z" fill="white"/>
</mask>
<g mask="url(#mask8_2506_2718)">
<path d="M279.377 3.45239H158.266V112.157H279.377V3.45239Z" fill="white"/>
</g>
<mask id="mask9_2506_2718" style="mask-type:luminance" maskUnits="userSpaceOnUse" x="156" y="1" width="126" height="112">
<path d="M157.116 45.8553L158.519 49.4295C158.416 49.4952 158.317 49.5608 158.219 49.6312L156.736 45.86C156.708 45.7849 156.736 45.7005 156.797 45.6536L217.681 1.75896C217.738 1.71674 217.817 1.71205 217.878 1.75427L281.675 41.2866C281.745 41.3288 281.774 41.4133 281.75 41.4883L260.295 109.807C260.272 109.877 260.206 109.929 260.131 109.929L183.074 112.621H183.069C182.994 112.621 182.933 112.579 182.905 112.509L174.115 90.1157C174.228 90.0829 174.34 90.0454 174.453 90.0079L183.187 112.26L259.995 109.577L281.37 41.5071L217.794 2.12013L157.116 45.8553Z" fill="white"/>
</mask>
<g mask="url(#mask9_2506_2718)">
<path d="M281.778 1.71606H156.708V112.625H281.778V1.71606Z" fill="white"/>
</g>
<mask id="mask10_2506_2718" style="mask-type:luminance" maskUnits="userSpaceOnUse" x="155" y="0" width="130" height="113">
<path d="M180.072 112.648H259.31L283.786 43.279L219.693 0.392837L155.596 43.2743L157.913 49.8364C157.815 49.9068 157.712 49.9818 157.613 50.0569L155.216 43.2602C155.188 43.1852 155.216 43.1007 155.287 43.0538L219.595 0.0316615C219.656 -0.0105538 219.731 -0.0105538 219.792 0.0316615L284.1 43.0585C284.166 43.1054 284.194 43.1898 284.17 43.2649L259.606 112.883C259.582 112.953 259.512 113 259.437 113H179.945C179.87 113 179.804 112.953 179.776 112.883L171.929 90.6352C172.046 90.6165 172.163 90.593 172.281 90.5696L180.072 112.644V112.648Z" fill="white"/>
</mask>
<g mask="url(#mask10_2506_2718)">
<path d="M284.194 -0.00512695H155.188V113.005H284.194V-0.00512695Z" fill="white"/>
</g>
<path d="M16.9284 46.9432C19.996 46.9432 22.7729 47.6514 25.2495 49.0633C27.7308 50.4752 29.6727 52.4359 31.0752 54.9453C32.4777 57.4548 33.1813 60.2504 33.1813 63.3368C33.1813 66.4232 32.4777 69.2282 31.0752 71.7424C29.6727 74.2612 27.7308 76.2313 25.2495 77.6525C22.7682 79.0738 19.996 79.7867 16.9284 79.7867C13.8607 79.7867 10.9385 78.919 8.39617 77.1741V90.0591H0V47.8109H5.53021L6.96085 50.644C9.74706 48.1721 13.0727 46.9385 16.9284 46.9385V46.9432ZM10.1786 69.4158C11.7781 71.0341 13.795 71.8456 16.2295 71.8456C18.6639 71.8456 20.6808 71.0435 22.2803 69.4299C23.8798 67.8163 24.6819 65.79 24.6819 63.3368C24.6819 60.8836 23.8798 58.8573 22.2803 57.2437C20.6808 55.6348 18.6639 54.8281 16.2295 54.8281C13.795 54.8281 11.7781 55.6395 10.1786 57.2578C8.5791 58.876 7.77701 60.9024 7.77701 63.3368C7.77701 65.7712 8.5791 67.7976 10.1786 69.4158Z" fill="white"/>
<path d="M66.5644 63.2242C66.5644 64.0685 66.5081 64.8893 66.3955 65.6961H42.9003C43.2568 67.8116 44.1011 69.4345 45.4426 70.565C46.7794 71.7001 48.468 72.263 50.5084 72.263C51.9485 72.263 53.2431 71.944 54.3969 71.3061C55.5461 70.6682 56.442 69.791 57.08 68.67H65.8936C64.7725 72.0566 62.8259 74.749 60.0538 76.7425C57.2817 78.736 54.1014 79.7304 50.5084 79.7304C47.4971 79.7304 44.7578 79.0127 42.2999 77.5821C39.8373 76.1515 37.9048 74.1814 36.5023 71.6719C35.0998 69.1625 34.3962 66.3856 34.3962 63.3368C34.3962 60.2879 35.0951 57.4782 36.4882 54.9734C37.8814 52.4639 39.8092 50.4986 42.2718 49.0773C44.7343 47.6561 47.4783 46.9431 50.5084 46.9431C53.5386 46.9431 56.4045 47.6795 58.8718 49.1477C61.3437 50.6159 63.2434 52.5859 64.5709 55.0578C65.8983 57.5298 66.5644 60.2503 66.5644 63.2242ZM50.5084 54.101C48.6557 54.101 47.0843 54.6169 45.7944 55.6442C44.5045 56.6714 43.6133 58.1161 43.1254 59.9689H58.1729C57.5912 58.0786 56.6437 56.6292 55.3257 55.616C54.0076 54.6075 52.4034 54.101 50.5131 54.101H50.5084Z" fill="white"/>
<path d="M85.7721 47.0837C89.2901 47.0837 92.0903 48.2564 94.1636 50.6064C96.2415 52.9564 97.2781 56.1038 97.2781 60.0532V78.8625H88.8867V61.4041C88.8867 56.7651 87.0808 54.4433 83.469 54.4433C81.316 54.4433 79.618 55.1703 78.375 56.6197C77.132 58.0691 76.5082 60.0486 76.5082 62.558V78.8672H68.1167V47.8202H73.8721L75.4997 51.6665C76.6958 50.2452 78.1874 49.1241 79.9745 48.3127C81.7616 47.4965 83.6942 47.0931 85.7721 47.0931V47.0837Z" fill="white"/>
<path d="M116.285 71.395H120.103V78.8625H114.15C110.745 78.8625 108.053 77.8775 106.078 75.9027C104.103 73.928 103.118 71.2215 103.118 67.7739V54.5511H97.5034V52.7546L109.769 39.7007H111.369V47.8107H119.929V54.5464H111.51V66.6435C111.51 68.1585 111.922 69.3312 112.743 70.152C113.564 70.9776 114.746 71.3857 116.28 71.3857L116.285 71.395Z" fill="white"/>
<path fill-rule="evenodd" clip-rule="evenodd" d="M131.309 69.3552C132.908 70.9734 134.93 71.7896 137.364 71.7896C139.799 71.7896 141.811 70.9828 143.41 69.3739C145.01 67.7651 145.807 65.734 145.807 63.2808C145.807 60.8277 145.01 58.7966 143.41 57.1878C141.811 55.5789 139.789 54.7721 137.364 54.7721C134.939 54.7721 132.908 55.5883 131.309 57.2065C129.709 58.8248 128.912 60.8464 128.912 63.2808C128.912 65.7153 129.709 67.7369 131.309 69.3552ZM147.777 47.7597H154.063V51.6435C153.458 52.3799 152.914 53.1726 152.43 54.0216C150.939 56.6483 150.226 59.5049 150.226 62.5257C150.226 65.5464 150.934 68.4264 152.43 71.0579C152.914 71.9069 153.458 72.6996 154.063 73.4313V78.802H147.463L146.736 76.0252C143.908 78.4971 140.568 79.7355 136.684 79.7355C133.616 79.7355 130.84 79.0272 128.349 77.5965C125.858 76.18 123.912 74.2053 122.514 71.6864C121.107 69.1769 120.408 66.3673 120.408 63.2855C120.408 60.2038 121.107 57.4317 122.514 54.9316C123.912 52.4409 125.858 50.4849 128.349 49.0683C130.84 47.6612 133.621 46.9529 136.684 46.9529C140.634 46.9529 144.034 48.2193 146.877 50.7382L147.777 47.769V47.7597Z" fill="white"/>
<path d="M167.984 70.5841C170.264 70.5841 172.154 69.8195 173.655 68.2951C175.152 66.7707 175.897 64.8475 175.897 62.5257C175.897 60.2038 175.152 58.3182 173.665 56.8172C172.178 55.3021 170.283 54.5563 167.984 54.5563C165.686 54.5563 163.805 55.3021 162.313 56.8172C160.817 58.3229 160.071 60.2273 160.071 62.5257C160.071 64.8241 160.808 66.7707 162.304 68.2951C163.791 69.8195 165.686 70.5841 167.984 70.5841ZM178.651 47.8206H184.101V50.0112C182.718 51.2119 181.545 52.6285 180.597 54.2655C178.979 57.0564 178.243 60.1241 178.243 63.3465C178.243 66.569 178.993 69.5944 180.597 72.3759C181.536 74.0036 182.694 75.4154 184.064 76.6162C183.82 80.8331 182.417 84.2103 179.856 86.7432C177.028 89.5388 173.158 90.9413 168.233 90.9413C164.026 90.9413 160.522 89.9234 157.712 87.9018C154.902 85.8801 153.143 83.0939 152.43 79.5385H160.766C161.216 80.8706 162.135 81.9072 163.533 82.6436C164.921 83.3801 166.446 83.7553 168.092 83.7553C170.278 83.7553 172.117 83.0939 173.622 81.7712C175.119 80.4484 175.865 78.6848 175.865 76.4802V75.3029C173.228 77.1509 170.269 78.0797 166.99 78.0797C164.143 78.0797 161.539 77.3995 159.171 76.0299C156.802 74.6602 154.945 72.7934 153.584 70.4059C152.233 68.0184 151.553 65.3963 151.553 62.5304C151.553 59.6644 152.233 57.0705 153.584 54.683C154.945 52.2955 156.802 50.4099 159.171 49.0308C161.539 47.6424 164.143 46.9529 166.99 46.9529C171.015 46.9529 174.453 48.2756 177.3 50.9117L178.641 47.8253L178.651 47.8206Z" fill="white"/>
<path d="M196.358 79.7304C193.197 79.7304 190.331 79.0174 187.769 77.5962C185.204 76.1749 183.196 74.2096 181.747 71.7001C180.297 69.1906 179.57 66.4044 179.57 63.3368C179.57 60.2691 180.297 57.4266 181.747 54.9312C183.196 52.4358 185.204 50.4798 187.769 49.0633C190.335 47.6514 193.197 46.9431 196.358 46.9431C199.519 46.9431 202.357 47.6514 204.918 49.0633C207.479 50.4751 209.492 52.4358 210.955 54.9453C212.414 57.4547 213.146 60.2503 213.146 63.3368C213.146 66.4232 212.414 69.1953 210.955 71.7001C209.496 74.2096 207.484 76.1749 204.918 77.5962C202.353 79.0174 199.501 79.7304 196.358 79.7304ZM190.406 69.4721C191.958 71.0528 193.942 71.8455 196.358 71.8455C198.774 71.8455 200.758 71.0528 202.31 69.4721C203.863 67.8913 204.642 65.8462 204.642 63.3368C204.642 60.8273 203.863 58.7869 202.31 57.2015C200.758 55.6207 198.774 54.828 196.358 54.828C193.942 54.828 191.958 55.6207 190.406 57.2015C188.853 58.7822 188.074 60.8273 188.074 63.3368C188.074 65.8462 188.853 67.8913 190.406 69.4721Z" fill="white"/>
<path d="M232.377 47.0837C235.895 47.0837 238.69 48.2564 240.768 50.6064C242.846 52.9564 243.883 56.1038 243.883 60.0532V78.8625H235.491V61.4041C235.491 56.7651 233.686 54.4433 230.074 54.4433C227.921 54.4433 226.223 55.1703 224.98 56.6197C223.737 58.0691 223.113 60.0486 223.113 62.558V78.8672H214.721V47.8202H220.477L222.104 51.6665C223.301 50.2452 224.797 49.1241 226.584 48.3127C228.371 47.4965 230.304 47.0931 232.382 47.0931L232.377 47.0837Z" fill="white"/>
<path d="M250.891 41.385C252.523 41.385 253.907 41.9526 255.042 43.0877C256.177 44.2228 256.745 45.6112 256.745 47.2529C256.745 48.8947 256.177 50.2831 255.042 51.4229C253.907 52.5627 252.523 53.135 250.891 53.135C249.258 53.135 247.87 52.558 246.721 51.4088C245.572 50.2596 244.995 48.8712 244.995 47.2529C244.995 45.6347 245.567 44.2369 246.711 43.0971C247.856 41.9573 249.249 41.385 250.891 41.385ZM247.818 50.3253C248.667 51.1649 249.69 51.5824 250.891 51.5824C252.092 51.5824 253.109 51.1649 253.94 50.33C254.775 49.4951 255.192 48.4725 255.192 47.2529C255.192 46.0334 254.775 45.0202 253.94 44.19C253.105 43.3551 252.087 42.9376 250.891 42.9376C249.695 42.9376 248.644 43.3551 247.804 44.1947C246.965 45.0343 246.547 46.0522 246.547 47.2529C246.547 48.4537 246.969 49.4857 247.818 50.3253ZM253.377 46.4274C253.377 47.206 253.062 47.7736 252.429 48.1301L253.555 50.0673H251.918L250.956 48.3928H250.323V50.0673H248.714V44.3354H251.299C251.904 44.3354 252.401 44.5324 252.79 44.9264C253.18 45.3204 253.377 45.8176 253.377 46.4227V46.4274ZM250.328 45.766V46.9762H251.153C251.364 46.9762 251.529 46.9199 251.646 46.812C251.763 46.7041 251.824 46.554 251.824 46.3711C251.824 46.1882 251.763 46.0428 251.646 45.9302C251.529 45.8176 251.36 45.766 251.153 45.766H250.328Z" fill="white"/>
</svg>
