<svg width="575" height="390" viewBox="0 0 575 390" fill="none" xmlns="http://www.w3.org/2000/svg">
<g clip-path="url(#clip0_2101_28312)">
<g opacity="0.65">
<mask id="mask0_2101_28312" style="mask-type:luminance" maskUnits="userSpaceOnUse" x="72" y="77" width="403" height="395">
<path d="M227.862 471.571C227.632 471.571 227.402 471.467 227.256 471.279L73.0269 283.744C72.7967 283.472 72.7967 283.074 73.0059 282.781L223.364 77.4427C223.553 77.1917 223.887 77.0662 224.18 77.1498L471.34 137.779C471.695 137.862 471.946 138.176 471.946 138.532L474.331 381.34C474.331 381.674 474.122 381.967 473.808 382.093L228.134 471.509C228.134 471.509 227.946 471.551 227.862 471.551M74.6378 283.2L228.134 469.835L472.762 380.796L470.377 139.159L224.327 78.7817L74.6378 283.179V283.2Z" fill="white"/>
</mask>
<g mask="url(#mask0_2101_28312)">
<path d="M474.331 77.0664H72.7754V471.572H474.331V77.0664Z" fill="url(#paint0_linear_2101_28312)"/>
</g>
<mask id="mask1_2101_28312" style="mask-type:luminance" maskUnits="userSpaceOnUse" x="65" y="69" width="417" height="408">
<path d="M218.197 476.072C217.946 476.072 217.716 475.967 217.569 475.758L65.4114 276.988C65.1813 276.696 65.2022 276.298 65.4114 276.026L227.716 69.8716C227.904 69.6206 228.239 69.516 228.553 69.5997L481.026 140.961C481.382 141.065 481.612 141.379 481.612 141.735L475.335 391.97C475.335 392.304 475.105 392.597 474.791 392.702L218.448 475.988C218.448 475.988 218.28 476.03 218.197 476.03M67.0433 276.486L218.49 474.314L473.766 391.363L480.001 142.3L228.636 71.2315L67.0433 276.465V276.486Z" fill="white"/>
</mask>
<g mask="url(#mask1_2101_28312)">
<path d="M481.591 69.5137H65.1812V476.048H481.591V69.5137Z" fill="url(#paint1_linear_2101_28312)"/>
</g>
<mask id="mask2_2101_28312" style="mask-type:luminance" maskUnits="userSpaceOnUse" x="57" y="61" width="435" height="420">
<path d="M208.071 480.338C207.82 480.338 207.569 480.212 207.422 480.003L57.796 269.748C57.5868 269.455 57.6077 269.058 57.8379 268.786L232.486 62.2336C232.695 61.9826 233.029 61.8989 233.322 61.9826L490.879 144.599C491.214 144.704 491.444 145.038 491.423 145.394L475.963 402.993C475.963 403.328 475.712 403.621 475.398 403.704L208.301 480.296C208.301 480.296 208.154 480.338 208.092 480.338M59.4488 269.329L208.385 478.643L474.415 402.365L489.812 145.938L233.343 63.6562L59.4488 269.329Z" fill="white"/>
</mask>
<g mask="url(#mask2_2101_28312)">
<path d="M491.445 61.8984H57.5874V480.337H491.445V61.8984Z" fill="url(#paint2_linear_2101_28312)"/>
</g>
<mask id="mask3_2101_28312" style="mask-type:luminance" maskUnits="userSpaceOnUse" x="50" y="54" width="452" height="431">
<path d="M197.485 484.376C197.234 484.376 196.983 484.251 196.836 484.02L50.2228 262.008C50.0136 261.715 50.0555 261.318 50.3065 261.046L237.653 54.5145C237.862 54.2843 238.197 54.2007 238.511 54.3053L500.88 148.679C501.215 148.805 501.424 149.14 501.403 149.495L476.214 414.354C476.172 414.689 475.942 414.961 475.607 415.044L197.652 484.355C197.652 484.355 197.527 484.376 197.464 484.376M51.8965 261.652L197.841 482.682L474.708 413.643L499.792 149.956L238.469 55.9789L51.8965 261.652Z" fill="white"/>
</mask>
<g mask="url(#mask3_2101_28312)">
<path d="M501.444 54.2002H50.0342V484.376H501.444V54.2002Z" fill="url(#paint3_linear_2101_28312)"/>
</g>
<mask id="mask4_2101_28312" style="mask-type:luminance" maskUnits="userSpaceOnUse" x="42" y="46" width="470" height="443">
<path d="M186.417 488.163C186.145 488.163 185.894 488.017 185.748 487.787L42.7117 253.766C42.5235 253.452 42.5653 253.054 42.8163 252.803L243.28 46.7744C243.51 46.5443 243.845 46.4815 244.138 46.5861L511.068 153.262C511.402 153.387 511.612 153.743 511.549 154.099L476.067 426.07C476.025 426.405 475.774 426.677 475.439 426.74L186.564 488.143C186.564 488.143 186.459 488.143 186.396 488.143M44.3854 253.473L186.815 486.49L474.582 425.317L509.917 154.517L244.033 48.2598L44.3854 253.473Z" fill="white"/>
</mask>
<g mask="url(#mask4_2101_28312)">
<path d="M511.612 46.46H42.5239V488.163H511.612V46.46Z" fill="url(#paint4_linear_2101_28312)"/>
</g>
<mask id="mask5_2101_28312" style="mask-type:luminance" maskUnits="userSpaceOnUse" x="35" y="38" width="487" height="454">
<path d="M174.89 491.657C174.618 491.657 174.346 491.51 174.2 491.259L35.2432 244.999C35.0758 244.686 35.1176 244.288 35.3896 244.037L249.348 38.9914C249.578 38.7612 249.912 38.7194 250.205 38.8449L521.382 158.366C521.717 158.512 521.905 158.868 521.842 159.224L475.502 438.162C475.44 438.497 475.189 438.748 474.854 438.811L175.016 491.678C175.016 491.678 174.932 491.678 174.869 491.678M36.9378 244.769L175.309 490.004L474.038 437.325L520.189 159.558L250.059 40.4977L36.9378 244.769Z" fill="white"/>
</mask>
<g mask="url(#mask5_2101_28312)">
<path d="M521.905 38.6973H35.0757V491.656H521.905V38.6973Z" fill="url(#paint5_linear_2101_28312)"/>
</g>
<mask id="mask6_2101_28312" style="mask-type:luminance" maskUnits="userSpaceOnUse" x="27" y="30" width="506" height="465">
<path d="M162.902 494.857C162.609 494.857 162.338 494.69 162.191 494.439L27.8789 235.71C27.7116 235.397 27.7743 234.999 28.0463 234.748L255.875 31.1878C256.105 30.9786 256.461 30.9158 256.754 31.0622L531.863 163.973C532.177 164.14 532.365 164.496 532.303 164.851L474.519 450.568C474.456 450.903 474.184 451.154 473.85 451.196L163.028 494.878C163.028 494.878 162.944 494.878 162.923 494.878M29.5735 235.522L163.342 493.205L473.055 449.668L530.608 165.102L256.523 32.715L29.5735 235.522Z" fill="white"/>
</mask>
<g mask="url(#mask6_2101_28312)">
<path d="M532.344 30.918H27.7114V494.86H532.344V30.918Z" fill="url(#paint6_linear_2101_28312)"/>
</g>
<mask id="mask7_2101_28312" style="mask-type:luminance" maskUnits="userSpaceOnUse" x="20" y="23" width="523" height="475">
<path d="M150.413 497.724C150.12 497.724 149.827 497.556 149.702 497.263L20.6406 225.878C20.4942 225.543 20.5779 225.166 20.8499 224.936L262.884 23.3842C263.135 23.175 263.469 23.1332 263.762 23.3005L542.408 170.123C542.721 170.291 542.889 170.646 542.805 171.002L472.992 463.288C472.908 463.623 472.637 463.853 472.302 463.895L150.497 497.724C150.497 497.724 150.434 497.724 150.413 497.724ZM22.3352 225.752L150.894 496.071L471.59 462.367L541.132 171.211L263.49 24.9324L22.3352 225.752Z" fill="white"/>
</mask>
<g mask="url(#mask7_2101_28312)">
<path d="M542.888 23.1338H20.4727V497.724H542.888V23.1338Z" fill="url(#paint7_linear_2101_28312)"/>
</g>
<mask id="mask8_2101_28312" style="mask-type:luminance" maskUnits="userSpaceOnUse" x="13" y="15" width="541" height="486">
<path d="M137.442 500.213C137.128 500.213 136.835 500.025 136.709 499.732L13.5063 215.48C13.3598 215.145 13.4644 214.769 13.7364 214.538L270.373 15.5807C270.624 15.3924 270.98 15.3506 271.252 15.5179L553.077 176.818C553.391 177.006 553.537 177.362 553.454 177.718L471.004 476.363C470.921 476.677 470.628 476.928 470.293 476.949L137.525 500.213C137.525 500.213 137.483 500.213 137.463 500.213M15.2008 215.417L137.944 498.602L469.603 475.401L551.738 177.885L270.938 17.1498L15.2008 215.417Z" fill="white"/>
</mask>
<g mask="url(#mask8_2101_28312)">
<path d="M553.537 15.3721H13.3599V500.214H553.537V15.3721Z" fill="url(#paint8_linear_2101_28312)"/>
</g>
<mask id="mask9_2101_28312" style="mask-type:luminance" maskUnits="userSpaceOnUse" x="6" y="7" width="559" height="496">
<path d="M124.011 502.306C123.676 502.306 123.404 502.118 123.279 501.804L6.56106 204.518C6.43553 204.183 6.56106 203.807 6.83303 203.597L278.386 7.84059C278.637 7.6523 278.993 7.63138 279.265 7.81967L563.81 184.141C564.124 184.329 564.249 184.706 564.145 185.041L468.452 489.753C468.348 490.067 468.055 490.297 467.72 490.297L124.032 502.306H124.011ZM8.25565 204.497L124.555 500.716L467.134 488.749L562.471 185.145L278.888 9.43058L8.25565 204.497Z" fill="white"/>
</mask>
<g mask="url(#mask9_2101_28312)">
<path d="M564.249 7.63086H6.41406V502.305H564.249V7.63086Z" fill="url(#paint9_linear_2101_28312)"/>
</g>
<mask id="mask10_2101_28312" style="mask-type:luminance" maskUnits="userSpaceOnUse" x="-1" y="0" width="576" height="504">
<path d="M464.624 504H110.077C109.743 504 109.45 503.791 109.324 503.477L-0.217523 192.948C-0.343049 192.613 -0.217523 192.237 0.0962901 192.028L286.901 0.141216C287.173 -0.047072 287.508 -0.047072 287.78 0.141216L574.605 192.049C574.898 192.258 575.023 192.634 574.919 192.969L465.356 503.477C465.251 503.791 464.938 504 464.603 504M110.621 502.41H464.038L573.203 193.011L287.34 1.7312L1.47707 193.011L110.642 502.41H110.621Z" fill="white"/>
</mask>
<g mask="url(#mask10_2101_28312)">
<path d="M575.045 -0.046875H-0.342773V504H575.045V-0.046875Z" fill="url(#paint10_linear_2101_28312)"/>
</g>
</g>
</g>
<defs>
<linearGradient id="paint0_linear_2101_28312" x1="273.553" y1="77.0664" x2="273.553" y2="471.572" gradientUnits="userSpaceOnUse">
<stop stop-color="white"/>
<stop offset="1" stop-color="white" stop-opacity="0"/>
</linearGradient>
<linearGradient id="paint1_linear_2101_28312" x1="273.386" y1="69.5137" x2="273.386" y2="476.049" gradientUnits="userSpaceOnUse">
<stop stop-color="white"/>
<stop offset="1" stop-color="white" stop-opacity="0"/>
</linearGradient>
<linearGradient id="paint2_linear_2101_28312" x1="274.516" y1="61.8984" x2="274.516" y2="480.337" gradientUnits="userSpaceOnUse">
<stop stop-color="white"/>
<stop offset="1" stop-color="white" stop-opacity="0"/>
</linearGradient>
<linearGradient id="paint3_linear_2101_28312" x1="275.739" y1="54.2002" x2="275.739" y2="484.376" gradientUnits="userSpaceOnUse">
<stop stop-color="white"/>
<stop offset="1" stop-color="white" stop-opacity="0"/>
</linearGradient>
<linearGradient id="paint4_linear_2101_28312" x1="277.068" y1="46.46" x2="277.068" y2="488.163" gradientUnits="userSpaceOnUse">
<stop stop-color="white"/>
<stop offset="1" stop-color="white" stop-opacity="0"/>
</linearGradient>
<linearGradient id="paint5_linear_2101_28312" x1="278.49" y1="38.6973" x2="278.49" y2="491.656" gradientUnits="userSpaceOnUse">
<stop stop-color="white"/>
<stop offset="1" stop-color="white" stop-opacity="0"/>
</linearGradient>
<linearGradient id="paint6_linear_2101_28312" x1="280.028" y1="30.918" x2="280.028" y2="494.86" gradientUnits="userSpaceOnUse">
<stop stop-color="white"/>
<stop offset="1" stop-color="white" stop-opacity="0"/>
</linearGradient>
<linearGradient id="paint7_linear_2101_28312" x1="281.68" y1="23.1338" x2="281.68" y2="497.724" gradientUnits="userSpaceOnUse">
<stop stop-color="white"/>
<stop offset="1" stop-color="white" stop-opacity="0"/>
</linearGradient>
<linearGradient id="paint8_linear_2101_28312" x1="283.449" y1="15.3721" x2="283.449" y2="500.214" gradientUnits="userSpaceOnUse">
<stop stop-color="white"/>
<stop offset="1" stop-color="white" stop-opacity="0"/>
</linearGradient>
<linearGradient id="paint9_linear_2101_28312" x1="285.331" y1="7.63086" x2="285.331" y2="502.305" gradientUnits="userSpaceOnUse">
<stop stop-color="white"/>
<stop offset="1" stop-color="white" stop-opacity="0"/>
</linearGradient>
<linearGradient id="paint10_linear_2101_28312" x1="287.351" y1="-0.046875" x2="287.351" y2="504" gradientUnits="userSpaceOnUse">
<stop stop-color="white"/>
<stop offset="1" stop-color="white" stop-opacity="0"/>
</linearGradient>
<clipPath id="clip0_2101_28312">
<rect width="575" height="390" fill="white"/>
</clipPath>
</defs>
</svg>
