<svg width="355" height="401" viewBox="0 0 355 401" fill="none" xmlns="http://www.w3.org/2000/svg">
<g opacity="0.04">
<mask id="mask0_1182_10881" style="mask-type:luminance" maskUnits="userSpaceOnUse" x="80" y="61" width="279" height="315">
<path d="M355.741 276.841L275.959 373.851L81.3248 303.008L83.2223 110.754L278.989 62.7149L357.322 169.678H358.887L279.771 61.633C279.621 61.4332 279.355 61.3334 279.122 61.3999L82.4733 109.638C82.1903 109.705 81.9906 109.955 81.9906 110.238L80.093 303.424C80.093 303.69 80.2595 303.923 80.5092 304.023L275.976 375.166C275.976 375.166 276.126 375.199 276.192 375.199C276.376 375.199 276.559 375.116 276.675 374.966L355.99 278.522C355.907 277.957 355.824 277.391 355.757 276.825" fill="white"/>
</mask>
<g mask="url(#mask0_1182_10881)">
<path d="M80.0598 61.334H358.87V375.216H80.0598V61.334Z" fill="#333333"/>
</g>
<mask id="mask1_1182_10881" style="mask-type:luminance" maskUnits="userSpaceOnUse" x="74" y="55" width="293" height="324">
<path d="M356.607 282.085L283.633 377.413L80.5264 311.414L75.566 113.251L275.56 56.7063L364.497 169.662H366.095L276.276 55.591C276.126 55.3913 275.86 55.308 275.61 55.3746L74.7338 112.152C74.4508 112.235 74.2677 112.485 74.2677 112.768L79.2613 311.863C79.2613 312.13 79.4444 312.363 79.6941 312.446L283.65 378.711C283.65 378.711 283.783 378.745 283.85 378.745C284.05 378.745 284.233 378.661 284.349 378.495L356.956 283.65C356.823 283.117 356.707 282.584 356.59 282.052" fill="white"/>
</mask>
<g mask="url(#mask1_1182_10881)">
<path d="M74.2844 55.3247H366.095V378.778H74.2844V55.3247Z" fill="#333333"/>
</g>
<mask id="mask2_1182_10881" style="mask-type:luminance" maskUnits="userSpaceOnUse" x="66" y="49" width="316" height="334">
<path d="M376.665 174.689L380.643 179.383V179.35V179.316V179.283V179.25V179.217L380.876 179.017V178.984V178.95V178.917V178.884H380.893V178.85V178.817V178.784V178.751V178.717L380.926 178.684V178.651H380.959V178.617V178.584L381.009 178.551V178.517V178.484V178.468V178.434L374.334 170.528L376.082 174.539L376.665 174.689ZM358.022 287.561L291.657 380.826L79.994 320.137L67.743 116.114L271.799 50.6642L372.437 169.679H374.085L272.498 49.5323C272.332 49.3326 272.065 49.266 271.832 49.3326L66.9107 115.065C66.6444 115.148 66.4613 115.415 66.4779 115.698L78.7789 320.652C78.7789 320.919 78.9786 321.152 79.2283 321.218L291.74 382.157C291.74 382.157 291.857 382.174 291.907 382.174C292.106 382.174 292.306 382.074 292.423 381.908L358.505 289.026V288.976V288.926V288.86V288.81V288.76V288.71L358.388 288.344V288.294V288.244V288.194V288.161V288.111V288.061L358.255 287.611V287.561V287.512V287.495L358.022 287.561Z" fill="white"/>
</mask>
<g mask="url(#mask2_1182_10881)">
<path d="M66.4612 49.249H381.608V382.174H66.4612V49.249Z" fill="#333333"/>
</g>
<mask id="mask3_1182_10881" style="mask-type:luminance" maskUnits="userSpaceOnUse" x="58" y="43" width="330" height="343">
<path d="M360.102 293.105L300.062 384.055L79.7772 329.126L59.8194 119.327L267.72 44.556L386.202 175.156C386.552 174.923 386.918 174.69 387.268 174.457L268.37 43.3908C268.203 43.2077 267.937 43.1412 267.687 43.2244L58.9372 118.312C58.6708 118.412 58.5044 118.678 58.521 118.961L78.5621 329.692C78.5954 329.958 78.7785 330.174 79.0448 330.241L300.196 385.387C300.196 385.387 300.295 385.404 300.345 385.404C300.545 385.404 300.745 385.304 300.861 385.121L360.718 294.453C360.502 294.004 360.302 293.554 360.102 293.105Z" fill="white"/>
</mask>
<g mask="url(#mask3_1182_10881)">
<path d="M58.5053 43.1406H387.285V385.403H58.5053V43.1406Z" fill="#333333"/>
</g>
<mask id="mask4_1182_10881" style="mask-type:luminance" maskUnits="userSpaceOnUse" x="50" y="37" width="344" height="352">
<path d="M362.932 298.564L308.835 387.085L79.8776 338.414L51.7635 122.956L263.293 38.397L392.761 171.477C393.16 171.294 393.577 171.111 393.976 170.928L263.909 37.2318C263.726 37.0487 263.46 36.9988 263.227 37.082L50.848 121.957C50.5817 122.057 50.4152 122.34 50.4651 122.623L78.6957 339.013C78.729 339.279 78.9288 339.495 79.1951 339.545L309.035 388.4C309.035 388.4 309.118 388.4 309.168 388.4C309.384 388.4 309.584 388.283 309.7 388.1L363.715 299.746C363.465 299.347 363.215 298.947 362.966 298.548" fill="white"/>
</mask>
<g mask="url(#mask4_1182_10881)">
<path d="M50.4151 36.9814H393.993V388.416H50.4151V36.9814Z" fill="#333333"/>
</g>
<mask id="mask5_1182_10881" style="mask-type:luminance" maskUnits="userSpaceOnUse" x="42" y="30" width="361" height="362">
<path d="M366.578 303.758L317.99 389.865L80.3102 347.952L43.5905 126.951L258.516 32.2385L400.734 168.548C401.217 168.414 401.683 168.298 402.166 168.181L259.082 31.0234C258.899 30.8403 258.616 30.807 258.399 30.9069L42.6417 126.002C42.3754 126.119 42.2256 126.402 42.2755 126.684L79.145 348.617C79.195 348.884 79.3947 349.084 79.661 349.134L318.223 391.196C318.223 391.196 318.289 391.196 318.339 391.196C318.556 391.196 318.772 391.08 318.889 390.88L367.46 304.807C367.16 304.457 366.877 304.124 366.594 303.775" fill="white"/>
</mask>
<g mask="url(#mask5_1182_10881)">
<path d="M42.2089 30.8062H402.166V391.196H42.2089V30.8062Z" fill="#333333"/>
</g>
<mask id="mask6_1182_10881" style="mask-type:luminance" maskUnits="userSpaceOnUse" x="33" y="24" width="380" height="370">
<path d="M371.022 308.585L327.494 392.428L81.0757 357.789L35.2842 131.379L253.356 26.0465L410.854 166.783C411.437 166.733 412.019 166.7 412.619 166.667L253.888 24.8147C253.705 24.6483 253.422 24.5984 253.189 24.7149L34.3021 130.446C34.0525 130.58 33.9026 130.863 33.9526 131.146L79.9272 358.472C79.9771 358.738 80.1935 358.938 80.4598 358.971L327.76 393.727C327.76 393.727 327.827 393.727 327.844 393.727C328.077 393.727 328.293 393.593 328.41 393.394L371.987 309.468C371.671 309.185 371.338 308.885 371.022 308.585Z" fill="white"/>
</mask>
<g mask="url(#mask6_1182_10881)">
<path d="M33.9193 24.6143H412.619V393.742H33.9193V24.6143Z" fill="#333333"/>
</g>
<mask id="mask7_1182_10881" style="mask-type:luminance" maskUnits="userSpaceOnUse" x="25" y="18" width="403" height="379">
<path d="M376.315 312.912L337.415 394.708L82.2578 367.892L26.9285 136.238L247.829 19.8537L424.87 167.282C425.719 167.415 426.551 167.565 427.383 167.731L248.312 18.6053C248.112 18.4388 247.846 18.4055 247.613 18.5387L25.9131 135.356C25.6634 135.489 25.5303 135.772 25.5968 136.055L81.1425 368.608C81.2091 368.874 81.4254 369.057 81.6918 369.091L337.731 396.006C337.731 396.006 337.781 396.006 337.798 396.006C338.031 396.006 338.264 395.873 338.364 395.64L377.381 313.612C377.031 313.379 376.681 313.129 376.332 312.896" fill="white"/>
</mask>
<g mask="url(#mask7_1182_10881)">
<path d="M25.5135 18.4229H427.383V396.024H25.5135V18.4229Z" fill="#333333"/>
</g>
<mask id="mask8_1182_10881" style="mask-type:luminance" maskUnits="userSpaceOnUse" x="17" y="12" width="430" height="387">
<path d="M445.36 171.41L444.112 174.29C444.478 174.506 444.844 174.722 445.194 174.955L446.708 171.46C446.825 171.194 446.742 170.894 446.525 170.711L242.336 12.4131C242.137 12.2633 241.854 12.23 241.637 12.3632L17.4071 140.699C17.1574 140.849 17.041 141.132 17.1075 141.415L82.707 379.028C82.7736 379.278 83.0067 379.461 83.273 379.494L348.035 398.004C348.035 398.004 348.068 398.004 348.085 398.004C348.334 398.004 348.567 397.854 348.667 397.621L383.556 317.124C383.173 316.941 382.79 316.757 382.424 316.574L347.685 396.722L83.8056 378.262L18.4558 141.548L241.904 13.6615L445.36 171.41Z" fill="white"/>
</mask>
<g mask="url(#mask8_1182_10881)">
<path d="M17.0411 12.2466H446.825V398.004H17.0411V12.2466Z" fill="#333333"/>
</g>
<mask id="mask9_1182_10881" style="mask-type:luminance" maskUnits="userSpaceOnUse" x="8" y="6" width="445" height="394">
<path d="M450.903 162.721L445.926 175.405C446.293 175.638 446.642 175.871 446.992 176.121L452.252 162.738C452.352 162.471 452.252 162.172 452.035 162.005L235.978 6.23772C235.778 6.08792 235.495 6.07127 235.279 6.22108L8.88498 146.508C8.63531 146.658 8.53543 146.958 8.61865 147.224L84.7547 389.664C84.8379 389.914 85.0709 390.097 85.3372 390.097L358.788 399.652H358.804C359.071 399.652 359.287 399.502 359.387 399.252L390.58 319.787C390.181 319.671 389.782 319.537 389.382 319.404L358.388 398.37L85.82 388.849L9.96692 147.291L235.579 7.51942L450.903 162.721Z" fill="white"/>
</mask>
<g mask="url(#mask9_1182_10881)">
<path d="M8.51788 6.08789H452.351V399.668H8.51788V6.08789Z" fill="#333333"/>
</g>
<mask id="mask10_1182_10881" style="mask-type:luminance" maskUnits="userSpaceOnUse" x="0" y="0" width="458" height="401">
<path d="M369.44 399.752H88.2498L1.39417 153.583L228.837 1.39405L456.296 153.583L448.073 176.87C448.423 177.119 448.789 177.386 449.139 177.652L457.644 153.533C457.744 153.267 457.644 152.967 457.395 152.801L229.186 0.112356C228.97 -0.0374521 228.704 -0.0374521 228.487 0.112356L0.2789 152.801C0.0458679 152.967 -0.0540161 153.267 0.0292358 153.533L87.2011 400.584C87.2844 400.834 87.534 401 87.8004 401H369.873C370.14 401 370.373 400.834 370.472 400.584L398.32 321.635C397.904 321.568 397.488 321.485 397.072 321.402L369.424 399.735L369.44 399.752Z" fill="white"/>
</mask>
<g mask="url(#mask10_1182_10881)">
<path d="M-0.0535889 -0.0209961H457.745V401.017H-0.0535889V-0.0209961Z" fill="#333333"/>
</g>
</g>
</svg>
