<svg width="846" height="742" viewBox="0 0 846 742" fill="none" xmlns="http://www.w3.org/2000/svg">
<g opacity="0.03">
<mask id="mask0_1182_9358" style="mask-type:luminance" maskUnits="userSpaceOnUse" x="148" y="113" width="516" height="581">
<path d="M657.468 511.649L510.019 690.939L150.302 560.01L153.809 204.692L515.618 115.908L660.391 313.594H663.283L517.064 113.909C516.787 113.539 516.295 113.355 515.864 113.478L152.425 202.63C151.902 202.753 151.532 203.215 151.532 203.738L148.025 560.779C148.025 561.271 148.333 561.702 148.795 561.886L510.05 693.369C510.05 693.369 510.327 693.431 510.45 693.431C510.788 693.431 511.127 693.277 511.342 693L657.93 514.757C657.776 513.711 657.622 512.665 657.499 511.619" fill="white"/>
</mask>
<g mask="url(#mask0_1182_9358)">
<path d="M147.964 113.354H663.252V693.461H147.964V113.354Z" fill="white"/>
</g>
<mask id="mask1_1182_9358" style="mask-type:luminance" maskUnits="userSpaceOnUse" x="137" y="102" width="540" height="598">
<path d="M659.069 521.34L524.202 697.523L148.826 575.546L139.658 209.307L509.281 104.803L673.651 313.564H676.604L510.604 102.742C510.327 102.373 509.835 102.219 509.374 102.342L138.12 207.276C137.597 207.43 137.259 207.891 137.259 208.414L146.488 576.376C146.488 576.869 146.826 577.299 147.288 577.453L524.233 699.922C524.233 699.922 524.479 699.984 524.602 699.984C524.971 699.984 525.309 699.83 525.525 699.522L659.715 524.232C659.469 523.248 659.253 522.263 659.038 521.279" fill="white"/>
</mask>
<g mask="url(#mask1_1182_9358)">
<path d="M137.29 102.25H676.604V700.046H137.29V102.25Z" fill="white"/>
</g>
<mask id="mask2_1182_9358" style="mask-type:luminance" maskUnits="userSpaceOnUse" x="122" y="91" width="583" height="616">
<path d="M696.138 322.855L703.491 331.53V331.469V331.407V331.345V331.284V331.222L703.921 330.853V330.792V330.73V330.669V330.607H703.952V330.546V330.484V330.423V330.361V330.299L704.014 330.238V330.176H704.075V330.115V330.053L704.167 329.992V329.93V329.869V329.838V329.777L691.831 315.164L695.061 322.578L696.138 322.855ZM661.683 531.462L539.029 703.83L147.841 591.666L125.199 214.598L502.328 93.6361L688.324 313.595H691.37L503.62 91.5442C503.313 91.1751 502.821 91.052 502.39 91.1751L123.661 212.66C123.169 212.814 122.83 213.306 122.861 213.829L145.595 592.62C145.595 593.112 145.964 593.542 146.426 593.666L539.183 706.291C539.183 706.291 539.398 706.321 539.491 706.321C539.86 706.321 540.229 706.137 540.444 705.829L662.575 534.169V534.077V533.984V533.861V533.769V533.677V533.584L662.36 532.908V532.815V532.723V532.631V532.569V532.477V532.385L662.114 531.554V531.462V531.37V531.339L661.683 531.462Z" fill="white"/>
</mask>
<g mask="url(#mask2_1182_9358)">
<path d="M122.831 91.0205H705.275V706.321H122.831V91.0205Z" fill="white"/>
</g>
<mask id="mask3_1182_9358" style="mask-type:luminance" maskUnits="userSpaceOnUse" x="108" y="79" width="608" height="634">
<path d="M665.529 541.707L554.565 709.799L147.441 608.279L110.556 220.536L494.792 82.3469L713.766 323.717C714.412 323.286 715.089 322.856 715.735 322.425L495.991 80.1934C495.684 79.855 495.192 79.732 494.73 79.8858L108.925 218.66C108.433 218.844 108.126 219.337 108.156 219.86L145.196 609.325C145.257 609.817 145.596 610.217 146.088 610.34L554.811 712.26C554.811 712.26 554.996 712.29 555.088 712.29C555.457 712.29 555.826 712.106 556.042 711.767L666.667 544.199C666.267 543.368 665.898 542.538 665.529 541.707Z" fill="white"/>
</mask>
<g mask="url(#mask3_1182_9358)">
<path d="M108.126 79.7314H715.766V712.29H108.126V79.7314Z" fill="white"/>
</g>
<mask id="mask4_1182_9358" style="mask-type:luminance" maskUnits="userSpaceOnUse" x="93" y="68" width="636" height="650">
<path d="M670.759 551.796L570.778 715.396L147.626 625.444L95.6667 227.241L486.609 70.9629L725.887 316.917C726.625 316.578 727.394 316.24 728.133 315.902L487.747 68.8094C487.409 68.471 486.916 68.3787 486.486 68.5326L93.9747 225.395C93.4825 225.58 93.1749 226.103 93.2672 226.626L145.442 626.551C145.504 627.043 145.873 627.443 146.365 627.536L571.147 717.826C571.147 717.826 571.301 717.826 571.393 717.826C571.793 717.826 572.162 717.611 572.377 717.273L672.205 553.98C671.743 553.242 671.282 552.503 670.82 551.765" fill="white"/>
</mask>
<g mask="url(#mask4_1182_9358)">
<path d="M93.1748 68.3477H728.164V717.857H93.1748V68.3477Z" fill="white"/>
</g>
<mask id="mask5_1182_9358" style="mask-type:luminance" maskUnits="userSpaceOnUse" x="78" y="57" width="666" height="666">
<path d="M677.496 561.395L587.697 720.534L148.426 643.072L80.5615 234.626L477.779 59.5814L740.622 311.503C741.515 311.257 742.376 311.042 743.268 310.827L478.825 57.3357C478.487 56.9973 477.964 56.9357 477.564 57.1203L78.808 232.872C78.3158 233.087 78.0389 233.61 78.1312 234.133L146.272 644.303C146.365 644.795 146.734 645.164 147.226 645.256L588.128 722.996C588.128 722.996 588.251 722.996 588.343 722.996C588.743 722.996 589.143 722.78 589.358 722.411L679.126 563.333C678.572 562.687 678.05 562.072 677.527 561.426" fill="white"/>
</mask>
<g mask="url(#mask5_1182_9358)">
<path d="M78.0081 56.9355H743.268V722.995H78.0081V56.9355Z" fill="white"/>
</g>
<mask id="mask6_1182_9358" style="mask-type:luminance" maskUnits="userSpaceOnUse" x="62" y="45" width="701" height="683">
<path d="M685.709 570.317L605.263 725.272L149.841 661.253L65.2103 242.809L468.243 48.1375L759.326 308.243C760.403 308.15 761.48 308.089 762.587 308.027L469.227 45.861C468.889 45.5534 468.366 45.4611 467.935 45.6764L63.3953 241.086C62.9338 241.332 62.657 241.855 62.7493 242.378L147.718 662.515C147.81 663.007 148.21 663.376 148.702 663.438L605.755 727.672C605.755 727.672 605.878 727.672 605.909 727.672C606.34 727.672 606.74 727.426 606.955 727.056L687.494 571.947C686.909 571.424 686.294 570.87 685.709 570.317Z" fill="white"/>
</mask>
<g mask="url(#mask6_1182_9358)">
<path d="M62.6877 45.4917H762.587V727.702H62.6877V45.4917Z" fill="white"/>
</g>
<mask id="mask7_1182_9358" style="mask-type:luminance" maskUnits="userSpaceOnUse" x="47" y="34" width="743" height="698">
<path d="M695.493 578.316L623.598 729.487L152.025 679.927L49.7675 251.792L458.03 36.694L785.23 309.166C786.799 309.412 788.337 309.689 789.875 309.997L458.922 34.3867C458.552 34.0791 458.06 34.0176 457.63 34.2637L47.8909 250.162C47.4294 250.408 47.1834 250.931 47.3065 251.454L149.964 681.25C150.087 681.742 150.487 682.081 150.979 682.142L624.183 731.887C624.183 731.887 624.275 731.887 624.306 731.887C624.737 731.887 625.167 731.641 625.352 731.21L697.462 579.608C696.816 579.177 696.169 578.716 695.523 578.285" fill="white"/>
</mask>
<g mask="url(#mask7_1182_9358)">
<path d="M47.1525 34.0488H789.875V731.918H47.1525V34.0488Z" fill="white"/>
</g>
<mask id="mask8_1182_9358" style="mask-type:luminance" maskUnits="userSpaceOnUse" x="31" y="22" width="795" height="714">
<path d="M823.1 316.794L820.792 322.116C821.469 322.516 822.146 322.916 822.792 323.347L825.591 316.887C825.807 316.395 825.653 315.841 825.253 315.502L447.878 22.9418C447.508 22.6649 446.986 22.6034 446.586 22.8495L32.1708 260.036C31.7094 260.313 31.4941 260.836 31.6171 261.359L152.856 700.507C152.979 700.969 153.41 701.307 153.902 701.368L643.226 735.577C643.226 735.577 643.287 735.577 643.318 735.577C643.779 735.577 644.21 735.301 644.395 734.87L708.875 586.098C708.167 585.759 707.46 585.421 706.783 585.083L642.58 733.209L154.886 699.092L34.1089 261.605L447.078 25.249L823.1 316.794Z" fill="white"/>
</mask>
<g mask="url(#mask8_1182_9358)">
<path d="M31.4938 22.6338H825.807V735.577H31.4938V22.6338Z" fill="white"/>
</g>
<mask id="mask9_1182_9358" style="mask-type:luminance" maskUnits="userSpaceOnUse" x="15" y="11" width="821" height="728">
<path d="M833.344 300.736L824.145 324.178C824.822 324.608 825.468 325.039 826.114 325.5L835.835 300.767C836.02 300.274 835.835 299.721 835.435 299.413L436.126 11.5284C435.756 11.2515 435.233 11.2207 434.834 11.4976L16.4197 270.772C15.9583 271.049 15.7737 271.603 15.9275 272.095L156.64 720.165C156.793 720.626 157.224 720.965 157.716 720.965L663.099 738.623H663.129C663.622 738.623 664.021 738.346 664.206 737.885L721.857 591.02C721.118 590.804 720.38 590.558 719.642 590.312L662.36 736.254L158.608 718.657L18.4193 272.218L435.387 13.8972L833.344 300.736Z" fill="white"/>
</mask>
<g mask="url(#mask9_1182_9358)">
<path d="M15.7425 11.252H836.02V738.654H15.7425V11.252Z" fill="white"/>
</g>
<mask id="mask10_1182_9358" style="mask-type:luminance" maskUnits="userSpaceOnUse" x="0" y="0" width="846" height="742">
<path d="M682.787 738.808H163.1L2.57623 283.847L422.928 2.57644L843.311 283.847L828.114 326.885C828.76 327.346 829.437 327.839 830.083 328.331L845.803 283.755C845.987 283.262 845.803 282.709 845.341 282.401L423.574 0.207653C423.174 -0.0692178 422.682 -0.0692178 422.282 0.207653L0.515015 282.401C0.0843506 282.709 -0.10022 283.262 0.0535889 283.755L161.162 740.346C161.316 740.807 161.777 741.115 162.269 741.115H683.587C684.079 741.115 684.51 740.807 684.695 740.346L736.162 594.435C735.393 594.312 734.624 594.158 733.855 594.004L682.756 738.777L682.787 738.808Z" fill="white"/>
</mask>
<g mask="url(#mask10_1182_9358)">
<path d="M-0.0999146 -0.0390625H845.988V741.145H-0.0999146V-0.0390625Z" fill="white"/>
</g>
</g>
</svg>
