<svg width="387" height="588" viewBox="0 0 387 588" fill="none" xmlns="http://www.w3.org/2000/svg">
<g opacity="0.05">
<mask id="mask0_1182_9276" style="mask-type:luminance" maskUnits="userSpaceOnUse" x="118" y="89" width="409" height="461">
<path d="M521.797 405.331L404.987 547.365L120.017 443.642L122.796 162.158L409.423 91.8231L524.112 248.431H526.403L410.568 90.2389C410.349 89.9465 409.959 89.8003 409.618 89.8978L121.699 160.525C121.285 160.622 120.992 160.988 120.992 161.402L118.214 444.252C118.214 444.642 118.458 444.983 118.823 445.129L405.011 549.291C405.011 549.291 405.231 549.339 405.328 549.339C405.596 549.339 405.864 549.217 406.035 548.998L522.163 407.793C522.041 406.964 521.919 406.135 521.822 405.307" fill="white"/>
</mask>
<g mask="url(#mask0_1182_9276)">
<path d="M118.165 89.7998H526.379V549.363H118.165V89.7998Z" fill="url(#paint0_linear_1182_9276)"/>
</g>
<mask id="mask1_1182_9276" style="mask-type:luminance" maskUnits="userSpaceOnUse" x="109" y="81" width="428" height="474">
<path d="M523.065 413.009L416.223 552.581L118.848 455.95L111.586 165.814L404.403 83.0257L534.617 248.407H536.957L405.451 81.3928C405.231 81.1004 404.842 80.9785 404.476 81.076L110.367 164.205C109.953 164.327 109.685 164.693 109.685 165.107L116.996 456.608C116.996 456.998 117.264 457.339 117.63 457.461L416.247 554.482C416.247 554.482 416.442 554.531 416.54 554.531C416.832 554.531 417.1 554.409 417.271 554.165L523.577 415.299C523.382 414.52 523.211 413.74 523.041 412.96" fill="white"/>
</mask>
<g mask="url(#mask1_1182_9276)">
<path d="M109.709 81.0029H536.957V554.58H109.709V81.0029Z" fill="url(#paint1_linear_1182_9276)"/>
</g>
<mask id="mask2_1182_9276" style="mask-type:luminance" maskUnits="userSpaceOnUse" x="98" y="72" width="461" height="488">
<path d="M552.432 255.767L558.256 262.64V262.591V262.542V262.494V262.445V262.396L558.598 262.104V262.055V262.006V261.957V261.909H558.622V261.86V261.811V261.762V261.714V261.665L558.671 261.616V261.568H558.719V261.519V261.47L558.792 261.421V261.373V261.324V261.299V261.251L549.02 249.674L551.579 255.548L552.432 255.767ZM525.136 421.027L427.969 557.577L118.068 468.721L100.131 170.006L398.895 74.1791L546.241 248.432H548.654L399.918 72.5219C399.674 72.2294 399.284 72.1319 398.943 72.2294L98.9123 168.47C98.5223 168.592 98.2542 168.982 98.2786 169.396L116.289 469.476C116.289 469.866 116.581 470.207 116.947 470.305L428.091 559.527C428.091 559.527 428.262 559.551 428.335 559.551C428.627 559.551 428.92 559.405 429.09 559.161L525.843 423.171V423.098V423.025V422.928V422.855V422.781V422.708L525.672 422.172V422.099V422.026V421.953V421.904V421.831V421.758L525.477 421.1V421.027V420.954V420.929L525.136 421.027Z" fill="white"/>
</mask>
<g mask="url(#mask2_1182_9276)">
<path d="M98.2548 72.1069H559.67V559.551H98.2548V72.1069Z" fill="url(#paint2_linear_1182_9276)"/>
</g>
<mask id="mask3_1182_9276" style="mask-type:luminance" maskUnits="userSpaceOnUse" x="86" y="63" width="482" height="502">
<path d="M528.183 429.143L440.277 562.306L117.751 481.882L88.5303 174.71L392.924 65.2354L566.396 256.45C566.908 256.109 567.444 255.768 567.956 255.427L393.874 63.5295C393.63 63.2614 393.241 63.1639 392.875 63.2858L87.2386 173.223C86.8487 173.369 86.6049 173.759 86.6293 174.174L115.972 482.71C116.021 483.1 116.289 483.417 116.679 483.514L440.471 564.255C440.471 564.255 440.618 564.28 440.691 564.28C440.983 564.28 441.276 564.134 441.446 563.866L529.084 431.117C528.768 430.459 528.475 429.801 528.183 429.143Z" fill="white"/>
</mask>
<g mask="url(#mask3_1182_9276)">
<path d="M86.605 63.1636H567.98V564.279H86.605V63.1636Z" fill="url(#paint3_linear_1182_9276)"/>
</g>
<mask id="mask4_1182_9276" style="mask-type:luminance" maskUnits="userSpaceOnUse" x="74" y="54" width="504" height="515">
<path d="M532.326 437.136L453.12 566.74L117.898 495.48L76.735 180.022L386.441 56.2173L575.999 251.063C576.584 250.795 577.193 250.527 577.778 250.259L387.343 54.5113C387.075 54.2432 386.685 54.1701 386.344 54.292L75.3947 178.56C75.0047 178.706 74.761 179.12 74.8341 179.534L116.167 496.357C116.216 496.747 116.508 497.064 116.898 497.137L453.413 568.666C453.413 568.666 453.535 568.666 453.608 568.666C453.925 568.666 454.217 568.495 454.388 568.227L533.471 438.866C533.106 438.281 532.74 437.696 532.375 437.111" fill="white"/>
</mask>
<g mask="url(#mask4_1182_9276)">
<path d="M74.761 54.1455H577.802V568.69H74.761V54.1455Z" fill="url(#paint4_linear_1182_9276)"/>
</g>
<mask id="mask5_1182_9276" style="mask-type:luminance" maskUnits="userSpaceOnUse" x="62" y="45" width="528" height="528">
<path d="M537.663 444.74L466.524 570.811L118.531 509.445L64.7686 185.871L379.447 47.2006L587.672 246.775C588.379 246.58 589.061 246.409 589.768 246.238L380.275 45.4215C380.007 45.1534 379.593 45.1047 379.276 45.2509L63.3795 184.482C62.9896 184.653 62.7702 185.067 62.8433 185.482L116.825 510.42C116.898 510.81 117.191 511.102 117.581 511.175L466.865 572.761C466.865 572.761 466.963 572.761 467.036 572.761C467.353 572.761 467.67 572.59 467.84 572.298L538.955 446.275C538.516 445.763 538.102 445.276 537.687 444.764" fill="white"/>
</mask>
<g mask="url(#mask5_1182_9276)">
<path d="M62.7458 45.1045H589.768V572.76H62.7458V45.1045Z" fill="url(#paint5_linear_1182_9276)"/>
</g>
<mask id="mask6_1182_9276" style="mask-type:luminance" maskUnits="userSpaceOnUse" x="50" y="36" width="556" height="541">
<path d="M544.17 451.808L480.44 574.564L119.652 523.848L52.6077 192.354L371.892 38.1349L602.49 244.191C603.343 244.118 604.196 244.07 605.073 244.021L372.672 36.3315C372.404 36.0878 371.989 36.0147 371.648 36.1853L51.1697 190.99C50.8042 191.185 50.5849 191.599 50.658 192.013L117.971 524.848C118.044 525.238 118.361 525.53 118.75 525.579L480.83 576.465C480.83 576.465 480.928 576.465 480.952 576.465C481.293 576.465 481.61 576.27 481.78 575.978L545.584 453.099C545.121 452.685 544.633 452.246 544.17 451.808Z" fill="white"/>
</mask>
<g mask="url(#mask6_1182_9276)">
<path d="M50.6092 36.0386H605.073V576.489H50.6092V36.0386Z" fill="url(#paint6_linear_1182_9276)"/>
</g>
<mask id="mask7_1182_9276" style="mask-type:luminance" maskUnits="userSpaceOnUse" x="38" y="27" width="589" height="553">
<path d="M551.92 458.144L494.965 577.903L121.383 538.642L40.3736 199.471L363.801 29.069L623.01 244.923C624.253 245.118 625.472 245.337 626.69 245.581L364.508 27.2412C364.215 26.9975 363.825 26.9488 363.484 27.1437L38.887 198.179C38.5214 198.374 38.3265 198.789 38.424 199.203L119.75 539.69C119.847 540.08 120.164 540.348 120.554 540.396L495.428 579.804C495.428 579.804 495.502 579.804 495.526 579.804C495.867 579.804 496.208 579.609 496.354 579.268L553.48 459.168C552.968 458.827 552.456 458.461 551.945 458.12" fill="white"/>
</mask>
<g mask="url(#mask7_1182_9276)">
<path d="M38.302 26.9736H626.69V579.829H38.302V26.9736Z" fill="url(#paint7_linear_1182_9276)"/>
</g>
<mask id="mask8_1182_9276" style="mask-type:luminance" maskUnits="userSpaceOnUse" x="25" y="17" width="631" height="566">
<path d="M653.011 250.966L651.183 255.182C651.72 255.499 652.256 255.816 652.767 256.157L654.985 251.039C655.156 250.649 655.034 250.211 654.717 249.943L355.758 18.1747C355.466 17.9554 355.052 17.9067 354.735 18.1016L26.4335 206.002C26.0679 206.221 25.8973 206.635 25.9949 207.05L122.041 554.945C122.138 555.311 122.48 555.579 122.87 555.628L510.514 582.728C510.514 582.728 510.563 582.728 510.587 582.728C510.953 582.728 511.294 582.509 511.44 582.168L562.522 464.31C561.961 464.042 561.401 463.774 560.865 463.505L510.002 580.852L123.649 553.824L27.9689 207.245L355.125 20.0026L653.011 250.966Z" fill="white"/>
</mask>
<g mask="url(#mask8_1182_9276)">
<path d="M25.8972 17.9307H655.156V582.728H25.8972V17.9307Z" fill="url(#paint8_linear_1182_9276)"/>
</g>
<mask id="mask9_1182_9276" style="mask-type:luminance" maskUnits="userSpaceOnUse" x="13" y="8" width="651" height="578">
<path d="M661.126 238.244L653.839 256.815C654.376 257.156 654.887 257.497 655.399 257.863L663.1 238.269C663.247 237.879 663.1 237.44 662.783 237.196L346.448 9.13276C346.156 8.91342 345.742 8.88905 345.425 9.10839L13.9551 214.507C13.5895 214.726 13.4433 215.165 13.5652 215.555L125.038 570.518C125.16 570.884 125.501 571.152 125.891 571.152L526.257 585.141H526.282C526.672 585.141 526.988 584.921 527.135 584.556L572.806 468.209C572.221 468.038 571.636 467.843 571.051 467.648L525.672 583.264L126.598 569.324L15.5392 215.652L345.863 11.0093L661.126 238.244Z" fill="white"/>
</mask>
<g mask="url(#mask9_1182_9276)">
<path d="M13.4185 8.91406H663.246V585.166H13.4185V8.91406Z" fill="url(#paint9_linear_1182_9276)"/>
</g>
<mask id="mask10_1182_9276" style="mask-type:luminance" maskUnits="userSpaceOnUse" x="0" y="0" width="672" height="588">
<path d="M541.855 585.287H130.156L2.9884 224.865L335.993 2.04107L669.023 224.865L656.983 258.96C657.495 259.325 658.031 259.715 658.543 260.105L670.997 224.792C671.143 224.402 670.997 223.963 670.631 223.719L336.505 0.164504C336.188 -0.0548347 335.798 -0.0548347 335.482 0.164504L1.35553 223.719C1.01434 223.963 0.868103 224.402 0.98999 224.792L128.621 586.506C128.743 586.871 129.108 587.115 129.498 587.115H542.489C542.879 587.115 543.22 586.871 543.366 586.506L584.139 470.914C583.529 470.817 582.92 470.695 582.311 470.573L541.831 585.263L541.855 585.287Z" fill="white"/>
</mask>
<g mask="url(#mask10_1182_9276)">
<path d="M0.868225 -0.0307617H671.143V587.139H0.868225V-0.0307617Z" fill="url(#paint10_linear_1182_9276)"/>
</g>
</g>
<defs>
<linearGradient id="paint0_linear_1182_9276" x1="526.379" y1="319.594" x2="118.165" y2="319.594" gradientUnits="userSpaceOnUse">
<stop stop-color="#B6A36B"/>
<stop offset="1" stop-color="#083355"/>
</linearGradient>
<linearGradient id="paint1_linear_1182_9276" x1="536.957" y1="317.791" x2="109.709" y2="317.791" gradientUnits="userSpaceOnUse">
<stop stop-color="#B6A36B"/>
<stop offset="1" stop-color="#083355"/>
</linearGradient>
<linearGradient id="paint2_linear_1182_9276" x1="559.67" y1="315.841" x2="98.2548" y2="315.841" gradientUnits="userSpaceOnUse">
<stop stop-color="#B6A36B"/>
<stop offset="1" stop-color="#083355"/>
</linearGradient>
<linearGradient id="paint3_linear_1182_9276" x1="567.98" y1="313.722" x2="86.5807" y2="313.722" gradientUnits="userSpaceOnUse">
<stop stop-color="#B6A36B"/>
<stop offset="1" stop-color="#083355"/>
</linearGradient>
<linearGradient id="paint4_linear_1182_9276" x1="577.802" y1="311.43" x2="74.761" y2="311.43" gradientUnits="userSpaceOnUse">
<stop stop-color="#B6A36B"/>
<stop offset="1" stop-color="#083355"/>
</linearGradient>
<linearGradient id="paint5_linear_1182_9276" x1="592.083" y1="308.945" x2="62.8189" y2="308.945" gradientUnits="userSpaceOnUse">
<stop stop-color="#B6A36B"/>
<stop offset="1" stop-color="#083355"/>
</linearGradient>
<linearGradient id="paint6_linear_1182_9276" x1="613.432" y1="306.264" x2="50.6579" y2="306.264" gradientUnits="userSpaceOnUse">
<stop stop-color="#B6A36B"/>
<stop offset="1" stop-color="#083355"/>
</linearGradient>
<linearGradient id="paint7_linear_1182_9276" x1="641.045" y1="303.389" x2="38.3751" y2="303.389" gradientUnits="userSpaceOnUse">
<stop stop-color="#B6A36B"/>
<stop offset="1" stop-color="#083355"/>
</linearGradient>
<linearGradient id="paint8_linear_1182_9276" x1="655.156" y1="300.317" x2="25.9216" y2="300.317" gradientUnits="userSpaceOnUse">
<stop stop-color="#B6A36B"/>
<stop offset="1" stop-color="#083355"/>
</linearGradient>
<linearGradient id="paint9_linear_1182_9276" x1="663.246" y1="297.052" x2="13.4185" y2="297.052" gradientUnits="userSpaceOnUse">
<stop stop-color="#B6A36B"/>
<stop offset="1" stop-color="#083355"/>
</linearGradient>
<linearGradient id="paint10_linear_1182_9276" x1="671.143" y1="293.542" x2="0.868225" y2="293.542" gradientUnits="userSpaceOnUse">
<stop stop-color="#B6A36B"/>
<stop offset="1" stop-color="#083355"/>
</linearGradient>
</defs>
</svg>
