<svg width="531" height="571" viewBox="0 0 531 571" fill="none" xmlns="http://www.w3.org/2000/svg">
<g opacity="0.03">
<mask id="mask0_2506_2605" style="mask-type:luminance" maskUnits="userSpaceOnUse" x="20" y="87" width="398" height="447">
<path d="M24.9999 393.775L138.48 531.76L415.325 430.994L412.626 157.535L134.171 89.2053L22.7507 241.348H20.5251L133.058 87.6663C133.271 87.3822 133.65 87.2402 133.981 87.3349L413.691 155.948C414.094 156.043 414.378 156.398 414.378 156.801L417.077 431.586C417.077 431.965 416.84 432.296 416.485 432.438L138.456 533.63C138.456 533.63 138.243 533.677 138.148 533.677C137.888 533.677 137.627 533.559 137.462 533.346L24.6448 396.166C24.7632 395.361 24.8816 394.556 24.9763 393.751" fill="white"/>
</mask>
<g mask="url(#mask0_2506_2605)">
<path d="M417.124 87.2397H20.5488V533.701H417.124V87.2397Z" fill="white"/>
</g>
<mask id="mask1_2506_2605" style="mask-type:luminance" maskUnits="userSpaceOnUse" x="10" y="78" width="416" height="461">
<path d="M23.7686 401.234L127.565 536.827L416.461 442.951L423.516 161.086L139.048 80.6586L12.5461 241.325H10.2732L138.03 79.0723C138.243 78.7882 138.622 78.6698 138.977 78.7645L424.7 159.524C425.103 159.642 425.363 159.997 425.363 160.4L418.26 443.59C418.26 443.969 418 444.3 417.645 444.419L127.541 538.673C127.541 538.673 127.352 538.721 127.257 538.721C126.973 538.721 126.712 538.602 126.547 538.366L23.2714 403.459C23.4608 402.701 23.6265 401.944 23.7923 401.186" fill="white"/>
</mask>
<g mask="url(#mask1_2506_2605)">
<path d="M425.34 78.6938H10.2732V538.769H425.34V78.6938Z" fill="white"/>
</g>
<mask id="mask2_2506_2605" style="mask-type:luminance" maskUnits="userSpaceOnUse" x="-11" y="70" width="448" height="474">
<path d="M-4.76121 248.475L-10.4198 255.152V255.104V255.057V255.01V254.962V254.915L-10.7513 254.631V254.583V254.536V254.489V254.441H-10.7749V254.394V254.347V254.299V254.252V254.205L-10.8223 254.157V254.11H-10.8696V254.063V254.015L-10.9407 253.968V253.921V253.873V253.85V253.802L-1.44655 242.556L-3.93254 248.262L-4.76121 248.475ZM21.7561 409.023L116.153 541.68L417.219 455.357L434.644 165.159L144.398 72.0641L1.25253 241.349H-1.0914L143.404 70.4542C143.641 70.17 144.02 70.0753 144.351 70.17L435.828 163.667C436.207 163.785 436.467 164.164 436.444 164.567L418.947 456.091C418.947 456.47 418.663 456.801 418.308 456.896L116.034 543.574C116.034 543.574 115.869 543.598 115.798 543.598C115.514 543.598 115.229 543.456 115.064 543.219L21.0695 411.106V411.035V410.964V410.87V410.799V410.728V410.657L21.2352 410.136V410.065V409.994V409.923V409.875V409.804V409.733L21.4246 409.094V409.023V408.952V408.928L21.7561 409.023Z" fill="white"/>
</mask>
<g mask="url(#mask2_2506_2605)">
<path d="M436.467 70.0513H-11.7935V543.598H436.467V70.0513Z" fill="white"/>
</g>
<mask id="mask3_2506_2605" style="mask-type:luminance" maskUnits="userSpaceOnUse" x="-20" y="61" width="468" height="488">
<path d="M18.7967 416.908L104.197 546.274L417.527 468.143L445.914 169.729L150.199 63.3756L-18.3275 249.139C-18.8247 248.807 -19.3456 248.476 -19.8428 248.144L149.276 61.7183C149.513 61.4579 149.891 61.3632 150.247 61.4815L447.169 168.285C447.548 168.427 447.785 168.805 447.761 169.208L419.255 468.948C419.208 469.327 418.947 469.634 418.568 469.729L104.007 548.168C104.007 548.168 103.865 548.192 103.794 548.192C103.51 548.192 103.226 548.05 103.06 547.789L17.9207 418.825C18.2285 418.186 18.5126 417.547 18.7967 416.908Z" fill="white"/>
</mask>
<g mask="url(#mask3_2506_2605)">
<path d="M447.784 61.3628H-19.8667V548.192H447.784V61.3628Z" fill="white"/>
</g>
<mask id="mask4_2506_2605" style="mask-type:luminance" maskUnits="userSpaceOnUse" x="-30" y="52" width="490" height="501">
<path d="M14.7717 424.672L91.7191 550.582L417.384 481.353L457.373 174.889L156.497 54.6144L-27.6559 243.905C-28.2241 243.645 -28.8161 243.384 -29.3843 243.124L155.621 52.9571C155.881 52.6966 156.26 52.6256 156.592 52.744L458.676 173.469C459.054 173.611 459.291 174.013 459.22 174.416L419.065 482.205C419.018 482.584 418.734 482.892 418.355 482.963L91.4351 552.453C91.4351 552.453 91.3167 552.453 91.2456 552.453C90.9378 552.453 90.6537 552.287 90.488 552.026L13.6589 426.353C14.0141 425.785 14.3692 425.217 14.7244 424.649" fill="white"/>
</mask>
<g mask="url(#mask4_2506_2605)">
<path d="M459.291 52.6018H-29.408V552.476H459.291V52.6018Z" fill="white"/>
</g>
<mask id="mask5_2506_2605" style="mask-type:luminance" maskUnits="userSpaceOnUse" x="-42" y="43" width="513" height="514">
<path d="M9.58662 432.06L78.6973 554.536L416.769 494.92L468.998 180.572L163.292 45.8546L-38.9968 239.739C-39.6834 239.549 -40.3464 239.383 -41.033 239.218L162.487 44.1263C162.748 43.8658 163.15 43.8185 163.458 43.9605L470.348 179.222C470.727 179.388 470.94 179.791 470.869 180.193L418.426 495.867C418.355 496.246 418.071 496.53 417.692 496.601L78.3658 556.431C78.3658 556.431 78.2711 556.431 78.2001 556.431C77.8923 556.431 77.5845 556.265 77.4187 555.981L8.33179 433.551C8.75796 433.054 9.16045 432.581 9.56295 432.083" fill="white"/>
</mask>
<g mask="url(#mask5_2506_2605)">
<path d="M470.964 43.8186H-41.033V556.431H470.964V43.8186Z" fill="white"/>
</g>
<mask id="mask6_2506_2605" style="mask-type:luminance" maskUnits="userSpaceOnUse" x="-56" y="35" width="539" height="526">
<path d="M3.2653 438.927L65.1784 558.183L415.68 508.913L480.813 186.87L170.632 37.0479L-53.3917 237.23C-54.2204 237.159 -55.049 237.111 -55.9014 237.064L169.874 35.2959C170.135 35.0591 170.537 34.9881 170.869 35.1538L482.21 185.545C482.565 185.734 482.778 186.137 482.707 186.539L417.314 509.884C417.243 510.263 416.935 510.547 416.556 510.594L64.7996 560.03C64.7996 560.03 64.7049 560.03 64.6812 560.03C64.3497 560.03 64.042 559.841 63.8762 559.557L1.89209 440.181C2.34193 439.779 2.81546 439.353 3.2653 438.927Z" fill="white"/>
</mask>
<g mask="url(#mask6_2506_2605)">
<path d="M482.755 35.0115H-55.9014V560.053H482.755V35.0115Z" fill="white"/>
</g>
<mask id="mask7_2506_2605" style="mask-type:luminance" maskUnits="userSpaceOnUse" x="-77" y="26" width="572" height="538">
<path d="M-4.26421 445.082L51.0669 561.427L413.998 523.285L492.698 193.784L178.492 28.2402L-73.3275 237.94C-74.535 238.129 -75.7188 238.342 -76.9026 238.579L177.805 26.4645C178.089 26.2277 178.468 26.1804 178.8 26.3698L494.142 192.529C494.497 192.718 494.687 193.121 494.592 193.523L415.585 524.303C415.49 524.681 415.182 524.942 414.803 524.989L50.6171 563.273C50.6171 563.273 50.546 563.273 50.5224 563.273C50.1909 563.273 49.8594 563.084 49.7174 562.753L-5.77947 446.077C-5.28227 445.745 -4.78508 445.39 -4.28789 445.059" fill="white"/>
</mask>
<g mask="url(#mask7_2506_2605)">
<path d="M494.71 26.2046H-76.9026V563.298H494.71V26.2046Z" fill="white"/>
</g>
<mask id="mask8_2506_2605" style="mask-type:luminance" maskUnits="userSpaceOnUse" x="-105" y="17" width="612" height="550">
<path d="M-102.473 243.811L-100.697 247.907C-101.218 248.215 -101.739 248.523 -102.236 248.854L-104.39 243.882C-104.556 243.503 -104.438 243.077 -104.13 242.817L186.305 17.6567C186.589 17.4436 186.992 17.3963 187.3 17.5857L506.241 200.129C506.596 200.342 506.762 200.744 506.667 201.147L413.359 539.124C413.265 539.479 412.933 539.739 412.554 539.786L35.9619 566.114C35.9619 566.114 35.9145 566.114 35.8908 566.114C35.5357 566.114 35.2042 565.901 35.0621 565.57L-14.563 451.072C-14.0185 450.812 -13.4739 450.551 -12.9531 450.291L36.459 564.291L411.797 538.034L504.749 201.336L186.921 19.4324L-102.473 243.811Z" fill="white"/>
</mask>
<g mask="url(#mask8_2506_2605)">
<path d="M506.762 17.4194H-104.556V566.114H506.762V17.4194Z" fill="white"/>
</g>
<mask id="mask9_2506_2605" style="mask-type:luminance" maskUnits="userSpaceOnUse" x="-113" y="8" width="632" height="561">
<path d="M-110.357 231.452L-103.277 249.493C-103.798 249.824 -104.295 250.156 -104.793 250.511L-112.274 231.475C-112.416 231.097 -112.274 230.67 -111.967 230.434L195.35 8.87234C195.634 8.65925 196.036 8.63558 196.344 8.84866L518.363 208.391C518.718 208.604 518.86 209.03 518.742 209.409L410.447 554.252C410.329 554.607 409.998 554.868 409.619 554.868L20.6672 568.458H20.6435C20.2647 568.458 19.9569 568.245 19.8148 567.89L-24.5542 454.86C-23.986 454.694 -23.4178 454.505 -22.8495 454.315L21.2354 566.635L408.932 553.092L516.824 209.504L195.918 10.6954L-110.357 231.452Z" fill="white"/>
</mask>
<g mask="url(#mask9_2506_2605)">
<path d="M518.884 8.65967H-112.416V568.482H518.884V8.65967Z" fill="white"/>
</g>
<mask id="mask10_2506_2605" style="mask-type:luminance" maskUnits="userSpaceOnUse" x="-120" y="0" width="651" height="571">
<path d="M5.51427 568.6H405.475L529.017 218.454L205.507 1.98288L-118.028 218.454L-106.332 251.577C-106.829 251.932 -107.35 252.311 -107.847 252.689L-119.946 218.383C-120.088 218.004 -119.946 217.578 -119.59 217.341L205.009 0.159814C205.317 -0.0532713 205.696 -0.0532713 206.004 0.159814L530.604 217.341C530.935 217.578 531.077 218.004 530.959 218.383L406.967 569.784C406.848 570.139 406.493 570.376 406.115 570.376H4.8987C4.51987 570.376 4.18841 570.139 4.04636 569.784L-35.5638 457.488C-34.9719 457.393 -34.38 457.275 -33.7881 457.157L5.53796 568.577L5.51427 568.6Z" fill="white"/>
</mask>
<g mask="url(#mask10_2506_2605)">
<path d="M531.077 -0.0297852H-120.088V570.399H531.077V-0.0297852Z" fill="white"/>
</g>
</g>
</svg>
