<svg width="529" height="588" viewBox="0 0 529 588" fill="none" xmlns="http://www.w3.org/2000/svg">
<g opacity="0.05">
<mask id="mask0_1182_12186" style="mask-type:luminance" maskUnits="userSpaceOnUse" x="118" y="89" width="409" height="461">
<path d="M521.798 405.331L404.988 547.365L120.018 443.642L122.797 162.158L409.424 91.8231L524.113 248.431H526.404L410.569 90.2389C410.35 89.9465 409.96 89.8003 409.619 89.8978L121.7 160.525C121.286 160.622 120.993 160.988 120.993 161.402L118.215 444.252C118.215 444.642 118.459 444.983 118.824 445.129L405.012 549.291C405.012 549.291 405.232 549.339 405.329 549.339C405.597 549.339 405.865 549.217 406.036 548.998L522.164 407.793C522.042 406.964 521.92 406.135 521.823 405.307" fill="white"/>
</mask>
<g mask="url(#mask0_1182_12186)">
<path d="M118.167 89.7998H526.381V549.363H118.167V89.7998Z" fill="url(#paint0_linear_1182_12186)"/>
</g>
<mask id="mask1_1182_12186" style="mask-type:luminance" maskUnits="userSpaceOnUse" x="109" y="81" width="428" height="474">
<path d="M523.066 413.009L416.223 552.581L118.849 455.95L111.586 165.814L404.403 83.0257L534.617 248.407H536.957L405.451 81.3928C405.232 81.1004 404.842 80.9785 404.476 81.076L110.368 164.205C109.953 164.327 109.685 164.693 109.685 165.107L116.996 456.608C116.996 456.998 117.265 457.339 117.63 457.461L416.248 554.482C416.248 554.482 416.443 554.531 416.54 554.531C416.833 554.531 417.101 554.409 417.271 554.165L523.577 415.299C523.382 414.52 523.212 413.74 523.041 412.96" fill="white"/>
</mask>
<g mask="url(#mask1_1182_12186)">
<path d="M109.71 81.0029H536.957V554.58H109.71V81.0029Z" fill="url(#paint1_linear_1182_12186)"/>
</g>
<mask id="mask2_1182_12186" style="mask-type:luminance" maskUnits="userSpaceOnUse" x="98" y="72" width="461" height="488">
<path d="M552.432 255.767L558.257 262.64V262.591V262.542V262.494V262.445V262.396L558.598 262.104V262.055V262.006V261.957V261.909H558.622V261.86V261.811V261.762V261.714V261.665L558.671 261.616V261.568H558.72V261.519V261.47L558.793 261.421V261.373V261.324V261.299V261.251L549.02 249.674L551.579 255.548L552.432 255.767ZM525.137 421.027L427.97 557.577L118.068 468.721L100.131 170.006L398.895 74.1791L546.242 248.432H548.655L399.919 72.5219C399.675 72.2294 399.285 72.1319 398.944 72.2294L98.9128 168.47C98.5228 168.592 98.2547 168.982 98.2791 169.396L116.289 469.476C116.289 469.866 116.582 470.207 116.947 470.305L428.091 559.527C428.091 559.527 428.262 559.551 428.335 559.551C428.628 559.551 428.92 559.405 429.091 559.161L525.843 423.171V423.098V423.025V422.928V422.855V422.781V422.708L525.673 422.172V422.099V422.026V421.953V421.904V421.831V421.758L525.478 421.1V421.027V420.954V420.929L525.137 421.027Z" fill="white"/>
</mask>
<g mask="url(#mask2_1182_12186)">
<path d="M98.2543 72.1069H559.67V559.551H98.2543V72.1069Z" fill="url(#paint2_linear_1182_12186)"/>
</g>
<mask id="mask3_1182_12186" style="mask-type:luminance" maskUnits="userSpaceOnUse" x="86" y="63" width="482" height="502">
<path d="M528.184 429.143L440.277 562.306L117.752 481.882L88.5312 174.71L392.925 65.2354L566.397 256.45C566.909 256.109 567.445 255.768 567.957 255.427L393.875 63.5295C393.631 63.2614 393.242 63.1639 392.876 63.2858L87.2396 173.223C86.8496 173.369 86.6059 173.759 86.6303 174.174L115.973 482.71C116.022 483.1 116.29 483.417 116.68 483.514L440.472 564.255C440.472 564.255 440.619 564.28 440.692 564.28C440.984 564.28 441.277 564.134 441.447 563.866L529.085 431.117C528.769 430.459 528.476 429.801 528.184 429.143Z" fill="white"/>
</mask>
<g mask="url(#mask3_1182_12186)">
<path d="M86.6069 63.1636H567.982V564.279H86.6069V63.1636Z" fill="url(#paint3_linear_1182_12186)"/>
</g>
<mask id="mask4_1182_12186" style="mask-type:luminance" maskUnits="userSpaceOnUse" x="74" y="54" width="504" height="515">
<path d="M532.325 437.136L453.12 566.741L117.897 495.48L76.7346 180.022L386.441 56.2178L575.998 251.064C576.583 250.796 577.192 250.528 577.777 250.259L387.343 54.5118C387.074 54.2437 386.685 54.1706 386.343 54.2925L75.3942 178.56C75.0042 178.706 74.7605 179.121 74.8336 179.535L116.167 496.358C116.216 496.747 116.508 497.064 116.898 497.137L453.412 568.666C453.412 568.666 453.534 568.666 453.607 568.666C453.924 568.666 454.217 568.496 454.387 568.228L533.471 438.866C533.105 438.282 532.74 437.697 532.374 437.112" fill="white"/>
</mask>
<g mask="url(#mask4_1182_12186)">
<path d="M74.7595 54.1455H577.801V568.69H74.7595V54.1455Z" fill="url(#paint4_linear_1182_12186)"/>
</g>
<mask id="mask5_1182_12186" style="mask-type:luminance" maskUnits="userSpaceOnUse" x="62" y="45" width="528" height="528">
<path d="M537.662 444.74L466.524 570.811L118.53 509.445L64.7681 185.871L379.446 47.2006L587.672 246.775C588.378 246.58 589.061 246.409 589.768 246.238L380.275 45.4215C380.007 45.1534 379.592 45.1047 379.275 45.2509L63.379 184.482C62.9891 184.653 62.7697 185.067 62.8428 185.482L116.825 510.42C116.898 510.81 117.19 511.102 117.58 511.175L466.865 572.761C466.865 572.761 466.962 572.761 467.035 572.761C467.352 572.761 467.669 572.59 467.84 572.298L538.954 446.275C538.515 445.763 538.101 445.276 537.687 444.764" fill="white"/>
</mask>
<g mask="url(#mask5_1182_12186)">
<path d="M62.7453 45.1045H589.768V572.76H62.7453V45.1045Z" fill="url(#paint5_linear_1182_12186)"/>
</g>
<mask id="mask6_1182_12186" style="mask-type:luminance" maskUnits="userSpaceOnUse" x="50" y="36" width="556" height="541">
<path d="M544.169 451.807L480.439 574.564L119.651 523.848L52.6067 192.354L371.891 38.1344L602.489 244.191C603.342 244.118 604.195 244.069 605.072 244.02L372.671 36.331C372.403 36.0873 371.988 36.0142 371.647 36.1848L51.1688 190.989C50.8032 191.184 50.5839 191.598 50.657 192.013L117.97 524.847C118.043 525.237 118.36 525.529 118.75 525.578L480.829 576.465C480.829 576.465 480.927 576.465 480.951 576.465C481.292 576.465 481.609 576.27 481.78 575.977L545.583 453.099C545.12 452.685 544.632 452.246 544.169 451.807Z" fill="white"/>
</mask>
<g mask="url(#mask6_1182_12186)">
<path d="M50.6082 36.0381H605.072V576.489H50.6082V36.0381Z" fill="url(#paint6_linear_1182_12186)"/>
</g>
<mask id="mask7_1182_12186" style="mask-type:luminance" maskUnits="userSpaceOnUse" x="38" y="27" width="589" height="553">
<path d="M551.921 458.144L494.966 577.903L121.384 538.642L40.3746 199.471L363.802 29.069L623.011 244.923C624.254 245.118 625.473 245.337 626.691 245.581L364.508 27.2412C364.216 26.9975 363.826 26.9488 363.485 27.1437L38.8879 198.179C38.5223 198.374 38.3275 198.789 38.4249 199.203L119.751 539.69C119.848 540.08 120.165 540.348 120.555 540.396L495.429 579.804C495.429 579.804 495.502 579.804 495.527 579.804C495.868 579.804 496.209 579.609 496.355 579.268L553.481 459.168C552.969 458.827 552.457 458.461 551.946 458.12" fill="white"/>
</mask>
<g mask="url(#mask7_1182_12186)">
<path d="M38.303 26.9736H626.691V579.829H38.303V26.9736Z" fill="url(#paint7_linear_1182_12186)"/>
</g>
<mask id="mask8_1182_12186" style="mask-type:luminance" maskUnits="userSpaceOnUse" x="25" y="17" width="631" height="566">
<path d="M653.011 250.966L651.183 255.182C651.72 255.499 652.256 255.816 652.767 256.157L654.985 251.039C655.156 250.649 655.034 250.211 654.717 249.943L355.758 18.1747C355.466 17.9554 355.052 17.9067 354.735 18.1016L26.4335 206.002C26.0679 206.221 25.8973 206.635 25.9949 207.05L122.041 554.945C122.138 555.311 122.48 555.579 122.87 555.628L510.514 582.728C510.514 582.728 510.563 582.728 510.587 582.728C510.953 582.728 511.294 582.509 511.44 582.168L562.522 464.31C561.961 464.042 561.401 463.774 560.865 463.505L510.002 580.852L123.649 553.824L27.9689 207.245L355.125 20.0026L653.011 250.966Z" fill="white"/>
</mask>
<g mask="url(#mask8_1182_12186)">
<path d="M25.8977 17.9307H655.156V582.728H25.8977V17.9307Z" fill="url(#paint8_linear_1182_12186)"/>
</g>
<mask id="mask9_1182_12186" style="mask-type:luminance" maskUnits="userSpaceOnUse" x="13" y="8" width="651" height="578">
<path d="M661.125 238.245L653.838 256.815C654.375 257.157 654.886 257.498 655.398 257.863L663.099 238.269C663.246 237.879 663.099 237.441 662.783 237.197L346.447 9.13325C346.155 8.91391 345.741 8.88954 345.424 9.10888L13.9542 214.507C13.5886 214.727 13.4423 215.165 13.5642 215.555L125.037 570.519C125.159 570.884 125.5 571.152 125.89 571.152L526.256 585.141H526.281C526.671 585.141 526.987 584.922 527.134 584.556L572.805 468.209C572.22 468.039 571.635 467.844 571.05 467.649L525.671 583.265L126.597 569.324L15.5383 215.653L345.862 11.0098L661.125 238.245Z" fill="white"/>
</mask>
<g mask="url(#mask9_1182_12186)">
<path d="M13.4185 8.91504H663.246V585.167H13.4185V8.91504Z" fill="url(#paint9_linear_1182_12186)"/>
</g>
<mask id="mask10_1182_12186" style="mask-type:luminance" maskUnits="userSpaceOnUse" x="0" y="0" width="672" height="588">
<path d="M541.855 585.287H130.156L2.9884 224.865L335.993 2.04107L669.023 224.865L656.983 258.96C657.495 259.325 658.031 259.715 658.543 260.105L670.997 224.792C671.143 224.402 670.997 223.963 670.631 223.719L336.505 0.164504C336.188 -0.0548347 335.798 -0.0548347 335.482 0.164504L1.35553 223.719C1.01434 223.963 0.868103 224.402 0.98999 224.792L128.621 586.506C128.743 586.871 129.108 587.115 129.498 587.115H542.489C542.879 587.115 543.22 586.871 543.366 586.506L584.139 470.914C583.529 470.817 582.92 470.695 582.311 470.573L541.831 585.263L541.855 585.287Z" fill="white"/>
</mask>
<g mask="url(#mask10_1182_12186)">
<path d="M0.867737 -0.03125H671.143V587.139H0.867737V-0.03125Z" fill="url(#paint10_linear_1182_12186)"/>
</g>
</g>
<defs>
<linearGradient id="paint0_linear_1182_12186" x1="526.381" y1="319.594" x2="118.167" y2="319.594" gradientUnits="userSpaceOnUse">
<stop stop-color="#B6A36B"/>
<stop offset="1" stop-color="#083355"/>
</linearGradient>
<linearGradient id="paint1_linear_1182_12186" x1="536.957" y1="317.791" x2="109.71" y2="317.791" gradientUnits="userSpaceOnUse">
<stop stop-color="#B6A36B"/>
<stop offset="1" stop-color="#083355"/>
</linearGradient>
<linearGradient id="paint2_linear_1182_12186" x1="559.67" y1="315.841" x2="98.2543" y2="315.841" gradientUnits="userSpaceOnUse">
<stop stop-color="#B6A36B"/>
<stop offset="1" stop-color="#083355"/>
</linearGradient>
<linearGradient id="paint3_linear_1182_12186" x1="567.982" y1="313.722" x2="86.5826" y2="313.722" gradientUnits="userSpaceOnUse">
<stop stop-color="#B6A36B"/>
<stop offset="1" stop-color="#083355"/>
</linearGradient>
<linearGradient id="paint4_linear_1182_12186" x1="577.801" y1="311.43" x2="74.7595" y2="311.43" gradientUnits="userSpaceOnUse">
<stop stop-color="#B6A36B"/>
<stop offset="1" stop-color="#083355"/>
</linearGradient>
<linearGradient id="paint5_linear_1182_12186" x1="592.083" y1="308.945" x2="62.8184" y2="308.945" gradientUnits="userSpaceOnUse">
<stop stop-color="#B6A36B"/>
<stop offset="1" stop-color="#083355"/>
</linearGradient>
<linearGradient id="paint6_linear_1182_12186" x1="613.432" y1="306.263" x2="50.657" y2="306.263" gradientUnits="userSpaceOnUse">
<stop stop-color="#B6A36B"/>
<stop offset="1" stop-color="#083355"/>
</linearGradient>
<linearGradient id="paint7_linear_1182_12186" x1="641.046" y1="303.389" x2="38.3761" y2="303.389" gradientUnits="userSpaceOnUse">
<stop stop-color="#B6A36B"/>
<stop offset="1" stop-color="#083355"/>
</linearGradient>
<linearGradient id="paint8_linear_1182_12186" x1="655.156" y1="300.317" x2="25.9221" y2="300.317" gradientUnits="userSpaceOnUse">
<stop stop-color="#B6A36B"/>
<stop offset="1" stop-color="#083355"/>
</linearGradient>
<linearGradient id="paint9_linear_1182_12186" x1="663.246" y1="297.053" x2="13.4185" y2="297.053" gradientUnits="userSpaceOnUse">
<stop stop-color="#B6A36B"/>
<stop offset="1" stop-color="#083355"/>
</linearGradient>
<linearGradient id="paint10_linear_1182_12186" x1="671.143" y1="293.541" x2="0.867737" y2="293.541" gradientUnits="userSpaceOnUse">
<stop stop-color="#B6A36B"/>
<stop offset="1" stop-color="#083355"/>
</linearGradient>
</defs>
</svg>
