<svg width="432" height="588" viewBox="0 0 432 588" fill="none" xmlns="http://www.w3.org/2000/svg">
<g opacity="0.05">
<mask id="mask0_1182_9647" style="mask-type:luminance" maskUnits="userSpaceOnUse" x="118" y="89" width="409" height="461">
<path d="M521.744 405.331L404.934 547.365L119.965 443.642L122.743 162.158L409.37 91.8231L524.06 248.431H526.351L410.515 90.2389C410.296 89.9465 409.906 89.8003 409.565 89.8978L121.646 160.525C121.232 160.622 120.939 160.988 120.939 161.402L118.161 444.252C118.161 444.642 118.405 444.983 118.77 445.129L404.959 549.291C404.959 549.291 405.178 549.339 405.276 549.339C405.544 549.339 405.812 549.217 405.982 548.998L522.11 407.793C521.988 406.964 521.866 406.135 521.769 405.307" fill="white"/>
</mask>
<g mask="url(#mask0_1182_9647)">
<path d="M118.112 89.7998H526.326V549.363H118.112V89.7998Z" fill="url(#paint0_linear_1182_9647)"/>
</g>
<mask id="mask1_1182_9647" style="mask-type:luminance" maskUnits="userSpaceOnUse" x="109" y="81" width="428" height="474">
<path d="M523.012 413.009L416.17 552.581L118.795 455.95L111.533 165.814L404.35 83.0257L534.564 248.407H536.904L405.398 81.3928C405.179 81.1004 404.789 80.9785 404.423 81.076L110.314 164.205C109.9 164.327 109.632 164.693 109.632 165.107L116.943 456.608C116.943 456.998 117.211 457.339 117.577 457.461L416.194 554.482C416.194 554.482 416.389 554.531 416.487 554.531C416.779 554.531 417.047 554.409 417.218 554.165L523.524 415.299C523.329 414.52 523.159 413.74 522.988 412.96" fill="white"/>
</mask>
<g mask="url(#mask1_1182_9647)">
<path d="M109.656 81.0029H536.904V554.58H109.656V81.0029Z" fill="url(#paint1_linear_1182_9647)"/>
</g>
<mask id="mask2_1182_9647" style="mask-type:luminance" maskUnits="userSpaceOnUse" x="98" y="72" width="461" height="488">
<path d="M552.379 255.767L558.204 262.64V262.591V262.542V262.494V262.445V262.396L558.545 262.104V262.055V262.006V261.957V261.909H558.569V261.86V261.811V261.762V261.714V261.665L558.618 261.616V261.568H558.667V261.519V261.47L558.74 261.421V261.373V261.324V261.299V261.251L548.967 249.674L551.526 255.548L552.379 255.767ZM525.083 421.027L427.916 557.577L118.015 468.721L100.078 170.006L398.842 74.1791L546.189 248.432H548.601L399.865 72.5219C399.622 72.2294 399.232 72.1319 398.891 72.2294L98.8595 168.47C98.4696 168.592 98.2015 168.982 98.2259 169.396L116.236 469.476C116.236 469.866 116.528 470.207 116.894 470.305L428.038 559.527C428.038 559.527 428.209 559.551 428.282 559.551C428.574 559.551 428.867 559.405 429.037 559.161L525.79 423.171V423.098V423.025V422.928V422.855V422.781V422.708L525.62 422.172V422.099V422.026V421.953V421.904V421.831V421.758L525.425 421.1V421.027V420.954V420.929L525.083 421.027Z" fill="white"/>
</mask>
<g mask="url(#mask2_1182_9647)">
<path d="M98.2021 72.1069H559.618V559.551H98.2021V72.1069Z" fill="url(#paint2_linear_1182_9647)"/>
</g>
<mask id="mask3_1182_9647" style="mask-type:luminance" maskUnits="userSpaceOnUse" x="86" y="63" width="482" height="502">
<path d="M528.13 429.143L440.224 562.306L117.698 481.882L88.4775 174.71L392.871 65.2354L566.344 256.45C566.855 256.109 567.392 255.768 567.903 255.427L393.821 63.5295C393.578 63.2614 393.188 63.1639 392.822 63.2858L87.1859 173.223C86.7959 173.369 86.5522 173.759 86.5766 174.174L115.919 482.71C115.968 483.1 116.236 483.417 116.626 483.514L440.419 564.255C440.419 564.255 440.565 564.28 440.638 564.28C440.931 564.28 441.223 564.134 441.394 563.866L529.032 431.117C528.715 430.459 528.422 429.801 528.13 429.143Z" fill="white"/>
</mask>
<g mask="url(#mask3_1182_9647)">
<path d="M86.5522 63.1636H567.928V564.279H86.5522V63.1636Z" fill="url(#paint3_linear_1182_9647)"/>
</g>
<mask id="mask4_1182_9647" style="mask-type:luminance" maskUnits="userSpaceOnUse" x="74" y="54" width="504" height="515">
<path d="M532.273 437.136L453.068 566.74L117.845 495.48L76.6823 180.022L386.389 56.2173L575.946 251.063C576.531 250.795 577.14 250.527 577.725 250.259L387.29 54.5113C387.022 54.2432 386.632 54.1701 386.291 54.292L75.3419 178.56C74.952 178.706 74.7083 179.12 74.7814 179.534L116.115 496.357C116.163 496.747 116.456 497.064 116.846 497.137L453.36 568.666C453.36 568.666 453.482 568.666 453.555 568.666C453.872 568.666 454.164 568.495 454.335 568.227L533.419 438.866C533.053 438.281 532.688 437.696 532.322 437.111" fill="white"/>
</mask>
<g mask="url(#mask4_1182_9647)">
<path d="M74.7083 54.1455H577.75V568.69H74.7083V54.1455Z" fill="url(#paint4_linear_1182_9647)"/>
</g>
<mask id="mask5_1182_9647" style="mask-type:luminance" maskUnits="userSpaceOnUse" x="62" y="45" width="528" height="528">
<path d="M537.61 444.74L466.471 570.811L118.478 509.445L64.7158 185.871L379.394 47.2006L587.619 246.775C588.326 246.58 589.009 246.409 589.715 246.238L380.222 45.4215C379.954 45.1534 379.54 45.1047 379.223 45.2509L63.3268 184.482C62.9368 184.653 62.7175 185.067 62.7906 185.482L116.772 510.42C116.845 510.81 117.138 511.102 117.528 511.175L466.813 572.761C466.813 572.761 466.91 572.761 466.983 572.761C467.3 572.761 467.617 572.59 467.787 572.298L538.902 446.275C538.463 445.763 538.049 445.276 537.635 444.764" fill="white"/>
</mask>
<g mask="url(#mask5_1182_9647)">
<path d="M62.6931 45.1045H589.715V572.76H62.6931V45.1045Z" fill="url(#paint5_linear_1182_9647)"/>
</g>
<mask id="mask6_1182_9647" style="mask-type:luminance" maskUnits="userSpaceOnUse" x="50" y="36" width="556" height="541">
<path d="M544.117 451.808L480.387 574.564L119.599 523.848L52.5549 192.354L371.839 38.1349L602.437 244.191C603.29 244.118 604.143 244.07 605.021 244.021L372.619 36.3315C372.351 36.0878 371.937 36.0147 371.595 36.1853L51.117 190.99C50.7515 191.185 50.5322 191.599 50.6053 192.013L117.918 524.848C117.991 525.238 118.308 525.53 118.698 525.579L480.777 576.465C480.777 576.465 480.875 576.465 480.899 576.465C481.24 576.465 481.557 576.27 481.728 575.978L545.531 453.099C545.068 452.685 544.58 452.246 544.117 451.808Z" fill="white"/>
</mask>
<g mask="url(#mask6_1182_9647)">
<path d="M50.5565 36.0386H605.021V576.489H50.5565V36.0386Z" fill="url(#paint6_linear_1182_9647)"/>
</g>
<mask id="mask7_1182_9647" style="mask-type:luminance" maskUnits="userSpaceOnUse" x="38" y="27" width="589" height="553">
<path d="M551.868 458.144L494.913 577.903L121.33 538.642L40.3209 199.471L363.748 29.069L622.958 244.923C624.201 245.118 625.419 245.337 626.638 245.581L364.455 27.2412C364.162 26.9975 363.772 26.9488 363.431 27.1437L38.8342 198.179C38.4686 198.374 38.2737 198.789 38.3712 199.203L119.697 539.69C119.795 540.08 120.111 540.348 120.501 540.396L495.376 579.804C495.376 579.804 495.449 579.804 495.473 579.804C495.814 579.804 496.156 579.609 496.302 579.268L553.427 459.168C552.916 458.827 552.404 458.461 551.892 458.12" fill="white"/>
</mask>
<g mask="url(#mask7_1182_9647)">
<path d="M38.2493 26.9736H626.638V579.829H38.2493V26.9736Z" fill="url(#paint7_linear_1182_9647)"/>
</g>
<mask id="mask8_1182_9647" style="mask-type:luminance" maskUnits="userSpaceOnUse" x="25" y="17" width="631" height="566">
<path d="M652.958 250.966L651.131 255.182C651.667 255.499 652.203 255.816 652.715 256.157L654.933 251.039C655.103 250.649 654.981 250.211 654.664 249.943L355.706 18.1747C355.413 17.9554 354.999 17.9067 354.682 18.1016L26.3808 206.002C26.0152 206.221 25.8446 206.635 25.9421 207.05L121.988 554.945C122.086 555.311 122.427 555.579 122.817 555.628L510.461 582.728C510.461 582.728 510.51 582.728 510.535 582.728C510.9 582.728 511.241 582.509 511.388 582.168L562.469 464.31C561.909 464.042 561.348 463.774 560.812 463.505L509.95 580.852L123.597 553.824L27.9161 207.245L355.072 20.0026L652.958 250.966Z" fill="white"/>
</mask>
<g mask="url(#mask8_1182_9647)">
<path d="M25.8445 17.9307H655.103V582.728H25.8445V17.9307Z" fill="url(#paint8_linear_1182_9647)"/>
</g>
<mask id="mask9_1182_9647" style="mask-type:luminance" maskUnits="userSpaceOnUse" x="13" y="8" width="651" height="578">
<path d="M661.074 238.244L653.787 256.815C654.323 257.156 654.835 257.497 655.346 257.863L663.048 238.269C663.194 237.879 663.048 237.44 662.731 237.196L346.396 9.13276C346.103 8.91342 345.689 8.88905 345.372 9.10839L13.9024 214.507C13.5368 214.726 13.3906 215.165 13.5125 215.555L124.985 570.518C125.107 570.884 125.448 571.152 125.838 571.152L526.205 585.141H526.229C526.619 585.141 526.936 584.921 527.082 584.556L572.753 468.209C572.168 468.038 571.583 467.843 570.998 467.648L525.62 583.264L126.545 569.324L15.4865 215.652L345.811 11.0093L661.074 238.244Z" fill="white"/>
</mask>
<g mask="url(#mask9_1182_9647)">
<path d="M13.3658 8.91406H663.193V585.166H13.3658V8.91406Z" fill="url(#paint9_linear_1182_9647)"/>
</g>
<mask id="mask10_1182_9647" style="mask-type:luminance" maskUnits="userSpaceOnUse" x="0" y="0" width="671" height="588">
<path d="M541.802 585.287H130.103L2.93567 224.865L335.941 2.04107L668.97 224.865L656.931 258.96C657.442 259.325 657.979 259.715 658.49 260.105L670.944 224.792C671.09 224.402 670.944 223.963 670.578 223.719L336.452 0.164504C336.136 -0.0548347 335.746 -0.0548347 335.429 0.164504L1.3028 223.719C0.961609 223.963 0.815369 224.402 0.937256 224.792L128.568 586.506C128.69 586.871 129.055 587.115 129.445 587.115H542.436C542.826 587.115 543.167 586.871 543.313 586.506L584.086 470.914C583.477 470.817 582.867 470.695 582.258 470.573L541.778 585.263L541.802 585.287Z" fill="white"/>
</mask>
<g mask="url(#mask10_1182_9647)">
<path d="M0.815491 -0.0307617H671.09V587.139H0.815491V-0.0307617Z" fill="url(#paint10_linear_1182_9647)"/>
</g>
</g>
<defs>
<linearGradient id="paint0_linear_1182_9647" x1="526.326" y1="319.594" x2="118.112" y2="319.594" gradientUnits="userSpaceOnUse">
<stop stop-color="#B6A36B"/>
<stop offset="1" stop-color="#083355"/>
</linearGradient>
<linearGradient id="paint1_linear_1182_9647" x1="536.904" y1="317.791" x2="109.656" y2="317.791" gradientUnits="userSpaceOnUse">
<stop stop-color="#B6A36B"/>
<stop offset="1" stop-color="#083355"/>
</linearGradient>
<linearGradient id="paint2_linear_1182_9647" x1="559.618" y1="315.841" x2="98.2021" y2="315.841" gradientUnits="userSpaceOnUse">
<stop stop-color="#B6A36B"/>
<stop offset="1" stop-color="#083355"/>
</linearGradient>
<linearGradient id="paint3_linear_1182_9647" x1="567.928" y1="313.722" x2="86.5279" y2="313.722" gradientUnits="userSpaceOnUse">
<stop stop-color="#B6A36B"/>
<stop offset="1" stop-color="#083355"/>
</linearGradient>
<linearGradient id="paint4_linear_1182_9647" x1="577.75" y1="311.43" x2="74.7083" y2="311.43" gradientUnits="userSpaceOnUse">
<stop stop-color="#B6A36B"/>
<stop offset="1" stop-color="#083355"/>
</linearGradient>
<linearGradient id="paint5_linear_1182_9647" x1="592.031" y1="308.945" x2="62.7662" y2="308.945" gradientUnits="userSpaceOnUse">
<stop stop-color="#B6A36B"/>
<stop offset="1" stop-color="#083355"/>
</linearGradient>
<linearGradient id="paint6_linear_1182_9647" x1="613.38" y1="306.264" x2="50.6052" y2="306.264" gradientUnits="userSpaceOnUse">
<stop stop-color="#B6A36B"/>
<stop offset="1" stop-color="#083355"/>
</linearGradient>
<linearGradient id="paint7_linear_1182_9647" x1="640.992" y1="303.389" x2="38.3224" y2="303.389" gradientUnits="userSpaceOnUse">
<stop stop-color="#B6A36B"/>
<stop offset="1" stop-color="#083355"/>
</linearGradient>
<linearGradient id="paint8_linear_1182_9647" x1="655.103" y1="300.317" x2="25.8689" y2="300.317" gradientUnits="userSpaceOnUse">
<stop stop-color="#B6A36B"/>
<stop offset="1" stop-color="#083355"/>
</linearGradient>
<linearGradient id="paint9_linear_1182_9647" x1="663.193" y1="297.052" x2="13.3658" y2="297.052" gradientUnits="userSpaceOnUse">
<stop stop-color="#B6A36B"/>
<stop offset="1" stop-color="#083355"/>
</linearGradient>
<linearGradient id="paint10_linear_1182_9647" x1="671.09" y1="293.542" x2="0.815491" y2="293.542" gradientUnits="userSpaceOnUse">
<stop stop-color="#B6A36B"/>
<stop offset="1" stop-color="#083355"/>
</linearGradient>
</defs>
</svg>
